<?xml version="1.0" encoding="utf-8"?>
<!-- Generator: Adobe Illustrator 21.0.0, SVG Export Plug-In . SVG Version: 6.00 Build 0)  -->
<svg version="1.1" id="Layer_1" xmlns="http://www.w3.org/2000/svg" xmlns:xlink="http://www.w3.org/1999/xlink" x="0px" y="0px"
	 viewBox="0 0 60 63" style="enable-background:new 0 0 60 63;" xml:space="preserve">
<style type="text/css">
	.st0{fill-rule:evenodd;clip-rule:evenodd;fill:#FFC800;}
	.st1{fill:#BD22B3;}
	.st2{fill-rule:evenodd;clip-rule:evenodd;fill:#006ADB;}
	.st3{fill-rule:evenodd;clip-rule:evenodd;fill:#800C72;}
	.st4{fill-rule:evenodd;clip-rule:evenodd;fill:#003A8C;}
	.st5{fill-rule:evenodd;clip-rule:evenodd;fill:#BD22B3;}
	.st6{fill-rule:evenodd;clip-rule:evenodd;fill:#FFF200;}
	.st7{stroke:#231F20;stroke-width:0.55;stroke-miterlimit:10;}
	.st8{fill:none;stroke:#000000;stroke-width:4;stroke-miterlimit:10;}
	.st9{fill:#E9EAEB;}
	.st10{fill:#006ADB;stroke:#003A8C;stroke-width:2;stroke-miterlimit:10;}
	.st11{fill:#FFFFFF;stroke:#003A8C;stroke-width:2;stroke-miterlimit:10;}
	.st12{fill:none;stroke:#003A8C;stroke-width:2;stroke-miterlimit:10;}
	.st13{fill:none;stroke:#BD22B3;stroke-width:2;stroke-miterlimit:10;}
	.st14{fill:none;stroke:#006ADB;stroke-width:2;stroke-miterlimit:10;}
	.st15{fill:#FFFFFF;}
	.st16{fill:#BD22B3;stroke:#BD22B3;stroke-width:2;stroke-miterlimit:10;}
	.st17{fill:#FCB415;}
	.st18{fill:#CA2027;}
	.st19{fill:#1C478D;}
	.st20{fill:#FAB216;}
	.st21{clip-path:url(#XMLID_11_);}
	.st22{clip-path:url(#XMLID_17_);}
	.st23{clip-path:url(#XMLID_18_);}
	.st24{fill:#253B80;}
	.st25{fill:#179BD7;}
	.st26{fill:#222D65;}
	.st27{clip-path:url(#XMLID_22_);}
	.st28{clip-path:url(#XMLID_23_);}
	.st29{clip-path:url(#SVGID_2_);}
	.st30{clip-path:url(#SVGID_4_);}
	.st31{clip-path:url(#SVGID_6_);}
</style>
<g>
	<circle class="st9" cx="40" cy="37" r="20"/>
	<circle class="st10" cx="22" cy="22" r="9"/>
	<path class="st11" d="M23.7,25.3c4.1,0,8.1,1.1,11.3,2.7l0,1.8c2.3-3.2,8.1-4.8,9-3.8c0.6,0.7-1.2,3.8-2.5,6
		c1.8,1.2,3.2,2.9,4.1,4.9c1.1,0.5,2.4,0.8,4.4,0.8c1.7,0,1.3,4.7-0.3,7.7C48.2,48,39,53.6,38,53.8V62h-5l-1.9-4.5
		C28.8,58.2,25.6,59,23,59c-2.9,0-6.3-0.9-9.1-1.8L12.1,62H7.2L6,52.6C3,49.7,1.1,46,1.1,41.9C1.1,32.7,12.2,25.3,23.7,25.3z"/>
	<line class="st12" x1="25" y1="4" x2="25" y2="9"/>
	<line class="st12" x1="25" y1="0" x2="25" y2="2"/>
	<circle class="st11" cx="37.3" cy="38.8" r="2.8"/>
	<line class="st12" x1="18" y1="5" x2="18" y2="21"/>
	<path class="st12" d="M20.1,31c-8,0-14.5,5.6-14.5,12.4"/>
	<g>
		<line class="st13" x1="36" y1="9" x2="36" y2="15"/>
		<line class="st13" x1="33" y1="12" x2="39" y2="12"/>
	</g>
	<g>
		<line class="st13" x1="3" y1="21" x2="3" y2="27"/>
		<line class="st13" x1="0" y1="24" x2="6" y2="24"/>
	</g>
	<circle class="st13" cx="6" cy="6" r="3"/>
</g>
</svg>
