<?xml version="1.0" encoding="utf-8"?>
<!-- Generator: Adobe Illustrator 21.0.0, SVG Export Plug-In . SVG Version: 6.00 Build 0)  -->
<svg version="1.1" id="Layer_1" xmlns="http://www.w3.org/2000/svg" xmlns:xlink="http://www.w3.org/1999/xlink" x="0px" y="0px"
	 viewBox="0 0 62 64" style="enable-background:new 0 0 62 64;" xml:space="preserve">
<style type="text/css">
	.st0{fill-rule:evenodd;clip-rule:evenodd;fill:#FFC800;}
	.st1{fill:#BD22B3;}
	.st2{fill-rule:evenodd;clip-rule:evenodd;fill:#006ADB;}
	.st3{fill-rule:evenodd;clip-rule:evenodd;fill:#800C72;}
	.st4{fill-rule:evenodd;clip-rule:evenodd;fill:#003A8C;}
	.st5{fill-rule:evenodd;clip-rule:evenodd;fill:#BD22B3;}
	.st6{fill-rule:evenodd;clip-rule:evenodd;fill:#FFF200;}
	.st7{stroke:#231F20;stroke-width:0.55;stroke-miterlimit:10;}
	.st8{fill:none;stroke:#000000;stroke-width:4;stroke-miterlimit:10;}
	.st9{fill:#E9EAEB;}
	.st10{fill:#006ADB;stroke:#003A8C;stroke-width:2;stroke-miterlimit:10;}
	.st11{fill:#FFFFFF;stroke:#003A8C;stroke-width:2;stroke-miterlimit:10;}
	.st12{fill:none;stroke:#003A8C;stroke-width:2;stroke-miterlimit:10;}
	.st13{fill:none;stroke:#BD22B3;stroke-width:2;stroke-miterlimit:10;}
	.st14{fill:none;stroke:#006ADB;stroke-width:2;stroke-miterlimit:10;}
	.st15{fill:#FFFFFF;}
	.st16{fill:#BD22B3;stroke:#BD22B3;stroke-width:2;stroke-miterlimit:10;}
	.st17{fill:#FCB415;}
	.st18{fill:#CA2027;}
	.st19{fill:#1C478D;}
	.st20{fill:#FAB216;}
	.st21{clip-path:url(#XMLID_11_);}
	.st22{clip-path:url(#XMLID_17_);}
	.st23{clip-path:url(#XMLID_18_);}
	.st24{fill:#253B80;}
	.st25{fill:#179BD7;}
	.st26{fill:#222D65;}
	.st27{clip-path:url(#XMLID_22_);}
	.st28{clip-path:url(#XMLID_23_);}
	.st29{clip-path:url(#SVGID_2_);}
	.st30{clip-path:url(#SVGID_4_);}
	.st31{clip-path:url(#SVGID_6_);}
</style>
<g>
	<path class="st14" d="M32,15v6H11l-4.2,5.6C6.2,27.4,5,27,5,26v-5H2V1h30v6"/>
	<path class="st12" d="M5,59h7c2.3,0,2.8,3,6,3c0.6,0,8,0,8,0"/>
	<path class="st12" d="M38,46l-5,0c-1.1,0-2,0.9-2,2v2c0,1.1,0.9,2,2,2h5c1.1,0,2-0.9,2-2v-2C40,46.9,39.1,46,38,46z"/>
	<path class="st12" d="M37,40h-5c-1.1,0-2,0.9-2,2v2c0,1.1,0.9,2,2,2h5c1.1,0,2-0.9,2-2v-2C39,40.9,38.1,40,37,40z"/>
	<path class="st12" d="M37,52l-5,0c-1.1,0-2,0.9-2,2v2c0,1.1,0.9,2,2,2h5c1.1,0,2-0.9,2-2v-2C39,52.9,38.1,52,37,52z"/>
	<path class="st12" d="M35,58h-5c-1.1,0-2,0.9-2,2v1c0,1.1,0.9,2,2,2h5c1.1,0,2-0.9,2-2v-1C37,58.9,36.1,58,35,58z"/>
	<path class="st14" d="M45,25h7l4.2,5.6C56.8,31.4,58,31,58,30v-5h3V7H29v4"/>
	<rect x="1" y="40" class="st10" width="10" height="22"/>
	<line class="st14" x1="32" y1="8" x2="32" y2="14"/>
	<polyline class="st13" points="22,31 17,31 17,22 	"/>
	<path class="st13" d="M29,31h6l4.2,5.6C39.8,37.4,41,37,41,36v-5h3V14H17v6"/>
	<line class="st12" x1="6" y1="43" x2="6" y2="47"/>
	<path class="st12" d="M19.2,54c4.7-1.8,7.7-6.2,7.8-11c0,0,0-4.4,0-5c0-0.7,1-2.3,1-5.6c0-3.3-0.6-4.5-2-6.3c-1.4-1.8-4-1.3-4,0.5
		V28c0,4-1.5,6.6-4.1,9.6L14,42h-2"/>
</g>
</svg>
