<?xml version="1.0" encoding="utf-8"?>
<!-- Generator: Adobe Illustrator 21.0.0, SVG Export Plug-In . SVG Version: 6.00 Build 0)  -->
<svg version="1.1" id="Layer_1" xmlns="http://www.w3.org/2000/svg" xmlns:xlink="http://www.w3.org/1999/xlink" x="0px" y="0px"
	 viewBox="0 0 59 35.4" style="enable-background:new 0 0 59 35.4;" xml:space="preserve">
<style type="text/css">
	.st0{fill-rule:evenodd;clip-rule:evenodd;fill:#FFC800;}
	.st1{fill:#BD22B3;}
	.st2{fill-rule:evenodd;clip-rule:evenodd;fill:#006ADB;}
	.st3{fill-rule:evenodd;clip-rule:evenodd;fill:#800C72;}
	.st4{fill-rule:evenodd;clip-rule:evenodd;fill:#003A8C;}
	.st5{fill-rule:evenodd;clip-rule:evenodd;fill:#BD22B3;}
	.st6{fill-rule:evenodd;clip-rule:evenodd;fill:#FFF200;}
	.st7{stroke:#231F20;stroke-width:0.55;stroke-miterlimit:10;}
	.st8{fill:none;stroke:#000000;stroke-width:4;stroke-miterlimit:10;}
	.st9{fill:#E9EAEB;}
	.st10{fill:#006ADB;stroke:#003A8C;stroke-width:2;stroke-miterlimit:10;}
	.st11{fill:#FFFFFF;stroke:#003A8C;stroke-width:2;stroke-miterlimit:10;}
	.st12{fill:none;stroke:#003A8C;stroke-width:2;stroke-miterlimit:10;}
	.st13{fill:none;stroke:#BD22B3;stroke-width:2;stroke-miterlimit:10;}
	.st14{fill:none;stroke:#006ADB;stroke-width:2;stroke-miterlimit:10;}
	.st15{fill:#FFFFFF;}
	.st16{fill:#BD22B3;stroke:#BD22B3;stroke-width:2;stroke-miterlimit:10;}
	.st17{fill:#FCB415;}
	.st18{fill:#CA2027;}
	.st19{fill:#1C478D;}
	.st20{fill:#FAB216;}
	.st21{clip-path:url(#XMLID_11_);}
	.st22{clip-path:url(#XMLID_17_);}
	.st23{clip-path:url(#XMLID_18_);}
	.st24{fill:#253B80;}
	.st25{fill:#179BD7;}
	.st26{fill:#222D65;}
	.st27{clip-path:url(#XMLID_22_);}
	.st28{clip-path:url(#XMLID_23_);}
	.st29{clip-path:url(#SVGID_2_);}
	.st30{clip-path:url(#SVGID_4_);}
	.st31{clip-path:url(#SVGID_6_);}
</style>
<g>
	<path class="st17" d="M59,17.7c0,9.7-7.9,17.7-17.7,17.7c-9.7,0-17.7-8-17.7-17.7C23.6,8,31.5,0,41.2,0C51.1,0,59,8,59,17.7
		L59,17.7z M59,17.7"/>
	<path class="st18" d="M35.3,17.8c0-1.3-0.2-2.5-0.4-3.7H24.1c0.1-0.7,0.3-1.2,0.5-1.9h9.7c-0.2-0.7-0.5-1.3-0.7-1.9h-8.2
		c0.3-0.7,0.7-1.2,1-1.9h6.3c-0.4-0.7-0.8-1.3-1.4-1.9h-3.5c0.6-0.7,1.1-1.2,1.8-1.8c-3.1-2.9-7.3-4.6-11.9-4.6C8,0.3,0,8,0,17.7
		c0,9.7,7.9,17.7,17.7,17.7c4.6,0,8.7-1.8,11.9-4.6c0.7-0.6,1.2-1.2,1.8-1.9h-3.7c-0.5-0.6-0.9-1.2-1.3-1.8h6.3
		c0.4-0.6,0.7-1.2,1-1.9h-8.3c-0.3-0.6-0.6-1.2-0.7-1.9h9.7C34.9,21.6,35.3,19.8,35.3,17.8z"/>
	<path class="st15" d="M24,22.2l0.3-1.6c-0.1,0-0.3,0.1-0.5,0.1c-0.7,0-0.7-0.4-0.7-0.6l0.6-3.3h1l0.3-1.8h-0.9l0.2-1.1h-1.9
		c0,0-1.1,6.2-1.1,6.9c0,1.1,0.7,1.6,1.5,1.6C23.3,22.5,23.8,22.3,24,22.2L24,22.2z M24,22.2"/>
	<path class="st15" d="M24.6,19.2c0,2.6,1.8,3.3,3.3,3.3c1.4,0,2-0.3,2-0.3l0.4-1.8c0,0-1,0.5-2,0.5c-2.1,0-1.7-1.5-1.7-1.5h3.8
		c0,0,0.3-1.2,0.3-1.7c0-1.2-0.7-2.7-2.7-2.7C26,14.8,24.6,16.9,24.6,19.2L24.6,19.2z M27.9,16.5c1,0,0.8,1.2,0.8,1.3h-2.1
		C26.7,17.7,26.9,16.5,27.9,16.5L27.9,16.5z M27.9,16.5"/>
	<path class="st15" d="M39.8,22.2l0.4-2.1c0,0-0.9,0.5-1.6,0.5c-1.3,0-1.9-1-1.9-2.2c0-2.2,1.1-3.5,2.4-3.5c0.9,0,1.7,0.6,1.7,0.6
		l0.3-2c0,0-1.1-0.5-2.2-0.5c-2.2,0-4.3,1.9-4.3,5.4c0,2.3,1.1,3.9,3.4,3.9C38.8,22.5,39.8,22.2,39.8,22.2L39.8,22.2z M39.8,22.2"/>
	<path class="st15" d="M13.7,14.8c-1.3,0-2.2,0.4-2.2,0.4l-0.3,1.6c0,0,0.8-0.4,2.1-0.4c0.7,0,1.2,0.1,1.2,0.7
		c0,0.4-0.1,0.5-0.1,0.5h-0.8c-1.6,0-3.4,0.7-3.4,2.8c0,1.7,1.1,2.1,1.8,2.1c1.3,0,1.9-0.8,2-0.8l-0.1,0.7h1.7l0.7-5.2
		C16.2,14.9,14.3,14.8,13.7,14.8L13.7,14.8z M14,19c0,0.3-0.2,1.8-1.3,1.8c-0.6,0-0.7-0.5-0.7-0.7c0-0.5,0.3-1.1,1.7-1.1
		C14,19,14,19,14,19L14,19z M14,19"/>
	<path class="st15" d="M18,22.4c0.5,0,2.8,0.1,2.8-2.4c0-2.3-2.2-1.9-2.2-2.8c0-0.5,0.4-0.7,1-0.7c0.3,0,1.3,0.1,1.3,0.1l0.3-1.7
		c0,0-0.7-0.2-1.8-0.2c-1.4,0-2.8,0.6-2.8,2.4c0,2.2,2.3,2,2.3,2.8c0,0.6-0.7,0.7-1.1,0.7c-0.8,0-1.7-0.3-1.7-0.3L15.8,22
		C15.9,22.2,16.4,22.4,18,22.4L18,22.4z M18,22.4"/>
	<path class="st15" d="M55.3,13.3L55,15.8c0,0-0.7-0.9-1.8-0.9c-1.7,0-3.2,2.1-3.2,4.5c0,1.5,0.7,3.1,2.3,3.1c1.1,0,1.8-0.7,1.8-0.7
		L54,22.4h1.9l1.4-9L55.3,13.3z M54.5,18.3c0,1-0.5,2.3-1.5,2.3c-0.7,0-1-0.6-1-1.5c0-1.5,0.7-2.4,1.5-2.4
		C54.1,16.7,54.5,17.1,54.5,18.3L54.5,18.3z M54.5,18.3"/>
	<path class="st15" d="M3.5,22.3l1.1-6.7l0.2,6.7h1.3l2.4-6.7l-1,6.7h2l1.5-9H7.9L6,18.8l-0.1-5.5H3.2l-1.5,9H3.5z M3.5,22.3"/>
	<path class="st15" d="M32.5,22.3c0.6-3.1,0.7-5.6,2-5.2c0.2-1.2,0.5-1.7,0.7-2.2h-0.4c-0.8,0-1.5,1.1-1.5,1.1l0.2-1h-1.8l-1.2,7.3
		L32.5,22.3L32.5,22.3z M32.5,22.3"/>
	<path class="st15" d="M44.1,14.8c-1.3,0-2.2,0.4-2.2,0.4l-0.3,1.6c0,0,0.8-0.4,2.1-0.4c0.7,0,1.2,0.1,1.2,0.7
		c0,0.4-0.1,0.5-0.1,0.5h-0.8c-1.6,0-3.4,0.7-3.4,2.8c0,1.7,1.1,2.1,1.8,2.1c1.3,0,1.9-0.8,2-0.8l-0.1,0.7h1.7l0.7-5.2
		C46.7,14.9,44.8,14.8,44.1,14.8L44.1,14.8z M44.6,19c0,0.3-0.2,1.8-1.3,1.8c-0.6,0-0.7-0.5-0.7-0.7c0-0.5,0.3-1.1,1.7-1.1
		C44.5,19,44.5,19,44.6,19L44.6,19z M44.6,19"/>
	<path class="st15" d="M48.2,22.3c0.6-3.1,0.7-5.6,2-5.2c0.2-1.2,0.5-1.7,0.7-2.2h-0.4c-0.8,0-1.5,1.1-1.5,1.1l0.2-1h-1.8l-1.2,7.3
		L48.2,22.3L48.2,22.3z M48.2,22.3"/>
</g>
</svg>
