<?xml version="1.0" encoding="utf-8"?>
<!-- Generator: Adobe Illustrator 21.0.0, SVG Export Plug-In . SVG Version: 6.00 Build 0)  -->
<svg version="1.1" id="Layer_1" xmlns="http://www.w3.org/2000/svg" xmlns:xlink="http://www.w3.org/1999/xlink" x="0px" y="0px"
	 viewBox="0 0 37.4 10" style="enable-background:new 0 0 37.4 10;" xml:space="preserve">
<style type="text/css">
	.st0{fill-rule:evenodd;clip-rule:evenodd;fill:#FFC800;}
	.st1{fill:#BD22B3;}
	.st2{fill-rule:evenodd;clip-rule:evenodd;fill:#006ADB;}
	.st3{fill-rule:evenodd;clip-rule:evenodd;fill:#800C72;}
	.st4{fill-rule:evenodd;clip-rule:evenodd;fill:#003A8C;}
	.st5{fill-rule:evenodd;clip-rule:evenodd;fill:#BD22B3;}
	.st6{fill-rule:evenodd;clip-rule:evenodd;fill:#FFF200;}
	.st7{stroke:#231F20;stroke-width:0.55;stroke-miterlimit:10;}
	.st8{fill:none;stroke:#000000;stroke-width:4;stroke-miterlimit:10;}
	.st9{fill:#E9EAEB;}
	.st10{fill:#006ADB;stroke:#003A8C;stroke-width:2;stroke-miterlimit:10;}
	.st11{fill:#FFFFFF;stroke:#003A8C;stroke-width:2;stroke-miterlimit:10;}
	.st12{fill:none;stroke:#003A8C;stroke-width:2;stroke-miterlimit:10;}
	.st13{fill:none;stroke:#BD22B3;stroke-width:2;stroke-miterlimit:10;}
	.st14{fill:none;stroke:#006ADB;stroke-width:2;stroke-miterlimit:10;}
	.st15{fill:#FFFFFF;}
	.st16{fill:#BD22B3;stroke:#BD22B3;stroke-width:2;stroke-miterlimit:10;}
	.st17{fill:#FCB415;}
	.st18{fill:#CA2027;}
	.st19{fill:#1C478D;}
	.st20{fill:#FAB216;}
	.st21{clip-path:url(#XMLID_11_);}
	.st22{clip-path:url(#XMLID_17_);}
	.st23{clip-path:url(#XMLID_18_);}
	.st24{fill:#253B80;}
	.st25{fill:#179BD7;}
	.st26{fill:#222D65;}
	.st27{clip-path:url(#XMLID_22_);}
	.st28{clip-path:url(#XMLID_23_);}
	.st29{clip-path:url(#SVGID_2_);}
	.st30{clip-path:url(#SVGID_4_);}
	.st31{clip-path:url(#SVGID_6_);}
</style>
<g id="XMLID_4_">
	<g id="XMLID_87_">
		<g id="XMLID_88_">
			<defs>
				<rect id="XMLID_52_" width="37.4" height="10"/>
			</defs>
			<clipPath id="XMLID_9_">
				<use xlink:href="#XMLID_52_"  style="overflow:visible;"/>
			</clipPath>
		</g>
	</g>
	<g id="XMLID_82_">
		<g id="XMLID_83_">
			<defs>
				<rect id="XMLID_50_" width="37.4" height="10"/>
			</defs>
			<clipPath id="XMLID_11_">
				<use xlink:href="#XMLID_50_"  style="overflow:visible;"/>
			</clipPath>
			<g id="XMLID_85_" class="st21">
				<defs>
					<rect id="XMLID_51_" width="37.4" height="10"/>
				</defs>
				<clipPath id="XMLID_16_">
					<use xlink:href="#XMLID_51_"  style="overflow:visible;"/>
				</clipPath>
			</g>
		</g>
	</g>
	<g id="XMLID_75_">
		<g id="XMLID_76_">
			<defs>
				<rect id="XMLID_47_" width="37.4" height="10"/>
			</defs>
			<clipPath id="XMLID_17_">
				<use xlink:href="#XMLID_47_"  style="overflow:visible;"/>
			</clipPath>
			<g id="XMLID_78_" class="st22">
				<defs>
					<rect id="XMLID_48_" width="37.4" height="10"/>
				</defs>
				<clipPath id="XMLID_18_">
					<use xlink:href="#XMLID_48_"  style="overflow:visible;"/>
				</clipPath>
				<g id="XMLID_80_" class="st23">
					<defs>
						<rect id="XMLID_49_" width="37.4" height="10"/>
					</defs>
					<clipPath id="XMLID_19_">
						<use xlink:href="#XMLID_49_"  style="overflow:visible;"/>
					</clipPath>
				</g>
			</g>
		</g>
	</g>
	<g id="XMLID_72_">
		<g id="XMLID_73_">
			<defs>
				<rect id="XMLID_46_" width="37.4" height="10"/>
			</defs>
			<clipPath id="XMLID_20_">
				<use xlink:href="#XMLID_46_"  style="overflow:visible;"/>
			</clipPath>
		</g>
	</g>
	<g id="XMLID_12_">
		<g id="XMLID_13_">
			<g id="XMLID_14_">
				<g id="XMLID_15_">
					<path id="XMLID_57_" class="st24" d="M14.2,4c-0.1,0.7-0.7,0.7-1.2,0.7h-0.3l0.2-1.4c0-0.1,0.1-0.1,0.2-0.1h0.1
						c0.4,0,0.7,0,0.9,0.2C14.2,3.5,14.2,3.7,14.2,4z M13.9,2h-2.1c-0.1,0-0.3,0.1-0.3,0.2l-0.8,5.3c0,0.1,0.1,0.2,0.2,0.2h1
						c0.1,0,0.3-0.1,0.3-0.2l0.2-1.4c0-0.1,0.1-0.2,0.3-0.2h0.7c1.4,0,2.1-0.7,2.3-2c0.1-0.6,0-1-0.3-1.3C15.1,2.2,14.6,2,13.9,2z"
						/>
					<path id="XMLID_54_" class="st24" d="M18.7,5.9c-0.1,0.6-0.5,0.9-1.1,0.9c-0.3,0-0.5-0.1-0.7-0.3c-0.1-0.2-0.2-0.4-0.2-0.7
						c0.1-0.6,0.5-1,1.1-1c0.3,0,0.5,0.1,0.7,0.3C18.7,5.3,18.8,5.6,18.7,5.9z M20.1,3.9h-1C19,3.9,19,4,18.9,4.1l0,0.3l-0.1-0.1
						c-0.2-0.3-0.7-0.4-1.2-0.4c-1.1,0-2,0.8-2.2,2c-0.1,0.6,0,1.1,0.4,1.5c0.3,0.4,0.7,0.5,1.2,0.5c0.9,0,1.4-0.6,1.4-0.6l0,0.3
						c0,0.1,0.1,0.2,0.2,0.2h0.9c0.1,0,0.3-0.1,0.3-0.2l0.5-3.4C20.3,4,20.2,3.9,20.1,3.9z"/>
					<path id="XMLID_33_" class="st24" d="M25.4,3.9h-1c-0.1,0-0.2,0-0.2,0.1l-1.4,2l-0.6-1.9c0-0.1-0.1-0.2-0.3-0.2h-1
						c-0.1,0-0.2,0.1-0.2,0.2l1.1,3.2l-1,1.5c-0.1,0.1,0,0.3,0.1,0.3h1c0.1,0,0.2,0,0.2-0.1l3.3-4.8C25.6,4.1,25.5,3.9,25.4,3.9z"/>
					<path id="XMLID_38_" class="st25" d="M28.9,4c-0.1,0.7-0.7,0.7-1.2,0.7h-0.3l0.2-1.4c0-0.1,0.1-0.1,0.2-0.1h0.1
						c0.4,0,0.7,0,0.9,0.2C28.9,3.5,28.9,3.7,28.9,4z M28.6,2h-2.1c-0.1,0-0.3,0.1-0.3,0.2l-0.8,5.3c0,0.1,0.1,0.2,0.2,0.2h1.1
						c0.1,0,0.2-0.1,0.2-0.2l0.2-1.5c0-0.1,0.1-0.2,0.3-0.2h0.7c1.4,0,2.1-0.7,2.3-2c0.1-0.6,0-1-0.3-1.3C29.9,2.2,29.3,2,28.6,2z"
						/>
					<path id="XMLID_21_" class="st25" d="M33.4,5.9c-0.1,0.6-0.5,0.9-1.1,0.9c-0.3,0-0.5-0.1-0.7-0.3c-0.1-0.2-0.2-0.4-0.2-0.7
						c0.1-0.6,0.5-1,1.1-1c0.3,0,0.5,0.1,0.7,0.3C33.4,5.3,33.5,5.6,33.4,5.9z M34.8,3.9h-1c-0.1,0-0.2,0.1-0.2,0.1l0,0.3l-0.1-0.1
						c-0.2-0.3-0.7-0.4-1.2-0.4c-1.1,0-2,0.8-2.2,2c-0.1,0.6,0,1.1,0.4,1.5c0.3,0.4,0.7,0.5,1.2,0.5c0.9,0,1.4-0.6,1.4-0.6l0,0.3
						c0,0.1,0.1,0.2,0.2,0.2h0.9c0.1,0,0.3-0.1,0.3-0.2L35,4.1C35,4,34.9,3.9,34.8,3.9z"/>
					<path id="XMLID_28_" class="st25" d="M36,2.2l-0.8,5.4c0,0.1,0.1,0.2,0.2,0.2h0.9c0.1,0,0.3-0.1,0.3-0.2l0.8-5.3
						c0-0.1-0.1-0.2-0.2-0.2h-1C36.1,2,36,2.1,36,2.2z"/>
					<path id="XMLID_27_" class="st24" d="M2.2,8.8l0.2-1L2,7.8H0.3l1.2-7.4c0,0,0,0,0-0.1c0,0,0,0,0.1,0h2.8c0.9,0,1.6,0.2,1.9,0.6
						c0.2,0.2,0.3,0.4,0.3,0.6c0.1,0.2,0.1,0.5,0,0.8l0,0v0.2l0.2,0.1C6.9,2.7,7,2.7,7.1,2.8C7.3,3,7.3,3.2,7.4,3.4
						c0,0.2,0,0.5,0,0.8C7.3,4.6,7.2,5,7,5.2C6.9,5.5,6.7,5.7,6.4,5.8C6.2,6,6,6.1,5.7,6.2C5.4,6.2,5.1,6.3,4.8,6.3H4.6
						c-0.2,0-0.3,0.1-0.4,0.2C4,6.5,3.9,6.7,3.9,6.8l0,0.1L3.6,8.7l0,0.1c0,0,0,0,0,0c0,0,0,0,0,0H2.2z"/>
					<path id="XMLID_26_" class="st25" d="M6.9,2.3c0,0.1,0,0.1,0,0.2C6.5,4.4,5.3,5.1,3.6,5.1H2.8c-0.2,0-0.4,0.1-0.4,0.3L2,8.1
						L1.9,8.9c0,0.1,0.1,0.2,0.2,0.2h1.5c0.2,0,0.3-0.1,0.3-0.3l0-0.1L4.2,7l0-0.1c0-0.2,0.2-0.3,0.3-0.3h0.2c1.4,0,2.5-0.6,2.9-2.3
						C7.8,3.6,7.7,3,7.4,2.6C7.2,2.5,7.1,2.4,6.9,2.3z"/>
					<path id="XMLID_25_" class="st26" d="M6.6,2.2c-0.1,0-0.1,0-0.2,0c-0.1,0-0.1,0-0.2,0C6,2,5.7,2,5.5,2H3.2c-0.1,0-0.1,0-0.2,0
						C3,2.1,2.9,2.2,2.9,2.3l-0.5,3l0,0.1c0-0.2,0.2-0.3,0.4-0.3h0.8c1.6,0,2.9-0.7,3.3-2.6c0-0.1,0-0.1,0-0.2
						C6.9,2.3,6.8,2.2,6.6,2.2C6.6,2.2,6.6,2.2,6.6,2.2z"/>
					<path id="XMLID_24_" class="st24" d="M2.9,2.3c0-0.1,0.1-0.2,0.2-0.3c0,0,0.1,0,0.2,0h2.2C5.7,2,6,2,6.2,2.1c0.1,0,0.1,0,0.2,0
						c0.1,0,0.1,0,0.2,0c0,0,0.1,0,0.1,0c0.1,0,0.2,0.1,0.3,0.1c0.1-0.7,0-1.2-0.4-1.6C6.1,0.2,5.4,0,4.4,0H1.6
						C1.4,0,1.2,0.1,1.2,0.3L0,7.8C0,8,0.1,8.1,0.2,8.1H2l0.4-2.8L2.9,2.3z"/>
				</g>
			</g>
		</g>
	</g>
	<g id="XMLID_5_">
		<g id="XMLID_6_">
			<defs>
				<polyline id="XMLID_1_" points="37.4,0 37.4,10 0,10 0,0 				"/>
			</defs>
			<clipPath id="XMLID_22_">
				<use xlink:href="#XMLID_1_"  style="overflow:visible;"/>
			</clipPath>
			<g id="XMLID_8_" class="st27">
				<defs>
					<polyline id="XMLID_2_" points="37.4,0 37.4,10 0,10 0,0 					"/>
				</defs>
				<clipPath id="XMLID_23_">
					<use xlink:href="#XMLID_2_"  style="overflow:visible;"/>
				</clipPath>
				<g id="XMLID_10_" class="st28">
					<defs>
						<polyline id="XMLID_3_" points="37.4,0 37.4,10 0,10 0,0 						"/>
					</defs>
					<clipPath id="XMLID_39_">
						<use xlink:href="#XMLID_3_"  style="overflow:visible;"/>
					</clipPath>
				</g>
			</g>
		</g>
	</g>
</g>
</svg>
