<?xml version="1.0" encoding="UTF-8"?>
<svg width="96px" height="64px" viewBox="0 0 96 64" version="1.1" xmlns="http://www.w3.org/2000/svg" xmlns:xlink="http://www.w3.org/1999/xlink">
    <!-- Generator: Sketch 47 (45396) - http://www.bohemiancoding.com/sketch -->
    <title>Badge / de_de / pay_now / descriptive /pink</title>
    <desc>Created with Sketch.</desc>
    <defs>
        <rect id="path-1" x="0" y="0" width="96" height="64" rx="5"></rect>
    </defs>
    <g id="Badges" stroke="none" stroke-width="1" fill="none" fill-rule="evenodd">
        <g id="DE" transform="translate(-24.000000, -116.000000)">
            <g id="Badge-/-de_de-/-pay_now-/-descriptive-/pink" transform="translate(24.000000, 116.000000)">
                <g id="BG-/-Radius-5">
                    <mask id="mask-2" fill="white">
                        <use xlink:href="#path-1"></use>
                    </mask>
                    <g id="BG"></g>
                    <g id="Color-/-Pink" mask="url(#mask-2)" fill-rule="evenodd" fill="#EB6F93">
                        <rect id="BG" x="0" y="0" width="96" height="64"></rect>
                    </g>
                </g>
                <path d="M28.8106668,57.208 C30.9866668,57.208 32.6506668,55.752 32.6506668,53.608 C32.6506668,51.624 31.2426668,50.76 29.5146668,50.248 C28.4106668,49.928 27.7226668,49.688 27.7226668,48.904 C27.7226668,48.248 28.2026668,47.736 28.9546668,47.736 C29.5946668,47.736 30.0746668,48.104 30.4106668,48.664 L32.2186668,47.528 C31.6586668,46.28 30.3946668,45.64 29.0186668,45.64 C26.8426668,45.64 25.4666668,47.208 25.4666668,49.016 C25.4666668,50.456 26.3306668,51.576 28.4746668,52.2 C29.6426668,52.536 30.3786668,52.76 30.3786668,53.688 C30.3786668,54.552 29.7546668,55.096 28.8426668,55.096 C27.8666668,55.096 27.1306668,54.472 26.6826668,53.896 L25.1786668,55.416 C25.9786668,56.504 27.2906668,57.208 28.8106668,57.208 Z M37.6053334,57.208 C35.3013334,57.208 33.4293334,55.368 33.4293334,53.128 C33.4293334,50.888 35.3013334,49.048 37.6053334,49.048 C39.9093334,49.048 41.7813334,50.888 41.7813334,53.128 C41.7813334,55.368 39.9093334,57.208 37.6053334,57.208 Z M37.6053334,55.16 C38.7253334,55.16 39.6053334,54.28 39.6053334,53.128 C39.6053334,51.976 38.7253334,51.096 37.6053334,51.096 C36.4853334,51.096 35.6053334,51.976 35.6053334,53.128 C35.6053334,54.28 36.4853334,55.16 37.6053334,55.16 Z M47.168,47.848 L47.168,45.8 L46.848,45.8 C44.192,45.8 42.896,47.56 42.896,49.64 L42.896,57 L45.072,57 L45.072,53.768 C45.072,52.696 45.904,51.928 47.104,51.896 L47.104,49.816 C46.24,49.816 45.552,50.072 45.072,50.584 L45.072,49.752 C45.072,48.408 45.952,47.8 47.168,47.848 Z M51.9146667,57.208 C49.6106667,57.208 47.7386667,55.368 47.7386667,53.128 C47.7386667,50.888 49.6106667,49.048 51.9146667,49.048 C54.2186667,49.048 56.0906667,50.888 56.0906667,53.128 C56.0906667,55.368 54.2186667,57.208 51.9146667,57.208 Z M51.9146667,55.16 C53.0346667,55.16 53.9146667,54.28 53.9146667,53.128 C53.9146667,51.976 53.0346667,51.096 51.9146667,51.096 C50.7946667,51.096 49.9146667,51.976 49.9146667,53.128 C49.9146667,54.28 50.7946667,55.16 51.9146667,55.16 Z M59.3813333,50.136 L59.3813333,49.256 L57.2693333,49.256 L57.2693333,57 L59.4453333,57 L59.4453333,53.464 C59.4453333,52.184 60.1973333,51.464 61.5093333,51.464 L61.5093333,49.128 C60.5173333,49.096 59.8133333,49.432 59.3813333,50.136 Z M64.928,53.048 L64.928,51.16 C65.408,51.672 66.096,51.928 66.96,51.928 L66.96,49.848 C65.776,49.816 64.928,49.032 64.928,47.976 L64.928,46.76 L62.752,46.76 L62.752,53.16 C62.752,55.24 64.048,57 66.704,57 L67.024,57 L67.024,54.952 C65.808,55 64.928,54.392 64.928,53.048 Z M69.6266666,57.128 C70.4266666,57.128 71.0826666,56.472 71.0826666,55.672 C71.0826666,54.872 70.4266666,54.216 69.6266666,54.216 C68.8266666,54.216 68.1706666,54.872 68.1706666,55.672 C68.1706666,56.472 68.8266666,57.128 69.6266666,57.128 Z" id="Sofort." fill="#FFFFFF" fill-rule="evenodd"></path>
                <g id="Icons-/-Pay-now-/-White" transform="translate(36.000000, 5.000000)" fill-rule="nonzero" fill="#FFFFFF">
                    <path d="M8.55107133,24.745643 C9.22879411,25.4122308 9.24327745,26.4997109 8.58354713,27.1840838 L8.45110904,27.3230204 C7.79086355,27.998268 6.69897696,28.0148303 6.01224032,27.3537936 L2.17289107,23.5496526 C1.11590922,22.4883871 0.96410333,21.1806239 1.63678914,20.4896552 L1.77159366,20.3482759 C2.32598975,19.7776829 3.22970309,19.7174818 3.86016464,20.2135987 C4.15990129,20.4494647 4.59424066,20.3978748 4.83028878,20.0983694 C5.0663369,19.7988641 5.01470714,19.3648598 4.7149705,19.1289939 C3.5284497,18.1953079 1.82767241,18.3086056 0.775688111,19.39141 L0.64137931,19.5322797 C-0.604692328,20.8121626 -0.354282964,22.9693659 1.19683948,24.526743 L5.04656839,28.3410881 C6.28726435,29.5354532 8.24857838,29.5057029 9.44549924,28.2814411 L9.58132339,28.1390166 C10.7636633,26.9125293 10.7376475,24.9591305 9.52028002,23.7617644 C9.24837962,23.4943313 8.81099605,23.4977827 8.54335646,23.7694733 C8.27571687,24.0411639 8.27917094,24.47821 8.55107133,24.745643 Z" id="_Path_"></path>
                    <path d="M6.25316137,4.12242251 L7.82450265,17.0452935 C7.87051944,17.4237403 8.21485204,17.6932568 8.59359104,17.6472755 C8.97233003,17.6012942 9.24205468,17.2572273 9.19603789,16.8787806 L7.61982167,3.9158176 L7.60423898,3.83165712 C7.33535457,2.75694936 8.00377183,1.55185736 8.89431251,1.3621424 C9.39350944,1.25564667 9.9143927,1.35380329 10.3403167,1.63455315 C10.7662406,1.91530301 11.0615522,2.3551452 11.1600097,2.85541807 L13.8959914,14.5460946 C13.9828807,14.9173062 14.3544774,15.1478494 14.7259757,15.0610271 C15.097474,14.9742048 15.3281952,14.6028949 15.2413059,14.2316832 L12.5104951,2.56501656 C12.3457557,1.72569344 11.8361294,0.966647219 11.1011021,0.482150443 C10.3660749,-0.00234633227 9.46717414,-0.171737568 8.60603358,0.011973129 C6.93120471,0.368767697 5.83076908,2.33107221 6.25316137,4.12242251 Z" id="_Path_2"></path>
                    <path d="M20.6946385,19.3078691 L23.8016655,3.81712838 C24.1627527,2.14965462 23.171098,0.47551642 21.5243733,-0.0135244699 C19.6806639,-0.479631145 17.8331452,0.606305996 17.3518411,2.41523226 L13.9119445,14.2021345 C13.8051409,14.568122 14.01548,14.951328 14.3817501,15.0580493 C14.7480201,15.1647705 15.1315221,14.9545937 15.2383257,14.5886062 L18.6826501,2.78582845 C18.9740354,1.69145566 20.0755418,1.04401067 21.1583367,1.31739288 C22.0849843,1.59320379 22.6596154,2.56331151 22.4491321,3.5355291 L19.3399561,19.0365753 C19.2649826,19.4103719 19.5074605,19.774125 19.8815457,19.8490408 C20.2556309,19.9239565 20.6196649,19.6816657 20.6946385,19.3078691 Z" id="_Path_3"></path>
                    <path d="M12.8691892,34.2319444 C7.94394615,34.2319444 3.83027027,30.6191349 3.83027027,25.4851852 C3.83027027,25.1039553 3.52098374,24.7949074 3.13945946,24.7949074 C2.75793518,24.7949074 2.44864865,25.1039553 2.44864865,25.4851852 C2.44864865,31.4240861 7.21772847,35.6125 12.8691892,35.6125 C13.2507135,35.6125 13.56,35.3034521 13.56,34.9222222 C13.56,34.5409923 13.2507135,34.2319444 12.8691892,34.2319444 Z" id="Shape"></path>
                    <path d="M10.432735,22.1570433 C10.32527,22.5439013 10.0848456,22.8805626 9.75367873,23.1079117 L9.6059963,23.2062097 C8.81135162,23.7403174 7.73737824,23.5331466 7.20041193,22.7442176 L4.18000129,18.2494586 C3.35596459,16.9990586 3.46371228,15.6834862 4.25688098,15.1394828 L4.40481451,15.0410125 C5.42222949,14.4517291 6.28666557,14.8988169 7.17531296,16.1924852 L9.70102318,19.952309 C9.91366027,20.2688394 10.3428334,20.3531945 10.6596081,20.1407214 C10.9763829,19.9282484 11.0608031,19.4994065 10.848166,19.1828762 L8.31843628,15.4171354 C7.06906995,13.5982769 5.52101546,12.7976206 3.67452351,13.8698483 L3.48275305,13.9960245 C1.99799965,15.0142822 1.82065576,17.1796067 3.02954142,19.0139055 L6.05567438,23.5172081 C7.02249844,24.9377201 8.95163568,25.3098531 10.3747579,24.3533116 L10.5280578,24.2511977 C11.1349164,23.8346653 11.5696876,23.2258642 11.7640218,22.52629 C11.8660652,22.1589489 11.650769,21.7785015 11.2831443,21.6765369 C10.9155196,21.5745722 10.5347784,21.7897023 10.432735,22.1570433 Z" id="_Path_4"></path>
                    <path d="M15.0071132,24.4435349 C13.5716937,25.2448408 12.6792061,26.7536409 12.5683793,29.035991 C12.5498892,29.416773 12.8438232,29.7404353 13.2248991,29.7589111 C13.6059751,29.7773869 13.9298874,29.4836798 13.9483774,29.1028979 C14.048744,27.0359645 14.8525076,25.9201363 16.152515,25.4311596 C16.8482268,25.1694788 17.6046979,25.1172637 18.2711038,25.1881316 C18.3606758,25.197657 18.4201821,25.2065197 18.4442402,25.2110001 C19.3337661,25.3766578 19.6045203,24.055905 18.7214531,23.8587418 L13.4090206,22.6726307 C10.9225036,21.9922109 10.5472361,21.0725283 11.0076227,19.5390906 C11.2064187,18.8709365 11.6147718,18.5279857 12.2306776,18.3911484 C12.6373189,18.3008039 13.0941226,18.3120377 13.5282841,18.3880614 C13.6538003,18.4100398 13.7420731,18.4309287 13.7811352,18.4421428 L21.8451208,20.3240568 C21.8985237,20.3343305 21.9361525,20.3447578 22.0020154,20.3745802 C22.1354002,20.4349766 22.2742678,20.5320118 22.4097247,20.6766401 C22.9502905,21.2538059 23.2485509,22.3425546 23.09758,24.130866 C22.571614,30.4000463 19.6483005,34.2928359 12.7195863,34.2319711 C12.3380768,34.2286198 12.0260833,34.5349389 12.0227294,34.9161541 C12.0193755,35.2973692 12.3259312,35.609122 12.7074407,35.6124733 C20.4944029,35.6808773 23.8949457,31.1525921 24.474342,24.2465542 C24.6558214,22.0968603 24.2521788,20.6234324 23.4184922,19.7332994 C22.9588119,19.2424956 22.4737204,19.0228476 22.1015974,18.9687623 L14.1289333,17.1064988 C14.0788208,17.0911991 13.9434651,17.0591685 13.7667652,17.0282275 C13.169132,16.9235791 12.5401983,16.9081123 11.9308051,17.0435027 C10.8493625,17.2837695 10.0333579,17.9690819 9.68377867,19.1440321 C9.0191343,21.3577965 9.72889785,23.0972418 13.0761134,24.0121147 L15.0071132,24.4435349 Z" id="Shape"></path>
                </g>
            </g>
        </g>
    </g>
</svg>