<?xml version="1.0" encoding="utf-8"?>
<!-- Generator: Adobe Illustrator 21.0.0, SVG Export Plug-In . SVG Version: 6.00 Build 0)  -->
<svg version="1.1" id="Layer_1" xmlns="http://www.w3.org/2000/svg" xmlns:xlink="http://www.w3.org/1999/xlink" x="0px" y="0px"
	 viewBox="0 0 62 19.1" style="enable-background:new 0 0 62 19.1;" xml:space="preserve">
<style type="text/css">
	.st0{fill-rule:evenodd;clip-rule:evenodd;fill:#FFC800;}
	.st1{fill:#BD22B3;}
	.st2{fill-rule:evenodd;clip-rule:evenodd;fill:#006ADB;}
	.st3{fill-rule:evenodd;clip-rule:evenodd;fill:#800C72;}
	.st4{fill-rule:evenodd;clip-rule:evenodd;fill:#003A8C;}
	.st5{fill-rule:evenodd;clip-rule:evenodd;fill:#BD22B3;}
	.st6{fill-rule:evenodd;clip-rule:evenodd;fill:#FFF200;}
	.st7{stroke:#231F20;stroke-width:0.55;stroke-miterlimit:10;}
	.st8{fill:none;stroke:#000000;stroke-width:4;stroke-miterlimit:10;}
	.st9{fill:#E9EAEB;}
	.st10{fill:#006ADB;stroke:#003A8C;stroke-width:2;stroke-miterlimit:10;}
	.st11{fill:#FFFFFF;stroke:#003A8C;stroke-width:2;stroke-miterlimit:10;}
	.st12{fill:none;stroke:#003A8C;stroke-width:2;stroke-miterlimit:10;}
	.st13{fill:none;stroke:#BD22B3;stroke-width:2;stroke-miterlimit:10;}
	.st14{fill:none;stroke:#006ADB;stroke-width:2;stroke-miterlimit:10;}
	.st15{fill:#FFFFFF;}
	.st16{fill:#BD22B3;stroke:#BD22B3;stroke-width:2;stroke-miterlimit:10;}
	.st17{fill:#FCB415;}
	.st18{fill:#CA2027;}
	.st19{fill:#1C478D;}
	.st20{fill:#FAB216;}
	.st21{clip-path:url(#XMLID_11_);}
	.st22{clip-path:url(#XMLID_17_);}
	.st23{clip-path:url(#XMLID_18_);}
	.st24{fill:#253B80;}
	.st25{fill:#179BD7;}
	.st26{fill:#222D65;}
	.st27{clip-path:url(#XMLID_22_);}
	.st28{clip-path:url(#XMLID_23_);}
	.st29{clip-path:url(#SVGID_2_);}
	.st30{clip-path:url(#SVGID_4_);}
	.st31{clip-path:url(#SVGID_6_);}
</style>
<g>
	<path class="st19" d="M57.9,0.3H54c-1.2,0-2.1,0.3-2.6,1.5l-7.5,16.9h5.3c0,0,0.9-2.3,1.1-2.8c0.6,0,5.7,0,6.5,0
		c0.1,0.6,0.6,2.8,0.6,2.8H62L57.9,0.3z M51.7,12.3c0.4-1.1,2-5.2,2-5.2c0,0.1,0.4-1.1,0.7-1.8l0.3,1.6c0,0,1,4.4,1.2,5.3H51.7z"/>
	<path class="st19" d="M44.3,12.8c0,3.8-3.5,6.3-8.8,6.3c-2.3,0-4.4-0.5-5.6-1l0.7-4.1l0.7,0.3c1.7,0.7,2.7,1,4.7,1
		c1.5,0,3-0.6,3-1.8c0-0.8-0.7-1.4-2.6-2.3c-1.9-0.9-4.4-2.4-4.4-5C32,2.5,35.5,0,40.5,0c2,0,3.5,0.4,4.5,0.8l-0.7,4l-0.5-0.2
		c-0.9-0.4-2.1-0.7-3.8-0.7c-2,0-2.9,0.8-2.9,1.6c0,0.9,1.1,1.4,2.8,2.3C42.9,9.1,44.3,10.7,44.3,12.8L44.3,12.8z"/>
	<path class="st20" d="M0,0.5l0.1-0.4h7.8c1.1,0,1.9,0.4,2.2,1.5l1.7,8.2C10.1,5.6,6.1,2,0,0.5L0,0.5z"/>
	<path class="st19" d="M22.8,0.3l-7.9,18.5l-5.3,0L5,3.4c3.2,2.1,6,5.4,7,7.7l0.5,1.9l4.9-12.6H22.8z"/>
	<polygon class="st19" points="24.8,0.3 29.9,0.3 26.7,18.8 21.7,18.8 	"/>
</g>
</svg>
