<?xml version="1.0" encoding="utf-8"?>
<!-- Generator: Adobe Illustrator 18.0.0, SVG Export Plug-In . SVG Version: 6.00 Build 0)  -->
<!DOCTYPE svg PUBLIC "-//W3C//DTD SVG 1.1//EN" "http://www.w3.org/Graphics/SVG/1.1/DTD/svg11.dtd">
<svg version="1.1" id="Слой_1" xmlns="http://www.w3.org/2000/svg" xmlns:xlink="http://www.w3.org/1999/xlink" x="0px" y="0px"
	 viewBox="0 362.6 1000 274.7" enable-background="new 0 362.6 1000 274.7" xml:space="preserve">
<g id="Capa_1">
	<g>
		<g>
			<g>
				<path fill="#0A6297" d="M137.4,362.6C61.5,362.6,0,424.1,0,500s61.5,137.4,137.4,137.4S274.7,575.9,274.7,500
					S213.2,362.6,137.4,362.6z M185.3,569.6c-4.1,1.9-8.4,3.5-12.8,4.6c-16.7,4.6-33.5,4.8-50.1-0.6c-20.1-6.5-33.5-20.2-41.4-39.5
					c-1.5-3.7-2.6-7.6-3.7-11.5H61.4c-2.7,0-4.8-2.1-4.8-4.8v-10.6c0-2.7,2.1-4.8,4.8-4.8h13c0-2.9,0-5.7,0-8.7h-13
					c-2.7,0-4.8-2.1-4.8-4.8v-10.6c0-2.7,2.1-4.8,4.8-4.8H78l0.6-1.6c4.5-14.2,12.1-26.3,24-35.5c9.4-7.3,20.2-11.3,31.9-13.2
					c16.6-2.7,32.6-0.4,48.2,5.7c1,0.4,2,0.9,2.9,1.4c3.7,2.2,4.7,5,3,9c-1.8,4.2-3.5,8.4-5.4,12.6c-1.6,3.6-3.9,4.7-7.7,3.8
					c-5.2-1.2-10.4-2.8-15.7-3.9c-11.1-2.3-22.1-2.4-32.9,1.9c-9.3,3.7-14.9,10.7-18.8,19.6c-0.1,0.1-0.1,0.2-0.1,0.3h32.3
					c2.7,0,4.8,2.1,4.8,4.8v10.6c0,2.7-2.1,4.8-4.8,4.8h-36.8c-0.1,2.8,0,5.7,0,8.7h36.9c2.7,0,4.8,2.1,4.8,4.8v10.6
					c0,2.7-2.1,4.8-4.8,4.8h-33.7c4.1,11.6,10.7,20.6,23.1,24.5c9.9,3.1,19.9,2.9,30,0.9c5.2-1.1,10.3-2.7,15.5-3.8
					c4.1-0.9,6.3,0.2,8,3.9c1.9,4.2,3.7,8.4,5.4,12.7C190.3,564.7,189.3,567.8,185.3,569.6z"/>
			</g>
		</g>
	</g>
</g>
<g id="Слой_2">
	<rect x="323.1" y="436.9" fill="none" width="676.9" height="126.2"/>
	<g enable-background="new    ">
		<path fill="#0A6297" d="M360.2,553.9l-35.6-111.1h27.5l13.5,47c3.8,13.2,7.3,25.9,9.9,39.7h0.5c2.8-13.4,6.3-26.5,10.1-39.2
			l14.2-47.5h26.7l-37.4,111.1H360.2z"/>
		<path fill="#0A6297" d="M510.7,512.7c0,29.5-20.9,43-42.5,43c-23.6,0-41.7-15.5-41.7-41.5s17.1-42.7,43-42.7
			C494.2,471.5,510.7,488.5,510.7,512.7z M452.3,513.5c0,13.8,5.8,24.2,16.5,24.2c9.7,0,16-9.7,16-24.2c0-12-4.6-24.2-16-24.2
			C456.8,489.3,452.3,501.7,452.3,513.5z"/>
		<path fill="#0A6297" d="M526.2,499.9c0-11.9-0.3-19.6-0.7-26.5h21.6l0.8,14.8h0.7c4.1-11.7,14-16.6,21.8-16.6c2.3,0,3.5,0,5.3,0.3
			v23.6c-1.8-0.3-4-0.7-6.8-0.7c-9.2,0-15.5,4.9-17.1,12.7c-0.3,1.6-0.5,3.6-0.5,5.6v40.9h-25.1V499.9z"/>
		<path fill="#0A6297" d="M613.4,507.3h0.3c1.8-3.3,3.8-6.6,5.8-9.7l16.3-24.2h30.2L637.1,506l33,48h-30.8l-19.5-33.1l-6.4,7.9v25.2
			h-25.1v-117h25.1V507.3z"/>
		<path fill="#0A6297" d="M724.3,553.9l-1.5-8.1h-0.5c-5.3,6.4-13.5,9.9-23.1,9.9c-16.3,0-26-11.9-26-24.7c0-20.9,18.8-31,47.3-30.8
			V499c0-4.3-2.3-10.4-14.7-10.4c-8.2,0-17,2.8-22.3,6.1l-4.6-16.2c5.6-3.1,16.6-7.1,31.3-7.1c26.9,0,35.4,15.8,35.4,34.8v28
			c0,7.7,0.3,15.2,1.2,19.6H724.3z M721.3,515.9c-13.2-0.2-23.4,3-23.4,12.7c0,6.4,4.3,9.6,9.9,9.6c6.3,0,11.4-4.1,13-9.2
			c0.3-1.3,0.5-2.8,0.5-4.3V515.9z"/>
		<path fill="#0A6297" d="M765.3,532c4.6,2.8,14.2,6.1,21.6,6.1c7.6,0,10.7-2.6,10.7-6.8s-2.5-6.1-11.9-9.2
			c-16.6-5.6-23.1-14.7-22.9-24.2c0-15,12.9-26.4,32.8-26.4c9.4,0,17.8,2.1,22.7,4.6l-4.5,17.3c-3.6-2-10.5-4.6-17.5-4.6
			c-6.1,0-9.6,2.5-9.6,6.6c0,3.8,3.1,5.8,13,9.2c15.3,5.3,21.8,13,21.9,24.9c0,15-11.9,26-34.9,26c-10.5,0-19.9-2.3-26-5.6
			L765.3,532z"/>
		<path fill="#0A6297" d="M836.9,532c4.6,2.8,14.2,6.1,21.6,6.1c7.6,0,10.7-2.6,10.7-6.8s-2.5-6.1-11.9-9.2
			c-16.6-5.6-23.1-14.7-22.9-24.2c0-15,12.9-26.4,32.8-26.4c9.4,0,17.8,2.1,22.7,4.6l-4.5,17.3c-3.6-2-10.5-4.6-17.5-4.6
			c-6.1,0-9.6,2.5-9.6,6.6c0,3.8,3.1,5.8,13,9.2c15.3,5.3,21.8,13,21.9,24.9c0,15-11.9,26-34.9,26c-10.5,0-19.9-2.3-26-5.6
			L836.9,532z"/>
		<path fill="#0A6297" d="M927.9,521.6c0.8,10.4,11,15.3,22.7,15.3c8.6,0,15.5-1.2,22.3-3.3l3.3,17c-8.2,3.3-18.3,4.9-29.2,4.9
			c-27.4,0-43-15.8-43-41c0-20.4,12.7-43,40.7-43c26,0,35.9,20.3,35.9,40.2c0,4.3-0.5,8.1-0.8,9.9H927.9z M957.4,504.5
			c0-6.1-2.6-16.3-14.2-16.3c-10.5,0-14.8,9.6-15.5,16.3H957.4z"/>
	</g>
</g>
</svg>
