<?xml version="1.0" encoding="utf-8"?>
<!-- Generator: Adobe Illustrator 18.0.0, SVG Export Plug-In . SVG Version: 6.00 Build 0)  -->
<!DOCTYPE svg PUBLIC "-//W3C//DTD SVG 1.1//EN" "http://www.w3.org/Graphics/SVG/1.1/DTD/svg11.dtd">
<svg version="1.1" xmlns="http://www.w3.org/2000/svg" xmlns:xlink="http://www.w3.org/1999/xlink" x="0px" y="0px"
	 viewBox="0 0 3639.9 1000" enable-background="new 0 0 3639.9 1000" xml:space="preserve">
<g id="Capa_1">
	<g>
		<g>
			<g>
				<path fill="#0A6297" d="M500,0C223.9,0,0,223.9,0,500s223.9,500,500,500s500-223.9,500-500S776.1,0,500,0z M674.5,753.3
					c-15,6.8-30.7,12.6-46.7,16.9c-60.9,16.9-121.8,17.5-182.5-2.3c-73.3-23.7-121.8-73.7-150.8-143.6c-5.6-13.6-9.3-27.8-13.6-42
					h-57.4c-9.7,0-17.3-7.8-17.3-17.3v-38.7c0-9.7,7.8-17.3,17.3-17.3H271c0-10.7,0-20.8,0-31.5h-47.5c-9.7,0-17.3-7.8-17.3-17.3
					v-38.7c0-9.7,7.8-17.3,17.3-17.3H284l2.1-6c16.3-51.6,44.2-95.9,87.2-129.2c34.2-26.5,73.7-41.2,116-47.9
					c60.3-9.7,118.7-1.4,175.3,20.8c3.7,1.4,7.2,3.1,10.7,5.1c13.6,8,17.1,18.1,11.1,32.7c-6.4,15.2-12.8,30.7-19.8,45.7
					c-6,13-14.2,17.1-28.2,14c-19.1-4.3-37.9-10.3-57-14.2c-40.3-8.2-80.5-8.6-119.8,6.8c-33.7,13.4-54.3,39.1-68.3,71.2
					c-0.2,0.4-0.2,0.8-0.2,1.2h117.5c9.7,0,17.3,7.8,17.3,17.3v38.7c0,9.7-7.8,17.3-17.3,17.3H376.5c-0.2,10.3,0,20.6,0,31.5h134.4
					c9.7,0,17.3,7.8,17.3,17.3v38.7c0,9.7-7.8,17.3-17.3,17.3H388.3c14.8,42.4,38.9,75.1,84.2,89.3c36.2,11.3,72.6,10.7,109.3,3.1
					c18.9-3.9,37.4-9.7,56.4-14c14.8-3.3,22.8,0.6,29,14.2c7,15.2,13.6,30.7,19.8,46.3C692.6,735.4,688.9,746.7,674.5,753.3z"/>
			</g>
		</g>
	</g>
</g>
<g id="Слой_2">
	<rect x="1175.9" y="270.3" fill="none" width="2464" height="459.4"/>
	<text transform="matrix(1 0 0 1 1175.9429 696.3013)" fill="#0A6297" font-family="'MyriadPro-Bold'" font-size="600">Vorkasse</text>
</g>
</svg>
