<?xml version="1.0" encoding="utf-8"?>
<!-- Generator: Adobe Illustrator 22.0.1, SVG Export Plug-In . SVG Version: 6.00 Build 0)  -->
<svg version="1.1" id="Layer_1" xmlns="http://www.w3.org/2000/svg" xmlns:xlink="http://www.w3.org/1999/xlink" x="0px" y="0px"
	 viewBox="0 0 130.88651 22.9984" style="enable-background:new 0 0 130.88651 22.9984;" xml:space="preserve">
<style type="text/css">
	.st0{fill:#FFC800;}
	.st1{fill:#BD22B3;}
</style>
<path id="Fill-1" class="st0" d="M123.54901,18.0024h2.83899l-1.42-4.183L123.54901,18.0024z M130.83501,22.1854
	c0.095,0.227,0.095,0.529-0.321,0.529H128.526c-0.416,0-0.567-0.113-0.71899-0.567l-0.53-1.495h-4.636l-0.53,1.495
	c-0.15201,0.454-0.30301,0.567-0.72,0.567h-1.987c-0.416,0-0.416-0.302-0.32201-0.529l4.20201-11.337
	c0.151-0.398,0.35899-0.587,0.776-0.587h1.81699c0.416,0,0.606,0.189,0.776,0.587L130.83501,22.1854z M118.63,10.2614h-2.55499
	c-0.43501,0-0.56801,0.038-0.94601,0.454l-3.918,4.316v-4.221c0-0.435-0.20799-0.549-0.53-0.549h-1.87399
	c-0.35901,0-0.548,0.114-0.548,0.549v11.356c0,0.435,0.189,0.548,0.548,0.548h1.87399c0.32201,0,0.53-0.113,0.53-0.548v-3.369
	l1.173-1.23c1.02301,1.703,2.707,4.542,2.707,4.542c0.246,0.397,0.492,0.605,0.946,0.605h2.30901c0.36,0,0.435-0.359,0.284-0.605
	l-4.069-6.7l4.258-4.618C118.99001,10.6214,118.99001,10.2614,118.63,10.2614L118.63,10.2614z M106.36801,22.1064l-2.66901-3.887
	c1.174-0.397,2.631-1.782,2.631-3.772c0-1.215-0.39799-2.293-1.09799-2.975c-0.79401-0.794-1.703-1.211-3.76601-1.211h-4.769
	c-0.435,0-0.53,0.208-0.53,0.549v11.352c0,0.439,0.189,0.552,0.53,0.552h1.873c0.341,0,0.549-0.113,0.549-0.552v-9.251h2.51801
	c0.98399,0,1.741,0.625,1.741,1.612c0,0.889-0.871,1.536-1.798,1.536h-0.379c-0.435,0-0.549,0.208-0.549,0.549v1.517
	c0,0.53,0.03799,0.738,0.209,0.965l2.043,3.053c0.265,0.401,0.493,0.571,0.94699,0.571h2.233
	C106.444,22.7144,106.53801,22.3714,106.36801,22.1064L106.36801,22.1064z M87.709,18.0024l1.41901-4.183l1.42,4.183H87.709z
	 M94.99501,22.1854L90.813,10.8484c-0.17101-0.398-0.36-0.587-0.776-0.587H88.22c-0.416,0-0.625,0.189-0.776,0.587l-4.202,11.337
	c-0.09401,0.227-0.09401,0.529,0.32199,0.529h1.98701c0.41699,0,0.56799-0.113,0.72-0.567L86.8,20.6524h4.63701l0.53,1.495
	c0.15199,0.454,0.30299,0.567,0.72,0.567h1.987C95.09001,22.7144,95.09001,22.4124,94.99501,22.1854L94.99501,22.1854z
	 M81.446,10.2614H79.63c-0.625,0-0.72,0.417-0.85201,0.644l-2.612,4.649l-2.593-4.649c-0.151-0.227-0.22699-0.644-0.87-0.644
	h-1.87401c-0.43599,0-0.549,0.208-0.549,0.549v11.356c0,0.435,0.20801,0.548,0.549,0.548H72.703c0.34,0,0.548-0.113,0.548-0.548
	v-6.407l1.91199,3.309c0.09401,0.152,0.246,0.394,0.53001,0.394h0.946c0.284,0,0.45399-0.242,0.549-0.394l1.89301-3.309v6.407
	c0,0.435,0.20799,0.548,0.549,0.548H81.446c0.341,0,0.549-0.113,0.549-0.548v-11.356C81.995,10.4694,81.882,10.2614,81.446,10.2614
	L81.446,10.2614z M61.822,18.0024l1.42-4.183l1.41899,4.183H61.822z M69.10901,22.1854l-4.18301-11.337
	c-0.17-0.398-0.36-0.587-0.77599-0.587H62.333c-0.416,0-0.625,0.189-0.776,0.587l-4.201,11.337
	c-0.095,0.227-0.095,0.529,0.321,0.529H59.665c0.416,0,0.56699-0.113,0.71899-0.567l0.53001-1.495h4.636l0.53101,1.495
	c0.15099,0.454,0.30199,0.567,0.71899,0.567h1.987C69.203,22.7144,69.203,22.4124,69.10901,22.1854L69.10901,22.1854z
	 M56.506,22.1064l-2.669-3.887c1.174-0.397,2.631-1.782,2.631-3.772c0-1.215-0.397-2.293-1.098-2.975
	c-0.795-0.794-1.703-1.211-3.766-1.211h-4.77c-0.43501,0-0.529,0.208-0.529,0.549v11.352c0,0.439,0.189,0.552,0.529,0.552h1.874
	c0.341,0,0.549-0.113,0.549-0.552v-9.251h2.517c0.984,0,1.741,0.625,1.741,1.612c0,0.889-0.87,1.536-1.798,1.536h-0.378
	c-0.435,0-0.549,0.208-0.549,0.549v1.517c0,0.53,0.03799,0.738,0.208,0.965l2.044,3.053c0.265,0.401,0.492,0.571,0.947,0.571h2.233
	C56.58101,22.7144,56.676,22.3714,56.506,22.1064L56.506,22.1064z M44.376,10.2614H35.594c-0.435,0-0.548,0.208-0.548,0.549v1.571
	c0,0.34,0.113,0.549,0.548,0.549h2.915v9.236c0,0.435,0.208,0.548,0.549,0.548h1.874c0.34,0,0.548-0.113,0.548-0.548v-9.236h2.896
	c0.435,0,0.549-0.209,0.549-0.549v-1.571C44.925,10.4694,44.811,10.2614,44.376,10.2614L44.376,10.2614z M33.117,10.2614H31.3
	c-0.34,0-0.549,0.114-0.549,0.549v6.567l-4.012-6.472c-0.246-0.379-0.379-0.644-0.852-0.644H24.108
	c-0.435,0-0.549,0.208-0.549,0.549v11.356c0,0.435,0.209,0.548,0.549,0.548h1.874c0.341,0,0.549-0.113,0.549-0.548v-6.587
	l4.012,6.492c0.246,0.379,0.379,0.643,0.852,0.643h1.722c0.435,0,0.549-0.208,0.549-0.548v-11.356
	C33.666,10.3754,33.458,10.2614,33.117,10.2614L33.117,10.2614z M18.678,18.4564c0,1.211-0.87,1.912-2.119,1.912
	c-1.231,0-2.101-0.701-2.101-1.912v-3.937c0-1.211,0.87-1.911,2.101-1.911c1.249,0,2.119,0.7,2.119,1.911V18.4564z
	 M21.65001,14.2554c0-2.991-2.839-4.278-5.091-4.278s-5.054,1.287-5.054,4.278v4.466c0,2.99,2.802,4.277,5.054,4.277
	s5.091-1.287,5.091-4.277V14.2554z M10.372,10.2614H7.817c-0.435,0-0.568,0.038-0.947,0.454l-3.917,4.316v-4.221
	c0-0.435-0.208-0.549-0.53-0.549H0.549c-0.359,0-0.549,0.114-0.549,0.549v11.356c0,0.435,0.19,0.548,0.549,0.548h1.874
	c0.322,0,0.53-0.113,0.53-0.548v-3.369l1.173-1.23c1.022,1.703,2.707,4.542,2.707,4.542c0.246,0.397,0.492,0.605,0.946,0.605h2.309
	c0.36,0,0.435-0.359,0.284-0.605l-4.069-6.7l4.258-4.618C10.732,10.6214,10.732,10.2614,10.372,10.2614L10.372,10.2614z"/>
<path id="Fill-3" class="st1" d="M126.3459,6.267h-3.85899V4.67h3.242c0.278,0,0.351-0.133,0.351-0.351V3.376
	c0-0.218-0.073-0.351-0.351-0.351h-3.242V1.706h3.653c0.27899,0,0.351-0.133,0.351-0.351V0.351c0-0.217-0.07201-0.351-0.351-0.351
	h-5.214c-0.278,0-0.351,0.134-0.351,0.351V7.61c0,0.218,0.073,0.351,0.351,0.351h5.42c0.278,0,0.351-0.133,0.351-0.351V6.618
	C126.6969,6.4,126.6239,6.267,126.3459,6.267L126.3459,6.267z M117.12691,5.069c0,0.775-0.556,1.21-1.355,1.21h-1.16101V1.682
	h1.16101c0.799,0,1.355,0.448,1.355,1.21V5.069z M115.77191,0h-2.709c-0.278,0-0.35101,0.134-0.35101,0.351V7.61
	c0,0.218,0.07301,0.351,0.35101,0.351h2.709c1.43999,0,3.25499-0.823,3.25499-2.722V2.723C119.0269,0.835,117.2119,0,115.77191,0
	L115.77191,0z M110.77591,5.916h-1.343c-0.217,0-0.35001,0.073-0.35001,0.351V7.61c0,0.278,0.13301,0.351,0.35001,0.351h1.343
	c0.218,0,0.351-0.073,0.351-0.351V6.267C111.12691,5.989,110.99391,5.916,110.77591,5.916L110.77591,5.916z"/>
</svg>
