<?xml version="1.0" encoding="utf-8"?>
<!-- Generator: Adobe Illustrator 22.0.1, SVG Export Plug-In . SVG Version: 6.00 Build 0)  -->
<svg version="1.1" id="Layer_1" xmlns="http://www.w3.org/2000/svg" xmlns:xlink="http://www.w3.org/1999/xlink" x="0px" y="0px"
	 viewBox="0 0 42.40457 42.4" style="enable-background:new 0 0 42.40457 42.4;" xml:space="preserve">
<style type="text/css">
	.st0{fill:#006ADB;}
	.st1{fill:#800C72;}
	.st2{fill:#003A8C;}
	.st3{fill:#BD22B3;}
	.st4{filter:url(#Adobe_OpacityMaskFilter);}
	.st5{fill:#FFFFFF;}
	.st6{mask:url(#mask-2_2_);fill:#FFC800;}
	.st7{fill:#FFF200;}
	.st8{fill:#FFC800;}
</style>
<path id="Fill-5_1_" class="st0" d="M6.65574,14.89635l26.618,0.236l4.468,25.407l-0.86,1.283c-0.247-0.885-0.962-1.535-2.025-1.535
	s-2.103,0.941-2.103,2.103h-2.621c0-1.162-0.941-2.103-2.103-2.103c-1.162,0-2.103,0.941-2.103,2.103h-2.621
	c0-1.162-0.942-2.103-2.103-2.103c-1.162,0-2.103,0.941-2.103,2.103h-2.621c0-1.162-0.942-2.103-2.103-2.103
	c-1.162,0-2.103,0.941-2.103,2.103h-2.621c-0.001-1.161-0.943-2.101-2.103-2.101c-0.945,0-1.744,0.623-2.01,1.48l-1.693-0.649
	L6.65574,14.89635z"/>
<polygon id="Fill-7_1_" class="st1" points="8.81464,30.35615 14.43764,19.05015 9.09663,13.53415 2.57664,11.15015 
	2.57664,13.90515 3.27764,15.85615 6.65563,19.51715 8.50663,21.13715 "/>
<path id="Fill-9_1_" class="st2" d="M12.09064,28.73425l-5.435,5.04l-0.016,3.814c4.795-2.737,10.345-6.199,14.563-9.068
	c4.634,3.152,9.696,6.29,14.563,9.068l-0.017-3.814l-5.434-5.04l-9.112-3.543L12.09064,28.73425z"/>
<path id="Fill-11_1_" class="st3" d="M8.81464,30.35615l0.983-9.905c-2.853-2.425-4.899-4.221-7.221-6.546v28.485h2.869
	c0-0.209,0.031-0.421,0.094-0.621l1.32-4.647l0.814-2.866l1.652-2.165L8.81464,30.35615z"/>
<defs>
	<filter id="Adobe_OpacityMaskFilter" filterUnits="userSpaceOnUse" x="2.57604" y="10.30275" width="14.891" height="9.187">
		<feColorMatrix  type="matrix" values="1 0 0 0 0  0 1 0 0 0  0 0 1 0 0  0 0 0 1 0"/>
	</filter>
</defs>
<mask maskUnits="userSpaceOnUse" x="2.57604" y="10.30275" width="14.891" height="9.187" id="mask-2_2_">
	<g class="st4">
		<polygon id="path-1_2_" class="st5" points="2.57644,10.30275 2.57644,19.48975 17.46704,19.48975 17.46704,10.30275 		"/>
	</g>
</mask>
<path id="Fill-13_1_" class="st6" d="M16.14104,10.30275c-4.501,0.121-9.018,0.403-13.565,0.847c3.035,2.809,6.323,5.594,9.865,8.34
	l5.026-3.639L16.14104,10.30275z"/>
<polygon id="Fill-16_1_" class="st1" points="33.59023,30.35615 27.96724,19.05015 33.30824,13.53415 39.82824,11.15015 
	39.82824,13.90515 39.48223,15.07815 35.74923,19.51715 33.89824,21.13715 "/>
<path id="Fill-18_1_" class="st3" d="M33.59023,30.35615l-0.983-9.905c2.853-2.425,4.899-4.221,7.221-6.546v28.485h-2.868
	c-0.001-0.209-0.032-0.421-0.094-0.621l-1.321-4.647l-0.814-2.866l-1.692-2.273L33.59023,30.35615z"/>
<path id="Fill-20_1_" class="st7" d="M26.25054,10.30445v5.546l3.695,3.64c3.555-2.752,6.848-5.536,9.883-8.334
	C35.26254,10.70945,30.74253,10.42645,26.25054,10.30445"/>
<path id="Fill-22_1_" class="st8" d="M21.20234,0.00965c1.761,3.206,3.448,6.63,5.061,10.293c0.636,1.444,1.26,2.924,1.872,4.443
	c0.62,1.537,1.229,3.117,1.827,4.744c1.676,4.552,3.268,9.463,4.768,14.766c-4.795-2.737-9.31-5.556-13.528-8.425l-2.309-11.1
	L21.20234,0.00965z"/>
<path id="Fill-24_1_" class="st7" d="M21.20234,0.00965c-1.761,3.206-3.448,6.63-5.061,10.293c-0.636,1.444-1.26,2.924-1.872,4.443
	c-0.62,1.537-1.229,3.117-1.828,4.744c-1.675,4.552-3.267,9.463-4.768,14.766c4.795-2.737,9.311-5.556,13.529-8.425V0.00965z"/>
</svg>
