<svg version="1" xmlns="http://www.w3.org/2000/svg" width="933.333" height="933.333" viewBox="0 0 700.000000 700.000000"><path d="M346.7 6.2c-1.5 2.9-4.4 8.4-6.5 12.3-2.2 3.8-5.3 9.6-7.1 12.8-7.5 13.7-33.3 66-44.6 90.2-1.3 2.7-6.8 14.6-12.3 26.4-6.7 14.4-10.6 21.5-11.7 21.7-.9.1-10.3.5-20.8.9-28.7.9-35.5 1.2-68.2 3-11.2.6-23.3 1.4-30.5 2-3 .2-8.9.7-13 1-19.9 1.4-30.4 2.3-38 3-2.5.3-7 .7-10 1-3 .3-7.5.7-10 1-5.1.5-11.2 1.1-22 2.1-4.1.3-7.7.8-8 1-.2.3.8 1.5 2.3 2.8 1.4 1.3 5.5 4.9 9 8.2 9.9 9.2 22.4 20.4 32.2 28.9 5 4.3 12.1 10.5 15.9 13.9 5.3 4.7 37.3 31.4 46.6 38.9.8.7 5.3 4.3 10 8 4.7 3.8 9.2 7.4 10 8 .8.7 9.1 7 18.3 14.1 12.5 9.6 16.6 13.4 16.1 14.5-.3.9-5.1 14.9-10.6 31.1-5.5 16.2-11.5 33.8-13.3 39-4.5 13-19 57.8-27 84-3.7 11.8-7.2 21.9-7.7 22.5-.7.7-.9.7-.5 0 .3-.6.8-5.1 1.2-10 .4-5 .9-9.7 1-10.6.2-.9.6-5.2 1-9.5s.8-9 1.1-10.4c.2-1.4.6-5.4.9-9 .3-3.6.8-8.1 1-10 .3-1.9.7-6.7 1.1-10.5.3-3.9.7-8.1.9-9.5.2-1.4.7-5.9 1-10 .4-4.1.9-8.3 1.1-9.2.1-.9.6-5.9.9-11 .4-5.1.8-9.5 1-9.8.2-.3.6-4.3 1-9s.9-9.9 1.1-11.5c.2-1.7.6-5.9.9-9.5.4-3.6.8-7.7 1.1-9.1.4-2.8-1.1-4.4-15.2-16.4-8.2-7-28.8-24.8-29.4-25.5-.3-.3-5.7-5-12-10.6-6.3-5.5-13.1-11.6-15.1-13.5-2-1.9-7.4-6.8-12-11S65.7 251.5 61 247c-4.7-4.6-10.6-10.3-13.3-12.9l-4.7-4.5V700h47.7l.5-3.8c.9-6.4 5.8-15.3 11.4-20.9 13.3-13 34.5-12.8 47.8.4 4.7 4.6 8.5 12.4 9.3 19.2l.6 5.1 21.6-.2c13.5-.2 21.6-.7 21.6-1.3.9-16.9 12.4-29.7 28.9-32.3 6.6-1 15.2.1 21.3 2.8 8 3.5 16.3 13.9 17.8 22.4 1.1 5.9 1.3 7.1 1.4 7.8.1.5 9.8.8 21.6.8H316v-2.9c0-6.3 4.5-16.3 9.6-21.4 6.7-6.7 15.2-10 25.4-9.9 18.6.2 33 14 33.9 32.4.1 1.7 1.8 1.8 21.6 1.8 21.3 0 22-.1 21.7-3.1-.1-.3.5-2.9 1.3-5.8 4.1-15.5 17.1-25.4 33.4-25.3 10.9 0 21 4.7 27.2 12.4 3.1 3.9 6.7 13.3 7.1 18.2l.2 3.6H540v-2.5c0-12.3 11.6-26.6 24.8-30.5 13.8-4.1 31.7 1.7 37.9 12.2 2.5 4.2 6.3 15.4 6.3 18.5v2.3h48V229.6l-6.2 6.1c-29.2 28.4-42.2 40.4-68.3 63.3-17.6 15.4-17.2 15.1-28 24-14.9 12.4-16.5 14.1-16 16.4.2 1.2.7 5.2 1 9.1.3 3.8.8 8.6 1 10.5.2 1.9.6 6.6 1 10.5.3 3.8.8 8.9 1 11.2.8 7.1 1.4 12.5 2 18.8.3 3.3.8 7.8 1 10 .2 2.2.7 6.7 1 10 .3 3.3.8 7.8 1 10 .3 2.2.7 7.1 1 11 .3 3.8.8 8.1 1 9.5.2 1.4.7 5.9 1 10 .4 4.1.8 8.8 1 10.5.3 1.6.7 5.9 1 9.5.3 3.6.8 8.3 1 10.5.5 4.2-2.5-4.7-9.1-26.5-2-6.3-3.9-12.4-4.4-13.5-.5-1.1-5.1-15.1-10.4-31-9.5-29.1-15.1-45.5-22.4-66-2.2-6.1-5.8-16-8-22.2l-4-11.1 18.1-14.4c15.9-12.6 68.6-56 72.7-59.9 1.5-1.4 3.2-2.9 16-13.9 6.2-5.3 38.4-33.8 46.4-41 6.2-5.5 7.8-7.1 7.4-7.5-.1-.2-3.9-.6-8.3-1-9.4-.7-15.7-1.3-24-2-3.3-.2-9.4-.7-13.5-1-4.1-.3-9.7-.8-12.5-1-2.7-.2-9.3-.7-14.5-1-5.2-.3-11.7-.8-14.5-1-9-.7-19.8-1.5-29.5-2-5.2-.3-13.3-.7-18-1-15.5-.9-28.3-1.5-43-2-35.8-1.2-43.5-1.6-44.1-2.3-.3-.4-2-4.1-3.9-8.2-1.8-4.1-5.7-12.5-8.6-18.5-2.8-6.1-6.5-13.9-8.2-17.5-11.1-24-38.2-79.1-46-93.5-2.1-3.9-6.6-12.3-10.1-18.8-3.4-6.4-6.6-11.7-7-11.7-.4 0-1.9 2.4-3.4 5.2zm32.3 438c14.6 9.6 34.2 22.3 43.5 28.3 9.4 5.9 21.3 13.6 26.5 17 17.6 11.4 73.3 45.2 99.6 60.4l26.1 15.1 3.3 12.2c1.9 6.8 3.5 12.7 3.6 13.3.2.5 2.1 7.7 4.4 15.8 2.3 8.2 4 15.1 3.7 15.3-.3.3-41.6-24.4-68.2-40.9-62.3-38.6-93.6-58.5-138.7-88.4-17-11.2-31.4-20.6-32.1-20.9-.7-.2-14.4 8.2-30.4 18.8-16 10.6-34.1 22.4-40.2 26.3-6.1 3.8-13.9 8.8-17.4 11-33.9 21.9-148.5 91.1-149.3 90.2-.4-.4 3.9-16.2 10.8-40.7 4-13.8 1-11.2 38.3-32.9 48.9-28.4 104.3-62.9 166.5-103.9 11.8-7.8 22-14 22.5-13.8.6.2 13 8.2 27.5 17.8z"/></svg>