<?xml version="1.0" encoding="utf-8"?>
<!-- Generator: Adobe Illustrator 22.0.1, SVG Export Plug-In . SVG Version: 6.00 Build 0)  -->
<svg version="1.1" id="Layer_1" xmlns="http://www.w3.org/2000/svg" xmlns:xlink="http://www.w3.org/1999/xlink" x="0px" y="0px"
	 viewBox="0 0 876 812" enable-background="new 0 0 876 812" xml:space="preserve">
<rect fill="#B0DDFF" width="876" height="812"/>
<g id="Контуры">
	<path fill="#EDEDED" d="M626.3,0H249.7v79.2c0,10.9,8.8,19.7,19.7,19.7h337.2c10.9,0,19.7-8.8,19.7-19.7V0z"/>
	<g>
		<line fill="none" stroke="#5F5F5F" stroke-miterlimit="10" x1="438.8" y1="132.5" x2="438.8" y2="136.5"/>
		
			<line fill="none" stroke="#5F5F5F" stroke-miterlimit="10" stroke-dasharray="8.0831,8.0831" x1="438.8" y1="144.6" x2="438.8" y2="771"/>
		<line fill="none" stroke="#5F5F5F" stroke-miterlimit="10" x1="438.8" y1="775.1" x2="438.8" y2="779.1"/>
	</g>
</g>
<g id="Текст">
	<g>
		<g enable-background="new    ">
			<path fill="#020203" d="M161.481,759.357v-0.833c0.816-0.816,1.541-1.553,2.176-2.21s1.167-1.267,1.598-1.827
				c0.431-0.562,0.759-1.077,0.986-1.548c0.227-0.47,0.34-0.926,0.34-1.368c0-0.623-0.17-1.133-0.51-1.53
				c-0.34-0.396-0.856-0.595-1.547-0.595c-0.454,0-0.873,0.128-1.258,0.383s-0.737,0.563-1.054,0.927l-0.799-0.8
				c0.453-0.498,0.935-0.897,1.445-1.198c0.51-0.3,1.122-0.45,1.836-0.45c1.008,0,1.802,0.292,2.38,0.875
				c0.578,0.584,0.867,1.357,0.867,2.321c0,0.51-0.111,1.022-0.332,1.538c-0.221,0.516-0.527,1.049-0.918,1.598
				c-0.391,0.55-0.856,1.122-1.394,1.717c-0.539,0.596-1.13,1.228-1.776,1.896c0.294-0.022,0.601-0.045,0.918-0.067
				c0.317-0.022,0.617-0.034,0.901-0.034h3.145v1.207H161.481z"/>
			<path fill="#020203" d="M174.418,759.357v-2.992h-4.879v-0.918l4.641-6.936h1.564v6.731h1.479v1.122h-1.479v2.992H174.418z
				 M171.018,755.243h3.4v-3.145c0-0.295,0.008-0.644,0.025-1.046s0.037-0.75,0.06-1.045h-0.068
				c-0.136,0.261-0.278,0.516-0.425,0.765c-0.147,0.249-0.3,0.504-0.459,0.765L171.018,755.243z"/>
		</g>
		<g enable-background="new    ">
			<path fill="#020203" d="M161.481,718.566v-0.833c0.816-0.816,1.541-1.553,2.176-2.21s1.167-1.267,1.598-1.827
				c0.431-0.562,0.759-1.077,0.986-1.548c0.227-0.47,0.34-0.926,0.34-1.368c0-0.623-0.17-1.133-0.51-1.53
				c-0.34-0.396-0.856-0.595-1.547-0.595c-0.454,0-0.873,0.128-1.258,0.383s-0.737,0.563-1.054,0.927l-0.799-0.8
				c0.453-0.498,0.935-0.897,1.445-1.198c0.51-0.3,1.122-0.45,1.836-0.45c1.008,0,1.802,0.292,2.38,0.875
				c0.578,0.584,0.867,1.357,0.867,2.321c0,0.51-0.111,1.022-0.332,1.538c-0.221,0.516-0.527,1.049-0.918,1.598
				c-0.391,0.55-0.856,1.122-1.394,1.717c-0.539,0.596-1.13,1.228-1.776,1.896c0.294-0.022,0.601-0.045,0.918-0.067
				c0.317-0.022,0.617-0.034,0.901-0.034h3.145v1.207H161.481z"/>
			<path fill="#020203" d="M169.93,718.566v-0.833c0.816-0.816,1.541-1.553,2.176-2.21s1.167-1.267,1.598-1.827
				c0.431-0.562,0.759-1.077,0.986-1.548c0.227-0.47,0.34-0.926,0.34-1.368c0-0.623-0.17-1.133-0.51-1.53
				c-0.34-0.396-0.856-0.595-1.547-0.595c-0.454,0-0.873,0.128-1.258,0.383s-0.737,0.563-1.054,0.927l-0.799-0.8
				c0.453-0.498,0.935-0.897,1.445-1.198c0.51-0.3,1.122-0.45,1.836-0.45c1.008,0,1.802,0.292,2.38,0.875
				c0.578,0.584,0.867,1.357,0.867,2.321c0,0.51-0.111,1.022-0.332,1.538c-0.221,0.516-0.527,1.049-0.918,1.598
				c-0.391,0.55-0.856,1.122-1.394,1.717c-0.539,0.596-1.13,1.228-1.776,1.896c0.294-0.022,0.601-0.045,0.918-0.067
				c0.317-0.022,0.617-0.034,0.901-0.034h3.145v1.207H169.93z"/>
		</g>
		<g enable-background="new    ">
			<path fill="#020203" d="M161.481,692.484v-0.834c0.816-0.816,1.541-1.553,2.176-2.209c0.635-0.658,1.167-1.268,1.598-1.828
				c0.431-0.561,0.759-1.076,0.986-1.547s0.34-0.926,0.34-1.369c0-0.623-0.17-1.133-0.51-1.529s-0.856-0.596-1.547-0.596
				c-0.454,0-0.873,0.129-1.258,0.383c-0.385,0.256-0.737,0.564-1.054,0.928l-0.799-0.801c0.453-0.498,0.935-0.896,1.445-1.197
				c0.51-0.301,1.122-0.451,1.836-0.451c1.008,0,1.802,0.293,2.38,0.875c0.578,0.584,0.867,1.357,0.867,2.322
				c0,0.51-0.111,1.021-0.332,1.537c-0.221,0.516-0.527,1.049-0.918,1.598c-0.391,0.551-0.856,1.123-1.394,1.717
				c-0.539,0.596-1.13,1.229-1.776,1.896c0.294-0.023,0.601-0.045,0.918-0.068c0.317-0.021,0.617-0.033,0.901-0.033h3.145v1.207
				H161.481z"/>
			<path fill="#020203" d="M170.593,692.484v-1.156h2.482v-7.99h-1.972v-0.9c0.499-0.092,0.932-0.201,1.3-0.332
				s0.7-0.287,0.995-0.467h1.071v9.689h2.244v1.156H170.593z"/>
		</g>
		<g enable-background="new    ">
			<path fill="#020203" d="M312.479,733.274v-0.833c0.816-0.816,1.541-1.553,2.176-2.21s1.167-1.267,1.598-1.827
				c0.431-0.562,0.759-1.077,0.986-1.548c0.227-0.47,0.34-0.926,0.34-1.368c0-0.623-0.17-1.133-0.51-1.53
				c-0.34-0.396-0.856-0.595-1.547-0.595c-0.454,0-0.873,0.128-1.258,0.383s-0.737,0.563-1.054,0.927l-0.799-0.8
				c0.453-0.498,0.935-0.897,1.445-1.198c0.51-0.3,1.122-0.45,1.836-0.45c1.008,0,1.802,0.292,2.38,0.875
				c0.578,0.584,0.867,1.357,0.867,2.321c0,0.51-0.111,1.022-0.332,1.538c-0.221,0.516-0.527,1.049-0.918,1.598
				c-0.391,0.55-0.856,1.122-1.394,1.717c-0.539,0.596-1.13,1.228-1.776,1.896c0.294-0.022,0.601-0.045,0.918-0.067
				c0.317-0.022,0.617-0.034,0.901-0.034h3.145v1.207H312.479z"/>
			<path fill="#020203" d="M324.259,733.479c-0.431,0-0.825-0.043-1.182-0.128s-0.683-0.198-0.978-0.34
				c-0.295-0.142-0.559-0.303-0.791-0.484c-0.232-0.181-0.439-0.374-0.621-0.578l0.714-0.918c0.329,0.34,0.711,0.641,1.148,0.901
				c0.436,0.261,0.977,0.391,1.623,0.391c0.657,0,1.196-0.179,1.615-0.535c0.419-0.357,0.629-0.842,0.629-1.454
				c0-0.316-0.06-0.608-0.178-0.875c-0.119-0.267-0.314-0.496-0.587-0.688c-0.272-0.192-0.629-0.34-1.071-0.442
				c-0.442-0.102-0.986-0.152-1.632-0.152v-1.071c0.578,0,1.062-0.051,1.454-0.153c0.391-0.102,0.708-0.243,0.952-0.425
				c0.244-0.181,0.417-0.396,0.519-0.646c0.102-0.25,0.153-0.516,0.153-0.8c0-0.532-0.167-0.952-0.501-1.258
				s-0.791-0.459-1.368-0.459c-0.454,0-0.87,0.103-1.25,0.306c-0.38,0.204-0.734,0.471-1.062,0.8l-0.748-0.885
				c0.419-0.396,0.881-0.722,1.385-0.978c0.504-0.255,1.08-0.382,1.726-0.382c0.476,0,0.912,0.062,1.309,0.187
				c0.396,0.125,0.739,0.304,1.028,0.536s0.513,0.519,0.672,0.858c0.158,0.34,0.238,0.73,0.238,1.173
				c0,0.657-0.182,1.195-0.544,1.615c-0.363,0.419-0.839,0.742-1.428,0.969v0.068c0.329,0.079,0.635,0.195,0.918,0.348
				c0.283,0.153,0.533,0.347,0.748,0.578c0.215,0.232,0.383,0.502,0.501,0.808c0.119,0.307,0.179,0.646,0.179,1.021
				c0,0.476-0.094,0.906-0.281,1.292c-0.187,0.385-0.442,0.711-0.765,0.978c-0.323,0.266-0.7,0.47-1.131,0.611
				S324.758,733.479,324.259,733.479z"/>
		</g>
		<g enable-background="new    ">
			<path fill="#020203" d="M312.479,707.191v-0.833c0.816-0.816,1.541-1.553,2.176-2.21s1.167-1.267,1.598-1.827
				c0.431-0.562,0.759-1.077,0.986-1.548c0.227-0.47,0.34-0.926,0.34-1.368c0-0.623-0.17-1.133-0.51-1.53
				c-0.34-0.396-0.856-0.595-1.547-0.595c-0.454,0-0.873,0.128-1.258,0.383s-0.737,0.563-1.054,0.927l-0.799-0.8
				c0.453-0.498,0.935-0.897,1.445-1.198c0.51-0.3,1.122-0.45,1.836-0.45c1.008,0,1.802,0.292,2.38,0.875
				c0.578,0.584,0.867,1.357,0.867,2.321c0,0.51-0.111,1.022-0.332,1.538c-0.221,0.516-0.527,1.049-0.918,1.598
				c-0.391,0.55-0.856,1.122-1.394,1.717c-0.539,0.596-1.13,1.228-1.776,1.896c0.294-0.022,0.601-0.045,0.918-0.067
				c0.317-0.022,0.617-0.034,0.901-0.034h3.145v1.207H312.479z"/>
			<path fill="#020203" d="M320.927,707.191v-0.833c0.816-0.816,1.541-1.553,2.176-2.21s1.167-1.267,1.598-1.827
				c0.431-0.562,0.759-1.077,0.986-1.548c0.227-0.47,0.34-0.926,0.34-1.368c0-0.623-0.17-1.133-0.51-1.53
				c-0.34-0.396-0.856-0.595-1.547-0.595c-0.454,0-0.873,0.128-1.258,0.383s-0.737,0.563-1.054,0.927l-0.799-0.8
				c0.453-0.498,0.935-0.897,1.445-1.198c0.51-0.3,1.122-0.45,1.836-0.45c1.008,0,1.802,0.292,2.38,0.875
				c0.578,0.584,0.867,1.357,0.867,2.321c0,0.51-0.111,1.022-0.332,1.538c-0.221,0.516-0.527,1.049-0.918,1.598
				c-0.391,0.55-0.856,1.122-1.394,1.717c-0.539,0.596-1.13,1.228-1.776,1.896c0.294-0.022,0.601-0.045,0.918-0.067
				c0.317-0.022,0.617-0.034,0.901-0.034h3.145v1.207H320.927z"/>
		</g>
		<g enable-background="new    ">
			<path fill="#020203" d="M312.479,681.108v-0.833c0.816-0.816,1.541-1.553,2.176-2.21s1.167-1.267,1.598-1.827
				c0.431-0.562,0.759-1.077,0.986-1.548c0.227-0.47,0.34-0.926,0.34-1.368c0-0.623-0.17-1.133-0.51-1.53
				c-0.34-0.396-0.856-0.595-1.547-0.595c-0.454,0-0.873,0.128-1.258,0.383s-0.737,0.563-1.054,0.927l-0.799-0.8
				c0.453-0.498,0.935-0.897,1.445-1.198c0.51-0.3,1.122-0.45,1.836-0.45c1.008,0,1.802,0.292,2.38,0.875
				c0.578,0.584,0.867,1.357,0.867,2.321c0,0.51-0.111,1.022-0.332,1.538c-0.221,0.516-0.527,1.049-0.918,1.598
				c-0.391,0.55-0.856,1.122-1.394,1.717c-0.539,0.596-1.13,1.228-1.776,1.896c0.294-0.022,0.601-0.045,0.918-0.067
				c0.317-0.022,0.617-0.034,0.901-0.034h3.145v1.207H312.479z"/>
			<path fill="#020203" d="M321.59,681.108v-1.156h2.482v-7.99H322.1v-0.9c0.499-0.091,0.932-0.201,1.3-0.332
				c0.368-0.13,0.7-0.286,0.995-0.467h1.071v9.689h2.244v1.156H321.59z"/>
		</g>
		<g enable-background="new    ">
			<path fill="#020203" d="M84.981,655.026v-0.833c0.816-0.816,1.541-1.553,2.176-2.21s1.167-1.267,1.598-1.827
				c0.431-0.562,0.759-1.077,0.986-1.548c0.227-0.47,0.34-0.926,0.34-1.368c0-0.623-0.17-1.133-0.51-1.53
				c-0.34-0.396-0.856-0.595-1.547-0.595c-0.454,0-0.873,0.128-1.258,0.383s-0.737,0.563-1.054,0.927l-0.799-0.8
				c0.453-0.498,0.935-0.897,1.445-1.198c0.51-0.3,1.122-0.45,1.836-0.45c1.008,0,1.802,0.292,2.38,0.875
				c0.578,0.584,0.867,1.357,0.867,2.321c0,0.51-0.111,1.022-0.332,1.538c-0.221,0.516-0.527,1.049-0.918,1.598
				c-0.391,0.55-0.856,1.122-1.394,1.717c-0.539,0.596-1.13,1.228-1.776,1.896c0.294-0.022,0.601-0.045,0.918-0.067
				c0.317-0.022,0.617-0.034,0.901-0.034h3.145v1.207H84.981z"/>
			<path fill="#020203" d="M96.983,655.23c-1.099,0-1.955-0.487-2.567-1.462s-0.918-2.374-0.918-4.199
				c0-1.824,0.306-3.213,0.918-4.165s1.468-1.428,2.567-1.428c1.088,0,1.938,0.476,2.55,1.428c0.612,0.952,0.918,2.341,0.918,4.165
				c0,1.825-0.306,3.225-0.918,4.199C98.921,654.743,98.071,655.23,96.983,655.23z M96.983,654.108c0.317,0,0.604-0.088,0.858-0.264
				c0.255-0.176,0.476-0.447,0.663-0.815s0.332-0.839,0.434-1.411s0.153-1.256,0.153-2.049s-0.051-1.473-0.153-2.04
				c-0.102-0.566-0.247-1.028-0.434-1.386c-0.187-0.356-0.408-0.62-0.663-0.79c-0.255-0.17-0.541-0.255-0.858-0.255
				s-0.606,0.085-0.867,0.255c-0.261,0.17-0.485,0.434-0.672,0.79c-0.187,0.357-0.332,0.819-0.433,1.386
				c-0.102,0.567-0.153,1.247-0.153,2.04c0,1.587,0.196,2.74,0.586,3.46C95.835,653.749,96.348,654.108,96.983,654.108z"/>
		</g>
		<g enable-background="new    ">
			<path fill="#020203" d="M85.644,628.943v-1.156h2.482v-7.99h-1.972v-0.9c0.499-0.091,0.932-0.201,1.3-0.332
				c0.368-0.13,0.7-0.286,0.995-0.467h1.071v9.689h2.244v1.156H85.644z"/>
			<path fill="#020203" d="M96.235,629.147c-0.578,0-1.085-0.108-1.521-0.323c-0.437-0.215-0.802-0.487-1.096-0.815l0.782-0.885
				c0.227,0.261,0.496,0.471,0.808,0.629c0.312,0.159,0.638,0.238,0.978,0.238c0.385,0,0.748-0.079,1.088-0.238
				c0.34-0.158,0.64-0.422,0.901-0.79s0.47-0.847,0.629-1.437c0.159-0.589,0.244-1.32,0.255-2.193
				c-0.34,0.432-0.737,0.771-1.19,1.021c-0.454,0.249-0.907,0.374-1.36,0.374c-0.941,0-1.688-0.277-2.244-0.833
				c-0.556-0.556-0.833-1.395-0.833-2.517c0-0.521,0.085-0.994,0.255-1.419s0.399-0.791,0.688-1.097s0.629-0.544,1.02-0.714
				s0.802-0.255,1.232-0.255c0.533,0,1.028,0.107,1.487,0.323c0.459,0.215,0.856,0.541,1.19,0.978
				c0.334,0.436,0.595,0.979,0.782,1.632c0.187,0.651,0.281,1.414,0.281,2.286c0,1.088-0.114,2.015-0.34,2.779
				c-0.227,0.766-0.533,1.389-0.918,1.87c-0.385,0.482-0.824,0.833-1.317,1.054C97.297,629.037,96.779,629.147,96.235,629.147z
				 M96.745,623.674c0.362,0,0.745-0.113,1.147-0.341c0.402-0.227,0.779-0.595,1.13-1.104c-0.091-1.065-0.34-1.87-0.748-2.414
				c-0.408-0.544-0.958-0.816-1.649-0.816c-0.261,0-0.507,0.058-0.739,0.17c-0.232,0.114-0.434,0.275-0.604,0.485
				c-0.17,0.209-0.304,0.462-0.4,0.756c-0.096,0.295-0.145,0.618-0.145,0.969c0,0.715,0.165,1.275,0.493,1.684
				S96.065,623.674,96.745,623.674z"/>
		</g>
		<g enable-background="new    ">
			<path fill="#020203" d="M85.644,602.86v-1.156h2.482v-7.99h-1.972v-0.9c0.499-0.091,0.932-0.201,1.3-0.332
				c0.368-0.13,0.7-0.286,0.995-0.467h1.071v9.689h2.244v1.156H85.644z"/>
			<path fill="#020203" d="M97,603.064c-0.51,0-0.983-0.074-1.419-0.221c-0.437-0.147-0.811-0.354-1.122-0.621
				c-0.312-0.266-0.558-0.58-0.739-0.943c-0.182-0.362-0.272-0.759-0.272-1.19c0-0.351,0.06-0.677,0.179-0.977
				c0.119-0.301,0.272-0.572,0.459-0.816c0.187-0.243,0.402-0.459,0.646-0.646c0.244-0.187,0.496-0.348,0.756-0.484v-0.067
				c-0.396-0.283-0.748-0.626-1.054-1.028c-0.306-0.402-0.459-0.893-0.459-1.471c0-0.42,0.079-0.799,0.238-1.14
				c0.159-0.34,0.374-0.631,0.646-0.875s0.595-0.434,0.969-0.569c0.374-0.137,0.782-0.204,1.224-0.204
				c0.476,0,0.901,0.07,1.275,0.212c0.374,0.143,0.694,0.341,0.96,0.596c0.266,0.255,0.47,0.561,0.612,0.918
				c0.142,0.356,0.212,0.745,0.212,1.164c0,0.283-0.048,0.556-0.145,0.816s-0.215,0.504-0.357,0.73
				c-0.142,0.228-0.3,0.431-0.476,0.612s-0.348,0.334-0.518,0.459v0.068c0.238,0.136,0.47,0.292,0.697,0.467
				c0.227,0.176,0.428,0.374,0.604,0.596c0.176,0.221,0.317,0.473,0.425,0.756c0.108,0.284,0.162,0.606,0.162,0.97
				c0,0.407-0.085,0.787-0.255,1.139s-0.408,0.657-0.714,0.918c-0.306,0.261-0.675,0.465-1.105,0.612
				C97.997,602.99,97.521,603.064,97,603.064z M97.034,602.027c0.634,0,1.147-0.176,1.538-0.527c0.391-0.351,0.587-0.81,0.587-1.377
				c0-0.351-0.08-0.651-0.238-0.9s-0.374-0.468-0.646-0.655c-0.272-0.187-0.586-0.356-0.943-0.51
				c-0.357-0.152-0.729-0.309-1.114-0.467c-0.431,0.294-0.79,0.637-1.079,1.028c-0.289,0.391-0.434,0.836-0.434,1.334
				c0,0.307,0.06,0.584,0.178,0.833c0.119,0.25,0.283,0.468,0.493,0.654c0.209,0.188,0.456,0.332,0.74,0.434
				C96.399,601.977,96.705,602.027,97.034,602.027z M97.765,596.944c0.362-0.328,0.643-0.674,0.841-1.037
				c0.198-0.362,0.297-0.742,0.297-1.139c0-0.544-0.164-1-0.493-1.369c-0.329-0.368-0.793-0.552-1.394-0.552
				c-0.51,0-0.93,0.158-1.258,0.476s-0.493,0.742-0.493,1.275c0,0.328,0.068,0.609,0.204,0.841c0.136,0.232,0.32,0.439,0.552,0.621
				s0.499,0.343,0.799,0.484S97.436,596.819,97.765,596.944z"/>
		</g>
		<g enable-background="new    ">
			<path fill="#020203" d="M85.644,576.777v-1.156h2.482v-7.99h-1.972v-0.9c0.499-0.091,0.932-0.201,1.3-0.332
				c0.368-0.13,0.7-0.286,0.995-0.467h1.071v9.689h2.244v1.156H85.644z"/>
			<path fill="#020203" d="M95.759,576.777c0.045-1.02,0.136-1.955,0.272-2.805c0.136-0.851,0.326-1.658,0.57-2.423
				c0.244-0.765,0.555-1.505,0.935-2.219c0.379-0.714,0.835-1.444,1.368-2.192h-5.406v-1.207h6.987v0.867
				c-0.646,0.815-1.17,1.598-1.572,2.346c-0.402,0.748-0.723,1.51-0.96,2.286c-0.238,0.776-0.411,1.599-0.519,2.465
				c-0.108,0.867-0.185,1.828-0.229,2.882H95.759z"/>
		</g>
		<g enable-background="new    ">
			<path fill="#020203" d="M85.644,550.694v-1.156h2.482v-7.99h-1.972v-0.9c0.499-0.091,0.932-0.201,1.3-0.332
				c0.368-0.13,0.7-0.286,0.995-0.467h1.071v9.689h2.244v1.156H85.644z"/>
			<path fill="#020203" d="M97.306,550.898c-0.533,0-1.026-0.108-1.479-0.323c-0.454-0.215-0.848-0.541-1.182-0.978
				c-0.334-0.436-0.598-0.979-0.791-1.632c-0.193-0.651-0.289-1.414-0.289-2.286c0-1.088,0.113-2.015,0.34-2.78
				c0.227-0.765,0.533-1.388,0.918-1.869c0.385-0.482,0.824-0.833,1.317-1.055c0.493-0.221,1.011-0.331,1.555-0.331
				c0.589,0,1.097,0.11,1.521,0.331c0.425,0.222,0.791,0.496,1.097,0.825l-0.782,0.866c-0.227-0.26-0.496-0.467-0.808-0.62
				c-0.312-0.153-0.638-0.229-0.978-0.229c-0.374,0-0.731,0.079-1.071,0.238c-0.34,0.158-0.64,0.419-0.901,0.781
				c-0.261,0.363-0.47,0.836-0.629,1.42s-0.244,1.307-0.255,2.168c0.34-0.42,0.736-0.751,1.19-0.995
				c0.453-0.243,0.901-0.365,1.343-0.365c0.941,0,1.692,0.277,2.253,0.833c0.561,0.556,0.841,1.394,0.841,2.516
				c0,0.521-0.085,0.995-0.255,1.42s-0.402,0.79-0.697,1.097c-0.295,0.306-0.635,0.544-1.02,0.714S97.748,550.898,97.306,550.898z
				 M97.306,549.793c0.272,0,0.521-0.057,0.748-0.17c0.227-0.113,0.425-0.274,0.595-0.484c0.17-0.209,0.303-0.459,0.399-0.748
				s0.145-0.614,0.145-0.978c0-0.714-0.164-1.274-0.493-1.683c-0.329-0.408-0.833-0.612-1.513-0.612
				c-0.352,0-0.731,0.11-1.139,0.332c-0.408,0.221-0.782,0.586-1.122,1.096c0.091,1.065,0.337,1.873,0.74,2.423
				S96.615,549.793,97.306,549.793z"/>
		</g>
		<g enable-background="new    ">
			<path fill="#020203" d="M85.644,524.611v-1.156h2.482v-7.99h-1.972v-0.9c0.499-0.09,0.932-0.201,1.3-0.332
				c0.368-0.129,0.7-0.285,0.995-0.467h1.071v9.689h2.244v1.156H85.644z"/>
			<path fill="#020203" d="M96.728,524.816c-0.431,0-0.825-0.043-1.182-0.129c-0.357-0.084-0.68-0.195-0.969-0.33
				c-0.289-0.137-0.55-0.293-0.782-0.469s-0.439-0.359-0.621-0.553l0.68-0.918c0.317,0.33,0.694,0.619,1.13,0.867
				c0.437,0.25,0.972,0.375,1.606,0.375c0.329,0,0.638-0.061,0.927-0.18c0.289-0.117,0.541-0.285,0.756-0.5s0.385-0.477,0.51-0.783
				c0.125-0.305,0.187-0.645,0.187-1.02c0-0.748-0.21-1.332-0.629-1.75c-0.419-0.42-0.98-0.631-1.683-0.631
				c-0.374,0-0.694,0.059-0.96,0.172c-0.267,0.113-0.564,0.277-0.893,0.492l-0.748-0.477l0.357-5.219h5.423v1.207H95.64
				l-0.289,3.213c0.261-0.135,0.521-0.244,0.782-0.322c0.261-0.08,0.555-0.119,0.884-0.119c0.464,0,0.901,0.068,1.309,0.203
				c0.408,0.137,0.765,0.344,1.071,0.621s0.547,0.629,0.723,1.055c0.175,0.424,0.263,0.932,0.263,1.521
				c0,0.588-0.102,1.109-0.306,1.562c-0.204,0.455-0.476,0.836-0.816,1.148c-0.34,0.312-0.729,0.549-1.165,0.713
				C97.66,524.734,97.204,524.816,96.728,524.816z"/>
		</g>
		<g enable-background="new    ">
			<path fill="#020203" d="M85.644,498.529v-1.156h2.482v-7.99h-1.972v-0.9c0.499-0.091,0.932-0.201,1.3-0.332
				c0.368-0.13,0.7-0.286,0.995-0.467h1.071v9.689h2.244v1.156H85.644z"/>
			<path fill="#020203" d="M97.918,498.529v-2.992h-4.879v-0.918l4.641-6.936h1.564v6.731h1.479v1.122h-1.479v2.992H97.918z
				 M94.518,494.415h3.4v-3.145c0-0.295,0.008-0.644,0.025-1.046s0.037-0.75,0.06-1.045h-0.068
				c-0.136,0.261-0.278,0.516-0.425,0.765c-0.147,0.249-0.3,0.504-0.459,0.765L94.518,494.415z"/>
		</g>
		<g enable-background="new    ">
			<path fill="#020203" d="M85.644,472.446v-1.156h2.482v-7.99h-1.972v-0.9c0.499-0.091,0.932-0.201,1.3-0.332
				c0.368-0.13,0.7-0.286,0.995-0.467h1.071v9.689h2.244v1.156H85.644z"/>
			<path fill="#020203" d="M96.762,472.65c-0.431,0-0.825-0.043-1.182-0.128s-0.683-0.198-0.978-0.34
				c-0.295-0.142-0.559-0.303-0.791-0.484c-0.232-0.181-0.439-0.374-0.621-0.578l0.714-0.918c0.329,0.34,0.711,0.641,1.148,0.901
				c0.436,0.261,0.977,0.391,1.623,0.391c0.657,0,1.196-0.179,1.615-0.535c0.419-0.357,0.629-0.842,0.629-1.454
				c0-0.316-0.06-0.608-0.178-0.875c-0.119-0.267-0.314-0.496-0.587-0.688c-0.272-0.192-0.629-0.34-1.071-0.442
				c-0.442-0.102-0.986-0.152-1.632-0.152v-1.071c0.578,0,1.062-0.051,1.454-0.153c0.391-0.102,0.708-0.243,0.952-0.425
				c0.244-0.181,0.417-0.396,0.519-0.646c0.102-0.25,0.153-0.516,0.153-0.8c0-0.532-0.167-0.952-0.501-1.258
				s-0.791-0.459-1.368-0.459c-0.454,0-0.87,0.103-1.25,0.306c-0.38,0.204-0.734,0.471-1.062,0.8l-0.748-0.885
				c0.419-0.396,0.881-0.722,1.385-0.978c0.504-0.255,1.08-0.382,1.726-0.382c0.476,0,0.912,0.062,1.309,0.187
				c0.396,0.125,0.739,0.304,1.028,0.536s0.513,0.519,0.672,0.858c0.158,0.34,0.238,0.73,0.238,1.173
				c0,0.657-0.182,1.195-0.544,1.615c-0.363,0.419-0.839,0.742-1.428,0.969v0.068c0.329,0.079,0.635,0.195,0.918,0.348
				c0.283,0.153,0.533,0.347,0.748,0.578c0.215,0.232,0.383,0.502,0.501,0.808c0.119,0.307,0.179,0.646,0.179,1.021
				c0,0.476-0.094,0.906-0.281,1.292c-0.187,0.385-0.442,0.711-0.765,0.978c-0.323,0.266-0.7,0.47-1.131,0.611
				S97.261,472.65,96.762,472.65z"/>
		</g>
		<g enable-background="new    ">
			<path fill="#020203" d="M85.644,446.363v-1.156h2.482v-7.99h-1.972v-0.9c0.499-0.091,0.932-0.201,1.3-0.332
				c0.368-0.13,0.7-0.286,0.995-0.467h1.071v9.689h2.244v1.156H85.644z"/>
			<path fill="#020203" d="M93.43,446.363v-0.833c0.816-0.816,1.541-1.553,2.176-2.21s1.167-1.267,1.598-1.827
				c0.431-0.562,0.759-1.077,0.986-1.548c0.227-0.47,0.34-0.926,0.34-1.368c0-0.623-0.17-1.133-0.51-1.53
				c-0.34-0.396-0.856-0.595-1.547-0.595c-0.454,0-0.873,0.128-1.258,0.383s-0.737,0.563-1.054,0.927l-0.799-0.8
				c0.453-0.498,0.935-0.897,1.445-1.198c0.51-0.3,1.122-0.45,1.836-0.45c1.008,0,1.802,0.292,2.38,0.875
				c0.578,0.584,0.867,1.357,0.867,2.321c0,0.51-0.111,1.022-0.332,1.538c-0.221,0.516-0.527,1.049-0.918,1.598
				c-0.391,0.55-0.856,1.122-1.394,1.717c-0.539,0.596-1.13,1.228-1.776,1.896c0.294-0.022,0.601-0.045,0.918-0.067
				c0.317-0.022,0.617-0.034,0.901-0.034h3.145v1.207H93.43z"/>
		</g>
		<g enable-background="new    ">
			<path fill="#020203" d="M85.644,420.28v-1.156h2.482v-7.99h-1.972v-0.9c0.499-0.091,0.932-0.201,1.3-0.332
				c0.368-0.13,0.7-0.286,0.995-0.467h1.071v9.689h2.244v1.156H85.644z"/>
			<path fill="#020203" d="M94.093,420.28v-1.156h2.482v-7.99h-1.972v-0.9c0.499-0.091,0.932-0.201,1.3-0.332
				c0.368-0.13,0.7-0.286,0.995-0.467h1.071v9.689h2.244v1.156H94.093z"/>
		</g>
		<g enable-background="new    ">
			<path fill="#020203" d="M85.644,394.198v-1.156h2.482v-7.99h-1.972v-0.9c0.499-0.091,0.932-0.201,1.3-0.332
				c0.368-0.13,0.7-0.286,0.995-0.467h1.071v9.689h2.244v1.156H85.644z"/>
			<path fill="#020203" d="M96.983,394.402c-1.099,0-1.955-0.487-2.567-1.462s-0.918-2.374-0.918-4.199
				c0-1.824,0.306-3.213,0.918-4.165s1.468-1.428,2.567-1.428c1.088,0,1.938,0.476,2.55,1.428c0.612,0.952,0.918,2.341,0.918,4.165
				c0,1.825-0.306,3.225-0.918,4.199C98.921,393.915,98.071,394.402,96.983,394.402z M96.983,393.28
				c0.317,0,0.604-0.088,0.858-0.264c0.255-0.176,0.476-0.447,0.663-0.815s0.332-0.839,0.434-1.411s0.153-1.256,0.153-2.049
				s-0.051-1.473-0.153-2.04c-0.102-0.566-0.247-1.028-0.434-1.386c-0.187-0.356-0.408-0.62-0.663-0.79
				c-0.255-0.17-0.541-0.255-0.858-0.255s-0.606,0.085-0.867,0.255c-0.261,0.17-0.485,0.434-0.672,0.79
				c-0.187,0.357-0.332,0.819-0.433,1.386c-0.102,0.567-0.153,1.247-0.153,2.04c0,1.587,0.196,2.74,0.586,3.46
				C95.835,392.92,96.348,393.28,96.983,393.28z"/>
		</g>
		<g enable-background="new    ">
			<path fill="#020203" d="M92.01,368.319c-0.578,0-1.085-0.108-1.521-0.323c-0.437-0.215-0.802-0.487-1.096-0.815l0.782-0.885
				c0.227,0.261,0.496,0.471,0.808,0.629c0.312,0.159,0.638,0.238,0.978,0.238c0.385,0,0.748-0.079,1.088-0.238
				c0.34-0.158,0.64-0.422,0.901-0.79s0.47-0.847,0.629-1.437c0.159-0.589,0.244-1.32,0.255-2.193
				c-0.34,0.432-0.737,0.771-1.19,1.021c-0.454,0.249-0.907,0.374-1.36,0.374c-0.941,0-1.688-0.277-2.244-0.833
				c-0.556-0.556-0.833-1.395-0.833-2.517c0-0.521,0.085-0.994,0.255-1.419s0.399-0.791,0.688-1.097s0.629-0.544,1.02-0.714
				s0.802-0.255,1.232-0.255c0.533,0,1.028,0.107,1.487,0.323c0.459,0.215,0.856,0.541,1.19,0.978
				c0.334,0.436,0.595,0.979,0.782,1.632c0.187,0.651,0.281,1.414,0.281,2.286c0,1.088-0.114,2.015-0.34,2.779
				c-0.227,0.766-0.533,1.389-0.918,1.87c-0.385,0.482-0.824,0.833-1.317,1.054C93.073,368.208,92.554,368.319,92.01,368.319z
				 M92.521,362.845c0.362,0,0.745-0.113,1.147-0.341c0.402-0.227,0.779-0.595,1.13-1.104c-0.091-1.065-0.34-1.87-0.748-2.414
				c-0.408-0.544-0.958-0.816-1.649-0.816c-0.261,0-0.507,0.058-0.739,0.17c-0.232,0.114-0.434,0.275-0.604,0.485
				c-0.17,0.209-0.304,0.462-0.4,0.756c-0.096,0.295-0.145,0.618-0.145,0.969c0,0.715,0.165,1.275,0.493,1.684
				S91.84,362.845,92.521,362.845z"/>
		</g>
		<g enable-background="new    ">
			<path fill="#020203" d="M92.775,342.236c-0.51,0-0.983-0.074-1.419-0.221c-0.437-0.147-0.811-0.354-1.122-0.621
				c-0.312-0.266-0.558-0.58-0.739-0.943c-0.182-0.362-0.272-0.759-0.272-1.19c0-0.351,0.06-0.677,0.179-0.977
				c0.119-0.301,0.272-0.572,0.459-0.816c0.187-0.243,0.402-0.459,0.646-0.646c0.244-0.187,0.496-0.348,0.756-0.484v-0.067
				c-0.396-0.283-0.748-0.626-1.054-1.028c-0.306-0.402-0.459-0.893-0.459-1.471c0-0.42,0.079-0.799,0.238-1.14
				c0.159-0.34,0.374-0.631,0.646-0.875s0.595-0.434,0.969-0.569c0.374-0.137,0.782-0.204,1.224-0.204
				c0.476,0,0.901,0.07,1.275,0.212c0.374,0.143,0.694,0.341,0.96,0.596c0.266,0.255,0.47,0.561,0.612,0.918
				c0.142,0.356,0.212,0.745,0.212,1.164c0,0.283-0.048,0.556-0.145,0.816s-0.215,0.504-0.357,0.73
				c-0.142,0.228-0.3,0.431-0.476,0.612s-0.348,0.334-0.518,0.459v0.068c0.238,0.136,0.47,0.292,0.697,0.467
				c0.227,0.176,0.428,0.374,0.604,0.596c0.176,0.221,0.317,0.473,0.425,0.756c0.108,0.284,0.162,0.606,0.162,0.97
				c0,0.407-0.085,0.787-0.255,1.139s-0.408,0.657-0.714,0.918c-0.306,0.261-0.675,0.465-1.105,0.612
				C93.772,342.162,93.296,342.236,92.775,342.236z M92.81,341.199c0.634,0,1.147-0.176,1.538-0.527
				c0.391-0.351,0.587-0.81,0.587-1.377c0-0.351-0.08-0.651-0.238-0.9s-0.374-0.468-0.646-0.655
				c-0.272-0.187-0.586-0.356-0.943-0.51c-0.357-0.152-0.729-0.309-1.114-0.467c-0.431,0.294-0.79,0.637-1.079,1.028
				c-0.289,0.391-0.434,0.836-0.434,1.334c0,0.307,0.06,0.584,0.178,0.833c0.119,0.25,0.283,0.468,0.493,0.654
				c0.209,0.188,0.456,0.332,0.74,0.434C92.174,341.148,92.48,341.199,92.81,341.199z M93.541,336.116
				c0.362-0.328,0.643-0.674,0.841-1.037c0.198-0.362,0.297-0.742,0.297-1.139c0-0.544-0.164-1-0.493-1.369
				c-0.329-0.368-0.793-0.552-1.394-0.552c-0.51,0-0.93,0.158-1.258,0.476s-0.493,0.742-0.493,1.275
				c0,0.328,0.068,0.609,0.204,0.841c0.136,0.232,0.32,0.439,0.552,0.621s0.499,0.343,0.799,0.484S93.211,335.991,93.541,336.116z"
				/>
		</g>
		<g enable-background="new    ">
			<path fill="#020203" d="M91.534,315.949c0.045-1.02,0.136-1.955,0.272-2.805c0.136-0.851,0.326-1.658,0.57-2.423
				c0.244-0.765,0.555-1.505,0.935-2.219c0.379-0.714,0.835-1.444,1.368-2.192h-5.406v-1.207h6.987v0.867
				c-0.646,0.815-1.17,1.598-1.572,2.346c-0.402,0.748-0.723,1.51-0.96,2.286c-0.238,0.776-0.411,1.599-0.519,2.465
				c-0.108,0.867-0.185,1.828-0.229,2.882H91.534z"/>
		</g>
		<g enable-background="new    ">
			<path fill="#020203" d="M93.082,290.07c-0.533,0-1.026-0.108-1.479-0.323c-0.454-0.215-0.848-0.541-1.182-0.978
				c-0.334-0.436-0.598-0.979-0.791-1.632c-0.193-0.651-0.289-1.414-0.289-2.286c0-1.088,0.113-2.015,0.34-2.78
				c0.227-0.765,0.533-1.388,0.918-1.869c0.385-0.482,0.824-0.833,1.317-1.055c0.493-0.221,1.011-0.331,1.555-0.331
				c0.589,0,1.097,0.11,1.521,0.331c0.425,0.222,0.791,0.496,1.097,0.825l-0.782,0.866c-0.227-0.26-0.496-0.467-0.808-0.62
				c-0.312-0.153-0.638-0.229-0.978-0.229c-0.374,0-0.731,0.079-1.071,0.238c-0.34,0.158-0.64,0.419-0.901,0.781
				c-0.261,0.363-0.47,0.836-0.629,1.42s-0.244,1.307-0.255,2.168c0.34-0.42,0.736-0.751,1.19-0.995
				c0.453-0.243,0.901-0.365,1.343-0.365c0.941,0,1.692,0.277,2.253,0.833c0.561,0.556,0.841,1.394,0.841,2.516
				c0,0.521-0.085,0.995-0.255,1.42s-0.402,0.79-0.697,1.097c-0.295,0.306-0.635,0.544-1.02,0.714S93.523,290.07,93.082,290.07z
				 M93.082,288.965c0.272,0,0.521-0.057,0.748-0.17c0.227-0.113,0.425-0.274,0.595-0.484c0.17-0.209,0.303-0.459,0.399-0.748
				s0.145-0.614,0.145-0.978c0-0.714-0.164-1.274-0.493-1.683c-0.329-0.408-0.833-0.612-1.513-0.612
				c-0.352,0-0.731,0.11-1.139,0.332c-0.408,0.221-0.782,0.586-1.122,1.096c0.091,1.065,0.337,1.873,0.74,2.423
				S92.39,288.965,93.082,288.965z"/>
		</g>
		<g enable-background="new    ">
			<path fill="#020203" d="M92.503,263.987c-0.431,0-0.825-0.043-1.182-0.128s-0.68-0.195-0.969-0.331s-0.55-0.292-0.782-0.468
				s-0.439-0.359-0.621-0.553l0.68-0.918c0.317,0.329,0.694,0.618,1.13,0.867c0.437,0.25,0.972,0.374,1.606,0.374
				c0.329,0,0.638-0.06,0.927-0.179c0.289-0.118,0.541-0.286,0.756-0.501s0.385-0.477,0.51-0.782
				c0.125-0.306,0.187-0.646,0.187-1.02c0-0.748-0.21-1.332-0.629-1.751c-0.419-0.42-0.98-0.63-1.683-0.63
				c-0.374,0-0.694,0.058-0.96,0.171c-0.267,0.113-0.564,0.277-0.893,0.492l-0.748-0.476l0.357-5.219h5.423v1.207h-4.199
				l-0.289,3.213c0.261-0.136,0.521-0.244,0.782-0.323s0.555-0.119,0.884-0.119c0.464,0,0.901,0.068,1.309,0.204
				c0.408,0.136,0.765,0.343,1.071,0.62c0.306,0.278,0.547,0.63,0.723,1.055c0.175,0.425,0.263,0.932,0.263,1.521
				c0,0.589-0.102,1.11-0.306,1.563c-0.204,0.454-0.476,0.836-0.816,1.147c-0.34,0.312-0.729,0.55-1.165,0.714
				C93.436,263.905,92.979,263.987,92.503,263.987z"/>
		</g>
		<g enable-background="new    ">
			<path fill="#020203" d="M93.693,237.701v-2.992h-4.879v-0.918l4.641-6.936h1.564v6.731h1.479v1.122H95.02v2.992H93.693z
				 M90.293,233.586h3.4v-3.145c0-0.295,0.008-0.644,0.025-1.046s0.037-0.75,0.06-1.045H93.71c-0.136,0.261-0.278,0.516-0.425,0.765
				c-0.147,0.249-0.3,0.504-0.459,0.765L90.293,233.586z"/>
		</g>
		<g enable-background="new    ">
			<path fill="#020203" d="M92.538,211.822c-0.431,0-0.825-0.043-1.182-0.128s-0.683-0.198-0.978-0.34
				c-0.295-0.142-0.559-0.303-0.791-0.484c-0.232-0.181-0.439-0.374-0.621-0.578l0.714-0.918c0.329,0.34,0.711,0.641,1.148,0.901
				c0.436,0.261,0.977,0.391,1.623,0.391c0.657,0,1.196-0.179,1.615-0.535c0.419-0.357,0.629-0.842,0.629-1.454
				c0-0.316-0.06-0.608-0.178-0.875c-0.119-0.267-0.314-0.496-0.587-0.688c-0.272-0.192-0.629-0.34-1.071-0.442
				c-0.442-0.102-0.986-0.152-1.632-0.152v-1.071c0.578,0,1.062-0.051,1.454-0.153c0.391-0.102,0.708-0.243,0.952-0.425
				c0.244-0.181,0.417-0.396,0.519-0.646c0.102-0.25,0.153-0.516,0.153-0.8c0-0.532-0.167-0.952-0.501-1.258
				s-0.791-0.459-1.368-0.459c-0.454,0-0.87,0.103-1.25,0.306c-0.38,0.204-0.734,0.471-1.062,0.8l-0.748-0.885
				c0.419-0.396,0.881-0.722,1.385-0.978c0.504-0.255,1.08-0.382,1.726-0.382c0.476,0,0.912,0.062,1.309,0.187
				c0.396,0.125,0.739,0.304,1.028,0.536s0.513,0.519,0.672,0.858c0.158,0.34,0.238,0.73,0.238,1.173
				c0,0.657-0.182,1.195-0.544,1.615c-0.363,0.419-0.839,0.742-1.428,0.969v0.068c0.329,0.079,0.635,0.195,0.918,0.348
				c0.283,0.153,0.533,0.347,0.748,0.578c0.215,0.232,0.383,0.502,0.501,0.808c0.119,0.307,0.179,0.646,0.179,1.021
				c0,0.476-0.094,0.906-0.281,1.292c-0.187,0.385-0.442,0.711-0.765,0.978c-0.323,0.266-0.7,0.47-1.131,0.611
				S93.036,211.822,92.538,211.822z"/>
		</g>
		<g enable-background="new    ">
			<path fill="#020203" d="M89.206,185.535v-0.833c0.816-0.816,1.541-1.553,2.176-2.21s1.167-1.267,1.598-1.827
				c0.431-0.562,0.759-1.077,0.986-1.548c0.227-0.47,0.34-0.926,0.34-1.368c0-0.623-0.17-1.133-0.51-1.53
				c-0.34-0.396-0.856-0.595-1.547-0.595c-0.454,0-0.873,0.128-1.258,0.383s-0.737,0.563-1.054,0.927l-0.799-0.8
				c0.453-0.498,0.935-0.897,1.445-1.198c0.51-0.3,1.122-0.45,1.836-0.45c1.008,0,1.802,0.292,2.38,0.875
				c0.578,0.584,0.867,1.357,0.867,2.321c0,0.51-0.111,1.022-0.332,1.538c-0.221,0.516-0.527,1.049-0.918,1.598
				c-0.391,0.55-0.856,1.122-1.394,1.717c-0.539,0.596-1.13,1.228-1.776,1.896c0.294-0.022,0.601-0.045,0.918-0.067
				c0.317-0.022,0.617-0.034,0.901-0.034h3.145v1.207H89.206z"/>
		</g>
		<g enable-background="new    ">
			<path fill="#020203" d="M89.868,159.452v-1.156h2.482v-7.99h-1.972v-0.9c0.499-0.091,0.932-0.201,1.3-0.332
				c0.368-0.13,0.7-0.286,0.995-0.467h1.071v9.689h2.244v1.156H89.868z"/>
		</g>
		<g enable-background="new    ">
			<path fill="#020203" d="M780.48,759.357v-0.833c0.815-0.816,1.541-1.553,2.176-2.21s1.166-1.267,1.598-1.827
				c0.431-0.562,0.76-1.077,0.986-1.548c0.227-0.47,0.34-0.926,0.34-1.368c0-0.623-0.17-1.133-0.51-1.53
				c-0.34-0.396-0.856-0.595-1.547-0.595c-0.454,0-0.873,0.128-1.259,0.383s-0.737,0.563-1.054,0.927l-0.799-0.8
				c0.453-0.498,0.935-0.897,1.445-1.198c0.51-0.3,1.121-0.45,1.836-0.45c1.008,0,1.801,0.292,2.379,0.875
				c0.578,0.584,0.867,1.357,0.867,2.321c0,0.51-0.11,1.022-0.331,1.538c-0.222,0.516-0.526,1.049-0.918,1.598
				c-0.392,0.55-0.856,1.122-1.394,1.717c-0.539,0.596-1.131,1.228-1.777,1.896c0.295-0.022,0.602-0.045,0.918-0.067
				c0.317-0.022,0.617-0.034,0.901-0.034h3.146v1.207H780.48z"/>
			<path fill="#020203" d="M793.416,759.357v-2.992h-4.879v-0.918l4.642-6.936h1.563v6.731h1.479v1.122h-1.479v2.992H793.416z
				 M790.017,755.243h3.399v-3.145c0-0.295,0.009-0.644,0.025-1.046c0.018-0.402,0.037-0.75,0.061-1.045h-0.068
				c-0.137,0.261-0.277,0.516-0.426,0.765c-0.146,0.249-0.3,0.504-0.459,0.765L790.017,755.243z"/>
		</g>
		<g enable-background="new    ">
			<path fill="#020203" d="M780.48,733.274v-0.833c0.815-0.816,1.541-1.553,2.176-2.21s1.166-1.267,1.598-1.827
				c0.431-0.562,0.76-1.077,0.986-1.548c0.227-0.47,0.34-0.926,0.34-1.368c0-0.623-0.17-1.133-0.51-1.53
				c-0.34-0.396-0.856-0.595-1.547-0.595c-0.454,0-0.873,0.128-1.259,0.383s-0.737,0.563-1.054,0.927l-0.799-0.8
				c0.453-0.498,0.935-0.897,1.445-1.198c0.51-0.3,1.121-0.45,1.836-0.45c1.008,0,1.801,0.292,2.379,0.875
				c0.578,0.584,0.867,1.357,0.867,2.321c0,0.51-0.11,1.022-0.331,1.538c-0.222,0.516-0.526,1.049-0.918,1.598
				c-0.392,0.55-0.856,1.122-1.394,1.717c-0.539,0.596-1.131,1.228-1.777,1.896c0.295-0.022,0.602-0.045,0.918-0.067
				c0.317-0.022,0.617-0.034,0.901-0.034h3.146v1.207H780.48z"/>
			<path fill="#020203" d="M792.261,733.479c-0.431,0-0.825-0.043-1.182-0.128s-0.683-0.198-0.978-0.34s-0.559-0.303-0.791-0.484
				c-0.232-0.181-0.439-0.374-0.62-0.578l0.714-0.918c0.328,0.34,0.711,0.641,1.148,0.901c0.436,0.261,0.977,0.391,1.623,0.391
				c0.656,0,1.195-0.179,1.615-0.535c0.418-0.357,0.629-0.842,0.629-1.454c0-0.316-0.061-0.608-0.179-0.875
				c-0.119-0.267-0.314-0.496-0.587-0.688c-0.271-0.192-0.629-0.34-1.07-0.442c-0.442-0.102-0.986-0.152-1.633-0.152v-1.071
				c0.578,0,1.062-0.051,1.454-0.153c0.391-0.102,0.708-0.243,0.952-0.425c0.243-0.181,0.416-0.396,0.518-0.646
				c0.103-0.25,0.153-0.516,0.153-0.8c0-0.532-0.167-0.952-0.501-1.258c-0.335-0.306-0.791-0.459-1.369-0.459
				c-0.453,0-0.869,0.103-1.249,0.306c-0.38,0.204-0.733,0.471-1.062,0.8l-0.748-0.885c0.419-0.396,0.881-0.722,1.386-0.978
				c0.504-0.255,1.079-0.382,1.725-0.382c0.477,0,0.912,0.062,1.31,0.187c0.396,0.125,0.739,0.304,1.028,0.536
				s0.513,0.519,0.672,0.858c0.158,0.34,0.238,0.73,0.238,1.173c0,0.657-0.182,1.195-0.545,1.615
				c-0.362,0.419-0.838,0.742-1.428,0.969v0.068c0.328,0.079,0.635,0.195,0.918,0.348c0.283,0.153,0.533,0.347,0.748,0.578
				c0.215,0.232,0.383,0.502,0.502,0.808c0.119,0.307,0.178,0.646,0.178,1.021c0,0.476-0.094,0.906-0.28,1.292
				c-0.187,0.385-0.442,0.711-0.765,0.978c-0.323,0.266-0.7,0.47-1.131,0.611S792.76,733.479,792.261,733.479z"/>
		</g>
		<g enable-background="new    ">
			<path fill="#020203" d="M780.48,707.191v-0.833c0.815-0.816,1.541-1.553,2.176-2.21s1.166-1.267,1.598-1.827
				c0.431-0.562,0.76-1.077,0.986-1.548c0.227-0.47,0.34-0.926,0.34-1.368c0-0.623-0.17-1.133-0.51-1.53
				c-0.34-0.396-0.856-0.595-1.547-0.595c-0.454,0-0.873,0.128-1.259,0.383s-0.737,0.563-1.054,0.927l-0.799-0.8
				c0.453-0.498,0.935-0.897,1.445-1.198c0.51-0.3,1.121-0.45,1.836-0.45c1.008,0,1.801,0.292,2.379,0.875
				c0.578,0.584,0.867,1.357,0.867,2.321c0,0.51-0.11,1.022-0.331,1.538c-0.222,0.516-0.526,1.049-0.918,1.598
				c-0.392,0.55-0.856,1.122-1.394,1.717c-0.539,0.596-1.131,1.228-1.777,1.896c0.295-0.022,0.602-0.045,0.918-0.067
				c0.317-0.022,0.617-0.034,0.901-0.034h3.146v1.207H780.48z"/>
			<path fill="#020203" d="M788.929,707.191v-0.833c0.815-0.816,1.541-1.553,2.176-2.21s1.167-1.267,1.599-1.827
				c0.43-0.562,0.759-1.077,0.985-1.548c0.227-0.47,0.34-0.926,0.34-1.368c0-0.623-0.17-1.133-0.51-1.53
				c-0.34-0.396-0.856-0.595-1.547-0.595c-0.454,0-0.873,0.128-1.259,0.383c-0.385,0.255-0.736,0.563-1.053,0.927l-0.8-0.8
				c0.453-0.498,0.935-0.897,1.445-1.198c0.51-0.3,1.122-0.45,1.836-0.45c1.009,0,1.802,0.292,2.38,0.875
				c0.578,0.584,0.867,1.357,0.867,2.321c0,0.51-0.111,1.022-0.332,1.538s-0.526,1.049-0.918,1.598
				c-0.391,0.55-0.855,1.122-1.394,1.717c-0.538,0.596-1.13,1.228-1.776,1.896c0.295-0.022,0.601-0.045,0.918-0.067
				c0.316-0.022,0.617-0.034,0.9-0.034h3.146v1.207H788.929z"/>
		</g>
		<g enable-background="new    ">
			<path fill="#020203" d="M780.48,681.108v-0.833c0.815-0.816,1.541-1.553,2.176-2.21s1.166-1.267,1.598-1.827
				c0.431-0.562,0.76-1.077,0.986-1.548c0.227-0.47,0.34-0.926,0.34-1.368c0-0.623-0.17-1.133-0.51-1.53
				c-0.34-0.396-0.856-0.595-1.547-0.595c-0.454,0-0.873,0.128-1.259,0.383s-0.737,0.563-1.054,0.927l-0.799-0.8
				c0.453-0.498,0.935-0.897,1.445-1.198c0.51-0.3,1.121-0.45,1.836-0.45c1.008,0,1.801,0.292,2.379,0.875
				c0.578,0.584,0.867,1.357,0.867,2.321c0,0.51-0.11,1.022-0.331,1.538c-0.222,0.516-0.526,1.049-0.918,1.598
				c-0.392,0.55-0.856,1.122-1.394,1.717c-0.539,0.596-1.131,1.228-1.777,1.896c0.295-0.022,0.602-0.045,0.918-0.067
				c0.317-0.022,0.617-0.034,0.901-0.034h3.146v1.207H780.48z"/>
			<path fill="#020203" d="M789.592,681.108v-1.156h2.482v-7.99h-1.973v-0.9c0.498-0.091,0.932-0.201,1.301-0.332
				c0.367-0.13,0.699-0.286,0.994-0.467h1.071v9.689h2.243v1.156H789.592z"/>
		</g>
		<g enable-background="new    ">
			<path fill="#020203" d="M780.48,655.026v-0.833c0.815-0.816,1.541-1.553,2.176-2.21s1.166-1.267,1.598-1.827
				c0.431-0.562,0.76-1.077,0.986-1.548c0.227-0.47,0.34-0.926,0.34-1.368c0-0.623-0.17-1.133-0.51-1.53
				c-0.34-0.396-0.856-0.595-1.547-0.595c-0.454,0-0.873,0.128-1.259,0.383s-0.737,0.563-1.054,0.927l-0.799-0.8
				c0.453-0.498,0.935-0.897,1.445-1.198c0.51-0.3,1.121-0.45,1.836-0.45c1.008,0,1.801,0.292,2.379,0.875
				c0.578,0.584,0.867,1.357,0.867,2.321c0,0.51-0.11,1.022-0.331,1.538c-0.222,0.516-0.526,1.049-0.918,1.598
				c-0.392,0.55-0.856,1.122-1.394,1.717c-0.539,0.596-1.131,1.228-1.777,1.896c0.295-0.022,0.602-0.045,0.918-0.067
				c0.317-0.022,0.617-0.034,0.901-0.034h3.146v1.207H780.48z"/>
			<path fill="#020203" d="M792.481,655.23c-1.099,0-1.955-0.487-2.567-1.462c-0.611-0.975-0.918-2.374-0.918-4.199
				c0-1.824,0.307-3.213,0.918-4.165c0.612-0.952,1.469-1.428,2.567-1.428c1.088,0,1.938,0.476,2.55,1.428
				c0.612,0.952,0.918,2.341,0.918,4.165c0,1.825-0.306,3.225-0.918,4.199C794.42,654.743,793.569,655.23,792.481,655.23z
				 M792.481,654.108c0.317,0,0.604-0.088,0.858-0.264c0.256-0.176,0.477-0.447,0.663-0.815s0.331-0.839,0.434-1.411
				s0.153-1.256,0.153-2.049s-0.051-1.473-0.153-2.04c-0.103-0.566-0.247-1.028-0.434-1.386c-0.187-0.356-0.407-0.62-0.663-0.79
				c-0.255-0.17-0.541-0.255-0.858-0.255s-0.606,0.085-0.866,0.255c-0.262,0.17-0.485,0.434-0.672,0.79
				c-0.188,0.357-0.332,0.819-0.434,1.386c-0.102,0.567-0.153,1.247-0.153,2.04c0,1.587,0.196,2.74,0.587,3.46
				S791.847,654.108,792.481,654.108z"/>
		</g>
		<g enable-background="new    ">
			<path fill="#020203" d="M781.143,628.943v-1.156h2.482v-7.99h-1.973v-0.9c0.499-0.091,0.933-0.201,1.301-0.332
				c0.368-0.13,0.699-0.286,0.994-0.467h1.072v9.689h2.243v1.156H781.143z"/>
			<path fill="#020203" d="M791.733,629.147c-0.577,0-1.085-0.108-1.521-0.323s-0.802-0.487-1.097-0.815l0.782-0.885
				c0.227,0.261,0.495,0.471,0.808,0.629c0.312,0.159,0.638,0.238,0.978,0.238c0.386,0,0.748-0.079,1.088-0.238
				c0.34-0.158,0.64-0.422,0.901-0.79c0.26-0.368,0.47-0.847,0.629-1.437c0.158-0.589,0.243-1.32,0.255-2.193
				c-0.341,0.432-0.737,0.771-1.19,1.021s-0.906,0.374-1.359,0.374c-0.941,0-1.689-0.277-2.244-0.833
				c-0.556-0.556-0.833-1.395-0.833-2.517c0-0.521,0.085-0.994,0.255-1.419s0.399-0.791,0.688-1.097s0.629-0.544,1.021-0.714
				c0.391-0.17,0.801-0.255,1.232-0.255c0.532,0,1.027,0.107,1.486,0.323c0.459,0.215,0.856,0.541,1.191,0.978
				c0.334,0.436,0.594,0.979,0.781,1.632c0.188,0.651,0.281,1.414,0.281,2.286c0,1.088-0.114,2.015-0.341,2.779
				c-0.227,0.766-0.532,1.389-0.918,1.87c-0.386,0.482-0.824,0.833-1.317,1.054C792.796,629.037,792.277,629.147,791.733,629.147z
				 M792.244,623.674c0.361,0,0.744-0.113,1.146-0.341c0.402-0.227,0.779-0.595,1.131-1.104c-0.091-1.065-0.34-1.87-0.748-2.414
				s-0.957-0.816-1.648-0.816c-0.262,0-0.508,0.058-0.74,0.17c-0.232,0.114-0.434,0.275-0.604,0.485
				c-0.17,0.209-0.303,0.462-0.399,0.756c-0.097,0.295-0.145,0.618-0.145,0.969c0,0.715,0.165,1.275,0.493,1.684
				S791.563,623.674,792.244,623.674z"/>
		</g>
		<g enable-background="new    ">
			<path fill="#020203" d="M781.143,602.86v-1.156h2.482v-7.99h-1.973v-0.9c0.499-0.091,0.933-0.201,1.301-0.332
				c0.368-0.13,0.699-0.286,0.994-0.467h1.072v9.689h2.243v1.156H781.143z"/>
			<path fill="#020203" d="M792.498,603.064c-0.51,0-0.982-0.074-1.419-0.221c-0.437-0.147-0.811-0.354-1.122-0.621
				c-0.312-0.266-0.559-0.58-0.739-0.943c-0.182-0.362-0.272-0.759-0.272-1.19c0-0.351,0.06-0.677,0.179-0.977
				c0.119-0.301,0.272-0.572,0.459-0.816c0.187-0.243,0.402-0.459,0.646-0.646c0.244-0.187,0.496-0.348,0.757-0.484v-0.067
				c-0.396-0.283-0.748-0.626-1.054-1.028c-0.307-0.402-0.459-0.893-0.459-1.471c0-0.42,0.079-0.799,0.238-1.14
				c0.158-0.34,0.373-0.631,0.646-0.875s0.595-0.434,0.97-0.569c0.373-0.137,0.781-0.204,1.223-0.204
				c0.477,0,0.902,0.07,1.275,0.212c0.375,0.143,0.694,0.341,0.961,0.596c0.266,0.255,0.471,0.561,0.611,0.918
				c0.143,0.356,0.213,0.745,0.213,1.164c0,0.283-0.049,0.556-0.145,0.816s-0.215,0.504-0.357,0.73
				c-0.141,0.228-0.3,0.431-0.476,0.612s-0.349,0.334-0.519,0.459v0.068c0.238,0.136,0.471,0.292,0.697,0.467
				c0.227,0.176,0.428,0.374,0.604,0.596c0.176,0.221,0.316,0.473,0.425,0.756c0.108,0.284,0.161,0.606,0.161,0.97
				c0,0.407-0.084,0.787-0.254,1.139s-0.408,0.657-0.715,0.918c-0.306,0.261-0.674,0.465-1.104,0.612
				C793.496,602.99,793.02,603.064,792.498,603.064z M792.533,602.027c0.634,0,1.146-0.176,1.537-0.527
				c0.392-0.351,0.588-0.81,0.588-1.377c0-0.351-0.08-0.651-0.238-0.9c-0.159-0.249-0.375-0.468-0.646-0.655
				c-0.271-0.187-0.586-0.356-0.943-0.51c-0.357-0.152-0.729-0.309-1.113-0.467c-0.432,0.294-0.791,0.637-1.08,1.028
				c-0.289,0.391-0.434,0.836-0.434,1.334c0,0.307,0.061,0.584,0.179,0.833c0.119,0.25,0.283,0.468,0.493,0.654
				c0.209,0.188,0.456,0.332,0.74,0.434C791.897,601.977,792.203,602.027,792.533,602.027z M793.264,596.944
				c0.362-0.328,0.643-0.674,0.842-1.037c0.197-0.362,0.297-0.742,0.297-1.139c0-0.544-0.164-1-0.492-1.369
				c-0.33-0.368-0.794-0.552-1.395-0.552c-0.51,0-0.93,0.158-1.258,0.476c-0.329,0.317-0.493,0.742-0.493,1.275
				c0,0.328,0.067,0.609,0.204,0.841c0.136,0.232,0.32,0.439,0.553,0.621s0.498,0.343,0.799,0.484
				C792.62,596.687,792.935,596.819,793.264,596.944z"/>
		</g>
		<g enable-background="new    ">
			<path fill="#020203" d="M781.143,576.777v-1.156h2.482v-7.99h-1.973v-0.9c0.499-0.091,0.933-0.201,1.301-0.332
				c0.368-0.13,0.699-0.286,0.994-0.467h1.072v9.689h2.243v1.156H781.143z"/>
			<path fill="#020203" d="M791.258,576.777c0.045-1.02,0.136-1.955,0.271-2.805c0.137-0.851,0.326-1.658,0.57-2.423
				c0.243-0.765,0.555-1.505,0.935-2.219s0.835-1.444,1.368-2.192h-5.406v-1.207h6.987v0.867c-0.646,0.815-1.171,1.598-1.572,2.346
				c-0.402,0.748-0.723,1.51-0.96,2.286c-0.238,0.776-0.412,1.599-0.52,2.465c-0.107,0.867-0.184,1.828-0.229,2.882H791.258z"/>
		</g>
		<g enable-background="new    ">
			<path fill="#020203" d="M781.143,550.694v-1.156h2.482v-7.99h-1.973v-0.9c0.499-0.091,0.933-0.201,1.301-0.332
				c0.368-0.13,0.699-0.286,0.994-0.467h1.072v9.689h2.243v1.156H781.143z"/>
			<path fill="#020203" d="M792.805,550.898c-0.533,0-1.025-0.108-1.479-0.323c-0.454-0.215-0.848-0.541-1.182-0.978
				c-0.335-0.436-0.599-0.979-0.791-1.632c-0.193-0.651-0.289-1.414-0.289-2.286c0-1.088,0.113-2.015,0.34-2.78
				c0.227-0.765,0.533-1.388,0.918-1.869c0.385-0.482,0.824-0.833,1.318-1.055c0.492-0.221,1.011-0.331,1.555-0.331
				c0.59,0,1.097,0.11,1.521,0.331c0.426,0.222,0.791,0.496,1.097,0.825l-0.782,0.866c-0.227-0.26-0.496-0.467-0.807-0.62
				c-0.312-0.153-0.639-0.229-0.979-0.229c-0.373,0-0.73,0.079-1.07,0.238c-0.34,0.158-0.641,0.419-0.901,0.781
				c-0.261,0.363-0.47,0.836-0.629,1.42s-0.243,1.307-0.255,2.168c0.34-0.42,0.736-0.751,1.189-0.995
				c0.453-0.243,0.901-0.365,1.344-0.365c0.94,0,1.691,0.277,2.252,0.833s0.842,1.394,0.842,2.516c0,0.521-0.085,0.995-0.255,1.42
				s-0.402,0.79-0.697,1.097c-0.295,0.306-0.635,0.544-1.021,0.714C793.66,550.813,793.246,550.898,792.805,550.898z
				 M792.805,549.793c0.271,0,0.521-0.057,0.748-0.17s0.425-0.274,0.595-0.484c0.17-0.209,0.304-0.459,0.399-0.748
				s0.145-0.614,0.145-0.978c0-0.714-0.164-1.274-0.492-1.683c-0.33-0.408-0.834-0.612-1.514-0.612c-0.352,0-0.73,0.11-1.139,0.332
				c-0.408,0.221-0.782,0.586-1.123,1.096c0.092,1.065,0.338,1.873,0.74,2.423S792.113,549.793,792.805,549.793z"/>
		</g>
		<g enable-background="new    ">
			<path fill="#020203" d="M781.143,524.611v-1.156h2.482v-7.99h-1.973v-0.9c0.499-0.09,0.933-0.201,1.301-0.332
				c0.368-0.129,0.699-0.285,0.994-0.467h1.072v9.689h2.243v1.156H781.143z"/>
			<path fill="#020203" d="M792.227,524.816c-0.431,0-0.824-0.043-1.182-0.129c-0.357-0.084-0.68-0.195-0.969-0.33
				c-0.289-0.137-0.55-0.293-0.782-0.469s-0.439-0.359-0.62-0.553l0.68-0.918c0.317,0.33,0.694,0.619,1.131,0.867
				c0.436,0.25,0.971,0.375,1.605,0.375c0.329,0,0.639-0.061,0.928-0.18c0.289-0.117,0.541-0.285,0.756-0.5s0.385-0.477,0.51-0.783
				c0.125-0.305,0.188-0.645,0.188-1.02c0-0.748-0.21-1.332-0.629-1.75c-0.42-0.42-0.98-0.631-1.684-0.631
				c-0.373,0-0.693,0.059-0.96,0.172s-0.563,0.277-0.893,0.492l-0.748-0.477l0.356-5.219h5.424v1.207h-4.199l-0.289,3.213
				c0.261-0.135,0.521-0.244,0.781-0.322c0.262-0.08,0.556-0.119,0.885-0.119c0.465,0,0.9,0.068,1.309,0.203
				c0.408,0.137,0.766,0.344,1.071,0.621s0.547,0.629,0.723,1.055c0.175,0.424,0.263,0.932,0.263,1.521
				c0,0.588-0.102,1.109-0.305,1.562c-0.205,0.455-0.477,0.836-0.816,1.148s-0.729,0.549-1.164,0.713
				C793.158,524.734,792.703,524.816,792.227,524.816z"/>
		</g>
		<g enable-background="new    ">
			<path fill="#020203" d="M781.143,498.529v-1.156h2.482v-7.99h-1.973v-0.9c0.499-0.091,0.933-0.201,1.301-0.332
				c0.368-0.13,0.699-0.286,0.994-0.467h1.072v9.689h2.243v1.156H781.143z"/>
			<path fill="#020203" d="M793.416,498.529v-2.992h-4.879v-0.918l4.642-6.936h1.563v6.731h1.479v1.122h-1.479v2.992H793.416z
				 M790.017,494.415h3.399v-3.145c0-0.295,0.009-0.644,0.025-1.046c0.018-0.402,0.037-0.75,0.061-1.045h-0.068
				c-0.137,0.261-0.277,0.516-0.426,0.765c-0.146,0.249-0.3,0.504-0.459,0.765L790.017,494.415z"/>
		</g>
		<g enable-background="new    ">
			<path fill="#020203" d="M781.143,472.446v-1.156h2.482v-7.99h-1.973v-0.9c0.499-0.091,0.933-0.201,1.301-0.332
				c0.368-0.13,0.699-0.286,0.994-0.467h1.072v9.689h2.243v1.156H781.143z"/>
			<path fill="#020203" d="M792.261,472.65c-0.431,0-0.825-0.043-1.182-0.128s-0.683-0.198-0.978-0.34s-0.559-0.303-0.791-0.484
				c-0.232-0.181-0.439-0.374-0.62-0.578l0.714-0.918c0.328,0.34,0.711,0.641,1.148,0.901c0.436,0.261,0.977,0.391,1.623,0.391
				c0.656,0,1.195-0.179,1.615-0.535c0.418-0.357,0.629-0.842,0.629-1.454c0-0.316-0.061-0.608-0.179-0.875
				c-0.119-0.267-0.314-0.496-0.587-0.688c-0.271-0.192-0.629-0.34-1.07-0.442c-0.442-0.102-0.986-0.152-1.633-0.152v-1.071
				c0.578,0,1.062-0.051,1.454-0.153c0.391-0.102,0.708-0.243,0.952-0.425c0.243-0.181,0.416-0.396,0.518-0.646
				c0.103-0.25,0.153-0.516,0.153-0.8c0-0.532-0.167-0.952-0.501-1.258c-0.335-0.306-0.791-0.459-1.369-0.459
				c-0.453,0-0.869,0.103-1.249,0.306c-0.38,0.204-0.733,0.471-1.062,0.8l-0.748-0.885c0.419-0.396,0.881-0.722,1.386-0.978
				c0.504-0.255,1.079-0.382,1.725-0.382c0.477,0,0.912,0.062,1.31,0.187c0.396,0.125,0.739,0.304,1.028,0.536
				s0.513,0.519,0.672,0.858c0.158,0.34,0.238,0.73,0.238,1.173c0,0.657-0.182,1.195-0.545,1.615
				c-0.362,0.419-0.838,0.742-1.428,0.969v0.068c0.328,0.079,0.635,0.195,0.918,0.348c0.283,0.153,0.533,0.347,0.748,0.578
				c0.215,0.232,0.383,0.502,0.502,0.808c0.119,0.307,0.178,0.646,0.178,1.021c0,0.476-0.094,0.906-0.28,1.292
				c-0.187,0.385-0.442,0.711-0.765,0.978c-0.323,0.266-0.7,0.47-1.131,0.611S792.76,472.65,792.261,472.65z"/>
		</g>
		<g enable-background="new    ">
			<path fill="#020203" d="M781.143,446.363v-1.156h2.482v-7.99h-1.973v-0.9c0.499-0.091,0.933-0.201,1.301-0.332
				c0.368-0.13,0.699-0.286,0.994-0.467h1.072v9.689h2.243v1.156H781.143z"/>
			<path fill="#020203" d="M788.929,446.363v-0.833c0.815-0.816,1.541-1.553,2.176-2.21s1.167-1.267,1.599-1.827
				c0.43-0.562,0.759-1.077,0.985-1.548c0.227-0.47,0.34-0.926,0.34-1.368c0-0.623-0.17-1.133-0.51-1.53
				c-0.34-0.396-0.856-0.595-1.547-0.595c-0.454,0-0.873,0.128-1.259,0.383c-0.385,0.255-0.736,0.563-1.053,0.927l-0.8-0.8
				c0.453-0.498,0.935-0.897,1.445-1.198c0.51-0.3,1.122-0.45,1.836-0.45c1.009,0,1.802,0.292,2.38,0.875
				c0.578,0.584,0.867,1.357,0.867,2.321c0,0.51-0.111,1.022-0.332,1.538s-0.526,1.049-0.918,1.598
				c-0.391,0.55-0.855,1.122-1.394,1.717c-0.538,0.596-1.13,1.228-1.776,1.896c0.295-0.022,0.601-0.045,0.918-0.067
				c0.316-0.022,0.617-0.034,0.9-0.034h3.146v1.207H788.929z"/>
		</g>
		<g enable-background="new    ">
			<path fill="#020203" d="M781.143,420.28v-1.156h2.482v-7.99h-1.973v-0.9c0.499-0.091,0.933-0.201,1.301-0.332
				c0.368-0.13,0.699-0.286,0.994-0.467h1.072v9.689h2.243v1.156H781.143z"/>
			<path fill="#020203" d="M789.592,420.28v-1.156h2.482v-7.99h-1.973v-0.9c0.498-0.091,0.932-0.201,1.301-0.332
				c0.367-0.13,0.699-0.286,0.994-0.467h1.071v9.689h2.243v1.156H789.592z"/>
		</g>
		<g enable-background="new    ">
			<path fill="#020203" d="M781.143,394.198v-1.156h2.482v-7.99h-1.973v-0.9c0.499-0.091,0.933-0.201,1.301-0.332
				c0.368-0.13,0.699-0.286,0.994-0.467h1.072v9.689h2.243v1.156H781.143z"/>
			<path fill="#020203" d="M792.481,394.402c-1.099,0-1.955-0.487-2.567-1.462c-0.611-0.975-0.918-2.374-0.918-4.199
				c0-1.824,0.307-3.213,0.918-4.165c0.612-0.952,1.469-1.428,2.567-1.428c1.088,0,1.938,0.476,2.55,1.428
				c0.612,0.952,0.918,2.341,0.918,4.165c0,1.825-0.306,3.225-0.918,4.199C794.42,393.915,793.569,394.402,792.481,394.402z
				 M792.481,393.28c0.317,0,0.604-0.088,0.858-0.264c0.256-0.176,0.477-0.447,0.663-0.815s0.331-0.839,0.434-1.411
				s0.153-1.256,0.153-2.049s-0.051-1.473-0.153-2.04c-0.103-0.566-0.247-1.028-0.434-1.386c-0.187-0.356-0.407-0.62-0.663-0.79
				c-0.255-0.17-0.541-0.255-0.858-0.255s-0.606,0.085-0.866,0.255c-0.262,0.17-0.485,0.434-0.672,0.79
				c-0.188,0.357-0.332,0.819-0.434,1.386c-0.102,0.567-0.153,1.247-0.153,2.04c0,1.587,0.196,2.74,0.587,3.46
				S791.847,393.28,792.481,393.28z"/>
		</g>
		<g enable-background="new    ">
			<path fill="#020203" d="M787.509,368.319c-0.577,0-1.085-0.108-1.521-0.323s-0.802-0.487-1.097-0.815l0.782-0.885
				c0.227,0.261,0.495,0.471,0.808,0.629c0.312,0.159,0.638,0.238,0.978,0.238c0.386,0,0.748-0.079,1.088-0.238
				c0.34-0.158,0.64-0.422,0.901-0.79c0.26-0.368,0.47-0.847,0.629-1.437c0.158-0.589,0.243-1.32,0.255-2.193
				c-0.341,0.432-0.737,0.771-1.19,1.021s-0.906,0.374-1.359,0.374c-0.941,0-1.689-0.277-2.244-0.833
				c-0.556-0.556-0.833-1.395-0.833-2.517c0-0.521,0.085-0.994,0.255-1.419s0.399-0.791,0.688-1.097s0.629-0.544,1.021-0.714
				c0.391-0.17,0.801-0.255,1.232-0.255c0.532,0,1.027,0.107,1.486,0.323c0.459,0.215,0.856,0.541,1.191,0.978
				c0.334,0.436,0.594,0.979,0.781,1.632c0.188,0.651,0.281,1.414,0.281,2.286c0,1.088-0.114,2.015-0.341,2.779
				c-0.227,0.766-0.532,1.389-0.918,1.87c-0.386,0.482-0.824,0.833-1.317,1.054C788.571,368.208,788.053,368.319,787.509,368.319z
				 M788.02,362.845c0.361,0,0.744-0.113,1.146-0.341c0.402-0.227,0.779-0.595,1.131-1.104c-0.091-1.065-0.34-1.87-0.748-2.414
				s-0.957-0.816-1.648-0.816c-0.262,0-0.508,0.058-0.74,0.17c-0.232,0.114-0.434,0.275-0.604,0.485
				c-0.17,0.209-0.303,0.462-0.399,0.756c-0.097,0.295-0.145,0.618-0.145,0.969c0,0.715,0.165,1.275,0.493,1.684
				S787.339,362.845,788.02,362.845z"/>
		</g>
		<g enable-background="new    ">
			<path fill="#020203" d="M788.273,342.236c-0.51,0-0.982-0.074-1.419-0.221c-0.437-0.147-0.811-0.354-1.122-0.621
				c-0.312-0.266-0.559-0.58-0.739-0.943c-0.182-0.362-0.272-0.759-0.272-1.19c0-0.351,0.06-0.677,0.179-0.977
				c0.119-0.301,0.272-0.572,0.459-0.816c0.187-0.243,0.402-0.459,0.646-0.646c0.244-0.187,0.496-0.348,0.757-0.484v-0.067
				c-0.396-0.283-0.748-0.626-1.054-1.028c-0.307-0.402-0.459-0.893-0.459-1.471c0-0.42,0.079-0.799,0.238-1.14
				c0.158-0.34,0.373-0.631,0.646-0.875s0.595-0.434,0.97-0.569c0.373-0.137,0.781-0.204,1.223-0.204
				c0.477,0,0.902,0.07,1.275,0.212c0.375,0.143,0.694,0.341,0.961,0.596c0.266,0.255,0.471,0.561,0.611,0.918
				c0.143,0.356,0.213,0.745,0.213,1.164c0,0.283-0.049,0.556-0.145,0.816s-0.215,0.504-0.357,0.73
				c-0.141,0.228-0.3,0.431-0.476,0.612s-0.349,0.334-0.519,0.459v0.068c0.238,0.136,0.471,0.292,0.697,0.467
				c0.227,0.176,0.428,0.374,0.604,0.596c0.176,0.221,0.316,0.473,0.425,0.756c0.108,0.284,0.161,0.606,0.161,0.97
				c0,0.407-0.084,0.787-0.254,1.139s-0.408,0.657-0.715,0.918c-0.306,0.261-0.674,0.465-1.104,0.612
				C789.271,342.162,788.795,342.236,788.273,342.236z M788.309,341.199c0.634,0,1.146-0.176,1.537-0.527
				c0.392-0.351,0.588-0.81,0.588-1.377c0-0.351-0.08-0.651-0.238-0.9c-0.159-0.249-0.375-0.468-0.646-0.655
				c-0.271-0.187-0.586-0.356-0.943-0.51c-0.357-0.152-0.729-0.309-1.113-0.467c-0.432,0.294-0.791,0.637-1.08,1.028
				c-0.289,0.391-0.434,0.836-0.434,1.334c0,0.307,0.061,0.584,0.179,0.833c0.119,0.25,0.283,0.468,0.493,0.654
				c0.209,0.188,0.456,0.332,0.74,0.434C787.673,341.148,787.979,341.199,788.309,341.199z M789.039,336.116
				c0.362-0.328,0.643-0.674,0.842-1.037c0.197-0.362,0.297-0.742,0.297-1.139c0-0.544-0.164-1-0.492-1.369
				c-0.33-0.368-0.794-0.552-1.395-0.552c-0.51,0-0.93,0.158-1.258,0.476c-0.329,0.317-0.493,0.742-0.493,1.275
				c0,0.328,0.067,0.609,0.204,0.841c0.136,0.232,0.32,0.439,0.553,0.621s0.498,0.343,0.799,0.484
				C788.396,335.858,788.71,335.991,789.039,336.116z"/>
		</g>
		<g enable-background="new    ">
			<path fill="#020203" d="M787.033,315.949c0.045-1.02,0.136-1.955,0.271-2.805c0.137-0.851,0.326-1.658,0.57-2.423
				c0.243-0.765,0.555-1.505,0.935-2.219s0.835-1.444,1.368-2.192h-5.406v-1.207h6.987v0.867c-0.646,0.815-1.171,1.598-1.572,2.346
				c-0.402,0.748-0.723,1.51-0.96,2.286c-0.238,0.776-0.412,1.599-0.52,2.465c-0.107,0.867-0.184,1.828-0.229,2.882H787.033z"/>
		</g>
		<g enable-background="new    ">
			<path fill="#020203" d="M788.58,290.07c-0.533,0-1.025-0.108-1.479-0.323c-0.454-0.215-0.848-0.541-1.182-0.978
				c-0.335-0.436-0.599-0.979-0.791-1.632c-0.193-0.651-0.289-1.414-0.289-2.286c0-1.088,0.113-2.015,0.34-2.78
				c0.227-0.765,0.533-1.388,0.918-1.869c0.385-0.482,0.824-0.833,1.318-1.055c0.492-0.221,1.011-0.331,1.555-0.331
				c0.59,0,1.097,0.11,1.521,0.331c0.426,0.222,0.791,0.496,1.097,0.825l-0.782,0.866c-0.227-0.26-0.496-0.467-0.807-0.62
				c-0.312-0.153-0.639-0.229-0.979-0.229c-0.373,0-0.73,0.079-1.07,0.238c-0.34,0.158-0.641,0.419-0.901,0.781
				c-0.261,0.363-0.47,0.836-0.629,1.42s-0.243,1.307-0.255,2.168c0.34-0.42,0.736-0.751,1.189-0.995
				c0.453-0.243,0.901-0.365,1.344-0.365c0.94,0,1.691,0.277,2.252,0.833s0.842,1.394,0.842,2.516c0,0.521-0.085,0.995-0.255,1.42
				s-0.402,0.79-0.697,1.097c-0.295,0.306-0.635,0.544-1.021,0.714C789.436,289.985,789.021,290.07,788.58,290.07z M788.58,288.965
				c0.271,0,0.521-0.057,0.748-0.17s0.425-0.274,0.595-0.484c0.17-0.209,0.304-0.459,0.399-0.748s0.145-0.614,0.145-0.978
				c0-0.714-0.164-1.274-0.492-1.683c-0.33-0.408-0.834-0.612-1.514-0.612c-0.352,0-0.73,0.11-1.139,0.332
				c-0.408,0.221-0.782,0.586-1.123,1.096c0.092,1.065,0.338,1.873,0.74,2.423S787.889,288.965,788.58,288.965z"/>
		</g>
		<g enable-background="new    ">
			<path fill="#020203" d="M788.002,263.987c-0.431,0-0.824-0.043-1.182-0.128s-0.68-0.195-0.969-0.331s-0.55-0.292-0.782-0.468
				s-0.439-0.359-0.62-0.553l0.68-0.918c0.317,0.329,0.694,0.618,1.131,0.867c0.436,0.25,0.971,0.374,1.605,0.374
				c0.329,0,0.639-0.06,0.928-0.179c0.289-0.118,0.541-0.286,0.756-0.501s0.385-0.477,0.51-0.782s0.188-0.646,0.188-1.02
				c0-0.748-0.21-1.332-0.629-1.751c-0.42-0.42-0.98-0.63-1.684-0.63c-0.373,0-0.693,0.058-0.96,0.171s-0.563,0.277-0.893,0.492
				l-0.748-0.476l0.356-5.219h5.424v1.207h-4.199l-0.289,3.213c0.261-0.136,0.521-0.244,0.781-0.323
				c0.262-0.079,0.556-0.119,0.885-0.119c0.465,0,0.9,0.068,1.309,0.204s0.766,0.343,1.071,0.62c0.306,0.278,0.547,0.63,0.723,1.055
				c0.175,0.425,0.263,0.932,0.263,1.521c0,0.589-0.102,1.11-0.305,1.563c-0.205,0.454-0.477,0.836-0.816,1.147
				c-0.34,0.312-0.729,0.55-1.164,0.714C788.934,263.905,788.479,263.987,788.002,263.987z"/>
		</g>
		<g enable-background="new    ">
			<path fill="#020203" d="M789.191,237.701v-2.992h-4.879v-0.918l4.642-6.936h1.563v6.731h1.479v1.122h-1.479v2.992H789.191z
				 M785.792,233.586h3.399v-3.145c0-0.295,0.009-0.644,0.025-1.046c0.018-0.402,0.037-0.75,0.061-1.045h-0.068
				c-0.137,0.261-0.277,0.516-0.426,0.765c-0.146,0.249-0.3,0.504-0.459,0.765L785.792,233.586z"/>
		</g>
		<g enable-background="new    ">
			<path fill="#020203" d="M788.036,211.822c-0.431,0-0.825-0.043-1.182-0.128s-0.683-0.198-0.978-0.34s-0.559-0.303-0.791-0.484
				c-0.232-0.181-0.439-0.374-0.62-0.578l0.714-0.918c0.328,0.34,0.711,0.641,1.148,0.901c0.436,0.261,0.977,0.391,1.623,0.391
				c0.656,0,1.195-0.179,1.615-0.535c0.418-0.357,0.629-0.842,0.629-1.454c0-0.316-0.061-0.608-0.179-0.875
				c-0.119-0.267-0.314-0.496-0.587-0.688c-0.271-0.192-0.629-0.34-1.07-0.442c-0.442-0.102-0.986-0.152-1.633-0.152v-1.071
				c0.578,0,1.062-0.051,1.454-0.153c0.391-0.102,0.708-0.243,0.952-0.425c0.243-0.181,0.416-0.396,0.518-0.646
				c0.103-0.25,0.153-0.516,0.153-0.8c0-0.532-0.167-0.952-0.501-1.258c-0.335-0.306-0.791-0.459-1.369-0.459
				c-0.453,0-0.869,0.103-1.249,0.306c-0.38,0.204-0.733,0.471-1.062,0.8l-0.748-0.885c0.419-0.396,0.881-0.722,1.386-0.978
				c0.504-0.255,1.079-0.382,1.725-0.382c0.477,0,0.912,0.062,1.31,0.187c0.396,0.125,0.739,0.304,1.028,0.536
				s0.513,0.519,0.672,0.858c0.158,0.34,0.238,0.73,0.238,1.173c0,0.657-0.182,1.195-0.545,1.615
				c-0.362,0.419-0.838,0.742-1.428,0.969v0.068c0.328,0.079,0.635,0.195,0.918,0.348c0.283,0.153,0.533,0.347,0.748,0.578
				c0.215,0.232,0.383,0.502,0.502,0.808c0.119,0.307,0.178,0.646,0.178,1.021c0,0.476-0.094,0.906-0.28,1.292
				c-0.187,0.385-0.442,0.711-0.765,0.978c-0.323,0.266-0.7,0.47-1.131,0.611S788.535,211.822,788.036,211.822z"/>
		</g>
		<g enable-background="new    ">
			<path fill="#020203" d="M784.704,185.535v-0.833c0.815-0.816,1.541-1.553,2.176-2.21s1.167-1.267,1.599-1.827
				c0.43-0.562,0.759-1.077,0.985-1.548c0.227-0.47,0.34-0.926,0.34-1.368c0-0.623-0.17-1.133-0.51-1.53
				c-0.34-0.396-0.856-0.595-1.547-0.595c-0.454,0-0.873,0.128-1.259,0.383c-0.385,0.255-0.736,0.563-1.053,0.927l-0.8-0.8
				c0.453-0.498,0.935-0.897,1.445-1.198c0.51-0.3,1.122-0.45,1.836-0.45c1.009,0,1.802,0.292,2.38,0.875
				c0.578,0.584,0.867,1.357,0.867,2.321c0,0.51-0.111,1.022-0.332,1.538s-0.526,1.049-0.918,1.598
				c-0.391,0.55-0.855,1.122-1.394,1.717c-0.538,0.596-1.13,1.228-1.776,1.896c0.295-0.022,0.601-0.045,0.918-0.067
				c0.316-0.022,0.617-0.034,0.9-0.034h3.146v1.207H784.704z"/>
		</g>
		<g enable-background="new    ">
			<path fill="#020203" d="M785.367,159.452v-1.156h2.482v-7.99h-1.973v-0.9c0.498-0.091,0.932-0.201,1.301-0.332
				c0.367-0.13,0.699-0.286,0.994-0.467h1.071v9.689h2.243v1.156H785.367z"/>
		</g>
	</g>
	<g enable-background="new    ">
		<path fill="#020203" d="M154.201,132.554v-11.152h3.179c0.623,0,1.193,0.058,1.708,0.17c0.516,0.114,0.955,0.298,1.317,0.553
			s0.646,0.593,0.85,1.012s0.306,0.935,0.306,1.547c0,0.59-0.1,1.1-0.298,1.53s-0.479,0.788-0.841,1.071s-0.796,0.495-1.3,0.637
			c-0.504,0.143-1.062,0.213-1.675,0.213h-1.836v4.42H154.201z M155.612,126.978h1.666c0.975,0,1.697-0.184,2.167-0.553
			c0.47-0.368,0.706-0.948,0.706-1.742c0-0.805-0.247-1.362-0.739-1.675c-0.493-0.312-1.227-0.467-2.202-0.467h-1.598V126.978z"/>
	</g>
	<g enable-background="new    ">
		<path fill="#020203" d="M164.86,132.758c-0.691,0-1.266-0.204-1.726-0.612c-0.459-0.408-0.688-0.985-0.688-1.733
			c0-0.907,0.402-1.601,1.207-2.083c0.805-0.481,2.091-0.818,3.859-1.012c0-0.26-0.026-0.516-0.077-0.765
			c-0.051-0.249-0.139-0.47-0.264-0.663c-0.125-0.192-0.297-0.349-0.519-0.468c-0.221-0.119-0.501-0.178-0.841-0.178
			c-0.476,0-0.924,0.091-1.343,0.271c-0.419,0.182-0.793,0.386-1.122,0.612l-0.544-0.969c0.385-0.25,0.855-0.49,1.411-0.723
			s1.167-0.349,1.836-0.349c1.009,0,1.74,0.309,2.193,0.927c0.453,0.617,0.68,1.442,0.68,2.473v5.066h-1.156l-0.119-0.986h-0.051
			c-0.397,0.329-0.822,0.609-1.275,0.842C165.869,132.642,165.382,132.758,164.86,132.758z M165.269,131.636
			c0.396,0,0.771-0.094,1.122-0.28c0.351-0.188,0.725-0.462,1.122-0.825v-2.295c-0.691,0.091-1.272,0.199-1.743,0.323
			c-0.47,0.125-0.85,0.272-1.139,0.442s-0.499,0.365-0.629,0.586c-0.13,0.222-0.195,0.462-0.195,0.723
			c0,0.477,0.142,0.816,0.425,1.021S164.86,131.636,165.269,131.636z"/>
	</g>
	<g enable-background="new    ">
		<path fill="#020203" d="M171.524,132.554v-8.262h1.156l0.119,1.496h0.051c0.283-0.521,0.626-0.936,1.028-1.241
			c0.402-0.307,0.842-0.459,1.317-0.459c0.329,0,0.623,0.057,0.885,0.17l-0.272,1.224c-0.136-0.045-0.261-0.079-0.374-0.102
			s-0.255-0.034-0.425-0.034c-0.352,0-0.717,0.142-1.097,0.425s-0.711,0.776-0.994,1.479v5.304H171.524z"/>
	</g>
	<g enable-background="new    ">
		<path fill="#020203" d="M177.423,132.554V120.45h1.377v8.193h0.051l3.519-4.352h1.547l-2.771,3.314l3.145,4.947h-1.53
			l-2.414-3.978l-1.547,1.802v2.176H177.423z"/>
	</g>
	<g enable-background="new    ">
		<path fill="#020203" d="M188.882,132.758c-0.556,0-1.074-0.1-1.556-0.298s-0.9-0.481-1.258-0.85s-0.638-0.818-0.842-1.352
			c-0.204-0.532-0.306-1.139-0.306-1.819c0-0.68,0.104-1.289,0.314-1.827s0.487-0.994,0.833-1.368s0.739-0.66,1.182-0.859
			c0.442-0.197,0.901-0.297,1.377-0.297c0.521,0,0.988,0.091,1.402,0.271c0.414,0.182,0.759,0.442,1.037,0.782
			c0.277,0.34,0.49,0.748,0.638,1.224c0.146,0.477,0.221,1.01,0.221,1.599c0,0.147-0.003,0.292-0.009,0.434s-0.02,0.264-0.042,0.365
			h-5.576c0.057,0.884,0.332,1.584,0.824,2.1c0.493,0.516,1.137,0.773,1.93,0.773c0.396,0,0.763-0.06,1.097-0.179
			s0.654-0.274,0.961-0.468l0.492,0.918c-0.362,0.228-0.765,0.426-1.207,0.596C189.953,132.673,189.448,132.758,188.882,132.758z
			 M186.281,127.76h4.42c0-0.839-0.179-1.477-0.536-1.912c-0.356-0.437-0.858-0.655-1.504-0.655c-0.295,0-0.575,0.058-0.842,0.17
			c-0.267,0.114-0.507,0.281-0.723,0.502c-0.215,0.221-0.394,0.49-0.535,0.808S186.326,127.352,186.281,127.76z"/>
	</g>
	<g enable-background="new    ">
		<path fill="#020203" d="M196.396,132.758c-0.442,0-0.813-0.068-1.114-0.204s-0.544-0.323-0.731-0.561
			c-0.187-0.238-0.32-0.527-0.399-0.867c-0.08-0.34-0.119-0.714-0.119-1.122v-4.573h-1.224v-1.054l1.292-0.085l0.17-2.312h1.173
			v2.312h2.227v1.139h-2.227v4.59c0,0.51,0.094,0.904,0.281,1.182c0.187,0.278,0.518,0.417,0.994,0.417
			c0.147,0,0.306-0.023,0.476-0.068s0.323-0.097,0.459-0.153l0.272,1.055c-0.227,0.079-0.473,0.149-0.739,0.212
			C196.919,132.727,196.656,132.758,196.396,132.758z"/>
	</g>
	<g enable-background="new    ">
		<path fill="#020203" d="M201.802,132.758c-0.442,0-0.813-0.068-1.114-0.204s-0.544-0.323-0.731-0.561
			c-0.187-0.238-0.32-0.527-0.399-0.867c-0.08-0.34-0.119-0.714-0.119-1.122v-4.573h-1.224v-1.054l1.292-0.085l0.17-2.312h1.173
			v2.312h2.227v1.139h-2.227v4.59c0,0.51,0.094,0.904,0.281,1.182c0.187,0.278,0.518,0.417,0.994,0.417
			c0.147,0,0.306-0.023,0.476-0.068s0.323-0.097,0.459-0.153l0.272,1.055c-0.227,0.079-0.473,0.149-0.739,0.212
			C202.326,132.727,202.062,132.758,201.802,132.758z"/>
	</g>
	<g enable-background="new    ">
	</g>
	<g enable-background="new    ">
		<path fill="#020203" d="M208.482,132.554v-11.152h1.411v9.945h4.879v1.207H208.482z"/>
	</g>
	<g enable-background="new    ">
		<path fill="#020203" d="M217.322,122.592c-0.272,0-0.501-0.085-0.688-0.255s-0.28-0.386-0.28-0.646c0-0.271,0.093-0.49,0.28-0.654
			s0.417-0.246,0.688-0.246s0.501,0.082,0.688,0.246s0.281,0.383,0.281,0.654c0,0.261-0.094,0.477-0.281,0.646
			S217.594,122.592,217.322,122.592z M216.608,132.554v-8.262h1.394v8.262H216.608z"/>
	</g>
	<g enable-background="new    ">
		<path fill="#020203" d="M220.79,132.554v-8.262h1.156l0.119,1.189h0.051c0.396-0.396,0.813-0.728,1.25-0.994
			c0.436-0.267,0.943-0.399,1.521-0.399c0.873,0,1.51,0.271,1.912,0.815s0.604,1.35,0.604,2.414v5.236h-1.394v-5.049
			c0-0.782-0.125-1.346-0.374-1.691c-0.249-0.346-0.646-0.519-1.19-0.519c-0.431,0-0.81,0.107-1.139,0.323
			c-0.329,0.215-0.703,0.532-1.122,0.951v5.984H220.79z"/>
	</g>
	<g enable-background="new    ">
		<path fill="#020203" d="M230.089,132.554V120.45h1.377v8.193h0.051l3.519-4.352h1.547l-2.771,3.314l3.145,4.947h-1.53
			l-2.414-3.978l-1.547,1.802v2.176H230.089z"/>
	</g>
	<g enable-background="new    ">
		<path fill="#020203" d="M240.663,132.758c-0.59,0-1.151-0.108-1.683-0.323c-0.533-0.215-0.998-0.487-1.394-0.815l0.697-0.936
			c0.363,0.295,0.734,0.533,1.114,0.714c0.379,0.182,0.818,0.272,1.317,0.272c0.544,0,0.952-0.125,1.224-0.374
			s0.408-0.556,0.408-0.918c0-0.216-0.057-0.402-0.17-0.562c-0.113-0.158-0.258-0.297-0.434-0.416s-0.377-0.224-0.604-0.314
			s-0.453-0.182-0.68-0.272c-0.295-0.102-0.589-0.218-0.884-0.349c-0.295-0.13-0.558-0.289-0.791-0.476
			c-0.232-0.188-0.422-0.405-0.569-0.654c-0.147-0.249-0.221-0.55-0.221-0.901c0-0.328,0.065-0.638,0.196-0.927
			c0.13-0.289,0.317-0.538,0.561-0.748c0.244-0.209,0.541-0.374,0.893-0.492c0.351-0.119,0.748-0.179,1.19-0.179
			c0.521,0,1,0.091,1.437,0.271c0.436,0.182,0.813,0.402,1.13,0.663l-0.663,0.884c-0.283-0.215-0.578-0.391-0.884-0.526
			c-0.306-0.136-0.641-0.204-1.003-0.204c-0.521,0-0.904,0.119-1.148,0.356c-0.244,0.238-0.365,0.517-0.365,0.833
			c0,0.193,0.051,0.36,0.153,0.502s0.238,0.267,0.408,0.374s0.365,0.204,0.586,0.289s0.451,0.173,0.688,0.264
			c0.294,0.113,0.592,0.232,0.893,0.356c0.3,0.125,0.569,0.281,0.808,0.468c0.238,0.188,0.433,0.417,0.586,0.688
			c0.153,0.272,0.229,0.601,0.229,0.986c0,0.34-0.065,0.657-0.196,0.952s-0.323,0.555-0.578,0.781
			c-0.255,0.228-0.573,0.405-0.952,0.536C241.583,132.692,241.15,132.758,240.663,132.758z"/>
	</g>
	<g enable-background="new    ">
	</g>
	<g enable-background="new    ">
		<path fill="#020203" d="M625.965,132.554v-11.152h3.18c0.623,0,1.192,0.058,1.708,0.17c0.516,0.114,0.955,0.298,1.317,0.553
			c0.363,0.255,0.646,0.593,0.851,1.012s0.306,0.935,0.306,1.547c0,0.59-0.1,1.1-0.298,1.53s-0.479,0.788-0.841,1.071
			c-0.363,0.283-0.797,0.495-1.301,0.637c-0.504,0.143-1.062,0.213-1.675,0.213h-1.836v4.42H625.965z M627.376,126.978h1.666
			c0.975,0,1.697-0.184,2.168-0.553c0.47-0.368,0.705-0.948,0.705-1.742c0-0.805-0.246-1.362-0.739-1.675
			c-0.493-0.312-1.227-0.467-2.201-0.467h-1.599V126.978z"/>
	</g>
	<g enable-background="new    ">
		<path fill="#020203" d="M636.625,132.758c-0.691,0-1.267-0.204-1.726-0.612s-0.688-0.985-0.688-1.733
			c0-0.907,0.402-1.601,1.207-2.083c0.805-0.481,2.091-0.818,3.859-1.012c0-0.26-0.026-0.516-0.077-0.765s-0.139-0.47-0.264-0.663
			c-0.124-0.192-0.297-0.349-0.519-0.468c-0.221-0.119-0.501-0.178-0.841-0.178c-0.477,0-0.924,0.091-1.343,0.271
			c-0.42,0.182-0.794,0.386-1.122,0.612l-0.544-0.969c0.385-0.25,0.855-0.49,1.41-0.723c0.556-0.232,1.168-0.349,1.836-0.349
			c1.009,0,1.74,0.309,2.193,0.927c0.453,0.617,0.68,1.442,0.68,2.473v5.066h-1.155l-0.119-0.986h-0.051
			c-0.397,0.329-0.822,0.609-1.275,0.842S637.146,132.758,636.625,132.758z M637.033,131.636c0.396,0,0.771-0.094,1.122-0.28
			c0.351-0.188,0.725-0.462,1.122-0.825v-2.295c-0.691,0.091-1.272,0.199-1.743,0.323c-0.47,0.125-0.85,0.272-1.139,0.442
			s-0.499,0.365-0.629,0.586c-0.131,0.222-0.195,0.462-0.195,0.723c0,0.477,0.142,0.816,0.425,1.021
			S636.625,131.636,637.033,131.636z"/>
	</g>
	<g enable-background="new    ">
		<path fill="#020203" d="M643.288,132.554v-8.262h1.156l0.119,1.496h0.051c0.283-0.521,0.626-0.936,1.028-1.241
			c0.402-0.307,0.842-0.459,1.317-0.459c0.329,0,0.623,0.057,0.885,0.17l-0.272,1.224c-0.136-0.045-0.261-0.079-0.374-0.102
			s-0.255-0.034-0.425-0.034c-0.352,0-0.717,0.142-1.097,0.425s-0.711,0.776-0.994,1.479v5.304H643.288z"/>
	</g>
	<g enable-background="new    ">
		<path fill="#020203" d="M649.188,132.554V120.45h1.377v8.193h0.051l3.52-4.352h1.547l-2.771,3.314l3.145,4.947h-1.53l-2.414-3.978
			l-1.547,1.802v2.176H649.188z"/>
	</g>
	<g enable-background="new    ">
		<path fill="#020203" d="M660.646,132.758c-0.556,0-1.074-0.1-1.556-0.298s-0.9-0.481-1.258-0.85s-0.638-0.818-0.842-1.352
			c-0.204-0.532-0.306-1.139-0.306-1.819c0-0.68,0.104-1.289,0.314-1.827s0.487-0.994,0.833-1.368s0.739-0.66,1.182-0.859
			c0.442-0.197,0.901-0.297,1.377-0.297c0.521,0,0.988,0.091,1.402,0.271c0.414,0.182,0.759,0.442,1.037,0.782
			c0.277,0.34,0.49,0.748,0.638,1.224c0.146,0.477,0.221,1.01,0.221,1.599c0,0.147-0.003,0.292-0.009,0.434s-0.02,0.264-0.042,0.365
			h-5.576c0.057,0.884,0.332,1.584,0.824,2.1c0.493,0.516,1.137,0.773,1.93,0.773c0.396,0,0.763-0.06,1.097-0.179
			s0.654-0.274,0.961-0.468l0.492,0.918c-0.362,0.228-0.765,0.426-1.207,0.596C661.717,132.673,661.212,132.758,660.646,132.758z
			 M658.045,127.76h4.42c0-0.839-0.179-1.477-0.536-1.912c-0.356-0.437-0.858-0.655-1.504-0.655c-0.295,0-0.575,0.058-0.842,0.17
			c-0.267,0.114-0.507,0.281-0.723,0.502c-0.215,0.221-0.394,0.49-0.535,0.808S658.09,127.352,658.045,127.76z"/>
	</g>
	<g enable-background="new    ">
		<path fill="#020203" d="M668.16,132.758c-0.442,0-0.813-0.068-1.114-0.204c-0.3-0.136-0.544-0.323-0.73-0.561
			c-0.188-0.238-0.32-0.527-0.399-0.867c-0.08-0.34-0.119-0.714-0.119-1.122v-4.573h-1.224v-1.054l1.292-0.085l0.17-2.312h1.173
			v2.312h2.227v1.139h-2.227v4.59c0,0.51,0.094,0.904,0.28,1.182c0.188,0.278,0.519,0.417,0.994,0.417
			c0.147,0,0.307-0.023,0.477-0.068s0.323-0.097,0.459-0.153l0.271,1.055c-0.227,0.079-0.473,0.149-0.739,0.212
			S668.42,132.758,668.16,132.758z"/>
	</g>
	<g enable-background="new    ">
		<path fill="#020203" d="M673.566,132.758c-0.442,0-0.814-0.068-1.114-0.204s-0.544-0.323-0.731-0.561
			c-0.187-0.238-0.32-0.527-0.398-0.867c-0.08-0.34-0.119-0.714-0.119-1.122v-4.573h-1.225v-1.054l1.293-0.085l0.17-2.312h1.172
			v2.312h2.228v1.139h-2.228v4.59c0,0.51,0.094,0.904,0.281,1.182c0.188,0.278,0.518,0.417,0.994,0.417
			c0.147,0,0.307-0.023,0.477-0.068s0.322-0.097,0.459-0.153l0.271,1.055c-0.227,0.079-0.473,0.149-0.739,0.212
			S673.826,132.758,673.566,132.758z"/>
	</g>
	<g enable-background="new    ">
	</g>
	<g enable-background="new    ">
		<path fill="#020203" d="M680.246,132.554v-11.152h3.486c0.566,0,1.09,0.055,1.572,0.162c0.48,0.107,0.895,0.286,1.24,0.535
			s0.615,0.572,0.809,0.969c0.191,0.397,0.288,0.885,0.288,1.462c0,0.873-0.227,1.57-0.68,2.092
			c-0.454,0.521-1.065,0.878-1.836,1.07l2.839,4.862h-1.598l-2.687-4.709h-2.022v4.709H680.246z M681.658,126.688h1.869
			c0.873,0,1.541-0.179,2.006-0.535c0.465-0.357,0.697-0.898,0.697-1.624c0-0.736-0.232-1.252-0.697-1.547
			c-0.465-0.294-1.133-0.441-2.006-0.441h-1.869V126.688z"/>
	</g>
	<g enable-background="new    ">
		<path fill="#020203" d="M692.963,132.758c-0.556,0-1.074-0.1-1.556-0.298s-0.901-0.481-1.258-0.85
			c-0.357-0.368-0.638-0.818-0.842-1.352c-0.204-0.532-0.306-1.139-0.306-1.819c0-0.68,0.104-1.289,0.314-1.827
			c0.209-0.538,0.486-0.994,0.833-1.368c0.345-0.374,0.739-0.66,1.181-0.859c0.443-0.197,0.902-0.297,1.377-0.297
			c0.521,0,0.989,0.091,1.403,0.271c0.413,0.182,0.759,0.442,1.037,0.782c0.277,0.34,0.489,0.748,0.638,1.224
			c0.146,0.477,0.221,1.01,0.221,1.599c0,0.147-0.003,0.292-0.009,0.434s-0.02,0.264-0.042,0.365h-5.576
			c0.057,0.884,0.332,1.584,0.824,2.1c0.493,0.516,1.137,0.773,1.93,0.773c0.396,0,0.762-0.06,1.096-0.179
			c0.335-0.119,0.655-0.274,0.961-0.468l0.493,0.918c-0.362,0.228-0.765,0.426-1.207,0.596S693.529,132.758,692.963,132.758z
			 M690.361,127.76h4.42c0-0.839-0.178-1.477-0.535-1.912c-0.357-0.437-0.858-0.655-1.504-0.655c-0.295,0-0.576,0.058-0.842,0.17
			c-0.267,0.114-0.508,0.281-0.723,0.502s-0.395,0.49-0.535,0.808C690.5,126.989,690.406,127.352,690.361,127.76z"/>
	</g>
	<g enable-background="new    ">
		<path fill="#020203" d="M701.31,132.758c-0.544,0-1.054-0.097-1.53-0.289c-0.476-0.192-0.887-0.473-1.232-0.842
			c-0.346-0.368-0.617-0.821-0.815-1.359c-0.199-0.538-0.298-1.147-0.298-1.828c0-0.69,0.107-1.306,0.323-1.845
			c0.215-0.538,0.504-0.994,0.867-1.368c0.362-0.374,0.784-0.657,1.266-0.85c0.482-0.192,0.989-0.289,1.521-0.289
			c0.545,0,1.009,0.097,1.395,0.289c0.385,0.192,0.726,0.419,1.02,0.68l-0.714,0.918c-0.237-0.215-0.49-0.391-0.756-0.527
			c-0.267-0.136-0.564-0.203-0.893-0.203c-0.374,0-0.72,0.076-1.037,0.229c-0.317,0.152-0.59,0.371-0.816,0.654
			s-0.405,0.62-0.535,1.012c-0.131,0.391-0.195,0.824-0.195,1.3c0,0.477,0.062,0.907,0.187,1.292
			c0.125,0.386,0.298,0.717,0.519,0.995c0.221,0.277,0.49,0.492,0.808,0.646s0.663,0.229,1.037,0.229
			c0.385,0,0.739-0.082,1.062-0.246s0.614-0.36,0.875-0.587l0.612,0.936c-0.374,0.328-0.788,0.586-1.241,0.773
			C702.284,132.664,701.809,132.758,701.31,132.758z"/>
	</g>
	<g enable-background="new    ">
		<path fill="#020203" d="M705.797,132.554V120.45h1.395v3.298l-0.051,1.699c0.396-0.374,0.811-0.693,1.24-0.96
			c0.432-0.267,0.936-0.399,1.514-0.399c0.873,0,1.51,0.271,1.912,0.815s0.604,1.35,0.604,2.414v5.236h-1.395v-5.049
			c0-0.782-0.124-1.346-0.373-1.691c-0.25-0.346-0.646-0.519-1.19-0.519c-0.431,0-0.81,0.107-1.139,0.323
			c-0.329,0.215-0.703,0.532-1.122,0.951v5.984H705.797z"/>
	</g>
	<g enable-background="new    ">
		<path fill="#020203" d="M717.646,132.758c-0.441,0-0.813-0.068-1.113-0.204c-0.301-0.136-0.544-0.323-0.731-0.561
			c-0.187-0.238-0.32-0.527-0.399-0.867s-0.119-0.714-0.119-1.122v-4.573h-1.224v-1.054l1.292-0.085l0.17-2.312h1.173v2.312h2.228
			v1.139h-2.228v4.59c0,0.51,0.094,0.904,0.281,1.182c0.187,0.278,0.518,0.417,0.994,0.417c0.147,0,0.306-0.023,0.476-0.068
			s0.323-0.097,0.459-0.153l0.272,1.055c-0.227,0.079-0.474,0.149-0.739,0.212C718.171,132.727,717.907,132.758,717.646,132.758z"/>
	</g>
	<g enable-background="new    ">
		<path fill="#020203" d="M722.78,132.758c-0.59,0-1.15-0.108-1.683-0.323c-0.533-0.215-0.998-0.487-1.395-0.815l0.697-0.936
			c0.362,0.295,0.733,0.533,1.113,0.714c0.38,0.182,0.818,0.272,1.317,0.272c0.544,0,0.952-0.125,1.225-0.374
			c0.271-0.249,0.407-0.556,0.407-0.918c0-0.216-0.057-0.402-0.17-0.562c-0.113-0.158-0.258-0.297-0.434-0.416
			s-0.377-0.224-0.604-0.314s-0.453-0.182-0.68-0.272c-0.295-0.102-0.589-0.218-0.884-0.349c-0.295-0.13-0.559-0.289-0.791-0.476
			c-0.232-0.188-0.422-0.405-0.569-0.654s-0.221-0.55-0.221-0.901c0-0.328,0.065-0.638,0.195-0.927s0.317-0.538,0.562-0.748
			c0.243-0.209,0.541-0.374,0.893-0.492c0.351-0.119,0.747-0.179,1.189-0.179c0.521,0,1,0.091,1.437,0.271
			c0.437,0.182,0.813,0.402,1.131,0.663l-0.663,0.884c-0.283-0.215-0.578-0.391-0.884-0.526c-0.307-0.136-0.641-0.204-1.003-0.204
			c-0.521,0-0.904,0.119-1.148,0.356c-0.243,0.238-0.365,0.517-0.365,0.833c0,0.193,0.051,0.36,0.153,0.502
			c0.102,0.142,0.238,0.267,0.408,0.374s0.365,0.204,0.586,0.289c0.222,0.085,0.451,0.173,0.688,0.264
			c0.295,0.113,0.593,0.232,0.893,0.356c0.301,0.125,0.569,0.281,0.808,0.468c0.238,0.188,0.434,0.417,0.587,0.688
			c0.152,0.272,0.229,0.601,0.229,0.986c0,0.34-0.065,0.657-0.196,0.952c-0.13,0.295-0.322,0.555-0.577,0.781
			c-0.256,0.228-0.573,0.405-0.952,0.536C723.701,132.692,723.268,132.758,722.78,132.758z"/>
	</g>
	<g enable-background="new    ">
		<path fill="#020203" d="M350.321,56.833c-1.323,0-2.539-0.245-3.648-0.735c-1.109-0.491-2.075-1.2-2.896-2.129
			c-0.821-0.928-1.461-2.068-1.92-3.424c-0.459-1.354-0.688-2.885-0.688-4.592c0-1.685,0.234-3.2,0.704-4.544
			c0.469-1.344,1.12-2.485,1.952-3.424s1.813-1.658,2.944-2.16c1.13-0.501,2.368-0.752,3.712-0.752c1.28,0,2.405,0.262,3.376,0.784
			c0.97,0.522,1.765,1.125,2.384,1.808l-1.44,1.729c-0.555-0.598-1.184-1.077-1.888-1.44c-0.704-0.362-1.504-0.544-2.4-0.544
			c-1.003,0-1.909,0.197-2.72,0.592c-0.811,0.396-1.504,0.96-2.08,1.696s-1.019,1.627-1.328,2.672
			c-0.31,1.046-0.464,2.219-0.464,3.521c0,1.322,0.154,2.512,0.464,3.567c0.309,1.057,0.741,1.958,1.296,2.704
			c0.555,0.747,1.232,1.323,2.032,1.729s1.701,0.607,2.704,0.607c1.024,0,1.92-0.208,2.688-0.624s1.493-0.997,2.176-1.744
			l1.472,1.664c-0.832,0.96-1.771,1.707-2.816,2.24C352.892,56.567,351.687,56.833,350.321,56.833z"/>
		<path fill="#020203" d="M360.401,56.45V40.898h2.624v13.408h6.976V40.898h2.624v13.408h2.272v1.663l-0.256,5.984h-2.272V56.45
			H360.401z"/>
		<path fill="#020203" d="M384.433,56.833c-1.046,0-2.021-0.187-2.928-0.56c-0.907-0.373-1.696-0.906-2.368-1.601
			c-0.672-0.692-1.2-1.541-1.584-2.544c-0.384-1.002-0.576-2.144-0.576-3.424s0.197-2.427,0.592-3.439
			c0.395-1.014,0.917-1.872,1.568-2.576s1.392-1.243,2.224-1.616s1.696-0.56,2.592-0.56c0.981,0,1.861,0.171,2.64,0.512
			c0.779,0.342,1.429,0.832,1.952,1.472c0.522,0.641,0.922,1.408,1.2,2.304c0.277,0.896,0.416,1.899,0.416,3.009
			c0,0.277-0.005,0.549-0.016,0.815c-0.011,0.268-0.038,0.496-0.08,0.688h-10.496c0.106,1.664,0.624,2.981,1.552,3.952
			c0.928,0.971,2.138,1.456,3.632,1.456c0.747,0,1.435-0.112,2.064-0.337c0.629-0.224,1.232-0.517,1.808-0.88l0.928,1.729
			c-0.683,0.427-1.44,0.8-2.272,1.12C386.449,56.673,385.5,56.833,384.433,56.833z M379.537,47.425h8.32
			c0-1.578-0.336-2.778-1.008-3.6c-0.672-0.821-1.616-1.232-2.832-1.232c-0.555,0-1.083,0.107-1.584,0.32
			c-0.502,0.214-0.955,0.528-1.36,0.944s-0.741,0.923-1.008,1.52C379.798,45.975,379.622,46.658,379.537,47.425z"/>
		<path fill="#020203" d="M394,56.45V40.898h2.624v6.304h7.488v-6.304h2.624V56.45h-2.624v-6.912h-7.488v6.912H394z"/>
		<path fill="#020203" d="M415.568,56.833c-1.301,0-2.384-0.384-3.248-1.151c-0.864-0.769-1.296-1.856-1.296-3.265
			c0-1.706,0.757-3.013,2.272-3.92c1.515-0.906,3.936-1.541,7.264-1.904c0-0.49-0.048-0.97-0.144-1.439
			c-0.096-0.469-0.262-0.885-0.496-1.248c-0.235-0.362-0.56-0.656-0.976-0.88c-0.416-0.225-0.944-0.336-1.584-0.336
			c-0.896,0-1.739,0.171-2.528,0.512c-0.79,0.342-1.494,0.726-2.112,1.152l-1.024-1.824c0.725-0.469,1.61-0.923,2.656-1.36
			c1.045-0.437,2.197-0.655,3.456-0.655c1.898,0,3.274,0.581,4.128,1.743c0.853,1.163,1.28,2.716,1.28,4.656v9.536h-2.176
			l-0.224-1.856h-0.096c-0.747,0.619-1.547,1.147-2.4,1.584C417.467,56.615,416.549,56.833,415.568,56.833z M416.336,54.722
			c0.747,0,1.45-0.177,2.112-0.528c0.661-0.353,1.365-0.869,2.112-1.552v-4.32c-1.302,0.171-2.395,0.373-3.28,0.608
			c-0.885,0.234-1.6,0.512-2.144,0.831c-0.544,0.32-0.939,0.688-1.184,1.104s-0.368,0.869-0.368,1.36c0,0.896,0.267,1.535,0.8,1.92
			C414.917,54.53,415.568,54.722,416.336,54.722z"/>
		<path fill="#020203" d="M432.208,61.57l8.544-27.84h1.92l-8.543,27.84H432.208z"/>
		<path fill="#020203" d="M452.367,56.45V35.458h6.24c1.066,0,2.043,0.096,2.928,0.288c0.886,0.192,1.643,0.491,2.272,0.896
			s1.12,0.934,1.472,1.584c0.353,0.65,0.528,1.435,0.528,2.352c0,1.046-0.261,1.989-0.784,2.832
			c-0.522,0.843-1.285,1.424-2.287,1.744v0.128c1.279,0.235,2.314,0.768,3.104,1.6s1.184,1.974,1.184,3.425
			c0,1.023-0.191,1.92-0.576,2.688c-0.383,0.768-0.928,1.408-1.631,1.92c-0.705,0.512-1.548,0.896-2.529,1.152
			c-0.98,0.256-2.059,0.384-3.231,0.384H452.367z M455.023,44.385h3.104c1.792,0,3.083-0.309,3.872-0.928
			c0.789-0.618,1.184-1.461,1.184-2.527c0-1.217-0.41-2.08-1.232-2.593c-0.82-0.512-2.053-0.768-3.695-0.768h-3.232V44.385z
			 M455.023,54.337h3.648c1.812,0,3.221-0.336,4.225-1.008c1.002-0.672,1.504-1.712,1.504-3.12c0-1.301-0.492-2.256-1.473-2.863
			c-0.981-0.608-2.4-0.912-4.256-0.912h-3.648V54.337z"/>
		<path fill="#020203" d="M475.472,56.833c-1.664,0-2.875-0.512-3.632-1.536c-0.758-1.023-1.137-2.538-1.137-4.544v-9.855h2.656
			v9.504c0,1.472,0.229,2.533,0.688,3.184c0.458,0.651,1.2,0.977,2.224,0.977c0.811,0,1.525-0.208,2.145-0.624
			c0.618-0.416,1.301-1.083,2.048-2v-11.04h2.624V56.45h-2.176l-0.225-2.432h-0.096c-0.726,0.854-1.488,1.535-2.288,2.048
			C477.504,56.578,476.56,56.833,475.472,56.833z M473.936,37.666c-0.469,0-0.854-0.154-1.152-0.464
			c-0.299-0.309-0.447-0.688-0.447-1.136s0.148-0.827,0.447-1.136c0.299-0.31,0.684-0.465,1.152-0.465
			c0.448,0,0.821,0.155,1.12,0.465c0.298,0.309,0.448,0.688,0.448,1.136s-0.15,0.827-0.448,1.136
			C474.757,37.511,474.384,37.666,473.936,37.666z M480.08,37.666c-0.448,0-0.822-0.154-1.121-0.464
			c-0.299-0.309-0.447-0.688-0.447-1.136s0.148-0.827,0.447-1.136c0.299-0.31,0.673-0.465,1.121-0.465
			c0.469,0,0.853,0.155,1.152,0.465c0.298,0.309,0.447,0.688,0.447,1.136s-0.149,0.827-0.447,1.136
			C480.933,37.511,480.549,37.666,480.08,37.666z"/>
		<path fill="#020203" d="M488.336,56.45V33.666h2.623v6.208l-0.096,3.2c0.746-0.704,1.525-1.307,2.336-1.808
			s1.76-0.752,2.848-0.752c1.643,0,2.844,0.512,3.601,1.535c0.757,1.024,1.136,2.539,1.136,4.544v9.856h-2.623v-9.504
			c0-1.472-0.236-2.533-0.705-3.185c-0.469-0.65-1.216-0.976-2.24-0.976c-0.811,0-1.525,0.203-2.144,0.608s-1.323,1.003-2.112,1.792
			V56.45H488.336z"/>
		<path fill="#020203" d="M505.743,56.45V40.898h2.176l0.224,2.24h0.097c0.747-0.747,1.53-1.371,2.353-1.872
			c0.82-0.501,1.775-0.752,2.863-0.752c1.643,0,2.843,0.512,3.6,1.535c0.758,1.024,1.137,2.539,1.137,4.544v9.856h-2.624v-9.504
			c0-1.472-0.235-2.533-0.704-3.185c-0.47-0.65-1.217-0.976-2.24-0.976c-0.811,0-1.525,0.203-2.145,0.608
			c-0.618,0.405-1.322,1.003-2.111,1.792V56.45H505.743z"/>
		<path fill="#020203" d="M529.551,56.833c-1.045,0-2.021-0.187-2.928-0.56c-0.907-0.373-1.695-0.906-2.368-1.601
			c-0.672-0.692-1.2-1.541-1.584-2.544c-0.384-1.002-0.575-2.144-0.575-3.424s0.196-2.427,0.592-3.439
			c0.395-1.014,0.916-1.872,1.567-2.576s1.392-1.243,2.224-1.616s1.696-0.56,2.593-0.56c0.981,0,1.86,0.171,2.64,0.512
			c0.779,0.342,1.43,0.832,1.952,1.472c0.522,0.641,0.923,1.408,1.2,2.304c0.277,0.896,0.416,1.899,0.416,3.009
			c0,0.277-0.006,0.549-0.016,0.815c-0.012,0.268-0.038,0.496-0.08,0.688h-10.496c0.105,1.664,0.623,2.981,1.552,3.952
			c0.928,0.971,2.138,1.456,3.632,1.456c0.746,0,1.435-0.112,2.064-0.337c0.629-0.224,1.231-0.517,1.808-0.88l0.928,1.729
			c-0.683,0.427-1.44,0.8-2.272,1.12C531.566,56.673,530.617,56.833,529.551,56.833z M524.655,47.425h8.319
			c0-1.578-0.336-2.778-1.008-3.6s-1.615-1.232-2.832-1.232c-0.555,0-1.082,0.107-1.584,0.32c-0.502,0.214-0.955,0.528-1.359,0.944
			c-0.406,0.416-0.742,0.923-1.008,1.52C524.916,45.975,524.74,46.658,524.655,47.425z"/>
	</g>
</g>
</svg>
