<?xml version="1.0" encoding="utf-8"?>
<!-- Generator: Adobe Illustrator 22.0.1, SVG Export Plug-In . SVG Version: 6.00 Build 0)  -->
<svg version="1.1" xmlns="http://www.w3.org/2000/svg" xmlns:xlink="http://www.w3.org/1999/xlink" x="0px" y="0px"
	 viewBox="0 0 947 1002" enable-background="new 0 0 947 1002" xml:space="preserve">
<g id="Layer_4">
	<rect fill="#B2D4F1" width="947" height="1002"/>
</g>
<g id="Контуры">
	<path fill="#EDEDED" d="M711.325,0H224.652v97.625c0,10.894,8.831,19.725,19.725,19.725H691.6c10.894,0,19.725-8.831,19.725-19.725
		V0z"/>
	<g>
		<g>
			
				<line fill="none" stroke="#5F5F5F" stroke-width="1.087" stroke-miterlimit="10" x1="473.5" y1="150.962" x2="473.5" y2="155.31"/>
			
				<line fill="none" stroke="#5F5F5F" stroke-width="1.087" stroke-miterlimit="10" stroke-dasharray="8.6817,8.6817" x1="473.5" y1="163.992" x2="473.5" y2="906.275"/>
			
				<line fill="none" stroke="#5F5F5F" stroke-width="1.087" stroke-miterlimit="10" x1="473.5" y1="910.615" x2="473.5" y2="914.964"/>
		</g>
	</g>
</g>
<g id="Текст">
	<path fill="#020203" d="M122.038,151.004v-11.152h3.18c0.623,0,1.192,0.057,1.708,0.17s0.955,0.297,1.317,0.552
		c0.363,0.255,0.646,0.593,0.851,1.012c0.204,0.419,0.306,0.935,0.306,1.547c0,0.589-0.1,1.1-0.298,1.53s-0.479,0.788-0.841,1.071
		c-0.363,0.283-0.797,0.496-1.301,0.638s-1.062,0.212-1.675,0.212h-1.836v4.42H122.038z M123.449,145.427h1.666
		c0.975,0,1.697-0.184,2.168-0.552c0.47-0.368,0.705-0.949,0.705-1.743c0-0.805-0.246-1.363-0.739-1.674s-1.227-0.468-2.201-0.468
		h-1.599V145.427z"/>
	<path fill="#020203" d="M132.697,151.208c-0.691,0-1.266-0.204-1.726-0.612c-0.459-0.408-0.688-0.986-0.688-1.734
		c0-0.906,0.402-1.601,1.207-2.083c0.805-0.481,2.092-0.818,3.859-1.011c0-0.261-0.025-0.516-0.076-0.765
		c-0.052-0.249-0.14-0.47-0.264-0.663c-0.125-0.192-0.298-0.349-0.519-0.467c-0.221-0.119-0.502-0.179-0.842-0.179
		c-0.476,0-0.924,0.091-1.343,0.272c-0.419,0.182-0.793,0.386-1.122,0.612l-0.544-0.969c0.385-0.249,0.855-0.49,1.411-0.723
		c0.555-0.232,1.167-0.348,1.836-0.348c1.009,0,1.739,0.309,2.193,0.926c0.453,0.618,0.68,1.442,0.68,2.474v5.066h-1.156
		l-0.119-0.986h-0.051c-0.396,0.329-0.821,0.609-1.275,0.841C133.706,151.091,133.219,151.208,132.697,151.208z M133.105,150.086
		c0.396,0,0.771-0.094,1.122-0.281s0.726-0.461,1.122-0.824v-2.295c-0.691,0.091-1.272,0.198-1.742,0.323
		c-0.471,0.125-0.851,0.272-1.14,0.442c-0.289,0.17-0.498,0.366-0.629,0.587c-0.13,0.221-0.195,0.462-0.195,0.722
		c0,0.476,0.142,0.816,0.425,1.02S132.697,150.086,133.105,150.086z"/>
	<path fill="#020203" d="M139.361,151.004v-8.262h1.156l0.119,1.496h0.051c0.283-0.521,0.626-0.935,1.028-1.241
		c0.402-0.306,0.842-0.459,1.317-0.459c0.329,0,0.623,0.057,0.885,0.17l-0.272,1.224c-0.136-0.045-0.261-0.08-0.374-0.102
		c-0.113-0.023-0.255-0.034-0.425-0.034c-0.352,0-0.717,0.142-1.097,0.425c-0.38,0.284-0.711,0.777-0.994,1.479v5.304H139.361z"/>
	<path fill="#020203" d="M145.26,151.004V138.9h1.377v8.194h0.051l3.52-4.352h1.547l-2.771,3.315l3.145,4.947h-1.53l-2.414-3.978
		l-1.547,1.802v2.176H145.26z"/>
	<path fill="#020203" d="M156.719,151.208c-0.556,0-1.074-0.1-1.556-0.297c-0.482-0.198-0.901-0.482-1.258-0.85
		c-0.357-0.368-0.638-0.819-0.842-1.352s-0.306-1.139-0.306-1.819c0-0.68,0.104-1.29,0.314-1.828
		c0.209-0.538,0.486-0.995,0.833-1.369c0.345-0.374,0.739-0.66,1.181-0.858c0.442-0.198,0.901-0.297,1.377-0.297
		c0.521,0,0.989,0.091,1.403,0.272c0.413,0.181,0.759,0.442,1.037,0.782c0.277,0.34,0.489,0.748,0.637,1.224
		s0.222,1.009,0.222,1.598c0,0.147-0.003,0.292-0.009,0.433c-0.006,0.142-0.02,0.264-0.043,0.366h-5.575
		c0.057,0.884,0.331,1.584,0.824,2.1s1.136,0.773,1.93,0.773c0.396,0,0.762-0.06,1.096-0.179c0.335-0.119,0.655-0.274,0.961-0.467
		l0.493,0.918c-0.363,0.227-0.765,0.425-1.207,0.595C157.789,151.123,157.285,151.208,156.719,151.208z M154.117,146.21h4.42
		c0-0.839-0.179-1.476-0.535-1.913c-0.357-0.436-0.858-0.654-1.505-0.654c-0.295,0-0.575,0.057-0.841,0.17
		c-0.267,0.113-0.508,0.28-0.723,0.501c-0.216,0.221-0.395,0.49-0.536,0.808S154.162,145.801,154.117,146.21z"/>
	<path fill="#020203" d="M164.232,151.208c-0.442,0-0.813-0.068-1.114-0.204c-0.3-0.136-0.544-0.323-0.73-0.561
		c-0.188-0.238-0.32-0.527-0.399-0.867c-0.08-0.34-0.119-0.714-0.119-1.122v-4.573h-1.224v-1.054l1.292-0.085l0.17-2.312h1.173
		v2.312h2.227v1.139h-2.227v4.59c0,0.51,0.094,0.904,0.28,1.182c0.188,0.278,0.519,0.417,0.994,0.417
		c0.147,0,0.307-0.022,0.477-0.068s0.323-0.096,0.459-0.153l0.271,1.054c-0.227,0.08-0.473,0.15-0.739,0.212
		S164.492,151.208,164.232,151.208z"/>
	<path fill="#020203" d="M169.639,151.208c-0.442,0-0.813-0.068-1.114-0.204c-0.3-0.136-0.544-0.323-0.73-0.561
		c-0.188-0.238-0.32-0.527-0.399-0.867c-0.08-0.34-0.119-0.714-0.119-1.122v-4.573h-1.224v-1.054l1.292-0.085l0.17-2.312h1.173
		v2.312h2.227v1.139h-2.227v4.59c0,0.51,0.094,0.904,0.28,1.182c0.188,0.278,0.519,0.417,0.994,0.417
		c0.147,0,0.307-0.022,0.477-0.068s0.323-0.096,0.459-0.153l0.271,1.054c-0.227,0.08-0.473,0.15-0.739,0.212
		S169.898,151.208,169.639,151.208z"/>
	<path fill="#020203" d="M176.319,151.004v-11.152h1.411v9.945h4.879v1.207H176.319z"/>
	<path fill="#020203" d="M185.159,141.042c-0.272,0-0.502-0.085-0.688-0.255c-0.188-0.17-0.28-0.385-0.28-0.646
		c0-0.272,0.093-0.49,0.28-0.655c0.187-0.164,0.416-0.247,0.688-0.247c0.271,0,0.501,0.083,0.688,0.247
		c0.187,0.165,0.28,0.383,0.28,0.655c0,0.261-0.094,0.476-0.28,0.646C185.66,140.957,185.431,141.042,185.159,141.042z
		 M184.445,151.004v-8.262h1.394v8.262H184.445z"/>
	<path fill="#020203" d="M188.627,151.004v-8.262h1.155l0.119,1.19h0.052c0.396-0.397,0.812-0.729,1.249-0.995
		s0.943-0.399,1.521-0.399c0.873,0,1.51,0.272,1.912,0.816s0.604,1.349,0.604,2.414v5.236h-1.394v-5.049
		c0-0.782-0.125-1.346-0.374-1.692c-0.249-0.345-0.646-0.518-1.19-0.518c-0.431,0-0.81,0.107-1.139,0.323s-0.703,0.533-1.122,0.952
		v5.984H188.627z"/>
	<path fill="#020203" d="M197.926,151.004V138.9h1.377v8.194h0.051l3.52-4.352h1.547l-2.771,3.315l3.145,4.947h-1.53l-2.414-3.978
		l-1.547,1.802v2.176H197.926z"/>
	<path fill="#020203" d="M208.5,151.208c-0.59,0-1.151-0.108-1.684-0.323c-0.533-0.215-0.997-0.487-1.394-0.816l0.696-0.935
		c0.363,0.295,0.734,0.533,1.114,0.714c0.379,0.181,0.818,0.272,1.317,0.272c0.544,0,0.952-0.125,1.224-0.374
		c0.272-0.25,0.408-0.555,0.408-0.918c0-0.215-0.057-0.402-0.17-0.561s-0.258-0.298-0.434-0.417
		c-0.176-0.119-0.377-0.224-0.604-0.314s-0.453-0.181-0.68-0.272c-0.295-0.102-0.59-0.218-0.885-0.348s-0.558-0.289-0.79-0.476
		s-0.423-0.405-0.569-0.655c-0.147-0.249-0.222-0.549-0.222-0.901c0-0.329,0.065-0.637,0.196-0.926
		c0.13-0.289,0.316-0.538,0.561-0.748c0.244-0.209,0.541-0.374,0.893-0.493s0.748-0.178,1.19-0.178c0.521,0,1,0.091,1.437,0.272
		c0.436,0.181,0.812,0.402,1.13,0.663l-0.663,0.884c-0.283-0.215-0.578-0.391-0.884-0.527c-0.306-0.136-0.641-0.204-1.003-0.204
		c-0.521,0-0.904,0.119-1.147,0.357c-0.244,0.238-0.365,0.516-0.365,0.833c0,0.193,0.051,0.36,0.152,0.501
		c0.103,0.142,0.238,0.267,0.408,0.374c0.17,0.108,0.365,0.204,0.587,0.289c0.221,0.085,0.45,0.173,0.688,0.264
		c0.294,0.113,0.592,0.232,0.893,0.357c0.3,0.125,0.569,0.28,0.808,0.467c0.237,0.187,0.433,0.417,0.586,0.688
		s0.229,0.601,0.229,0.986c0,0.34-0.065,0.658-0.195,0.952c-0.131,0.295-0.323,0.556-0.578,0.782s-0.572,0.405-0.952,0.535
		C209.42,151.142,208.986,151.208,208.5,151.208z"/>
	<path fill="#020203" d="M722.575,151.004v-11.152h3.179c0.623,0,1.193,0.057,1.709,0.17s0.954,0.297,1.317,0.552
		c0.362,0.255,0.646,0.593,0.85,1.012c0.204,0.419,0.307,0.935,0.307,1.547c0,0.589-0.1,1.1-0.298,1.53s-0.479,0.788-0.842,1.071
		c-0.362,0.283-0.796,0.496-1.3,0.638c-0.505,0.142-1.062,0.212-1.675,0.212h-1.836v4.42H722.575z M723.986,145.427h1.666
		c0.975,0,1.697-0.184,2.167-0.552c0.471-0.368,0.706-0.949,0.706-1.743c0-0.805-0.247-1.363-0.739-1.674
		c-0.493-0.312-1.228-0.468-2.202-0.468h-1.598V145.427z"/>
	<path fill="#020203" d="M733.234,151.208c-0.691,0-1.267-0.204-1.726-0.612c-0.459-0.408-0.688-0.986-0.688-1.734
		c0-0.906,0.402-1.601,1.207-2.083c0.805-0.481,2.091-0.818,3.859-1.011c0-0.261-0.026-0.516-0.077-0.765
		c-0.051-0.249-0.139-0.47-0.264-0.663c-0.124-0.192-0.297-0.349-0.519-0.467c-0.221-0.119-0.501-0.179-0.841-0.179
		c-0.477,0-0.924,0.091-1.343,0.272c-0.42,0.182-0.794,0.386-1.122,0.612l-0.544-0.969c0.385-0.249,0.855-0.49,1.41-0.723
		c0.556-0.232,1.168-0.348,1.836-0.348c1.009,0,1.74,0.309,2.193,0.926s0.68,1.442,0.68,2.474v5.066h-1.155l-0.119-0.986h-0.051
		c-0.397,0.329-0.822,0.609-1.275,0.841C734.243,151.091,733.756,151.208,733.234,151.208z M733.643,150.086
		c0.396,0,0.771-0.094,1.122-0.281c0.351-0.187,0.725-0.461,1.122-0.824v-2.295c-0.691,0.091-1.272,0.198-1.743,0.323
		c-0.47,0.125-0.85,0.272-1.139,0.442c-0.289,0.17-0.499,0.366-0.629,0.587c-0.131,0.221-0.195,0.462-0.195,0.722
		c0,0.476,0.142,0.816,0.425,1.02S733.234,150.086,733.643,150.086z"/>
	<path fill="#020203" d="M739.898,151.004v-8.262h1.155l0.119,1.496h0.052c0.282-0.521,0.626-0.935,1.028-1.241
		c0.402-0.306,0.841-0.459,1.317-0.459c0.328,0,0.623,0.057,0.884,0.17l-0.271,1.224c-0.137-0.045-0.262-0.08-0.374-0.102
		c-0.114-0.023-0.256-0.034-0.426-0.034c-0.352,0-0.717,0.142-1.096,0.425c-0.38,0.284-0.712,0.777-0.995,1.479v5.304H739.898z"/>
	<path fill="#020203" d="M745.797,151.004V138.9h1.377v8.194h0.051l3.519-4.352h1.548l-2.771,3.315l3.146,4.947h-1.53l-2.414-3.978
		l-1.547,1.802v2.176H745.797z"/>
	<path fill="#020203" d="M757.255,151.208c-0.556,0-1.074-0.1-1.556-0.297c-0.481-0.198-0.9-0.482-1.258-0.85
		s-0.638-0.819-0.842-1.352s-0.306-1.139-0.306-1.819c0-0.68,0.104-1.29,0.314-1.828s0.487-0.995,0.833-1.369
		s0.739-0.66,1.182-0.858s0.901-0.297,1.377-0.297c0.521,0,0.988,0.091,1.402,0.272s0.759,0.442,1.037,0.782
		c0.277,0.34,0.49,0.748,0.638,1.224c0.146,0.476,0.221,1.009,0.221,1.598c0,0.147-0.003,0.292-0.009,0.433
		c-0.006,0.142-0.02,0.264-0.042,0.366h-5.576c0.057,0.884,0.332,1.584,0.824,2.1c0.493,0.516,1.137,0.773,1.93,0.773
		c0.396,0,0.763-0.06,1.097-0.179c0.334-0.119,0.654-0.274,0.961-0.467l0.492,0.918c-0.362,0.227-0.765,0.425-1.207,0.595
		C758.326,151.123,757.821,151.208,757.255,151.208z M754.654,146.21h4.42c0-0.839-0.179-1.476-0.536-1.913
		c-0.356-0.436-0.858-0.654-1.504-0.654c-0.295,0-0.575,0.057-0.842,0.17s-0.507,0.28-0.723,0.501
		c-0.215,0.221-0.394,0.49-0.535,0.808S754.699,145.801,754.654,146.21z"/>
	<path fill="#020203" d="M764.769,151.208c-0.441,0-0.813-0.068-1.113-0.204c-0.301-0.136-0.544-0.323-0.731-0.561
		c-0.187-0.238-0.32-0.527-0.399-0.867c-0.079-0.34-0.119-0.714-0.119-1.122v-4.573h-1.224v-1.054l1.292-0.085l0.17-2.312h1.173
		v2.312h2.228v1.139h-2.228v4.59c0,0.51,0.094,0.904,0.281,1.182c0.187,0.278,0.518,0.417,0.994,0.417
		c0.147,0,0.306-0.022,0.476-0.068s0.323-0.096,0.459-0.153l0.272,1.054c-0.227,0.08-0.474,0.15-0.739,0.212
		C765.293,151.176,765.029,151.208,764.769,151.208z"/>
	<path fill="#020203" d="M770.175,151.208c-0.441,0-0.813-0.068-1.113-0.204c-0.301-0.136-0.544-0.323-0.731-0.561
		c-0.187-0.238-0.32-0.527-0.399-0.867c-0.079-0.34-0.119-0.714-0.119-1.122v-4.573h-1.224v-1.054l1.292-0.085l0.17-2.312h1.173
		v2.312h2.228v1.139h-2.228v4.59c0,0.51,0.094,0.904,0.281,1.182c0.187,0.278,0.518,0.417,0.994,0.417
		c0.147,0,0.306-0.022,0.476-0.068s0.323-0.096,0.459-0.153l0.272,1.054c-0.227,0.08-0.474,0.15-0.739,0.212
		C770.699,151.176,770.436,151.208,770.175,151.208z"/>
	<path fill="#020203" d="M776.855,151.004v-11.152h3.485c0.566,0,1.091,0.054,1.572,0.161c0.481,0.108,0.896,0.287,1.241,0.536
		c0.346,0.25,0.615,0.572,0.808,0.969c0.192,0.396,0.289,0.884,0.289,1.462c0,0.873-0.227,1.57-0.68,2.091
		c-0.454,0.521-1.065,0.878-1.836,1.071l2.839,4.862h-1.599l-2.686-4.709h-2.023v4.709H776.855z M778.267,145.138h1.87
		c0.873,0,1.541-0.178,2.006-0.535s0.697-0.898,0.697-1.624c0-0.737-0.232-1.252-0.697-1.547c-0.465-0.295-1.133-0.442-2.006-0.442
		h-1.87V145.138z"/>
	<path fill="#020203" d="M789.572,151.208c-0.556,0-1.074-0.1-1.556-0.297c-0.482-0.198-0.901-0.482-1.258-0.85
		c-0.357-0.368-0.638-0.819-0.842-1.352s-0.306-1.139-0.306-1.819c0-0.68,0.104-1.29,0.314-1.828
		c0.209-0.538,0.486-0.995,0.833-1.369c0.345-0.374,0.739-0.66,1.181-0.858c0.442-0.198,0.901-0.297,1.377-0.297
		c0.521,0,0.989,0.091,1.403,0.272c0.413,0.181,0.759,0.442,1.037,0.782c0.277,0.34,0.489,0.748,0.637,1.224
		s0.222,1.009,0.222,1.598c0,0.147-0.003,0.292-0.009,0.433c-0.006,0.142-0.02,0.264-0.043,0.366h-5.575
		c0.057,0.884,0.331,1.584,0.824,2.1s1.136,0.773,1.93,0.773c0.396,0,0.762-0.06,1.096-0.179c0.335-0.119,0.655-0.274,0.961-0.467
		l0.493,0.918c-0.363,0.227-0.765,0.425-1.207,0.595C790.643,151.123,790.139,151.208,789.572,151.208z M786.971,146.21h4.42
		c0-0.839-0.179-1.476-0.535-1.913c-0.357-0.436-0.858-0.654-1.505-0.654c-0.295,0-0.575,0.057-0.841,0.17
		c-0.267,0.113-0.508,0.28-0.723,0.501c-0.216,0.221-0.395,0.49-0.536,0.808S787.016,145.801,786.971,146.21z"/>
	<path fill="#020203" d="M797.919,151.208c-0.545,0-1.055-0.097-1.53-0.289c-0.477-0.192-0.887-0.473-1.232-0.841
		s-0.618-0.822-0.816-1.36c-0.198-0.538-0.297-1.147-0.297-1.827c0-0.691,0.107-1.306,0.322-1.845
		c0.216-0.538,0.505-0.995,0.867-1.369s0.785-0.657,1.267-0.85c0.481-0.193,0.988-0.289,1.521-0.289
		c0.544,0,1.009,0.096,1.394,0.289c0.386,0.192,0.726,0.419,1.021,0.68l-0.714,0.918c-0.238-0.215-0.49-0.391-0.757-0.527
		c-0.267-0.136-0.563-0.204-0.893-0.204c-0.374,0-0.72,0.077-1.037,0.229s-0.589,0.372-0.815,0.655
		c-0.228,0.283-0.405,0.62-0.536,1.011c-0.13,0.391-0.195,0.825-0.195,1.301c0,0.476,0.062,0.907,0.188,1.292
		c0.124,0.385,0.297,0.717,0.519,0.994c0.221,0.278,0.489,0.493,0.808,0.646c0.316,0.153,0.662,0.229,1.036,0.229
		c0.386,0,0.74-0.082,1.062-0.247c0.323-0.164,0.615-0.359,0.876-0.586l0.612,0.935c-0.374,0.329-0.788,0.586-1.241,0.773
		S798.417,151.208,797.919,151.208z"/>
	<path fill="#020203" d="M802.406,151.004V138.9h1.395v3.298l-0.052,1.7c0.397-0.374,0.811-0.694,1.241-0.96
		s0.936-0.399,1.514-0.399c0.872,0,1.51,0.272,1.912,0.816s0.604,1.349,0.604,2.414v5.236h-1.395v-5.049
		c0-0.782-0.124-1.346-0.374-1.692c-0.249-0.345-0.646-0.518-1.189-0.518c-0.431,0-0.811,0.107-1.139,0.323
		c-0.329,0.215-0.703,0.533-1.122,0.952v5.984H802.406z"/>
	<path fill="#020203" d="M814.255,151.208c-0.441,0-0.813-0.068-1.113-0.204c-0.301-0.136-0.544-0.323-0.731-0.561
		c-0.187-0.238-0.32-0.527-0.399-0.867c-0.079-0.34-0.119-0.714-0.119-1.122v-4.573h-1.224v-1.054l1.292-0.085l0.17-2.312h1.173
		v2.312h2.228v1.139h-2.228v4.59c0,0.51,0.094,0.904,0.281,1.182c0.187,0.278,0.518,0.417,0.994,0.417
		c0.147,0,0.306-0.022,0.476-0.068s0.323-0.096,0.459-0.153l0.272,1.054c-0.227,0.08-0.474,0.15-0.739,0.212
		C814.779,151.176,814.516,151.208,814.255,151.208z"/>
	<path fill="#020203" d="M819.39,151.208c-0.59,0-1.151-0.108-1.684-0.323c-0.533-0.215-0.997-0.487-1.394-0.816l0.696-0.935
		c0.363,0.295,0.734,0.533,1.114,0.714c0.379,0.181,0.818,0.272,1.317,0.272c0.544,0,0.952-0.125,1.224-0.374
		c0.272-0.25,0.408-0.555,0.408-0.918c0-0.215-0.057-0.402-0.17-0.561s-0.258-0.298-0.434-0.417
		c-0.176-0.119-0.377-0.224-0.604-0.314s-0.453-0.181-0.68-0.272c-0.295-0.102-0.59-0.218-0.885-0.348s-0.558-0.289-0.79-0.476
		s-0.423-0.405-0.569-0.655c-0.147-0.249-0.222-0.549-0.222-0.901c0-0.329,0.065-0.637,0.196-0.926
		c0.13-0.289,0.316-0.538,0.561-0.748c0.244-0.209,0.541-0.374,0.893-0.493s0.748-0.178,1.19-0.178c0.521,0,1,0.091,1.437,0.272
		c0.436,0.181,0.812,0.402,1.13,0.663l-0.663,0.884c-0.283-0.215-0.578-0.391-0.884-0.527c-0.306-0.136-0.641-0.204-1.003-0.204
		c-0.521,0-0.904,0.119-1.147,0.357c-0.244,0.238-0.365,0.516-0.365,0.833c0,0.193,0.051,0.36,0.152,0.501
		c0.103,0.142,0.238,0.267,0.408,0.374c0.17,0.108,0.365,0.204,0.587,0.289c0.221,0.085,0.45,0.173,0.688,0.264
		c0.294,0.113,0.592,0.232,0.893,0.357c0.3,0.125,0.569,0.28,0.808,0.467c0.237,0.187,0.433,0.417,0.586,0.688
		s0.229,0.601,0.229,0.986c0,0.34-0.065,0.658-0.195,0.952c-0.131,0.295-0.323,0.556-0.578,0.782s-0.572,0.405-0.952,0.535
		C820.31,151.142,819.876,151.208,819.39,151.208z"/>
	<path fill="#020203" d="M385.821,75.284c-1.323,0-2.539-0.245-3.647-0.736c-1.109-0.49-2.076-1.2-2.896-2.128
		c-0.821-0.928-1.461-2.069-1.92-3.424c-0.459-1.354-0.688-2.885-0.688-4.592c0-1.685,0.234-3.2,0.703-4.544
		c0.469-1.344,1.12-2.485,1.952-3.424c0.832-0.938,1.813-1.659,2.944-2.16c1.131-0.501,2.367-0.752,3.712-0.752
		c1.28,0,2.405,0.262,3.376,0.784c0.971,0.523,1.766,1.125,2.384,1.808l-1.44,1.728c-0.555-0.597-1.184-1.077-1.887-1.44
		c-0.705-0.362-1.505-0.544-2.4-0.544c-1.004,0-1.91,0.198-2.721,0.592c-0.811,0.395-1.504,0.96-2.08,1.696
		s-1.019,1.627-1.328,2.672c-0.309,1.045-0.463,2.219-0.463,3.52c0,1.323,0.154,2.512,0.463,3.568
		c0.31,1.056,0.742,1.958,1.297,2.704c0.555,0.747,1.232,1.323,2.031,1.728c0.801,0.406,1.701,0.608,2.705,0.608
		c1.023,0,1.92-0.208,2.688-0.624s1.492-0.997,2.176-1.744l1.473,1.664c-0.832,0.96-1.771,1.707-2.816,2.24
		S387.187,75.284,385.821,75.284z"/>
	<path fill="#020203" d="M395.901,74.9V59.348h2.624v13.408h6.977V59.348h2.623v13.408h2.272v1.664l-0.257,5.984h-2.271V74.9
		H395.901z"/>
	<path fill="#020203" d="M419.934,75.284c-1.047,0-2.021-0.187-2.929-0.56c-0.907-0.373-1.696-0.907-2.368-1.6
		s-1.199-1.541-1.584-2.544c-0.384-1.002-0.576-2.144-0.576-3.424c0-1.28,0.197-2.426,0.592-3.44
		c0.395-1.013,0.918-1.872,1.568-2.576c0.65-0.704,1.393-1.243,2.225-1.616c0.832-0.373,1.695-0.56,2.592-0.56
		c0.98,0,1.861,0.171,2.64,0.512s1.429,0.832,1.952,1.472c0.522,0.64,0.922,1.408,1.2,2.304c0.276,0.896,0.415,1.899,0.415,3.008
		c0,0.278-0.005,0.55-0.016,0.816c-0.011,0.267-0.037,0.496-0.08,0.688h-10.496c0.107,1.664,0.625,2.982,1.553,3.952
		c0.928,0.971,2.139,1.456,3.632,1.456c0.747,0,1.435-0.112,2.063-0.336s1.232-0.517,1.809-0.88l0.928,1.728
		c-0.683,0.427-1.439,0.8-2.271,1.12C421.949,75.124,421,75.284,419.934,75.284z M415.037,65.876h8.32
		c0-1.579-0.336-2.779-1.008-3.6c-0.673-0.821-1.617-1.232-2.832-1.232c-0.556,0-1.084,0.107-1.584,0.32
		c-0.502,0.214-0.955,0.528-1.361,0.944c-0.404,0.416-0.74,0.923-1.008,1.52C415.298,64.425,415.122,65.108,415.037,65.876z"/>
	<path fill="#020203" d="M429.5,74.9V59.348h2.625v6.304h7.487v-6.304h2.624V74.9h-2.624v-6.912h-7.487V74.9H429.5z"/>
	<path fill="#020203" d="M451.068,75.284c-1.302,0-2.384-0.384-3.248-1.152s-1.296-1.856-1.296-3.264
		c0-1.706,0.757-3.013,2.271-3.92c1.515-0.906,3.937-1.541,7.265-1.904c0-0.491-0.048-0.971-0.145-1.44
		c-0.096-0.469-0.261-0.885-0.496-1.248c-0.234-0.363-0.56-0.656-0.976-0.88c-0.416-0.224-0.944-0.336-1.584-0.336
		c-0.896,0-1.739,0.171-2.528,0.512c-0.789,0.341-1.493,0.726-2.111,1.152l-1.024-1.824c0.725-0.469,1.61-0.922,2.656-1.36
		c1.045-0.437,2.197-0.656,3.456-0.656c1.898,0,3.274,0.582,4.128,1.744c0.853,1.163,1.28,2.715,1.28,4.656V74.9h-2.177
		l-0.224-1.856h-0.096c-0.747,0.619-1.547,1.147-2.4,1.584S452.05,75.284,451.068,75.284z M451.836,73.172
		c0.747,0,1.451-0.176,2.112-0.528s1.365-0.869,2.112-1.552v-4.32c-1.302,0.171-2.396,0.374-3.28,0.608
		c-0.886,0.235-1.6,0.512-2.144,0.832s-0.939,0.688-1.185,1.104s-0.368,0.87-0.368,1.36c0,0.896,0.267,1.536,0.801,1.92
		C450.417,72.98,451.068,73.172,451.836,73.172z"/>
	<path fill="#020203" d="M467.709,80.02l8.544-27.84h1.92l-8.544,27.84H467.709z"/>
	<path fill="#020203" d="M487.868,74.9V53.908h6.24c1.066,0,2.042,0.096,2.928,0.288c0.885,0.192,1.643,0.491,2.272,0.896
		c0.629,0.406,1.12,0.934,1.472,1.584c0.352,0.651,0.528,1.435,0.528,2.352c0,1.045-0.262,1.99-0.784,2.832
		c-0.523,0.843-1.285,1.424-2.288,1.744v0.128c1.28,0.235,2.314,0.768,3.104,1.6s1.185,1.973,1.185,3.424
		c0,1.024-0.192,1.92-0.576,2.688s-0.928,1.408-1.632,1.92c-0.704,0.512-1.547,0.896-2.528,1.152
		c-0.981,0.256-2.059,0.384-3.231,0.384H487.868z M490.524,62.836h3.104c1.792,0,3.083-0.309,3.872-0.928
		c0.789-0.618,1.185-1.461,1.185-2.528c0-1.216-0.411-2.08-1.232-2.592c-0.821-0.512-2.054-0.768-3.696-0.768h-3.231V62.836z
		 M490.524,72.788h3.647c1.813,0,3.222-0.336,4.225-1.008c1.002-0.672,1.504-1.712,1.504-3.12c0-1.301-0.491-2.256-1.472-2.864
		c-0.981-0.608-2.4-0.912-4.257-0.912h-3.647V72.788z"/>
	<path fill="#020203" d="M510.972,75.284c-1.664,0-2.875-0.512-3.632-1.536c-0.758-1.024-1.136-2.539-1.136-4.544v-9.856h2.655
		v9.504c0,1.472,0.229,2.533,0.688,3.184c0.458,0.651,1.2,0.976,2.224,0.976c0.811,0,1.525-0.208,2.145-0.624
		c0.618-0.416,1.301-1.083,2.048-2v-11.04h2.624V74.9h-2.176l-0.225-2.432h-0.096c-0.726,0.854-1.488,1.536-2.288,2.048
		C513.004,75.028,512.06,75.284,510.972,75.284z M509.436,56.116c-0.47,0-0.854-0.154-1.151-0.464
		c-0.3-0.309-0.448-0.688-0.448-1.136c0-0.448,0.148-0.827,0.448-1.136c0.298-0.309,0.682-0.464,1.151-0.464
		c0.448,0,0.821,0.155,1.12,0.464c0.299,0.31,0.448,0.688,0.448,1.136c0,0.448-0.149,0.827-0.448,1.136
		C510.257,55.962,509.884,56.116,509.436,56.116z M515.58,56.116c-0.448,0-0.822-0.154-1.12-0.464
		c-0.299-0.309-0.448-0.688-0.448-1.136c0-0.448,0.149-0.827,0.448-1.136c0.298-0.309,0.672-0.464,1.12-0.464
		c0.469,0,0.853,0.155,1.151,0.464c0.299,0.31,0.448,0.688,0.448,1.136c0,0.448-0.149,0.827-0.448,1.136
		C516.433,55.962,516.049,56.116,515.58,56.116z"/>
	<path fill="#020203" d="M523.835,74.9V52.116h2.624v6.208l-0.096,3.2c0.746-0.704,1.524-1.307,2.336-1.808
		c0.811-0.501,1.76-0.752,2.848-0.752c1.643,0,2.843,0.512,3.6,1.536c0.758,1.024,1.137,2.539,1.137,4.544V74.9h-2.624v-9.504
		c0-1.472-0.235-2.533-0.704-3.184c-0.47-0.65-1.216-0.976-2.24-0.976c-0.811,0-1.525,0.203-2.144,0.608
		c-0.619,0.406-1.323,1.003-2.112,1.792V74.9H523.835z"/>
	<path fill="#020203" d="M541.243,74.9V59.348h2.176l0.225,2.24h0.096c0.746-0.747,1.53-1.371,2.352-1.872
		c0.821-0.501,1.776-0.752,2.864-0.752c1.643,0,2.843,0.512,3.6,1.536c0.758,1.024,1.137,2.539,1.137,4.544V74.9h-2.624v-9.504
		c0-1.472-0.235-2.533-0.704-3.184c-0.47-0.65-1.216-0.976-2.24-0.976c-0.811,0-1.525,0.203-2.144,0.608
		c-0.619,0.406-1.323,1.003-2.112,1.792V74.9H541.243z"/>
	<path fill="#020203" d="M565.051,75.284c-1.045,0-2.021-0.187-2.928-0.56c-0.907-0.373-1.696-0.907-2.368-1.6
		s-1.2-1.541-1.584-2.544c-0.384-1.002-0.576-2.144-0.576-3.424c0-1.28,0.197-2.426,0.593-3.44c0.395-1.013,0.917-1.872,1.567-2.576
		c0.65-0.704,1.393-1.243,2.225-1.616c0.832-0.373,1.695-0.56,2.592-0.56c0.98,0,1.86,0.171,2.64,0.512
		c0.778,0.341,1.429,0.832,1.952,1.472c0.522,0.64,0.923,1.408,1.2,2.304c0.276,0.896,0.416,1.899,0.416,3.008
		c0,0.278-0.006,0.55-0.017,0.816c-0.011,0.267-0.037,0.496-0.08,0.688h-10.495c0.106,1.664,0.624,2.982,1.552,3.952
		c0.928,0.971,2.139,1.456,3.632,1.456c0.746,0,1.435-0.112,2.063-0.336c0.63-0.224,1.232-0.517,1.809-0.88l0.928,1.728
		c-0.683,0.427-1.439,0.8-2.271,1.12C567.067,75.124,566.117,75.284,565.051,75.284z M560.155,65.876h8.319
		c0-1.579-0.336-2.779-1.008-3.6c-0.672-0.821-1.616-1.232-2.832-1.232c-0.555,0-1.083,0.107-1.584,0.32
		c-0.501,0.214-0.955,0.528-1.359,0.944c-0.406,0.416-0.742,0.923-1.009,1.52S560.24,65.108,560.155,65.876z"/>
</g>
<g id="Номера_Рядов">
	<path fill="#020203" d="M816.481,877.487v-0.833c0.816-0.815,1.541-1.553,2.176-2.21s1.167-1.267,1.599-1.827
		c0.431-0.562,0.759-1.077,0.985-1.547c0.227-0.471,0.34-0.927,0.34-1.369c0-0.623-0.17-1.133-0.51-1.529s-0.855-0.596-1.547-0.596
		c-0.453,0-0.873,0.128-1.258,0.383c-0.386,0.255-0.737,0.564-1.054,0.927l-0.8-0.799c0.453-0.499,0.936-0.898,1.445-1.199
		c0.51-0.3,1.122-0.45,1.836-0.45c1.009,0,1.802,0.292,2.38,0.876c0.578,0.583,0.867,1.356,0.867,2.32
		c0,0.51-0.11,1.022-0.331,1.538c-0.222,0.516-0.527,1.049-0.918,1.599c-0.392,0.55-0.856,1.121-1.395,1.717
		c-0.538,0.595-1.13,1.227-1.776,1.896c0.295-0.022,0.601-0.046,0.918-0.068s0.617-0.034,0.901-0.034h3.145v1.207H816.481z"/>
	<path fill="#020203" d="M829.418,877.487v-2.992h-4.879v-0.918l4.642-6.936h1.563v6.732h1.479v1.121h-1.479v2.992H829.418z
		 M826.019,873.374h3.399v-3.146c0-0.295,0.009-0.643,0.025-1.046c0.018-0.401,0.037-0.75,0.06-1.045h-0.067
		c-0.137,0.261-0.278,0.516-0.426,0.765c-0.146,0.25-0.3,0.505-0.459,0.766L826.019,873.374z"/>
	<path fill="#020203" d="M782.48,817.488v-0.833c0.815-0.816,1.541-1.553,2.176-2.21s1.166-1.267,1.598-1.828
		c0.431-0.561,0.76-1.076,0.986-1.547c0.227-0.47,0.34-0.927,0.34-1.368c0-0.623-0.17-1.133-0.51-1.53
		c-0.34-0.396-0.856-0.595-1.547-0.595c-0.454,0-0.873,0.127-1.259,0.383c-0.386,0.255-0.737,0.563-1.054,0.926l-0.799-0.799
		c0.453-0.498,0.935-0.898,1.445-1.198c0.51-0.3,1.121-0.45,1.836-0.45c1.008,0,1.801,0.291,2.379,0.875s0.867,1.357,0.867,2.32
		c0,0.51-0.11,1.023-0.331,1.539c-0.222,0.516-0.526,1.048-0.918,1.598s-0.856,1.122-1.394,1.717
		c-0.539,0.596-1.131,1.228-1.777,1.896c0.295-0.022,0.602-0.045,0.918-0.067c0.317-0.023,0.617-0.034,0.901-0.034h3.146v1.207
		H782.48z"/>
	<path fill="#020203" d="M790.929,817.488v-0.833c0.815-0.816,1.541-1.553,2.176-2.21s1.167-1.267,1.599-1.828
		c0.43-0.561,0.759-1.076,0.985-1.547c0.227-0.47,0.34-0.927,0.34-1.368c0-0.623-0.17-1.133-0.51-1.53
		c-0.34-0.396-0.856-0.595-1.547-0.595c-0.454,0-0.873,0.127-1.259,0.383c-0.385,0.255-0.736,0.563-1.053,0.926l-0.8-0.799
		c0.453-0.498,0.935-0.898,1.445-1.198c0.51-0.3,1.122-0.45,1.836-0.45c1.009,0,1.802,0.291,2.38,0.875s0.867,1.357,0.867,2.32
		c0,0.51-0.111,1.023-0.332,1.539s-0.526,1.048-0.918,1.598c-0.391,0.55-0.855,1.122-1.394,1.717
		c-0.538,0.596-1.13,1.228-1.776,1.896c0.295-0.022,0.601-0.045,0.918-0.067c0.316-0.023,0.617-0.034,0.9-0.034h3.146v1.207H790.929
		z"/>
	<path fill="#020203" d="M782.48,787.487v-0.833c0.815-0.816,1.541-1.553,2.176-2.21s1.166-1.267,1.598-1.827
		c0.431-0.562,0.76-1.077,0.986-1.547c0.227-0.471,0.34-0.928,0.34-1.369c0-0.623-0.17-1.133-0.51-1.529s-0.856-0.596-1.547-0.596
		c-0.454,0-0.873,0.127-1.259,0.383c-0.386,0.255-0.737,0.564-1.054,0.926l-0.799-0.799c0.453-0.498,0.935-0.898,1.445-1.198
		c0.51-0.3,1.121-0.45,1.836-0.45c1.008,0,1.801,0.291,2.379,0.875s0.867,1.357,0.867,2.32c0,0.51-0.11,1.023-0.331,1.539
		c-0.222,0.516-0.526,1.049-0.918,1.598c-0.392,0.551-0.856,1.122-1.394,1.717c-0.539,0.596-1.131,1.228-1.777,1.896
		c0.295-0.023,0.602-0.046,0.918-0.068c0.317-0.023,0.617-0.034,0.901-0.034h3.146v1.207H782.48z"/>
	<path fill="#020203" d="M791.592,787.487v-1.155h2.482v-7.99h-1.973v-0.901c0.498-0.091,0.932-0.201,1.301-0.331
		c0.367-0.131,0.699-0.287,0.994-0.469h1.071v9.691h2.243v1.155H791.592z"/>
	<path fill="#020203" d="M782.479,847.488v-0.833c0.816-0.816,1.541-1.553,2.176-2.21s1.167-1.267,1.599-1.828
		c0.431-0.561,0.759-1.076,0.985-1.547c0.227-0.47,0.34-0.927,0.34-1.368c0-0.623-0.17-1.133-0.51-1.53
		c-0.34-0.396-0.855-0.595-1.547-0.595c-0.453,0-0.873,0.127-1.258,0.383c-0.386,0.255-0.737,0.563-1.054,0.926l-0.8-0.799
		c0.453-0.498,0.936-0.898,1.445-1.198s1.122-0.45,1.836-0.45c1.009,0,1.802,0.291,2.38,0.875s0.867,1.357,0.867,2.32
		c0,0.51-0.11,1.023-0.331,1.539c-0.222,0.516-0.527,1.048-0.918,1.598c-0.392,0.55-0.856,1.122-1.395,1.717
		c-0.538,0.596-1.13,1.228-1.776,1.896c0.295-0.022,0.601-0.045,0.918-0.067c0.317-0.023,0.617-0.034,0.901-0.034h3.145v1.207
		H782.479z"/>
	<path fill="#020203" d="M794.261,847.692c-0.432,0-0.825-0.043-1.182-0.128c-0.357-0.085-0.684-0.198-0.978-0.34
		c-0.295-0.142-0.559-0.303-0.791-0.484s-0.439-0.374-0.62-0.578l0.714-0.918c0.328,0.34,0.711,0.641,1.147,0.901
		s0.978,0.391,1.623,0.391c0.657,0,1.196-0.179,1.615-0.535c0.419-0.357,0.629-0.842,0.629-1.454c0-0.317-0.06-0.609-0.178-0.875
		c-0.119-0.267-0.314-0.496-0.587-0.688c-0.272-0.193-0.629-0.341-1.071-0.442c-0.441-0.102-0.985-0.153-1.632-0.153v-1.07
		c0.578,0,1.062-0.052,1.454-0.153c0.391-0.102,0.708-0.243,0.951-0.425c0.244-0.182,0.417-0.396,0.519-0.646
		c0.103-0.249,0.153-0.516,0.153-0.799c0-0.532-0.167-0.952-0.502-1.258c-0.334-0.306-0.79-0.459-1.368-0.459
		c-0.453,0-0.87,0.102-1.249,0.306c-0.38,0.204-0.734,0.471-1.062,0.799l-0.748-0.884c0.419-0.396,0.881-0.723,1.385-0.978
		c0.505-0.255,1.08-0.382,1.726-0.382c0.477,0,0.912,0.062,1.31,0.187c0.396,0.125,0.739,0.304,1.028,0.535
		c0.289,0.232,0.513,0.519,0.672,0.858c0.158,0.341,0.237,0.731,0.237,1.174c0,0.657-0.182,1.195-0.544,1.614
		c-0.362,0.42-0.839,0.743-1.428,0.97v0.067c0.328,0.08,0.635,0.195,0.918,0.349s0.532,0.346,0.748,0.578
		c0.215,0.232,0.383,0.502,0.501,0.808c0.119,0.306,0.179,0.646,0.179,1.02c0,0.477-0.094,0.907-0.28,1.292
		c-0.188,0.386-0.442,0.712-0.765,0.978c-0.323,0.267-0.7,0.471-1.131,0.612S794.759,847.692,794.261,847.692z"/>
	<path fill="#020203" d="M799.48,757.487v-0.833c0.816-0.815,1.541-1.553,2.176-2.21s1.167-1.267,1.599-1.827
		c0.431-0.562,0.759-1.077,0.985-1.547c0.227-0.471,0.34-0.927,0.34-1.369c0-0.623-0.17-1.133-0.51-1.529s-0.855-0.596-1.547-0.596
		c-0.453,0-0.873,0.128-1.258,0.383c-0.386,0.255-0.737,0.564-1.054,0.927l-0.8-0.799c0.453-0.499,0.936-0.898,1.445-1.199
		c0.51-0.3,1.122-0.45,1.836-0.45c1.009,0,1.802,0.292,2.38,0.876c0.578,0.583,0.867,1.356,0.867,2.32
		c0,0.51-0.11,1.022-0.331,1.538c-0.222,0.516-0.527,1.049-0.918,1.599c-0.392,0.55-0.856,1.121-1.395,1.717
		c-0.538,0.595-1.13,1.227-1.776,1.896c0.295-0.022,0.601-0.046,0.918-0.068s0.617-0.034,0.901-0.034h3.145v1.207H799.48z"/>
	<path fill="#020203" d="M811.482,757.691c-1.1,0-1.955-0.487-2.567-1.462c-0.611-0.975-0.918-2.374-0.918-4.199
		c0-1.824,0.307-3.213,0.918-4.165c0.612-0.952,1.468-1.428,2.567-1.428c1.088,0,1.938,0.476,2.55,1.428s0.918,2.341,0.918,4.165
		c0,1.825-0.306,3.225-0.918,4.199S812.57,757.691,811.482,757.691z M811.482,756.569c0.317,0,0.604-0.088,0.858-0.264
		c0.255-0.175,0.476-0.447,0.663-0.815c0.187-0.368,0.331-0.839,0.434-1.411c0.102-0.572,0.152-1.255,0.152-2.049
		c0-0.793-0.051-1.473-0.152-2.04c-0.103-0.566-0.247-1.028-0.434-1.385c-0.188-0.357-0.408-0.621-0.663-0.791
		s-0.541-0.255-0.858-0.255s-0.606,0.085-0.867,0.255s-0.484,0.434-0.672,0.791c-0.187,0.356-0.331,0.818-0.433,1.385
		c-0.103,0.567-0.153,1.247-0.153,2.04c0,1.587,0.195,2.74,0.586,3.46C810.335,756.21,810.848,756.569,811.482,756.569z"/>
	<path fill="#020203" d="M817.145,727.487v-1.155h2.482v-7.99h-1.973v-0.901c0.499-0.091,0.933-0.201,1.301-0.331
		c0.368-0.131,0.699-0.286,0.994-0.468h1.071v9.69h2.244v1.155H817.145z"/>
	<path fill="#020203" d="M827.735,727.691c-0.578,0-1.086-0.107-1.521-0.323c-0.437-0.215-0.802-0.486-1.097-0.815l0.782-0.884
		c0.227,0.261,0.495,0.47,0.808,0.629c0.312,0.158,0.638,0.237,0.978,0.237c0.385,0,0.748-0.079,1.088-0.237
		c0.34-0.159,0.64-0.423,0.9-0.791s0.471-0.847,0.629-1.437c0.159-0.589,0.244-1.32,0.256-2.192c-0.341,0.431-0.737,0.771-1.19,1.02
		s-0.907,0.374-1.36,0.374c-0.94,0-1.688-0.277-2.243-0.833c-0.556-0.555-0.833-1.394-0.833-2.516c0-0.521,0.085-0.995,0.255-1.42
		s0.399-0.79,0.688-1.097c0.289-0.306,0.629-0.544,1.02-0.714c0.392-0.17,0.802-0.255,1.232-0.255c0.533,0,1.028,0.107,1.487,0.323
		c0.459,0.215,0.856,0.541,1.19,0.978s0.595,0.98,0.782,1.632c0.187,0.651,0.28,1.414,0.28,2.286c0,1.088-0.113,2.015-0.34,2.78
		c-0.227,0.765-0.533,1.388-0.918,1.869c-0.386,0.482-0.824,0.833-1.317,1.055C828.798,727.581,828.279,727.691,827.735,727.691z
		 M828.245,722.217c0.362,0,0.745-0.113,1.147-0.34s0.779-0.596,1.131-1.105c-0.091-1.065-0.34-1.87-0.748-2.414
		s-0.958-0.815-1.649-0.815c-0.261,0-0.507,0.057-0.739,0.17s-0.434,0.274-0.604,0.484s-0.304,0.462-0.399,0.756
		c-0.097,0.295-0.145,0.618-0.145,0.97c0,0.714,0.164,1.274,0.493,1.683C827.061,722.013,827.565,722.217,828.245,722.217z"/>
	<path fill="#020203" d="M817.145,697.487v-1.155h2.482v-7.99h-1.973v-0.901c0.499-0.091,0.933-0.201,1.301-0.331
		c0.368-0.131,0.699-0.286,0.994-0.468h1.071v9.69h2.244v1.155H817.145z"/>
	<path fill="#020203" d="M828.5,697.691c-0.51,0-0.983-0.073-1.419-0.221c-0.437-0.147-0.811-0.354-1.122-0.621
		c-0.312-0.266-0.559-0.58-0.739-0.943c-0.182-0.362-0.272-0.759-0.272-1.189c0-0.352,0.06-0.678,0.179-0.978
		c0.119-0.301,0.271-0.572,0.459-0.816c0.187-0.243,0.402-0.459,0.646-0.646c0.244-0.188,0.496-0.349,0.757-0.484v-0.068
		c-0.396-0.283-0.748-0.626-1.054-1.028c-0.307-0.402-0.459-0.893-0.459-1.471c0-0.419,0.079-0.799,0.237-1.139
		c0.159-0.341,0.374-0.632,0.646-0.876c0.271-0.243,0.595-0.434,0.969-0.569s0.782-0.204,1.224-0.204
		c0.477,0,0.901,0.071,1.275,0.213s0.694,0.34,0.961,0.595c0.266,0.255,0.47,0.561,0.611,0.918s0.213,0.745,0.213,1.164
		c0,0.284-0.049,0.556-0.145,0.816c-0.097,0.261-0.216,0.505-0.357,0.731s-0.3,0.431-0.476,0.611
		c-0.176,0.182-0.349,0.335-0.519,0.459v0.068c0.238,0.136,0.47,0.292,0.697,0.468c0.227,0.176,0.428,0.374,0.604,0.595
		s0.316,0.474,0.425,0.757c0.107,0.283,0.161,0.606,0.161,0.969c0,0.408-0.085,0.788-0.255,1.139
		c-0.17,0.352-0.408,0.657-0.714,0.918s-0.675,0.465-1.104,0.612C829.497,697.618,829.021,697.691,828.5,697.691z M828.534,696.654
		c0.635,0,1.147-0.176,1.538-0.526c0.392-0.352,0.587-0.811,0.587-1.377c0-0.352-0.079-0.652-0.238-0.901
		c-0.158-0.249-0.374-0.468-0.646-0.654c-0.272-0.188-0.587-0.357-0.943-0.511c-0.357-0.152-0.729-0.309-1.114-0.467
		c-0.431,0.295-0.79,0.638-1.079,1.028s-0.434,0.836-0.434,1.334c0,0.307,0.06,0.584,0.179,0.833
		c0.119,0.25,0.283,0.468,0.493,0.655c0.209,0.187,0.456,0.331,0.739,0.434C827.899,696.603,828.205,696.654,828.534,696.654z
		 M829.266,691.571c0.362-0.328,0.643-0.674,0.841-1.037c0.198-0.362,0.298-0.742,0.298-1.139c0-0.544-0.164-1-0.493-1.368
		s-0.793-0.553-1.394-0.553c-0.511,0-0.93,0.159-1.259,0.476c-0.328,0.317-0.492,0.743-0.492,1.275c0,0.329,0.067,0.609,0.204,0.842
		c0.136,0.232,0.319,0.439,0.552,0.62c0.232,0.182,0.499,0.343,0.799,0.484C828.622,691.313,828.937,691.447,829.266,691.571z"/>
	<path fill="#020203" d="M817.145,667.488v-1.156h2.482v-7.99h-1.973v-0.9c0.499-0.091,0.933-0.201,1.301-0.332
		c0.368-0.13,0.699-0.286,0.994-0.468h1.071v9.69h2.244v1.156H817.145z"/>
	<path fill="#020203" d="M827.259,667.488c0.046-1.021,0.137-1.955,0.272-2.806c0.136-0.85,0.325-1.657,0.569-2.422
		c0.244-0.766,0.556-1.505,0.936-2.219c0.379-0.714,0.835-1.445,1.368-2.193h-5.406v-1.207h6.987v0.867
		c-0.646,0.816-1.171,1.599-1.572,2.347c-0.402,0.748-0.723,1.51-0.961,2.286s-0.411,1.598-0.519,2.465s-0.185,1.827-0.229,2.882
		H827.259z"/>
	<path fill="#020203" d="M817.145,637.488v-1.156h2.482v-7.99h-1.973v-0.9c0.499-0.091,0.933-0.201,1.301-0.332
		c0.368-0.13,0.699-0.286,0.994-0.468h1.071v9.69h2.244v1.156H817.145z"/>
	<path fill="#020203" d="M828.807,637.692c-0.533,0-1.026-0.108-1.479-0.323s-0.848-0.541-1.182-0.978s-0.598-0.98-0.79-1.632
		c-0.193-0.651-0.289-1.414-0.289-2.287c0-1.088,0.113-2.014,0.34-2.779c0.227-0.765,0.532-1.388,0.918-1.87
		c0.385-0.481,0.824-0.833,1.317-1.054s1.012-0.331,1.556-0.331c0.589,0,1.097,0.11,1.521,0.331s0.79,0.496,1.097,0.824
		l-0.782,0.867c-0.227-0.261-0.496-0.468-0.808-0.62c-0.312-0.153-0.638-0.229-0.978-0.229c-0.374,0-0.73,0.079-1.071,0.237
		c-0.34,0.159-0.64,0.42-0.9,0.782c-0.261,0.363-0.471,0.836-0.629,1.42c-0.159,0.584-0.244,1.306-0.255,2.167
		c0.34-0.419,0.736-0.75,1.189-0.994s0.901-0.365,1.343-0.365c0.941,0,1.692,0.277,2.253,0.833c0.561,0.555,0.842,1.394,0.842,2.516
		c0,0.521-0.085,0.994-0.255,1.42c-0.17,0.425-0.402,0.79-0.697,1.096c-0.295,0.307-0.635,0.544-1.021,0.715
		C829.662,637.607,829.248,637.692,828.807,637.692z M828.807,636.587c0.271,0,0.521-0.057,0.748-0.17
		c0.227-0.113,0.425-0.274,0.595-0.484s0.303-0.459,0.399-0.748c0.096-0.289,0.145-0.614,0.145-0.978
		c0-0.714-0.164-1.275-0.493-1.683c-0.329-0.408-0.833-0.612-1.513-0.612c-0.352,0-0.731,0.11-1.14,0.331
		c-0.407,0.222-0.781,0.587-1.122,1.097c0.091,1.065,0.338,1.873,0.74,2.423S828.115,636.587,828.807,636.587z"/>
	<path fill="#020203" d="M817.145,607.487v-1.156h2.482v-7.99h-1.973v-0.9c0.499-0.091,0.933-0.201,1.301-0.332
		c0.368-0.13,0.699-0.286,0.994-0.468h1.071v9.69h2.244v1.156H817.145z"/>
	<path fill="#020203" d="M828.229,607.691c-0.431,0-0.825-0.043-1.182-0.128c-0.357-0.085-0.68-0.195-0.969-0.331
		c-0.289-0.137-0.55-0.292-0.782-0.468s-0.439-0.359-0.621-0.553l0.681-0.918c0.317,0.329,0.694,0.618,1.13,0.867
		c0.437,0.249,0.972,0.374,1.606,0.374c0.329,0,0.638-0.06,0.927-0.179s0.541-0.286,0.757-0.501c0.215-0.216,0.385-0.477,0.51-0.782
		c0.125-0.307,0.188-0.646,0.188-1.021c0-0.748-0.21-1.331-0.63-1.751c-0.419-0.419-0.979-0.629-1.683-0.629
		c-0.374,0-0.694,0.057-0.96,0.17c-0.267,0.113-0.564,0.278-0.893,0.493l-0.748-0.476l0.356-5.22h5.423v1.207h-4.198l-0.289,3.214
		c0.261-0.137,0.521-0.244,0.781-0.323s0.556-0.119,0.885-0.119c0.464,0,0.9,0.068,1.309,0.204s0.765,0.343,1.071,0.62
		c0.306,0.278,0.547,0.629,0.723,1.055c0.175,0.425,0.263,0.932,0.263,1.521c0,0.589-0.102,1.11-0.306,1.563
		s-0.476,0.836-0.815,1.147c-0.341,0.312-0.729,0.55-1.165,0.714S828.704,607.691,828.229,607.691z"/>
	<path fill="#020203" d="M817.145,577.487v-1.156h2.482v-7.99h-1.973v-0.9c0.499-0.091,0.933-0.201,1.301-0.332
		c0.368-0.13,0.699-0.286,0.994-0.468h1.071v9.69h2.244v1.156H817.145z"/>
	<path fill="#020203" d="M829.418,577.487v-2.992h-4.879v-0.918l4.642-6.937h1.563v6.732h1.479v1.122h-1.479v2.992H829.418z
		 M826.019,573.373h3.399v-3.145c0-0.295,0.009-0.644,0.025-1.046c0.018-0.402,0.037-0.751,0.06-1.046h-0.067
		c-0.137,0.261-0.278,0.517-0.426,0.766c-0.146,0.249-0.3,0.504-0.459,0.765L826.019,573.373z"/>
	<path fill="#020203" d="M817.145,547.487v-1.155h2.482v-7.99h-1.973v-0.901c0.499-0.091,0.933-0.201,1.301-0.331
		c0.368-0.131,0.699-0.286,0.994-0.468h1.071v9.69h2.244v1.155H817.145z"/>
	<path fill="#020203" d="M828.263,547.691c-0.432,0-0.825-0.042-1.182-0.127c-0.357-0.085-0.684-0.198-0.978-0.341
		c-0.295-0.142-0.559-0.303-0.791-0.484c-0.232-0.181-0.439-0.374-0.62-0.578l0.714-0.918c0.328,0.341,0.711,0.641,1.147,0.901
		s0.978,0.391,1.623,0.391c0.657,0,1.196-0.178,1.615-0.535s0.629-0.842,0.629-1.453c0-0.317-0.06-0.609-0.178-0.876
		c-0.119-0.266-0.314-0.495-0.587-0.688c-0.272-0.192-0.629-0.34-1.071-0.441c-0.441-0.103-0.985-0.153-1.632-0.153v-1.071
		c0.578,0,1.062-0.051,1.454-0.153c0.391-0.102,0.708-0.243,0.951-0.425c0.244-0.181,0.417-0.396,0.519-0.646
		c0.103-0.249,0.153-0.516,0.153-0.799c0-0.533-0.167-0.952-0.502-1.259c-0.334-0.306-0.79-0.459-1.368-0.459
		c-0.453,0-0.87,0.103-1.249,0.307c-0.38,0.204-0.734,0.47-1.062,0.799l-0.748-0.884c0.419-0.396,0.881-0.723,1.385-0.978
		c0.505-0.255,1.08-0.383,1.726-0.383c0.477,0,0.912,0.062,1.31,0.188c0.396,0.124,0.739,0.303,1.028,0.535s0.513,0.519,0.672,0.858
		c0.158,0.34,0.237,0.731,0.237,1.173c0,0.657-0.182,1.196-0.544,1.615s-0.839,0.742-1.428,0.969v0.068
		c0.328,0.079,0.635,0.195,0.918,0.349c0.283,0.152,0.532,0.346,0.748,0.578c0.215,0.232,0.383,0.501,0.501,0.807
		c0.119,0.307,0.179,0.646,0.179,1.021c0,0.476-0.094,0.906-0.28,1.292c-0.188,0.386-0.442,0.711-0.765,0.978
		c-0.323,0.267-0.7,0.471-1.131,0.612S828.761,547.691,828.263,547.691z"/>
	<path fill="#020203" d="M817.145,517.487v-1.155h2.482v-7.99h-1.973v-0.901c0.499-0.091,0.933-0.201,1.301-0.331
		c0.368-0.131,0.699-0.286,0.994-0.468h1.071v9.69h2.244v1.155H817.145z"/>
	<path fill="#020203" d="M824.931,517.487v-0.833c0.815-0.815,1.541-1.553,2.176-2.21s1.167-1.267,1.598-1.827
		c0.431-0.562,0.76-1.077,0.986-1.547c0.227-0.471,0.34-0.927,0.34-1.369c0-0.623-0.17-1.133-0.51-1.529s-0.856-0.596-1.547-0.596
		c-0.454,0-0.873,0.128-1.259,0.383c-0.385,0.255-0.736,0.564-1.054,0.927l-0.799-0.799c0.453-0.499,0.935-0.898,1.445-1.199
		c0.51-0.3,1.122-0.45,1.836-0.45c1.008,0,1.802,0.292,2.38,0.876c0.578,0.583,0.867,1.356,0.867,2.32
		c0,0.51-0.111,1.022-0.332,1.538s-0.526,1.049-0.918,1.599c-0.391,0.55-0.855,1.121-1.394,1.717
		c-0.539,0.595-1.131,1.227-1.776,1.896c0.294-0.022,0.601-0.046,0.918-0.068c0.316-0.022,0.617-0.034,0.9-0.034h3.146v1.207
		H824.931z"/>
	<path fill="#020203" d="M817.145,487.487v-1.155h2.482v-7.99h-1.973v-0.901c0.499-0.091,0.933-0.201,1.301-0.331
		c0.368-0.131,0.699-0.286,0.994-0.468h1.071v9.69h2.244v1.155H817.145z"/>
	<path fill="#020203" d="M825.593,487.487v-1.155h2.482v-7.99h-1.972v-0.901c0.498-0.091,0.932-0.201,1.3-0.331
		c0.368-0.131,0.7-0.286,0.995-0.468h1.071v9.69h2.243v1.155H825.593z"/>
	<path fill="#020203" d="M817.145,457.488v-1.156h2.482v-7.99h-1.973v-0.9c0.499-0.092,0.933-0.201,1.301-0.332
		s0.699-0.286,0.994-0.468h1.071v9.69h2.244v1.156H817.145z"/>
	<path fill="#020203" d="M828.483,457.691c-1.1,0-1.955-0.486-2.567-1.461c-0.611-0.975-0.918-2.375-0.918-4.199
		c0-1.825,0.307-3.213,0.918-4.166c0.612-0.951,1.468-1.428,2.567-1.428c1.088,0,1.938,0.477,2.55,1.428
		c0.612,0.953,0.918,2.341,0.918,4.166c0,1.824-0.306,3.225-0.918,4.199S829.571,457.691,828.483,457.691z M828.483,456.57
		c0.317,0,0.604-0.088,0.858-0.264s0.476-0.447,0.663-0.816c0.187-0.368,0.331-0.838,0.434-1.411
		c0.102-0.571,0.152-1.255,0.152-2.048s-0.051-1.474-0.152-2.041c-0.103-0.566-0.247-1.027-0.434-1.385
		c-0.188-0.357-0.408-0.621-0.663-0.791s-0.541-0.255-0.858-0.255s-0.606,0.085-0.867,0.255s-0.484,0.434-0.672,0.791
		c-0.187,0.357-0.331,0.818-0.433,1.385c-0.103,0.567-0.153,1.248-0.153,2.041c0,1.586,0.195,2.739,0.586,3.459
		C827.336,456.21,827.849,456.57,828.483,456.57z"/>
	<path fill="#020203" d="M823.511,427.692c-0.578,0-1.086-0.108-1.521-0.323c-0.437-0.215-0.802-0.487-1.097-0.816l0.782-0.884
		c0.227,0.261,0.495,0.471,0.808,0.629c0.312,0.159,0.638,0.238,0.978,0.238c0.385,0,0.748-0.079,1.088-0.238
		c0.34-0.158,0.64-0.422,0.9-0.79s0.471-0.848,0.629-1.437c0.159-0.59,0.244-1.32,0.256-2.193c-0.341,0.431-0.737,0.771-1.19,1.021
		c-0.453,0.249-0.907,0.374-1.36,0.374c-0.94,0-1.688-0.278-2.243-0.833c-0.556-0.556-0.833-1.395-0.833-2.517
		c0-0.521,0.085-0.994,0.255-1.419c0.17-0.426,0.399-0.791,0.688-1.097c0.289-0.307,0.629-0.544,1.02-0.714
		c0.392-0.17,0.802-0.255,1.232-0.255c0.533,0,1.028,0.107,1.487,0.322c0.459,0.216,0.856,0.542,1.19,0.978
		c0.334,0.437,0.595,0.98,0.782,1.632c0.187,0.652,0.28,1.414,0.28,2.287c0,1.088-0.113,2.015-0.34,2.779s-0.533,1.389-0.918,1.87
		c-0.386,0.481-0.824,0.833-1.317,1.054S824.055,427.692,823.511,427.692z M824.021,422.217c0.362,0,0.745-0.113,1.147-0.34
		s0.779-0.595,1.131-1.104c-0.091-1.065-0.34-1.87-0.748-2.414s-0.958-0.816-1.649-0.816c-0.261,0-0.507,0.057-0.739,0.17
		s-0.434,0.275-0.604,0.484c-0.17,0.21-0.304,0.462-0.399,0.757c-0.097,0.295-0.145,0.618-0.145,0.969
		c0,0.714,0.164,1.275,0.493,1.684C822.836,422.013,823.341,422.217,824.021,422.217z"/>
	<path fill="#020203" d="M824.275,397.691c-0.51,0-0.983-0.073-1.419-0.221c-0.437-0.147-0.811-0.354-1.122-0.621
		c-0.312-0.266-0.559-0.58-0.739-0.943c-0.182-0.362-0.272-0.759-0.272-1.189c0-0.352,0.06-0.678,0.179-0.978
		c0.119-0.301,0.271-0.572,0.459-0.816c0.187-0.243,0.402-0.459,0.646-0.646c0.244-0.188,0.496-0.349,0.757-0.484v-0.068
		c-0.396-0.283-0.748-0.626-1.054-1.028c-0.307-0.402-0.459-0.893-0.459-1.471c0-0.419,0.079-0.799,0.237-1.139
		c0.159-0.341,0.374-0.632,0.646-0.876c0.271-0.243,0.595-0.434,0.969-0.569s0.782-0.204,1.224-0.204
		c0.477,0,0.901,0.071,1.275,0.213s0.694,0.34,0.961,0.595c0.266,0.255,0.47,0.561,0.611,0.918s0.213,0.745,0.213,1.164
		c0,0.284-0.049,0.556-0.145,0.816c-0.097,0.261-0.216,0.505-0.357,0.731s-0.3,0.431-0.476,0.611
		c-0.176,0.182-0.349,0.335-0.519,0.459v0.068c0.238,0.136,0.47,0.292,0.697,0.468c0.227,0.176,0.428,0.374,0.604,0.595
		s0.316,0.474,0.425,0.757c0.107,0.283,0.161,0.606,0.161,0.969c0,0.408-0.085,0.788-0.255,1.139
		c-0.17,0.352-0.408,0.657-0.714,0.918s-0.675,0.465-1.104,0.612C825.272,397.618,824.797,397.691,824.275,397.691z M824.31,396.654
		c0.635,0,1.147-0.176,1.538-0.526c0.392-0.352,0.587-0.811,0.587-1.377c0-0.352-0.079-0.652-0.238-0.901
		c-0.158-0.249-0.374-0.468-0.646-0.654c-0.272-0.188-0.587-0.357-0.943-0.511c-0.357-0.152-0.729-0.309-1.114-0.467
		c-0.431,0.295-0.79,0.638-1.079,1.028s-0.434,0.836-0.434,1.334c0,0.307,0.06,0.584,0.179,0.833
		c0.119,0.25,0.283,0.468,0.493,0.655c0.209,0.187,0.456,0.331,0.739,0.434C823.675,396.603,823.98,396.654,824.31,396.654z
		 M825.041,391.571c0.362-0.328,0.643-0.674,0.841-1.037c0.198-0.362,0.298-0.742,0.298-1.139c0-0.544-0.164-1-0.493-1.368
		s-0.793-0.553-1.394-0.553c-0.511,0-0.93,0.159-1.259,0.476c-0.328,0.317-0.492,0.743-0.492,1.275c0,0.329,0.067,0.609,0.204,0.842
		c0.136,0.232,0.319,0.439,0.552,0.62c0.232,0.182,0.499,0.343,0.799,0.484C824.397,391.313,824.712,391.447,825.041,391.571z"/>
	<path fill="#020203" d="M823.034,367.487c0.046-1.02,0.137-1.955,0.272-2.805c0.136-0.85,0.325-1.657,0.569-2.422
		s0.556-1.504,0.936-2.218c0.379-0.714,0.835-1.445,1.368-2.193h-5.406v-1.207h6.987v0.867c-0.646,0.816-1.171,1.598-1.572,2.346
		c-0.402,0.748-0.723,1.51-0.961,2.286c-0.238,0.776-0.411,1.598-0.519,2.465c-0.107,0.867-0.185,1.827-0.229,2.881H823.034z"/>
	<path fill="#020203" d="M824.582,337.691c-0.533,0-1.026-0.108-1.479-0.323c-0.453-0.215-0.848-0.541-1.182-0.978
		c-0.334-0.436-0.598-0.98-0.79-1.632c-0.193-0.651-0.289-1.414-0.289-2.287c0-1.088,0.113-2.014,0.34-2.779s0.532-1.388,0.918-1.87
		c0.385-0.481,0.824-0.833,1.317-1.054c0.493-0.221,1.012-0.332,1.556-0.332c0.589,0,1.097,0.11,1.521,0.332
		c0.425,0.221,0.79,0.496,1.097,0.824l-0.782,0.867c-0.227-0.261-0.496-0.468-0.808-0.621s-0.638-0.229-0.978-0.229
		c-0.374,0-0.73,0.08-1.071,0.238c-0.34,0.159-0.64,0.419-0.9,0.782s-0.471,0.836-0.629,1.419c-0.159,0.584-0.244,1.306-0.255,2.167
		c0.34-0.419,0.736-0.75,1.189-0.995c0.453-0.244,0.901-0.365,1.343-0.365c0.941,0,1.692,0.278,2.253,0.833s0.842,1.394,0.842,2.516
		c0,0.521-0.085,0.994-0.255,1.419c-0.17,0.425-0.402,0.791-0.697,1.096c-0.295,0.306-0.635,0.544-1.021,0.714
		C825.438,337.606,825.023,337.691,824.582,337.691z M824.582,336.586c0.271,0,0.521-0.057,0.748-0.17
		c0.227-0.113,0.425-0.275,0.595-0.485c0.17-0.209,0.303-0.459,0.399-0.748c0.096-0.289,0.145-0.614,0.145-0.977
		c0-0.714-0.164-1.275-0.493-1.683c-0.329-0.408-0.833-0.612-1.513-0.612c-0.352,0-0.731,0.111-1.14,0.332
		c-0.407,0.221-0.781,0.586-1.122,1.097c0.091,1.065,0.338,1.873,0.74,2.422C823.344,336.311,823.891,336.586,824.582,336.586z"/>
	<path fill="#020203" d="M824.004,307.691c-0.431,0-0.825-0.042-1.182-0.127c-0.357-0.085-0.68-0.196-0.969-0.332
		c-0.289-0.136-0.55-0.292-0.782-0.468c-0.232-0.175-0.439-0.359-0.621-0.552l0.681-0.918c0.317,0.329,0.694,0.618,1.13,0.867
		c0.437,0.25,0.972,0.374,1.606,0.374c0.329,0,0.638-0.06,0.927-0.178c0.289-0.119,0.541-0.286,0.757-0.501
		c0.215-0.215,0.385-0.476,0.51-0.782s0.188-0.646,0.188-1.02c0-0.748-0.21-1.332-0.63-1.751c-0.419-0.419-0.979-0.629-1.683-0.629
		c-0.374,0-0.694,0.057-0.96,0.17c-0.267,0.113-0.564,0.278-0.893,0.493l-0.748-0.476l0.356-5.219h5.423v1.207h-4.198l-0.289,3.213
		c0.261-0.136,0.521-0.244,0.781-0.323c0.261-0.079,0.556-0.119,0.885-0.119c0.464,0,0.9,0.068,1.309,0.204
		c0.408,0.136,0.765,0.343,1.071,0.621c0.306,0.278,0.547,0.629,0.723,1.054c0.175,0.425,0.263,0.932,0.263,1.521
		s-0.102,1.111-0.306,1.564s-0.476,0.836-0.815,1.147c-0.341,0.312-0.729,0.55-1.165,0.714S824.479,307.691,824.004,307.691z"/>
	<path fill="#020203" d="M825.193,277.487v-2.992h-4.879v-0.918l4.642-6.936h1.563v6.732h1.479v1.122h-1.479v2.992H825.193z
		 M821.794,273.373h3.399v-3.145c0-0.295,0.009-0.643,0.025-1.046c0.018-0.402,0.037-0.75,0.06-1.045h-0.067
		c-0.137,0.261-0.278,0.516-0.426,0.765c-0.146,0.25-0.3,0.504-0.459,0.765L821.794,273.373z"/>
	<path fill="#020203" d="M824.038,247.691c-0.432,0-0.825-0.042-1.182-0.127c-0.357-0.085-0.684-0.198-0.978-0.34
		c-0.295-0.142-0.559-0.303-0.791-0.484c-0.232-0.181-0.439-0.374-0.62-0.578l0.714-0.918c0.328,0.34,0.711,0.641,1.147,0.901
		s0.978,0.391,1.623,0.391c0.657,0,1.196-0.178,1.615-0.535c0.419-0.357,0.629-0.842,0.629-1.454c0-0.317-0.06-0.609-0.178-0.875
		c-0.119-0.266-0.314-0.496-0.587-0.688s-0.629-0.34-1.071-0.442c-0.441-0.102-0.985-0.153-1.632-0.153v-1.071
		c0.578,0,1.062-0.051,1.454-0.153c0.391-0.102,0.708-0.243,0.951-0.425c0.244-0.181,0.417-0.396,0.519-0.646
		c0.103-0.249,0.153-0.516,0.153-0.799c0-0.533-0.167-0.952-0.502-1.258c-0.334-0.306-0.79-0.459-1.368-0.459
		c-0.453,0-0.87,0.102-1.249,0.306c-0.38,0.204-0.734,0.47-1.062,0.799l-0.748-0.884c0.419-0.396,0.881-0.723,1.385-0.978
		c0.505-0.255,1.08-0.382,1.726-0.382c0.477,0,0.912,0.062,1.31,0.187c0.396,0.125,0.739,0.303,1.028,0.535
		c0.289,0.232,0.513,0.519,0.672,0.858c0.158,0.34,0.237,0.731,0.237,1.173c0,0.657-0.182,1.196-0.544,1.615
		c-0.362,0.419-0.839,0.743-1.428,0.969v0.068c0.328,0.08,0.635,0.195,0.918,0.349c0.283,0.153,0.532,0.346,0.748,0.578
		c0.215,0.232,0.383,0.501,0.501,0.807c0.119,0.306,0.179,0.646,0.179,1.02c0,0.476-0.094,0.907-0.28,1.292
		c-0.188,0.386-0.442,0.711-0.765,0.978c-0.323,0.267-0.7,0.471-1.131,0.612S824.536,247.691,824.038,247.691z"/>
	<path fill="#020203" d="M820.706,217.487v-0.833c0.815-0.816,1.541-1.553,2.176-2.21s1.167-1.267,1.598-1.828
		s0.76-1.077,0.986-1.547s0.34-0.927,0.34-1.369c0-0.623-0.17-1.133-0.51-1.53c-0.34-0.396-0.856-0.595-1.547-0.595
		c-0.454,0-0.873,0.127-1.259,0.383c-0.385,0.255-0.736,0.564-1.054,0.926l-0.799-0.799c0.453-0.499,0.935-0.898,1.445-1.199
		c0.51-0.3,1.122-0.45,1.836-0.45c1.008,0,1.802,0.292,2.38,0.875c0.578,0.583,0.867,1.357,0.867,2.32
		c0,0.51-0.111,1.023-0.332,1.539s-0.526,1.048-0.918,1.598c-0.391,0.55-0.855,1.122-1.394,1.717
		c-0.539,0.595-1.131,1.227-1.776,1.896c0.294-0.022,0.601-0.045,0.918-0.068c0.316-0.023,0.617-0.034,0.9-0.034h3.146v1.207
		H820.706z"/>
	<path fill="#020203" d="M821.368,187.487v-1.156h2.482v-7.99h-1.972v-0.901c0.498-0.091,0.932-0.201,1.3-0.332
		s0.7-0.286,0.995-0.468h1.071v9.69h2.243v1.156H821.368z"/>
	<path fill="#020203" d="M202.22,877.487v-0.833c0.816-0.815,1.541-1.553,2.176-2.21s1.167-1.267,1.599-1.827
		c0.431-0.562,0.759-1.077,0.985-1.547c0.227-0.471,0.34-0.927,0.34-1.369c0-0.623-0.17-1.133-0.51-1.529s-0.855-0.596-1.547-0.596
		c-0.453,0-0.873,0.128-1.258,0.383c-0.386,0.255-0.737,0.564-1.054,0.927l-0.8-0.799c0.453-0.499,0.936-0.898,1.445-1.199
		c0.51-0.3,1.122-0.45,1.836-0.45c1.009,0,1.802,0.292,2.38,0.876c0.578,0.583,0.867,1.356,0.867,2.32
		c0,0.51-0.11,1.022-0.331,1.538c-0.222,0.516-0.527,1.049-0.918,1.599c-0.392,0.55-0.856,1.121-1.395,1.717
		c-0.538,0.595-1.13,1.227-1.776,1.896c0.295-0.022,0.601-0.046,0.918-0.068s0.617-0.034,0.901-0.034h3.145v1.207H202.22z"/>
	<path fill="#020203" d="M215.156,877.487v-2.992h-4.879v-0.918l4.642-6.936h1.563v6.732h1.479v1.121h-1.479v2.992H215.156z
		 M211.757,873.374h3.399v-3.146c0-0.295,0.009-0.643,0.025-1.046c0.018-0.401,0.037-0.75,0.06-1.045h-0.067
		c-0.137,0.261-0.278,0.516-0.426,0.765c-0.146,0.25-0.3,0.505-0.459,0.766L211.757,873.374z"/>
	<path fill="#020203" d="M347.221,817.488v-0.833c0.815-0.816,1.541-1.553,2.176-2.21s1.167-1.267,1.598-1.828
		c0.431-0.561,0.76-1.076,0.986-1.547c0.227-0.47,0.34-0.927,0.34-1.368c0-0.623-0.17-1.133-0.51-1.53
		c-0.34-0.396-0.856-0.595-1.547-0.595c-0.454,0-0.873,0.127-1.259,0.383c-0.385,0.255-0.736,0.563-1.054,0.926l-0.799-0.799
		c0.453-0.498,0.935-0.898,1.445-1.198c0.51-0.3,1.122-0.45,1.836-0.45c1.008,0,1.802,0.291,2.38,0.875s0.867,1.357,0.867,2.32
		c0,0.51-0.111,1.023-0.332,1.539s-0.526,1.048-0.918,1.598c-0.391,0.55-0.855,1.122-1.394,1.717
		c-0.539,0.596-1.131,1.228-1.776,1.896c0.294-0.022,0.601-0.045,0.918-0.067c0.316-0.023,0.617-0.034,0.9-0.034h3.146v1.207
		H347.221z"/>
	<path fill="#020203" d="M355.669,817.488v-0.833c0.816-0.816,1.541-1.553,2.176-2.21s1.167-1.267,1.599-1.828
		c0.431-0.561,0.759-1.076,0.985-1.547c0.227-0.47,0.34-0.927,0.34-1.368c0-0.623-0.17-1.133-0.51-1.53
		c-0.34-0.396-0.855-0.595-1.547-0.595c-0.453,0-0.873,0.127-1.258,0.383c-0.386,0.255-0.737,0.563-1.054,0.926l-0.8-0.799
		c0.453-0.498,0.936-0.898,1.445-1.198s1.122-0.45,1.836-0.45c1.009,0,1.802,0.291,2.38,0.875s0.867,1.357,0.867,2.32
		c0,0.51-0.11,1.023-0.331,1.539c-0.222,0.516-0.527,1.048-0.918,1.598c-0.392,0.55-0.856,1.122-1.395,1.717
		c-0.538,0.596-1.13,1.228-1.776,1.896c0.295-0.022,0.601-0.045,0.918-0.067c0.317-0.023,0.617-0.034,0.901-0.034h3.145v1.207
		H355.669z"/>
	<path fill="#020203" d="M347.221,787.487v-0.833c0.815-0.816,1.541-1.553,2.176-2.21s1.167-1.267,1.598-1.827
		c0.431-0.562,0.76-1.077,0.986-1.547c0.227-0.471,0.34-0.928,0.34-1.369c0-0.623-0.17-1.133-0.51-1.529s-0.856-0.596-1.547-0.596
		c-0.454,0-0.873,0.127-1.259,0.383c-0.385,0.255-0.736,0.564-1.054,0.926l-0.799-0.799c0.453-0.498,0.935-0.898,1.445-1.198
		c0.51-0.3,1.122-0.45,1.836-0.45c1.008,0,1.802,0.291,2.38,0.875s0.867,1.357,0.867,2.32c0,0.51-0.111,1.023-0.332,1.539
		s-0.526,1.049-0.918,1.598c-0.391,0.551-0.855,1.122-1.394,1.717c-0.539,0.596-1.131,1.228-1.776,1.896
		c0.294-0.023,0.601-0.046,0.918-0.068c0.316-0.023,0.617-0.034,0.9-0.034h3.146v1.207H347.221z"/>
	<path fill="#020203" d="M356.332,787.487v-1.155h2.482v-7.99h-1.973v-0.901c0.499-0.091,0.933-0.201,1.301-0.331
		c0.368-0.131,0.699-0.287,0.994-0.469h1.071v9.691h2.244v1.155H356.332z"/>
	<path fill="#020203" d="M219.221,837.922v-0.833c0.815-0.815,1.541-1.553,2.176-2.21s1.166-1.267,1.598-1.827
		c0.431-0.562,0.76-1.077,0.986-1.547c0.227-0.471,0.34-0.927,0.34-1.369c0-0.623-0.17-1.133-0.51-1.529s-0.856-0.596-1.547-0.596
		c-0.454,0-0.873,0.128-1.259,0.383s-0.737,0.564-1.054,0.927l-0.799-0.799c0.453-0.499,0.935-0.898,1.445-1.199
		c0.51-0.3,1.121-0.45,1.836-0.45c1.008,0,1.801,0.292,2.379,0.876c0.578,0.583,0.867,1.356,0.867,2.32
		c0,0.51-0.11,1.022-0.331,1.538c-0.222,0.516-0.526,1.049-0.918,1.599s-0.856,1.121-1.394,1.717
		c-0.539,0.595-1.131,1.227-1.777,1.896c0.295-0.022,0.602-0.046,0.918-0.068c0.317-0.022,0.617-0.034,0.901-0.034h3.146v1.207
		H219.221z"/>
	<path fill="#020203" d="M227.669,837.922v-0.833c0.815-0.815,1.541-1.553,2.176-2.21s1.167-1.267,1.599-1.827
		c0.43-0.562,0.759-1.077,0.985-1.547c0.227-0.471,0.34-0.927,0.34-1.369c0-0.623-0.17-1.133-0.51-1.529s-0.856-0.596-1.547-0.596
		c-0.454,0-0.873,0.128-1.259,0.383c-0.385,0.255-0.736,0.564-1.053,0.927l-0.8-0.799c0.453-0.499,0.935-0.898,1.445-1.199
		c0.51-0.3,1.122-0.45,1.836-0.45c1.009,0,1.802,0.292,2.38,0.876c0.578,0.583,0.867,1.356,0.867,2.32
		c0,0.51-0.111,1.022-0.332,1.538s-0.526,1.049-0.918,1.599c-0.391,0.55-0.855,1.121-1.394,1.717
		c-0.538,0.595-1.13,1.227-1.776,1.896c0.295-0.022,0.601-0.046,0.918-0.068c0.316-0.022,0.617-0.034,0.9-0.034h3.146v1.207H227.669
		z"/>
	<path fill="#020203" d="M185.22,795.922v-0.833c0.816-0.816,1.541-1.553,2.176-2.21s1.167-1.267,1.599-1.828
		c0.431-0.561,0.759-1.076,0.985-1.547c0.227-0.47,0.34-0.927,0.34-1.368c0-0.623-0.17-1.133-0.51-1.53
		c-0.34-0.396-0.855-0.595-1.547-0.595c-0.453,0-0.873,0.127-1.258,0.383c-0.386,0.255-0.737,0.563-1.054,0.926l-0.8-0.799
		c0.453-0.498,0.936-0.898,1.445-1.198s1.122-0.45,1.836-0.45c1.009,0,1.802,0.291,2.38,0.875s0.867,1.357,0.867,2.32
		c0,0.51-0.11,1.023-0.331,1.539c-0.222,0.516-0.527,1.048-0.918,1.598c-0.392,0.55-0.856,1.122-1.395,1.717
		c-0.538,0.596-1.13,1.228-1.776,1.896c0.295-0.022,0.601-0.045,0.918-0.067c0.317-0.023,0.617-0.034,0.901-0.034h3.145v1.207
		H185.22z"/>
	<path fill="#020203" d="M194.331,795.922v-1.156h2.482v-7.99h-1.972v-0.9c0.498-0.091,0.932-0.201,1.3-0.332
		c0.368-0.13,0.7-0.286,0.995-0.468h1.071v9.69h2.243v1.156H194.331z"/>
	<path fill="#020203" d="M347.221,847.488v-0.833c0.815-0.816,1.541-1.553,2.176-2.21s1.167-1.267,1.598-1.828
		c0.431-0.561,0.76-1.076,0.986-1.547c0.227-0.47,0.34-0.927,0.34-1.368c0-0.623-0.17-1.133-0.51-1.53
		c-0.34-0.396-0.856-0.595-1.547-0.595c-0.454,0-0.873,0.127-1.259,0.383c-0.385,0.255-0.736,0.563-1.054,0.926l-0.799-0.799
		c0.453-0.498,0.935-0.898,1.445-1.198c0.51-0.3,1.122-0.45,1.836-0.45c1.008,0,1.802,0.291,2.38,0.875s0.867,1.357,0.867,2.32
		c0,0.51-0.111,1.023-0.332,1.539s-0.526,1.048-0.918,1.598c-0.391,0.55-0.855,1.122-1.394,1.717
		c-0.539,0.596-1.131,1.228-1.776,1.896c0.294-0.022,0.601-0.045,0.918-0.067c0.316-0.023,0.617-0.034,0.9-0.034h3.146v1.207
		H347.221z"/>
	<path fill="#020203" d="M359.001,847.692c-0.431,0-0.824-0.043-1.182-0.128c-0.356-0.085-0.683-0.198-0.978-0.34
		s-0.559-0.303-0.79-0.484c-0.232-0.182-0.439-0.374-0.621-0.578l0.714-0.918c0.329,0.34,0.712,0.641,1.148,0.901
		c0.436,0.261,0.977,0.391,1.623,0.391c0.657,0,1.195-0.179,1.615-0.535c0.419-0.357,0.629-0.842,0.629-1.454
		c0-0.317-0.06-0.609-0.179-0.875c-0.119-0.267-0.314-0.496-0.587-0.688c-0.271-0.193-0.629-0.341-1.07-0.442
		c-0.442-0.102-0.986-0.153-1.632-0.153v-1.07c0.577,0,1.062-0.052,1.453-0.153s0.708-0.243,0.952-0.425
		c0.243-0.182,0.416-0.396,0.519-0.646c0.102-0.249,0.152-0.516,0.152-0.799c0-0.532-0.167-0.952-0.501-1.258
		c-0.335-0.306-0.791-0.459-1.368-0.459c-0.454,0-0.87,0.102-1.25,0.306s-0.733,0.471-1.062,0.799l-0.748-0.884
		c0.419-0.396,0.881-0.723,1.386-0.978c0.504-0.255,1.079-0.382,1.726-0.382c0.476,0,0.912,0.062,1.309,0.187
		s0.739,0.304,1.028,0.535c0.289,0.232,0.513,0.519,0.672,0.858c0.158,0.341,0.238,0.731,0.238,1.174
		c0,0.657-0.182,1.195-0.544,1.614c-0.363,0.42-0.839,0.743-1.429,0.97v0.067c0.329,0.08,0.635,0.195,0.918,0.349
		s0.533,0.346,0.748,0.578c0.216,0.232,0.383,0.502,0.502,0.808s0.179,0.646,0.179,1.02c0,0.477-0.094,0.907-0.281,1.292
		c-0.187,0.386-0.441,0.712-0.765,0.978c-0.323,0.267-0.7,0.471-1.131,0.612S359.5,847.692,359.001,847.692z"/>
	<path fill="#020203" d="M185.22,757.487v-0.833c0.816-0.815,1.541-1.553,2.176-2.21s1.167-1.267,1.599-1.827
		c0.431-0.562,0.759-1.077,0.985-1.547c0.227-0.471,0.34-0.927,0.34-1.369c0-0.623-0.17-1.133-0.51-1.529s-0.855-0.596-1.547-0.596
		c-0.453,0-0.873,0.128-1.258,0.383c-0.386,0.255-0.737,0.564-1.054,0.927l-0.8-0.799c0.453-0.499,0.936-0.898,1.445-1.199
		c0.51-0.3,1.122-0.45,1.836-0.45c1.009,0,1.802,0.292,2.38,0.876c0.578,0.583,0.867,1.356,0.867,2.32
		c0,0.51-0.11,1.022-0.331,1.538c-0.222,0.516-0.527,1.049-0.918,1.599c-0.392,0.55-0.856,1.121-1.395,1.717
		c-0.538,0.595-1.13,1.227-1.776,1.896c0.295-0.022,0.601-0.046,0.918-0.068s0.617-0.034,0.901-0.034h3.145v1.207H185.22z"/>
	<path fill="#020203" d="M197.222,757.691c-1.1,0-1.955-0.487-2.567-1.462c-0.611-0.975-0.918-2.374-0.918-4.199
		c0-1.824,0.307-3.213,0.918-4.165c0.612-0.952,1.468-1.428,2.567-1.428c1.088,0,1.938,0.476,2.55,1.428s0.918,2.341,0.918,4.165
		c0,1.825-0.306,3.225-0.918,4.199S198.31,757.691,197.222,757.691z M197.222,756.569c0.317,0,0.604-0.088,0.858-0.264
		c0.255-0.175,0.476-0.447,0.663-0.815c0.187-0.368,0.331-0.839,0.434-1.411c0.102-0.572,0.152-1.255,0.152-2.049
		c0-0.793-0.051-1.473-0.152-2.04c-0.103-0.566-0.247-1.028-0.434-1.385c-0.188-0.357-0.408-0.621-0.663-0.791
		s-0.541-0.255-0.858-0.255s-0.606,0.085-0.867,0.255s-0.484,0.434-0.672,0.791c-0.187,0.356-0.331,0.818-0.433,1.385
		c-0.103,0.567-0.153,1.247-0.153,2.04c0,1.587,0.195,2.74,0.586,3.46C196.074,756.21,196.587,756.569,197.222,756.569z"/>
	<path fill="#020203" d="M134.951,727.487v-1.155h2.482v-7.99h-1.972v-0.901c0.498-0.091,0.932-0.201,1.3-0.331
		c0.368-0.131,0.7-0.286,0.995-0.468h1.071v9.69h2.243v1.155H134.951z"/>
	<path fill="#020203" d="M145.542,727.691c-0.577,0-1.085-0.107-1.521-0.323c-0.437-0.215-0.802-0.486-1.096-0.815l0.781-0.884
		c0.227,0.261,0.496,0.47,0.808,0.629c0.312,0.158,0.638,0.237,0.978,0.237c0.386,0,0.748-0.079,1.088-0.237
		c0.34-0.159,0.641-0.423,0.901-0.791s0.47-0.847,0.629-1.437c0.158-0.589,0.243-1.32,0.255-2.192
		c-0.34,0.431-0.736,0.771-1.189,1.02c-0.454,0.249-0.907,0.374-1.36,0.374c-0.941,0-1.688-0.277-2.244-0.833
		c-0.556-0.555-0.833-1.394-0.833-2.516c0-0.521,0.085-0.995,0.255-1.42s0.399-0.79,0.688-1.097
		c0.289-0.306,0.629-0.544,1.021-0.714c0.391-0.17,0.802-0.255,1.232-0.255c0.532,0,1.028,0.107,1.487,0.323
		c0.459,0.215,0.855,0.541,1.19,0.978c0.334,0.437,0.595,0.98,0.781,1.632c0.188,0.651,0.281,1.414,0.281,2.286
		c0,1.088-0.114,2.015-0.341,2.78c-0.227,0.765-0.532,1.388-0.918,1.869c-0.385,0.482-0.824,0.833-1.317,1.055
		C146.604,727.581,146.086,727.691,145.542,727.691z M146.053,722.217c0.362,0,0.745-0.113,1.147-0.34
		c0.401-0.227,0.778-0.596,1.13-1.105c-0.091-1.065-0.34-1.87-0.748-2.414c-0.407-0.544-0.957-0.815-1.648-0.815
		c-0.261,0-0.508,0.057-0.739,0.17c-0.232,0.113-0.434,0.274-0.604,0.484c-0.171,0.21-0.304,0.462-0.4,0.756
		c-0.096,0.295-0.145,0.618-0.145,0.97c0,0.714,0.165,1.274,0.493,1.683C144.868,722.013,145.372,722.217,146.053,722.217z"/>
	<path fill="#020203" d="M117.951,697.487v-1.155h2.482v-7.99h-1.972v-0.901c0.498-0.091,0.932-0.201,1.3-0.331
		c0.368-0.131,0.7-0.286,0.995-0.468h1.071v9.69h2.243v1.155H117.951z"/>
	<path fill="#020203" d="M129.308,697.691c-0.51,0-0.983-0.073-1.42-0.221s-0.811-0.354-1.122-0.621
		c-0.312-0.266-0.558-0.58-0.739-0.943c-0.182-0.362-0.272-0.759-0.272-1.189c0-0.352,0.06-0.678,0.179-0.978
		c0.119-0.301,0.272-0.572,0.459-0.816c0.188-0.243,0.402-0.459,0.646-0.646c0.243-0.188,0.495-0.349,0.756-0.484v-0.068
		c-0.396-0.283-0.748-0.626-1.054-1.028s-0.459-0.893-0.459-1.471c0-0.419,0.079-0.799,0.238-1.139
		c0.158-0.341,0.374-0.632,0.646-0.876c0.272-0.243,0.596-0.434,0.97-0.569s0.781-0.204,1.224-0.204
		c0.476,0,0.901,0.071,1.275,0.213s0.693,0.34,0.96,0.595s0.471,0.561,0.612,0.918s0.212,0.745,0.212,1.164
		c0,0.284-0.048,0.556-0.145,0.816c-0.096,0.261-0.215,0.505-0.356,0.731s-0.301,0.431-0.477,0.611
		c-0.176,0.182-0.348,0.335-0.518,0.459v0.068c0.237,0.136,0.47,0.292,0.696,0.468s0.428,0.374,0.604,0.595s0.317,0.474,0.425,0.757
		c0.108,0.283,0.162,0.606,0.162,0.969c0,0.408-0.085,0.788-0.255,1.139c-0.17,0.352-0.408,0.657-0.714,0.918
		c-0.307,0.261-0.675,0.465-1.105,0.612S129.828,697.691,129.308,697.691z M129.342,696.654c0.634,0,1.147-0.176,1.538-0.526
		c0.391-0.352,0.587-0.811,0.587-1.377c0-0.352-0.08-0.652-0.238-0.901c-0.159-0.249-0.374-0.468-0.646-0.654
		c-0.271-0.188-0.586-0.357-0.943-0.511c-0.356-0.152-0.729-0.309-1.113-0.467c-0.431,0.295-0.79,0.638-1.079,1.028
		s-0.434,0.836-0.434,1.334c0,0.307,0.06,0.584,0.178,0.833c0.119,0.25,0.283,0.468,0.493,0.655c0.21,0.187,0.456,0.331,0.74,0.434
		C128.706,696.603,129.013,696.654,129.342,696.654z M130.072,691.571c0.362-0.328,0.644-0.674,0.842-1.037
		c0.198-0.362,0.297-0.742,0.297-1.139c0-0.544-0.164-1-0.492-1.368c-0.329-0.368-0.794-0.553-1.395-0.553
		c-0.51,0-0.93,0.159-1.258,0.476c-0.329,0.317-0.493,0.743-0.493,1.275c0,0.329,0.068,0.609,0.204,0.842s0.32,0.439,0.553,0.62
		c0.232,0.182,0.498,0.343,0.799,0.484C129.429,691.313,129.743,691.447,130.072,691.571z"/>
	<path fill="#020203" d="M117.951,667.488v-1.156h2.482v-7.99h-1.972v-0.9c0.498-0.091,0.932-0.201,1.3-0.332
		c0.368-0.13,0.7-0.286,0.995-0.468h1.071v9.69h2.243v1.156H117.951z"/>
	<path fill="#020203" d="M128.066,667.488c0.045-1.021,0.136-1.955,0.271-2.806c0.137-0.85,0.326-1.657,0.57-2.422
		c0.243-0.766,0.555-1.505,0.935-2.219s0.836-1.445,1.368-2.193h-5.405v-1.207h6.986v0.867c-0.646,0.816-1.17,1.599-1.572,2.347
		s-0.723,1.51-0.96,2.286c-0.238,0.776-0.411,1.598-0.519,2.465c-0.108,0.867-0.185,1.827-0.229,2.882H128.066z"/>
	<path fill="#020203" d="M117.951,637.488v-1.156h2.482v-7.99h-1.972v-0.9c0.498-0.091,0.932-0.201,1.3-0.332
		c0.368-0.13,0.7-0.286,0.995-0.468h1.071v9.69h2.243v1.156H117.951z"/>
	<path fill="#020203" d="M129.613,637.692c-0.533,0-1.025-0.108-1.479-0.323c-0.454-0.215-0.848-0.541-1.182-0.978
		c-0.335-0.437-0.599-0.98-0.791-1.632s-0.289-1.414-0.289-2.287c0-1.088,0.113-2.014,0.34-2.779
		c0.228-0.765,0.533-1.388,0.919-1.87c0.385-0.481,0.824-0.833,1.317-1.054c0.492-0.221,1.011-0.331,1.555-0.331
		c0.59,0,1.097,0.11,1.521,0.331c0.426,0.221,0.791,0.496,1.097,0.824l-0.781,0.867c-0.228-0.261-0.496-0.468-0.808-0.62
		c-0.312-0.153-0.638-0.229-0.978-0.229c-0.374,0-0.731,0.079-1.071,0.237c-0.34,0.159-0.641,0.42-0.901,0.782
		c-0.261,0.363-0.47,0.836-0.629,1.42c-0.158,0.584-0.243,1.306-0.255,2.167c0.34-0.419,0.736-0.75,1.19-0.994
		c0.453-0.244,0.9-0.365,1.343-0.365c0.94,0,1.691,0.277,2.253,0.833c0.561,0.555,0.841,1.394,0.841,2.516
		c0,0.521-0.085,0.994-0.255,1.42c-0.17,0.425-0.402,0.79-0.697,1.096c-0.295,0.307-0.635,0.544-1.02,0.715
		C130.469,637.607,130.056,637.692,129.613,637.692z M129.613,636.587c0.272,0,0.521-0.057,0.748-0.17s0.425-0.274,0.595-0.484
		s0.304-0.459,0.399-0.748c0.097-0.289,0.145-0.614,0.145-0.978c0-0.714-0.164-1.275-0.492-1.683
		c-0.329-0.408-0.833-0.612-1.514-0.612c-0.352,0-0.73,0.11-1.139,0.331c-0.408,0.222-0.782,0.587-1.122,1.097
		c0.091,1.065,0.337,1.873,0.739,2.423S128.922,636.587,129.613,636.587z"/>
	<path fill="#020203" d="M117.951,607.487v-1.156h2.482v-7.99h-1.972v-0.9c0.498-0.091,0.932-0.201,1.3-0.332
		c0.368-0.13,0.7-0.286,0.995-0.468h1.071v9.69h2.243v1.156H117.951z"/>
	<path fill="#020203" d="M129.035,607.691c-0.431,0-0.824-0.043-1.182-0.128c-0.356-0.085-0.68-0.195-0.969-0.331
		c-0.289-0.137-0.55-0.292-0.782-0.468s-0.439-0.359-0.62-0.553l0.68-0.918c0.317,0.329,0.694,0.618,1.131,0.867
		s0.972,0.374,1.606,0.374c0.328,0,0.638-0.06,0.927-0.179s0.541-0.286,0.756-0.501c0.216-0.216,0.386-0.477,0.511-0.782
		c0.124-0.307,0.187-0.646,0.187-1.021c0-0.748-0.21-1.331-0.629-1.751c-0.42-0.419-0.98-0.629-1.683-0.629
		c-0.374,0-0.694,0.057-0.961,0.17s-0.563,0.278-0.893,0.493l-0.748-0.476l0.357-5.22h5.423v1.207h-4.199l-0.289,3.214
		c0.261-0.137,0.521-0.244,0.782-0.323s0.555-0.119,0.884-0.119c0.465,0,0.901,0.068,1.31,0.204c0.407,0.136,0.765,0.343,1.07,0.62
		c0.307,0.278,0.547,0.629,0.723,1.055c0.176,0.425,0.264,0.932,0.264,1.521c0,0.589-0.103,1.11-0.306,1.563
		c-0.204,0.453-0.477,0.836-0.816,1.147s-0.729,0.55-1.164,0.714C129.968,607.608,129.512,607.691,129.035,607.691z"/>
	<path fill="#020203" d="M117.951,577.487v-1.156h2.482v-7.99h-1.972v-0.9c0.498-0.091,0.932-0.201,1.3-0.332
		c0.368-0.13,0.7-0.286,0.995-0.468h1.071v9.69h2.243v1.156H117.951z"/>
	<path fill="#020203" d="M130.226,577.487v-2.992h-4.879v-0.918l4.641-6.937h1.564v6.732h1.479v1.122h-1.479v2.992H130.226z
		 M126.825,573.373h3.4v-3.145c0-0.295,0.008-0.644,0.025-1.046c0.017-0.402,0.036-0.751,0.06-1.046h-0.068
		c-0.136,0.261-0.277,0.517-0.425,0.766s-0.301,0.504-0.459,0.765L126.825,573.373z"/>
	<path fill="#020203" d="M117.951,547.487v-1.155h2.482v-7.99h-1.972v-0.901c0.498-0.091,0.932-0.201,1.3-0.331
		c0.368-0.131,0.7-0.286,0.995-0.468h1.071v9.69h2.243v1.155H117.951z"/>
	<path fill="#020203" d="M129.069,547.691c-0.431,0-0.824-0.042-1.182-0.127c-0.356-0.085-0.683-0.198-0.978-0.341
		c-0.295-0.142-0.559-0.303-0.79-0.484c-0.232-0.181-0.439-0.374-0.621-0.578l0.714-0.918c0.329,0.341,0.712,0.641,1.148,0.901
		c0.436,0.261,0.977,0.391,1.623,0.391c0.657,0,1.195-0.178,1.615-0.535c0.419-0.357,0.629-0.842,0.629-1.453
		c0-0.317-0.06-0.609-0.179-0.876c-0.119-0.266-0.314-0.495-0.587-0.688c-0.271-0.192-0.629-0.34-1.07-0.441
		c-0.442-0.103-0.986-0.153-1.632-0.153v-1.071c0.577,0,1.062-0.051,1.453-0.153c0.391-0.102,0.708-0.243,0.952-0.425
		c0.243-0.181,0.416-0.396,0.519-0.646c0.102-0.249,0.152-0.516,0.152-0.799c0-0.533-0.167-0.952-0.501-1.259
		c-0.335-0.306-0.791-0.459-1.368-0.459c-0.454,0-0.87,0.103-1.25,0.307s-0.733,0.47-1.062,0.799l-0.748-0.884
		c0.419-0.396,0.881-0.723,1.386-0.978c0.504-0.255,1.079-0.383,1.726-0.383c0.476,0,0.912,0.062,1.309,0.188
		c0.396,0.124,0.739,0.303,1.028,0.535s0.513,0.519,0.672,0.858c0.158,0.34,0.238,0.731,0.238,1.173
		c0,0.657-0.182,1.196-0.544,1.615c-0.363,0.419-0.839,0.742-1.429,0.969v0.068c0.329,0.079,0.635,0.195,0.918,0.349
		c0.283,0.152,0.533,0.346,0.748,0.578c0.216,0.232,0.383,0.501,0.502,0.807c0.119,0.307,0.179,0.646,0.179,1.021
		c0,0.476-0.094,0.906-0.281,1.292c-0.187,0.386-0.441,0.711-0.765,0.978s-0.7,0.471-1.131,0.612S129.568,547.691,129.069,547.691z"
		/>
	<path fill="#020203" d="M117.951,517.487v-1.155h2.482v-7.99h-1.972v-0.901c0.498-0.091,0.932-0.201,1.3-0.331
		c0.368-0.131,0.7-0.286,0.995-0.468h1.071v9.69h2.243v1.155H117.951z"/>
	<path fill="#020203" d="M125.737,517.487v-0.833c0.816-0.815,1.541-1.553,2.176-2.21s1.167-1.267,1.599-1.827
		c0.431-0.562,0.759-1.077,0.985-1.547c0.227-0.471,0.34-0.927,0.34-1.369c0-0.623-0.17-1.133-0.51-1.529s-0.855-0.596-1.547-0.596
		c-0.453,0-0.873,0.128-1.258,0.383c-0.386,0.255-0.737,0.564-1.054,0.927l-0.8-0.799c0.453-0.499,0.936-0.898,1.445-1.199
		c0.51-0.3,1.122-0.45,1.836-0.45c1.009,0,1.802,0.292,2.38,0.876c0.578,0.583,0.867,1.356,0.867,2.32
		c0,0.51-0.11,1.022-0.331,1.538c-0.222,0.516-0.527,1.049-0.918,1.599c-0.392,0.55-0.856,1.121-1.395,1.717
		c-0.538,0.595-1.13,1.227-1.776,1.896c0.295-0.022,0.601-0.046,0.918-0.068s0.617-0.034,0.901-0.034h3.145v1.207H125.737z"/>
	<path fill="#020203" d="M117.951,487.487v-1.155h2.482v-7.99h-1.972v-0.901c0.498-0.091,0.932-0.201,1.3-0.331
		c0.368-0.131,0.7-0.286,0.995-0.468h1.071v9.69h2.243v1.155H117.951z"/>
	<path fill="#020203" d="M126.4,487.487v-1.155h2.482v-7.99h-1.973v-0.901c0.499-0.091,0.933-0.201,1.301-0.331
		c0.368-0.131,0.699-0.286,0.994-0.468h1.071v9.69h2.244v1.155H126.4z"/>
	<path fill="#020203" d="M117.951,457.488v-1.156h2.482v-7.99h-1.972v-0.9c0.498-0.092,0.932-0.201,1.3-0.332s0.7-0.286,0.995-0.468
		h1.071v9.69h2.243v1.156H117.951z"/>
	<path fill="#020203" d="M129.29,457.691c-1.099,0-1.955-0.486-2.566-1.461c-0.612-0.975-0.918-2.375-0.918-4.199
		c0-1.825,0.306-3.213,0.918-4.166c0.611-0.951,1.468-1.428,2.566-1.428c1.088,0,1.938,0.477,2.551,1.428
		c0.611,0.953,0.918,2.341,0.918,4.166c0,1.824-0.307,3.225-0.918,4.199C131.229,457.205,130.378,457.691,129.29,457.691z
		 M129.29,456.57c0.317,0,0.604-0.088,0.858-0.264c0.256-0.176,0.477-0.447,0.663-0.816c0.188-0.368,0.332-0.838,0.434-1.411
		c0.103-0.571,0.153-1.255,0.153-2.048s-0.051-1.474-0.153-2.041c-0.102-0.566-0.246-1.027-0.434-1.385
		c-0.187-0.357-0.407-0.621-0.663-0.791c-0.255-0.17-0.541-0.255-0.858-0.255s-0.606,0.085-0.866,0.255
		c-0.262,0.17-0.485,0.434-0.672,0.791c-0.188,0.357-0.332,0.818-0.434,1.385c-0.102,0.567-0.153,1.248-0.153,2.041
		c0,1.586,0.196,2.739,0.587,3.459S128.655,456.57,129.29,456.57z"/>
	<path fill="#020203" d="M124.317,427.692c-0.577,0-1.085-0.108-1.521-0.323s-0.802-0.487-1.096-0.816l0.781-0.884
		c0.227,0.261,0.496,0.471,0.808,0.629c0.312,0.159,0.638,0.238,0.978,0.238c0.386,0,0.748-0.079,1.088-0.238
		c0.34-0.158,0.641-0.422,0.901-0.79s0.47-0.848,0.629-1.437c0.158-0.59,0.243-1.32,0.255-2.193
		c-0.34,0.431-0.736,0.771-1.189,1.021c-0.454,0.249-0.907,0.374-1.36,0.374c-0.941,0-1.688-0.278-2.244-0.833
		c-0.556-0.556-0.833-1.395-0.833-2.517c0-0.521,0.085-0.994,0.255-1.419c0.17-0.426,0.399-0.791,0.688-1.097
		c0.289-0.307,0.629-0.544,1.021-0.714c0.391-0.17,0.802-0.255,1.232-0.255c0.532,0,1.028,0.107,1.487,0.322
		c0.459,0.216,0.855,0.542,1.19,0.978c0.334,0.437,0.595,0.98,0.781,1.632c0.188,0.652,0.281,1.414,0.281,2.287
		c0,1.088-0.114,2.015-0.341,2.779s-0.532,1.389-0.918,1.87c-0.385,0.481-0.824,0.833-1.317,1.054S124.861,427.692,124.317,427.692z
		 M124.828,422.217c0.362,0,0.745-0.113,1.147-0.34c0.401-0.227,0.778-0.595,1.13-1.104c-0.091-1.065-0.34-1.87-0.748-2.414
		c-0.407-0.544-0.957-0.816-1.648-0.816c-0.261,0-0.508,0.057-0.739,0.17c-0.232,0.113-0.434,0.275-0.604,0.484
		c-0.171,0.21-0.304,0.462-0.4,0.757c-0.096,0.295-0.145,0.618-0.145,0.969c0,0.714,0.165,1.275,0.493,1.684
		C123.644,422.013,124.147,422.217,124.828,422.217z"/>
	<path fill="#020203" d="M125.083,397.691c-0.51,0-0.983-0.073-1.42-0.221s-0.811-0.354-1.122-0.621
		c-0.312-0.266-0.558-0.58-0.739-0.943c-0.182-0.362-0.272-0.759-0.272-1.189c0-0.352,0.06-0.678,0.179-0.978
		c0.119-0.301,0.272-0.572,0.459-0.816c0.188-0.243,0.402-0.459,0.646-0.646c0.243-0.188,0.495-0.349,0.756-0.484v-0.068
		c-0.396-0.283-0.748-0.626-1.054-1.028s-0.459-0.893-0.459-1.471c0-0.419,0.079-0.799,0.238-1.139
		c0.158-0.341,0.374-0.632,0.646-0.876c0.272-0.243,0.596-0.434,0.97-0.569s0.781-0.204,1.224-0.204
		c0.476,0,0.901,0.071,1.275,0.213s0.693,0.34,0.96,0.595s0.471,0.561,0.612,0.918s0.212,0.745,0.212,1.164
		c0,0.284-0.048,0.556-0.145,0.816c-0.096,0.261-0.215,0.505-0.356,0.731s-0.301,0.431-0.477,0.611
		c-0.176,0.182-0.348,0.335-0.518,0.459v0.068c0.237,0.136,0.47,0.292,0.696,0.468s0.428,0.374,0.604,0.595s0.317,0.474,0.425,0.757
		c0.108,0.283,0.162,0.606,0.162,0.969c0,0.408-0.085,0.788-0.255,1.139c-0.17,0.352-0.408,0.657-0.714,0.918
		c-0.307,0.261-0.675,0.465-1.105,0.612S125.604,397.691,125.083,397.691z M125.117,396.654c0.634,0,1.147-0.176,1.538-0.526
		c0.391-0.352,0.587-0.811,0.587-1.377c0-0.352-0.08-0.652-0.238-0.901c-0.159-0.249-0.374-0.468-0.646-0.654
		c-0.271-0.188-0.586-0.357-0.943-0.511c-0.356-0.152-0.729-0.309-1.113-0.467c-0.431,0.295-0.79,0.638-1.079,1.028
		s-0.434,0.836-0.434,1.334c0,0.307,0.06,0.584,0.178,0.833c0.119,0.25,0.283,0.468,0.493,0.655c0.21,0.187,0.456,0.331,0.74,0.434
		C124.481,396.603,124.788,396.654,125.117,396.654z M125.848,391.571c0.362-0.328,0.644-0.674,0.842-1.037
		c0.198-0.362,0.297-0.742,0.297-1.139c0-0.544-0.164-1-0.492-1.368c-0.329-0.368-0.794-0.553-1.395-0.553
		c-0.51,0-0.93,0.159-1.258,0.476c-0.329,0.317-0.493,0.743-0.493,1.275c0,0.329,0.068,0.609,0.204,0.842s0.32,0.439,0.553,0.62
		c0.232,0.182,0.498,0.343,0.799,0.484C125.204,391.313,125.519,391.447,125.848,391.571z"/>
	<path fill="#020203" d="M123.842,367.487c0.045-1.02,0.136-1.955,0.271-2.805c0.137-0.85,0.326-1.657,0.57-2.422
		c0.243-0.765,0.555-1.504,0.935-2.218c0.38-0.714,0.836-1.445,1.368-2.193h-5.405v-1.207h6.986v0.867
		c-0.646,0.816-1.17,1.598-1.572,2.346s-0.723,1.51-0.96,2.286c-0.238,0.776-0.411,1.598-0.519,2.465
		c-0.108,0.867-0.185,1.827-0.229,2.881H123.842z"/>
	<path fill="#020203" d="M125.389,337.691c-0.533,0-1.025-0.108-1.479-0.323c-0.454-0.215-0.848-0.541-1.182-0.978
		c-0.335-0.436-0.599-0.98-0.791-1.632c-0.192-0.651-0.289-1.414-0.289-2.287c0-1.088,0.113-2.014,0.34-2.779
		c0.228-0.765,0.533-1.388,0.919-1.87c0.385-0.481,0.824-0.833,1.317-1.054c0.492-0.221,1.011-0.332,1.555-0.332
		c0.59,0,1.097,0.11,1.521,0.332c0.426,0.221,0.791,0.496,1.097,0.824l-0.781,0.867c-0.228-0.261-0.496-0.468-0.808-0.621
		c-0.312-0.153-0.638-0.229-0.978-0.229c-0.374,0-0.731,0.08-1.071,0.238c-0.34,0.159-0.641,0.419-0.901,0.782
		s-0.47,0.836-0.629,1.419c-0.158,0.584-0.243,1.306-0.255,2.167c0.34-0.419,0.736-0.75,1.19-0.995
		c0.453-0.244,0.9-0.365,1.343-0.365c0.94,0,1.691,0.278,2.253,0.833c0.561,0.555,0.841,1.394,0.841,2.516
		c0,0.521-0.085,0.994-0.255,1.419c-0.17,0.425-0.402,0.791-0.697,1.096c-0.295,0.306-0.635,0.544-1.02,0.714
		C126.244,337.606,125.831,337.691,125.389,337.691z M125.389,336.586c0.272,0,0.521-0.057,0.748-0.17s0.425-0.275,0.595-0.485
		c0.17-0.209,0.304-0.459,0.399-0.748c0.097-0.289,0.145-0.614,0.145-0.977c0-0.714-0.164-1.275-0.492-1.683
		c-0.329-0.408-0.833-0.612-1.514-0.612c-0.352,0-0.73,0.111-1.139,0.332c-0.408,0.221-0.782,0.586-1.122,1.097
		c0.091,1.065,0.337,1.873,0.739,2.422C124.15,336.311,124.697,336.586,125.389,336.586z"/>
	<path fill="#020203" d="M124.811,307.691c-0.431,0-0.824-0.042-1.182-0.127c-0.356-0.085-0.68-0.196-0.969-0.332
		c-0.289-0.136-0.55-0.292-0.782-0.468c-0.232-0.175-0.439-0.359-0.62-0.552l0.68-0.918c0.317,0.329,0.694,0.618,1.131,0.867
		c0.437,0.25,0.972,0.374,1.606,0.374c0.328,0,0.638-0.06,0.927-0.178c0.289-0.119,0.541-0.286,0.756-0.501
		c0.216-0.215,0.386-0.476,0.511-0.782c0.124-0.306,0.187-0.646,0.187-1.02c0-0.748-0.21-1.332-0.629-1.751
		c-0.42-0.419-0.98-0.629-1.683-0.629c-0.374,0-0.694,0.057-0.961,0.17s-0.563,0.278-0.893,0.493l-0.748-0.476l0.357-5.219h5.423
		v1.207h-4.199l-0.289,3.213c0.261-0.136,0.521-0.244,0.782-0.323c0.261-0.079,0.555-0.119,0.884-0.119
		c0.465,0,0.901,0.068,1.31,0.204c0.407,0.136,0.765,0.343,1.07,0.621c0.307,0.278,0.547,0.629,0.723,1.054
		c0.176,0.425,0.264,0.932,0.264,1.521s-0.103,1.111-0.306,1.564c-0.204,0.453-0.477,0.836-0.816,1.147s-0.729,0.55-1.164,0.714
		C125.743,307.608,125.287,307.691,124.811,307.691z"/>
	<path fill="#020203" d="M126.001,277.487v-2.992h-4.879v-0.918l4.641-6.936h1.564v6.732h1.479v1.122h-1.479v2.992H126.001z
		 M122.601,273.373h3.4v-3.145c0-0.295,0.008-0.643,0.025-1.046c0.017-0.402,0.036-0.75,0.06-1.045h-0.068
		c-0.136,0.261-0.277,0.516-0.425,0.765c-0.147,0.25-0.301,0.504-0.459,0.765L122.601,273.373z"/>
	<path fill="#020203" d="M124.845,247.691c-0.431,0-0.824-0.042-1.182-0.127c-0.356-0.085-0.683-0.198-0.978-0.34
		c-0.295-0.142-0.559-0.303-0.79-0.484c-0.232-0.181-0.439-0.374-0.621-0.578l0.714-0.918c0.329,0.34,0.712,0.641,1.148,0.901
		c0.436,0.261,0.977,0.391,1.623,0.391c0.657,0,1.195-0.178,1.615-0.535c0.419-0.357,0.629-0.842,0.629-1.454
		c0-0.317-0.06-0.609-0.179-0.875s-0.314-0.496-0.587-0.688c-0.271-0.193-0.629-0.34-1.07-0.442
		c-0.442-0.102-0.986-0.153-1.632-0.153v-1.071c0.577,0,1.062-0.051,1.453-0.153c0.391-0.102,0.708-0.243,0.952-0.425
		c0.243-0.181,0.416-0.396,0.519-0.646c0.102-0.249,0.152-0.516,0.152-0.799c0-0.533-0.167-0.952-0.501-1.258
		c-0.335-0.306-0.791-0.459-1.368-0.459c-0.454,0-0.87,0.102-1.25,0.306s-0.733,0.47-1.062,0.799l-0.748-0.884
		c0.419-0.396,0.881-0.723,1.386-0.978c0.504-0.255,1.079-0.382,1.726-0.382c0.476,0,0.912,0.062,1.309,0.187
		c0.396,0.125,0.739,0.303,1.028,0.535c0.289,0.232,0.513,0.519,0.672,0.858c0.158,0.34,0.238,0.731,0.238,1.173
		c0,0.657-0.182,1.196-0.544,1.615c-0.363,0.419-0.839,0.743-1.429,0.969v0.068c0.329,0.08,0.635,0.195,0.918,0.349
		c0.283,0.153,0.533,0.346,0.748,0.578c0.216,0.232,0.383,0.501,0.502,0.807c0.119,0.306,0.179,0.646,0.179,1.02
		c0,0.476-0.094,0.907-0.281,1.292c-0.187,0.386-0.441,0.711-0.765,0.978c-0.323,0.267-0.7,0.471-1.131,0.612
		S125.344,247.691,124.845,247.691z"/>
	<path fill="#020203" d="M121.513,217.487v-0.833c0.816-0.816,1.541-1.553,2.176-2.21s1.167-1.267,1.599-1.828
		c0.431-0.561,0.759-1.077,0.985-1.547s0.34-0.927,0.34-1.369c0-0.623-0.17-1.133-0.51-1.53c-0.34-0.396-0.855-0.595-1.547-0.595
		c-0.453,0-0.873,0.127-1.258,0.383c-0.386,0.255-0.737,0.564-1.054,0.926l-0.8-0.799c0.453-0.499,0.936-0.898,1.445-1.199
		c0.51-0.3,1.122-0.45,1.836-0.45c1.009,0,1.802,0.292,2.38,0.875c0.578,0.583,0.867,1.357,0.867,2.32
		c0,0.51-0.11,1.023-0.331,1.539c-0.222,0.516-0.527,1.048-0.918,1.598c-0.392,0.55-0.856,1.122-1.395,1.717
		s-1.13,1.227-1.776,1.896c0.295-0.022,0.601-0.045,0.918-0.068c0.317-0.023,0.617-0.034,0.901-0.034h3.145v1.207H121.513z"/>
	<path fill="#020203" d="M122.176,187.487v-1.156h2.482v-7.99h-1.973v-0.901c0.499-0.091,0.933-0.201,1.301-0.332
		s0.699-0.286,0.994-0.468h1.071v9.69h2.244v1.156H122.176z"/>
</g>
<g id="Layer_5">
	<g>
		<path fill="#BE70AB" d="M942,5v992H5V5H942 M947,0H0v1002h947V0L947,0z"/>
	</g>
</g>
</svg>
