<svg xmlns="http://www.w3.org/2000/svg" width="876" height="812"><path fill="#EDEDED" d="M626.3 0H249.7v79.2c0 10.9 8.8 19.7 19.7 19.7h337.2c10.9 0 19.7-8.8 19.7-19.7V0z"/><g fill="none" stroke="#5F5F5F" stroke-miterlimit="10"><path d="M438.8 132.5v4"/><path stroke-dasharray="8.0831,8.0831" d="M438.8 144.6V771"/><path d="M438.8 775.1v4"/></g><g><g fill="#020203"><path d="M161.481 759.357v-.833c.816-.816 1.541-1.553 2.176-2.21s1.167-1.267 1.598-1.827c.431-.562.759-1.077.986-1.548.227-.47.34-.926.34-1.368 0-.623-.17-1.133-.51-1.53-.34-.396-.856-.595-1.547-.595-.454 0-.873.128-1.258.383s-.737.563-1.054.927l-.799-.8c.453-.498.935-.897 1.445-1.198.51-.3 1.122-.45 1.836-.45 1.008 0 1.802.292 2.38.875.578.584.867 1.357.867 2.321 0 .51-.111 1.022-.332 1.538-.221.516-.527 1.049-.918 1.598-.391.55-.856 1.122-1.394 1.717-.539.596-1.13 1.228-1.776 1.896.294-.022.601-.045.918-.067.317-.022.617-.034.901-.034h3.145v1.207h-7.004zM174.418 759.357v-2.992h-4.879v-.918l4.641-6.936h1.564v6.731h1.479v1.122h-1.479v2.992h-1.326zm-3.4-4.114h3.4v-3.145c0-.295.008-.644.025-1.046s.037-.75.06-1.045h-.068c-.136.261-.278.516-.425.765-.147.249-.3.504-.459.765l-2.533 3.706z"/></g><g fill="#020203"><path d="M161.481 718.566v-.833c.816-.816 1.541-1.553 2.176-2.21s1.167-1.267 1.598-1.827c.431-.562.759-1.077.986-1.548.227-.47.34-.926.34-1.368 0-.623-.17-1.133-.51-1.53-.34-.396-.856-.595-1.547-.595-.454 0-.873.128-1.258.383s-.737.563-1.054.927l-.799-.8c.453-.498.935-.897 1.445-1.198.51-.3 1.122-.45 1.836-.45 1.008 0 1.802.292 2.38.875.578.584.867 1.357.867 2.321 0 .51-.111 1.022-.332 1.538-.221.516-.527 1.049-.918 1.598-.391.55-.856 1.122-1.394 1.717-.539.596-1.13 1.228-1.776 1.896.294-.022.601-.045.918-.067.317-.022.617-.034.901-.034h3.145v1.207h-7.004zM169.93 718.566v-.833c.816-.816 1.541-1.553 2.176-2.21s1.167-1.267 1.598-1.827c.431-.562.759-1.077.986-1.548.227-.47.34-.926.34-1.368 0-.623-.17-1.133-.51-1.53-.34-.396-.856-.595-1.547-.595-.454 0-.873.128-1.258.383s-.737.563-1.054.927l-.799-.8c.453-.498.935-.897 1.445-1.198.51-.3 1.122-.45 1.836-.45 1.008 0 1.802.292 2.38.875.578.584.867 1.357.867 2.321 0 .51-.111 1.022-.332 1.538-.221.516-.527 1.049-.918 1.598-.391.55-.856 1.122-1.394 1.717-.539.596-1.13 1.228-1.776 1.896.294-.022.601-.045.918-.067.317-.022.617-.034.901-.034h3.145v1.207h-7.004z"/></g><g fill="#020203"><path d="M161.481 692.484v-.834c.816-.816 1.541-1.553 2.176-2.209.635-.658 1.167-1.268 1.598-1.828.431-.561.759-1.076.986-1.547s.34-.926.34-1.369c0-.623-.17-1.133-.51-1.529s-.856-.596-1.547-.596c-.454 0-.873.129-1.258.383-.385.256-.737.564-1.054.928l-.799-.801c.453-.498.935-.896 1.445-1.197.51-.301 1.122-.451 1.836-.451 1.008 0 1.802.293 2.38.875.578.584.867 1.357.867 2.322 0 .51-.111 1.021-.332 1.537-.221.516-.527 1.049-.918 1.598-.391.551-.856 1.123-1.394 1.717-.539.596-1.13 1.229-1.776 1.896.294-.023.601-.045.918-.068.317-.021.617-.033.901-.033h3.145v1.207h-7.004zM170.593 692.484v-1.156h2.482v-7.99h-1.972v-.9c.499-.092.932-.201 1.3-.332s.7-.287.995-.467h1.071v9.689h2.244v1.156h-6.12z"/></g><g fill="#020203"><path d="M312.479 733.274v-.833c.816-.816 1.541-1.553 2.176-2.21s1.167-1.267 1.598-1.827c.431-.562.759-1.077.986-1.548.227-.47.34-.926.34-1.368 0-.623-.17-1.133-.51-1.53-.34-.396-.856-.595-1.547-.595-.454 0-.873.128-1.258.383s-.737.563-1.054.927l-.799-.8c.453-.498.935-.897 1.445-1.198.51-.3 1.122-.45 1.836-.45 1.008 0 1.802.292 2.38.875.578.584.867 1.357.867 2.321 0 .51-.111 1.022-.332 1.538-.221.516-.527 1.049-.918 1.598-.391.55-.856 1.122-1.394 1.717-.539.596-1.13 1.228-1.776 1.896.294-.022.601-.045.918-.067.317-.022.617-.034.901-.034h3.145v1.207h-7.004zM324.259 733.479c-.431 0-.825-.043-1.182-.128s-.683-.198-.978-.34c-.295-.142-.559-.303-.791-.484-.232-.181-.439-.374-.621-.578l.714-.918c.329.34.711.641 1.148.901.436.261.977.391 1.623.391.657 0 1.196-.179 1.615-.535.419-.357.629-.842.629-1.454 0-.316-.06-.608-.178-.875-.119-.267-.314-.496-.587-.688-.272-.192-.629-.34-1.071-.442-.442-.102-.986-.152-1.632-.152v-1.071c.578 0 1.062-.051 1.454-.153.391-.102.708-.243.952-.425.244-.181.417-.396.519-.646.102-.25.153-.516.153-.8 0-.532-.167-.952-.501-1.258s-.791-.459-1.368-.459c-.454 0-.87.103-1.25.306-.38.204-.734.471-1.062.8l-.748-.885c.419-.396.881-.722 1.385-.978.504-.255 1.08-.382 1.726-.382.476 0 .912.062 1.309.187.396.125.739.304 1.028.536s.513.519.672.858c.158.34.238.73.238 1.173 0 .657-.182 1.195-.544 1.615-.363.419-.839.742-1.428.969v.068c.329.079.635.195.918.348.283.153.533.347.748.578.215.232.383.502.501.808.119.307.179.646.179 1.021 0 .476-.094.906-.281 1.292-.187.385-.442.711-.765.978-.323.266-.7.47-1.131.611s-.894.211-1.393.211z"/></g><g fill="#020203"><path d="M312.479 707.191v-.833c.816-.816 1.541-1.553 2.176-2.21s1.167-1.267 1.598-1.827c.431-.562.759-1.077.986-1.548.227-.47.34-.926.34-1.368 0-.623-.17-1.133-.51-1.53-.34-.396-.856-.595-1.547-.595-.454 0-.873.128-1.258.383s-.737.563-1.054.927l-.799-.8c.453-.498.935-.897 1.445-1.198.51-.3 1.122-.45 1.836-.45 1.008 0 1.802.292 2.38.875.578.584.867 1.357.867 2.321 0 .51-.111 1.022-.332 1.538-.221.516-.527 1.049-.918 1.598-.391.55-.856 1.122-1.394 1.717-.539.596-1.13 1.228-1.776 1.896.294-.022.601-.045.918-.067.317-.022.617-.034.901-.034h3.145v1.207h-7.004zM320.927 707.191v-.833c.816-.816 1.541-1.553 2.176-2.21s1.167-1.267 1.598-1.827c.431-.562.759-1.077.986-1.548.227-.47.34-.926.34-1.368 0-.623-.17-1.133-.51-1.53-.34-.396-.856-.595-1.547-.595-.454 0-.873.128-1.258.383s-.737.563-1.054.927l-.799-.8c.453-.498.935-.897 1.445-1.198.51-.3 1.122-.45 1.836-.45 1.008 0 1.802.292 2.38.875.578.584.867 1.357.867 2.321 0 .51-.111 1.022-.332 1.538-.221.516-.527 1.049-.918 1.598-.391.55-.856 1.122-1.394 1.717-.539.596-1.13 1.228-1.776 1.896.294-.022.601-.045.918-.067.317-.022.617-.034.901-.034h3.145v1.207h-7.004z"/></g><g fill="#020203"><path d="M312.479 681.108v-.833c.816-.816 1.541-1.553 2.176-2.21s1.167-1.267 1.598-1.827c.431-.562.759-1.077.986-1.548.227-.47.34-.926.34-1.368 0-.623-.17-1.133-.51-1.53-.34-.396-.856-.595-1.547-.595-.454 0-.873.128-1.258.383s-.737.563-1.054.927l-.799-.8c.453-.498.935-.897 1.445-1.198.51-.3 1.122-.45 1.836-.45 1.008 0 1.802.292 2.38.875.578.584.867 1.357.867 2.321 0 .51-.111 1.022-.332 1.538-.221.516-.527 1.049-.918 1.598-.391.55-.856 1.122-1.394 1.717-.539.596-1.13 1.228-1.776 1.896.294-.022.601-.045.918-.067.317-.022.617-.034.901-.034h3.145v1.207h-7.004zM321.59 681.108v-1.156h2.482v-7.99H322.1v-.9c.499-.091.932-.201 1.3-.332.368-.13.7-.286.995-.467h1.071v9.689h2.244v1.156h-6.12z"/></g><g fill="#020203"><path d="M84.981 655.026v-.833c.816-.816 1.541-1.553 2.176-2.21s1.167-1.267 1.598-1.827c.431-.562.759-1.077.986-1.548.227-.47.34-.926.34-1.368 0-.623-.17-1.133-.51-1.53-.34-.396-.856-.595-1.547-.595-.454 0-.873.128-1.258.383s-.737.563-1.054.927l-.799-.8c.453-.498.935-.897 1.445-1.198.51-.3 1.122-.45 1.836-.45 1.008 0 1.802.292 2.38.875.578.584.867 1.357.867 2.321 0 .51-.111 1.022-.332 1.538-.221.516-.527 1.049-.918 1.598-.391.55-.856 1.122-1.394 1.717-.539.596-1.13 1.228-1.776 1.896.294-.022.601-.045.918-.067.317-.022.617-.034.901-.034h3.145v1.207h-7.004zM96.983 655.23c-1.099 0-1.955-.487-2.567-1.462s-.918-2.374-.918-4.199c0-1.824.306-3.213.918-4.165s1.468-1.428 2.567-1.428c1.088 0 1.938.476 2.55 1.428.612.952.918 2.341.918 4.165 0 1.825-.306 3.225-.918 4.199-.612.975-1.462 1.462-2.55 1.462zm0-1.122c.317 0 .604-.088.858-.264.255-.176.476-.447.663-.815s.332-.839.434-1.411.153-1.256.153-2.049-.051-1.473-.153-2.04c-.102-.566-.247-1.028-.434-1.386-.187-.356-.408-.62-.663-.79-.255-.17-.541-.255-.858-.255s-.606.085-.867.255c-.261.17-.485.434-.672.79-.187.357-.332.819-.433 1.386-.102.567-.153 1.247-.153 2.04 0 1.587.196 2.74.586 3.46.391.72.904 1.079 1.539 1.079z"/></g><g fill="#020203"><path d="M85.644 628.943v-1.156h2.482v-7.99h-1.972v-.9c.499-.091.932-.201 1.3-.332.368-.13.7-.286.995-.467h1.071v9.689h2.244v1.156h-6.12zM96.235 629.147c-.578 0-1.085-.108-1.521-.323-.437-.215-.802-.487-1.096-.815l.782-.885c.227.261.496.471.808.629.312.159.638.238.978.238.385 0 .748-.079 1.088-.238.34-.158.64-.422.901-.79s.47-.847.629-1.437c.159-.589.244-1.32.255-2.193-.34.432-.737.771-1.19 1.021-.454.249-.907.374-1.36.374-.941 0-1.688-.277-2.244-.833-.556-.556-.833-1.395-.833-2.517 0-.521.085-.994.255-1.419s.399-.791.688-1.097.629-.544 1.02-.714.802-.255 1.232-.255c.533 0 1.028.107 1.487.323.459.215.856.541 1.19.978.334.436.595.979.782 1.632.187.651.281 1.414.281 2.286 0 1.088-.114 2.015-.34 2.779-.227.766-.533 1.389-.918 1.87-.385.482-.824.833-1.317 1.054-.495.222-1.013.332-1.557.332zm.51-5.473c.362 0 .745-.113 1.147-.341.402-.227.779-.595 1.13-1.104-.091-1.065-.34-1.87-.748-2.414s-.958-.816-1.649-.816c-.261 0-.507.058-.739.17-.232.114-.434.275-.604.485-.17.209-.304.462-.4.756-.096.295-.145.618-.145.969 0 .715.165 1.275.493 1.684s.835.611 1.515.611z"/></g><g fill="#020203"><path d="M85.644 602.86v-1.156h2.482v-7.99h-1.972v-.9c.499-.091.932-.201 1.3-.332.368-.13.7-.286.995-.467h1.071v9.689h2.244v1.156h-6.12zM97 603.064c-.51 0-.983-.074-1.419-.221-.437-.147-.811-.354-1.122-.621-.312-.266-.558-.58-.739-.943-.182-.362-.272-.759-.272-1.19 0-.351.06-.677.179-.977.119-.301.272-.572.459-.816.187-.243.402-.459.646-.646s.496-.348.756-.484v-.067c-.396-.283-.748-.626-1.054-1.028-.306-.402-.459-.893-.459-1.471 0-.42.079-.799.238-1.14.159-.34.374-.631.646-.875s.595-.434.969-.569c.374-.137.782-.204 1.224-.204.476 0 .901.07 1.275.212.374.143.694.341.96.596.266.255.47.561.612.918.142.356.212.745.212 1.164 0 .283-.048.556-.145.816s-.215.504-.357.73c-.142.228-.3.431-.476.612s-.348.334-.518.459v.068c.238.136.47.292.697.467.227.176.428.374.604.596.176.221.317.473.425.756.108.284.162.606.162.97 0 .407-.085.787-.255 1.139s-.408.657-.714.918-.675.465-1.105.612c-.432.145-.908.219-1.429.219zm.034-1.037c.634 0 1.147-.176 1.538-.527.391-.351.587-.81.587-1.377 0-.351-.08-.651-.238-.9s-.374-.468-.646-.655-.586-.356-.943-.51c-.357-.152-.729-.309-1.114-.467-.431.294-.79.637-1.079 1.028-.289.391-.434.836-.434 1.334 0 .307.06.584.178.833.119.25.283.468.493.654.209.188.456.332.74.434.283.103.589.153.918.153zm.731-5.083c.362-.328.643-.674.841-1.037.198-.362.297-.742.297-1.139 0-.544-.164-1-.493-1.369-.329-.368-.793-.552-1.394-.552-.51 0-.93.158-1.258.476s-.493.742-.493 1.275c0 .328.068.609.204.841.136.232.32.439.552.621s.499.343.799.484.616.275.945.4z"/></g><g fill="#020203"><path d="M85.644 576.777v-1.156h2.482v-7.99h-1.972v-.9c.499-.091.932-.201 1.3-.332.368-.13.7-.286.995-.467h1.071v9.689h2.244v1.156h-6.12zM95.759 576.777c.045-1.02.136-1.955.272-2.805.136-.851.326-1.658.57-2.423.244-.765.555-1.505.935-2.219.379-.714.835-1.444 1.368-2.192h-5.406v-1.207h6.987v.867c-.646.815-1.17 1.598-1.572 2.346-.402.748-.723 1.51-.96 2.286-.238.776-.411 1.599-.519 2.465-.108.867-.185 1.828-.229 2.882h-1.446z"/></g><g fill="#020203"><path d="M85.644 550.694v-1.156h2.482v-7.99h-1.972v-.9c.499-.091.932-.201 1.3-.332.368-.13.7-.286.995-.467h1.071v9.689h2.244v1.156h-6.12zM97.306 550.898c-.533 0-1.026-.108-1.479-.323-.454-.215-.848-.541-1.182-.978-.334-.436-.598-.979-.791-1.632-.193-.651-.289-1.414-.289-2.286 0-1.088.113-2.015.34-2.78.227-.765.533-1.388.918-1.869.385-.482.824-.833 1.317-1.055.493-.221 1.011-.331 1.555-.331.589 0 1.097.11 1.521.331.425.222.791.496 1.097.825l-.782.866c-.227-.26-.496-.467-.808-.62-.312-.153-.638-.229-.978-.229-.374 0-.731.079-1.071.238-.34.158-.64.419-.901.781-.261.363-.47.836-.629 1.42s-.244 1.307-.255 2.168c.34-.42.736-.751 1.19-.995.453-.243.901-.365 1.343-.365.941 0 1.692.277 2.253.833.561.556.841 1.394.841 2.516 0 .521-.085.995-.255 1.42s-.402.79-.697 1.097c-.295.306-.635.544-1.02.714s-.796.254-1.238.254zm0-1.105c.272 0 .521-.057.748-.17.227-.113.425-.274.595-.484.17-.209.303-.459.399-.748s.145-.614.145-.978c0-.714-.164-1.274-.493-1.683-.329-.408-.833-.612-1.513-.612-.352 0-.731.11-1.139.332-.408.221-.782.586-1.122 1.096.091 1.065.337 1.873.74 2.423s.949.824 1.64.824z"/></g><g fill="#020203"><path d="M85.644 524.611v-1.156h2.482v-7.99h-1.972v-.9c.499-.09.932-.201 1.3-.332.368-.129.7-.285.995-.467h1.071v9.689h2.244v1.156h-6.12zM96.728 524.816c-.431 0-.825-.043-1.182-.129-.357-.084-.68-.195-.969-.33-.289-.137-.55-.293-.782-.469s-.439-.359-.621-.553l.68-.918c.317.33.694.619 1.13.867.437.25.972.375 1.606.375.329 0 .638-.061.927-.18.289-.117.541-.285.756-.5s.385-.477.51-.783c.125-.305.187-.645.187-1.02 0-.748-.21-1.332-.629-1.75-.419-.42-.98-.631-1.683-.631-.374 0-.694.059-.96.172-.267.113-.564.277-.893.492l-.748-.477.357-5.219h5.423v1.207H95.64l-.289 3.213c.261-.135.521-.244.782-.322.261-.08.555-.119.884-.119.464 0 .901.068 1.309.203.408.137.765.344 1.071.621s.547.629.723 1.055c.175.424.263.932.263 1.521 0 .588-.102 1.109-.306 1.562-.204.455-.476.836-.816 1.148-.34.312-.729.549-1.165.713-.436.169-.892.251-1.368.251z"/></g><g fill="#020203"><path d="M85.644 498.529v-1.156h2.482v-7.99h-1.972v-.9c.499-.091.932-.201 1.3-.332.368-.13.7-.286.995-.467h1.071v9.689h2.244v1.156h-6.12zM97.918 498.529v-2.992h-4.879v-.918l4.641-6.936h1.564v6.731h1.479v1.122h-1.479v2.992h-1.326zm-3.4-4.114h3.4v-3.145c0-.295.008-.644.025-1.046s.037-.75.06-1.045h-.068c-.136.261-.278.516-.425.765-.147.249-.3.504-.459.765l-2.533 3.706z"/></g><g fill="#020203"><path d="M85.644 472.446v-1.156h2.482v-7.99h-1.972v-.9c.499-.091.932-.201 1.3-.332.368-.13.7-.286.995-.467h1.071v9.689h2.244v1.156h-6.12zM96.762 472.65c-.431 0-.825-.043-1.182-.128s-.683-.198-.978-.34c-.295-.142-.559-.303-.791-.484-.232-.181-.439-.374-.621-.578l.714-.918c.329.34.711.641 1.148.901.436.261.977.391 1.623.391.657 0 1.196-.179 1.615-.535.419-.357.629-.842.629-1.454 0-.316-.06-.608-.178-.875-.119-.267-.314-.496-.587-.688-.272-.192-.629-.34-1.071-.442-.442-.102-.986-.152-1.632-.152v-1.071c.578 0 1.062-.051 1.454-.153.391-.102.708-.243.952-.425.244-.181.417-.396.519-.646.102-.25.153-.516.153-.8 0-.532-.167-.952-.501-1.258s-.791-.459-1.368-.459c-.454 0-.87.103-1.25.306-.38.204-.734.471-1.062.8l-.748-.885c.419-.396.881-.722 1.385-.978.504-.255 1.08-.382 1.726-.382.476 0 .912.062 1.309.187.396.125.739.304 1.028.536s.513.519.672.858c.158.34.238.73.238 1.173 0 .657-.182 1.195-.544 1.615-.363.419-.839.742-1.428.969v.068c.329.079.635.195.918.348.283.153.533.347.748.578.215.232.383.502.501.808.119.307.179.646.179 1.021 0 .476-.094.906-.281 1.292-.187.385-.442.711-.765.978-.323.266-.7.47-1.131.611s-.894.211-1.393.211z"/></g><g fill="#020203"><path d="M85.644 446.363v-1.156h2.482v-7.99h-1.972v-.9c.499-.091.932-.201 1.3-.332.368-.13.7-.286.995-.467h1.071v9.689h2.244v1.156h-6.12zM93.43 446.363v-.833c.816-.816 1.541-1.553 2.176-2.21s1.167-1.267 1.598-1.827c.431-.562.759-1.077.986-1.548.227-.47.34-.926.34-1.368 0-.623-.17-1.133-.51-1.53-.34-.396-.856-.595-1.547-.595-.454 0-.873.128-1.258.383s-.737.563-1.054.927l-.799-.8c.453-.498.935-.897 1.445-1.198.51-.3 1.122-.45 1.836-.45 1.008 0 1.802.292 2.38.875.578.584.867 1.357.867 2.321 0 .51-.111 1.022-.332 1.538-.221.516-.527 1.049-.918 1.598-.391.55-.856 1.122-1.394 1.717-.539.596-1.13 1.228-1.776 1.896.294-.022.601-.045.918-.067.317-.022.617-.034.901-.034h3.145v1.207H93.43z"/></g><g fill="#020203"><path d="M85.644 420.28v-1.156h2.482v-7.99h-1.972v-.9c.499-.091.932-.201 1.3-.332.368-.13.7-.286.995-.467h1.071v9.689h2.244v1.156h-6.12zM94.093 420.28v-1.156h2.482v-7.99h-1.972v-.9c.499-.091.932-.201 1.3-.332.368-.13.7-.286.995-.467h1.071v9.689h2.244v1.156h-6.12z"/></g><g fill="#020203"><path d="M85.644 394.198v-1.156h2.482v-7.99h-1.972v-.9c.499-.091.932-.201 1.3-.332.368-.13.7-.286.995-.467h1.071v9.689h2.244v1.156h-6.12zM96.983 394.402c-1.099 0-1.955-.487-2.567-1.462s-.918-2.374-.918-4.199c0-1.824.306-3.213.918-4.165s1.468-1.428 2.567-1.428c1.088 0 1.938.476 2.55 1.428.612.952.918 2.341.918 4.165 0 1.825-.306 3.225-.918 4.199-.612.975-1.462 1.462-2.55 1.462zm0-1.122c.317 0 .604-.088.858-.264.255-.176.476-.447.663-.815s.332-.839.434-1.411.153-1.256.153-2.049-.051-1.473-.153-2.04c-.102-.566-.247-1.028-.434-1.386-.187-.356-.408-.62-.663-.79-.255-.17-.541-.255-.858-.255s-.606.085-.867.255c-.261.17-.485.434-.672.79-.187.357-.332.819-.433 1.386-.102.567-.153 1.247-.153 2.04 0 1.587.196 2.74.586 3.46.391.719.904 1.079 1.539 1.079z"/></g><path fill="#020203" d="M92.01 368.319c-.578 0-1.085-.108-1.521-.323-.437-.215-.802-.487-1.096-.815l.782-.885c.227.261.496.471.808.629.312.159.638.238.978.238.385 0 .748-.079 1.088-.238.34-.158.64-.422.901-.79s.47-.847.629-1.437c.159-.589.244-1.32.255-2.193-.34.432-.737.771-1.19 1.021-.454.249-.907.374-1.36.374-.941 0-1.688-.277-2.244-.833-.556-.556-.833-1.395-.833-2.517 0-.521.085-.994.255-1.419s.399-.791.688-1.097.629-.544 1.02-.714.802-.255 1.232-.255c.533 0 1.028.107 1.487.323.459.215.856.541 1.19.978.334.436.595.979.782 1.632.187.651.281 1.414.281 2.286 0 1.088-.114 2.015-.34 2.779-.227.766-.533 1.389-.918 1.87-.385.482-.824.833-1.317 1.054-.494.221-1.013.332-1.557.332zm.511-5.474c.362 0 .745-.113 1.147-.341.402-.227.779-.595 1.13-1.104-.091-1.065-.34-1.87-.748-2.414s-.958-.816-1.649-.816c-.261 0-.507.058-.739.17-.232.114-.434.275-.604.485-.17.209-.304.462-.4.756-.096.295-.145.618-.145.969 0 .715.165 1.275.493 1.684s.834.611 1.515.611zM92.775 342.236c-.51 0-.983-.074-1.419-.221-.437-.147-.811-.354-1.122-.621-.312-.266-.558-.58-.739-.943-.182-.362-.272-.759-.272-1.19 0-.351.06-.677.179-.977.119-.301.272-.572.459-.816.187-.243.402-.459.646-.646s.496-.348.756-.484v-.067c-.396-.283-.748-.626-1.054-1.028-.306-.402-.459-.893-.459-1.471 0-.42.079-.799.238-1.14.159-.34.374-.631.646-.875s.595-.434.969-.569c.374-.137.782-.204 1.224-.204.476 0 .901.07 1.275.212.374.143.694.341.96.596.266.255.47.561.612.918.142.356.212.745.212 1.164 0 .283-.048.556-.145.816s-.215.504-.357.73c-.142.228-.3.431-.476.612s-.348.334-.518.459v.068c.238.136.47.292.697.467.227.176.428.374.604.596.176.221.317.473.425.756.108.284.162.606.162.97 0 .407-.085.787-.255 1.139s-.408.657-.714.918-.675.465-1.105.612c-.432.145-.908.219-1.429.219zm.035-1.037c.634 0 1.147-.176 1.538-.527.391-.351.587-.81.587-1.377 0-.351-.08-.651-.238-.9s-.374-.468-.646-.655-.586-.356-.943-.51c-.357-.152-.729-.309-1.114-.467-.431.294-.79.637-1.079 1.028-.289.391-.434.836-.434 1.334 0 .307.06.584.178.833.119.25.283.468.493.654.209.188.456.332.74.434.282.102.588.153.918.153zm.731-5.083c.362-.328.643-.674.841-1.037.198-.362.297-.742.297-1.139 0-.544-.164-1-.493-1.369-.329-.368-.793-.552-1.394-.552-.51 0-.93.158-1.258.476s-.493.742-.493 1.275c0 .328.068.609.204.841.136.232.32.439.552.621s.499.343.799.484.615.275.945.4zM91.534 315.949c.045-1.02.136-1.955.272-2.805.136-.851.326-1.658.57-2.423.244-.765.555-1.505.935-2.219.379-.714.835-1.444 1.368-2.192h-5.406v-1.207h6.987v.867c-.646.815-1.17 1.598-1.572 2.346-.402.748-.723 1.51-.96 2.286-.238.776-.411 1.599-.519 2.465-.108.867-.185 1.828-.229 2.882h-1.446zM93.082 290.07c-.533 0-1.026-.108-1.479-.323-.454-.215-.848-.541-1.182-.978-.334-.436-.598-.979-.791-1.632-.193-.651-.289-1.414-.289-2.286 0-1.088.113-2.015.34-2.78.227-.765.533-1.388.918-1.869.385-.482.824-.833 1.317-1.055.493-.221 1.011-.331 1.555-.331.589 0 1.097.11 1.521.331.425.222.791.496 1.097.825l-.782.866c-.227-.26-.496-.467-.808-.62-.312-.153-.638-.229-.978-.229-.374 0-.731.079-1.071.238-.34.158-.64.419-.901.781-.261.363-.47.836-.629 1.42s-.244 1.307-.255 2.168c.34-.42.736-.751 1.19-.995.453-.243.901-.365 1.343-.365.941 0 1.692.277 2.253.833.561.556.841 1.394.841 2.516 0 .521-.085.995-.255 1.42s-.402.79-.697 1.097c-.295.306-.635.544-1.02.714s-.797.254-1.238.254zm0-1.105c.272 0 .521-.057.748-.17.227-.113.425-.274.595-.484.17-.209.303-.459.399-.748s.145-.614.145-.978c0-.714-.164-1.274-.493-1.683-.329-.408-.833-.612-1.513-.612-.352 0-.731.11-1.139.332-.408.221-.782.586-1.122 1.096.091 1.065.337 1.873.74 2.423s.948.824 1.64.824zM92.503 263.987c-.431 0-.825-.043-1.182-.128s-.68-.195-.969-.331-.55-.292-.782-.468-.439-.359-.621-.553l.68-.918c.317.329.694.618 1.13.867.437.25.972.374 1.606.374.329 0 .638-.06.927-.179.289-.118.541-.286.756-.501s.385-.477.51-.782c.125-.306.187-.646.187-1.02 0-.748-.21-1.332-.629-1.751-.419-.42-.98-.63-1.683-.63-.374 0-.694.058-.96.171-.267.113-.564.277-.893.492l-.748-.476.357-5.219h5.423v1.207h-4.199l-.289 3.213c.261-.136.521-.244.782-.323s.555-.119.884-.119c.464 0 .901.068 1.309.204.408.136.765.343 1.071.62.306.278.547.63.723 1.055.175.425.263.932.263 1.521 0 .589-.102 1.11-.306 1.563-.204.454-.476.836-.816 1.147-.34.312-.729.55-1.165.714-.433.168-.89.25-1.366.25zM93.693 237.701v-2.992h-4.879v-.918l4.641-6.936h1.564v6.731h1.479v1.122H95.02v2.992h-1.327zm-3.4-4.115h3.4v-3.145c0-.295.008-.644.025-1.046s.037-.75.06-1.045h-.068c-.136.261-.278.516-.425.765-.147.249-.3.504-.459.765l-2.533 3.706zM92.538 211.822c-.431 0-.825-.043-1.182-.128s-.683-.198-.978-.34c-.295-.142-.559-.303-.791-.484-.232-.181-.439-.374-.621-.578l.714-.918c.329.34.711.641 1.148.901.436.261.977.391 1.623.391.657 0 1.196-.179 1.615-.535.419-.357.629-.842.629-1.454 0-.316-.06-.608-.178-.875-.119-.267-.314-.496-.587-.688-.272-.192-.629-.34-1.071-.442-.442-.102-.986-.152-1.632-.152v-1.071c.578 0 1.062-.051 1.454-.153.391-.102.708-.243.952-.425.244-.181.417-.396.519-.646.102-.25.153-.516.153-.8 0-.532-.167-.952-.501-1.258s-.791-.459-1.368-.459c-.454 0-.87.103-1.25.306-.38.204-.734.471-1.062.8l-.748-.885c.419-.396.881-.722 1.385-.978.504-.255 1.08-.382 1.726-.382.476 0 .912.062 1.309.187.396.125.739.304 1.028.536s.513.519.672.858c.158.34.238.73.238 1.173 0 .657-.182 1.195-.544 1.615-.363.419-.839.742-1.428.969v.068c.329.079.635.195.918.348.283.153.533.347.748.578.215.232.383.502.501.808.119.307.179.646.179 1.021 0 .476-.094.906-.281 1.292-.187.385-.442.711-.765.978-.323.266-.7.47-1.131.611s-.895.211-1.393.211zM89.206 185.535v-.833c.816-.816 1.541-1.553 2.176-2.21s1.167-1.267 1.598-1.827c.431-.562.759-1.077.986-1.548.227-.47.34-.926.34-1.368 0-.623-.17-1.133-.51-1.53-.34-.396-.856-.595-1.547-.595-.454 0-.873.128-1.258.383s-.737.563-1.054.927l-.799-.8c.453-.498.935-.897 1.445-1.198.51-.3 1.122-.45 1.836-.45 1.008 0 1.802.292 2.38.875.578.584.867 1.357.867 2.321 0 .51-.111 1.022-.332 1.538-.221.516-.527 1.049-.918 1.598-.391.55-.856 1.122-1.394 1.717-.539.596-1.13 1.228-1.776 1.896.294-.022.601-.045.918-.067.317-.022.617-.034.901-.034h3.145v1.207h-7.004zM89.868 159.452v-1.156h2.482v-7.99h-1.972v-.9c.499-.091.932-.201 1.3-.332.368-.13.7-.286.995-.467h1.071v9.689h2.244v1.156h-6.12z"/><g fill="#020203"><path d="M780.48 759.357v-.833c.815-.816 1.541-1.553 2.176-2.21s1.166-1.267 1.598-1.827c.431-.562.76-1.077.986-1.548.227-.47.34-.926.34-1.368 0-.623-.17-1.133-.51-1.53-.34-.396-.856-.595-1.547-.595-.454 0-.873.128-1.259.383s-.737.563-1.054.927l-.799-.8c.453-.498.935-.897 1.445-1.198.51-.3 1.121-.45 1.836-.45 1.008 0 1.801.292 2.379.875.578.584.867 1.357.867 2.321 0 .51-.11 1.022-.331 1.538-.222.516-.526 1.049-.918 1.598-.392.55-.856 1.122-1.394 1.717-.539.596-1.131 1.228-1.777 1.896.295-.022.602-.045.918-.067.317-.022.617-.034.901-.034h3.146v1.207h-7.003zM793.416 759.357v-2.992h-4.879v-.918l4.642-6.936h1.563v6.731h1.479v1.122h-1.479v2.992h-1.326zm-3.399-4.114h3.399v-3.145c0-.295.009-.644.025-1.046.018-.402.037-.75.061-1.045h-.068c-.137.261-.277.516-.426.765-.146.249-.3.504-.459.765l-2.532 3.706z"/></g><g fill="#020203"><path d="M780.48 733.274v-.833c.815-.816 1.541-1.553 2.176-2.21s1.166-1.267 1.598-1.827c.431-.562.76-1.077.986-1.548.227-.47.34-.926.34-1.368 0-.623-.17-1.133-.51-1.53-.34-.396-.856-.595-1.547-.595-.454 0-.873.128-1.259.383s-.737.563-1.054.927l-.799-.8c.453-.498.935-.897 1.445-1.198.51-.3 1.121-.45 1.836-.45 1.008 0 1.801.292 2.379.875.578.584.867 1.357.867 2.321 0 .51-.11 1.022-.331 1.538-.222.516-.526 1.049-.918 1.598-.392.55-.856 1.122-1.394 1.717-.539.596-1.131 1.228-1.777 1.896.295-.022.602-.045.918-.067.317-.022.617-.034.901-.034h3.146v1.207h-7.003zM792.261 733.479c-.431 0-.825-.043-1.182-.128s-.683-.198-.978-.34-.559-.303-.791-.484c-.232-.181-.439-.374-.62-.578l.714-.918c.328.34.711.641 1.148.901.436.261.977.391 1.623.391.656 0 1.195-.179 1.615-.535.418-.357.629-.842.629-1.454 0-.316-.061-.608-.179-.875-.119-.267-.314-.496-.587-.688-.271-.192-.629-.34-1.07-.442-.442-.102-.986-.152-1.633-.152v-1.071c.578 0 1.062-.051 1.454-.153.391-.102.708-.243.952-.425.243-.181.416-.396.518-.646.103-.25.153-.516.153-.8 0-.532-.167-.952-.501-1.258-.335-.306-.791-.459-1.369-.459-.453 0-.869.103-1.249.306-.38.204-.733.471-1.062.8l-.748-.885c.419-.396.881-.722 1.386-.978.504-.255 1.079-.382 1.725-.382.477 0 .912.062 1.31.187.396.125.739.304 1.028.536s.513.519.672.858c.158.34.238.73.238 1.173 0 .657-.182 1.195-.545 1.615-.362.419-.838.742-1.428.969v.068c.328.079.635.195.918.348.283.153.533.347.748.578.215.232.383.502.502.808.119.307.178.646.178 1.021 0 .476-.094.906-.28 1.292-.187.385-.442.711-.765.978-.323.266-.7.47-1.131.611s-.894.211-1.393.211z"/></g><g fill="#020203"><path d="M780.48 707.191v-.833c.815-.816 1.541-1.553 2.176-2.21s1.166-1.267 1.598-1.827c.431-.562.76-1.077.986-1.548.227-.47.34-.926.34-1.368 0-.623-.17-1.133-.51-1.53-.34-.396-.856-.595-1.547-.595-.454 0-.873.128-1.259.383s-.737.563-1.054.927l-.799-.8c.453-.498.935-.897 1.445-1.198.51-.3 1.121-.45 1.836-.45 1.008 0 1.801.292 2.379.875.578.584.867 1.357.867 2.321 0 .51-.11 1.022-.331 1.538-.222.516-.526 1.049-.918 1.598-.392.55-.856 1.122-1.394 1.717-.539.596-1.131 1.228-1.777 1.896.295-.022.602-.045.918-.067.317-.022.617-.034.901-.034h3.146v1.207h-7.003zM788.929 707.191v-.833c.815-.816 1.541-1.553 2.176-2.21s1.167-1.267 1.599-1.827c.43-.562.759-1.077.985-1.548.227-.47.34-.926.34-1.368 0-.623-.17-1.133-.51-1.53-.34-.396-.856-.595-1.547-.595-.454 0-.873.128-1.259.383-.385.255-.736.563-1.053.927l-.8-.8c.453-.498.935-.897 1.445-1.198.51-.3 1.122-.45 1.836-.45 1.009 0 1.802.292 2.38.875.578.584.867 1.357.867 2.321 0 .51-.111 1.022-.332 1.538s-.526 1.049-.918 1.598c-.391.55-.855 1.122-1.394 1.717-.538.596-1.13 1.228-1.776 1.896.295-.022.601-.045.918-.067.316-.022.617-.034.9-.034h3.146v1.207h-7.003z"/></g><g fill="#020203"><path d="M780.48 681.108v-.833c.815-.816 1.541-1.553 2.176-2.21s1.166-1.267 1.598-1.827c.431-.562.76-1.077.986-1.548.227-.47.34-.926.34-1.368 0-.623-.17-1.133-.51-1.53-.34-.396-.856-.595-1.547-.595-.454 0-.873.128-1.259.383s-.737.563-1.054.927l-.799-.8c.453-.498.935-.897 1.445-1.198.51-.3 1.121-.45 1.836-.45 1.008 0 1.801.292 2.379.875.578.584.867 1.357.867 2.321 0 .51-.11 1.022-.331 1.538-.222.516-.526 1.049-.918 1.598-.392.55-.856 1.122-1.394 1.717-.539.596-1.131 1.228-1.777 1.896.295-.022.602-.045.918-.067.317-.022.617-.034.901-.034h3.146v1.207h-7.003zM789.592 681.108v-1.156h2.482v-7.99h-1.973v-.9c.498-.091.932-.201 1.301-.332.367-.13.699-.286.994-.467h1.071v9.689h2.243v1.156h-6.118z"/></g><g fill="#020203"><path d="M780.48 655.026v-.833c.815-.816 1.541-1.553 2.176-2.21s1.166-1.267 1.598-1.827c.431-.562.76-1.077.986-1.548.227-.47.34-.926.34-1.368 0-.623-.17-1.133-.51-1.53-.34-.396-.856-.595-1.547-.595-.454 0-.873.128-1.259.383s-.737.563-1.054.927l-.799-.8c.453-.498.935-.897 1.445-1.198.51-.3 1.121-.45 1.836-.45 1.008 0 1.801.292 2.379.875.578.584.867 1.357.867 2.321 0 .51-.11 1.022-.331 1.538-.222.516-.526 1.049-.918 1.598-.392.55-.856 1.122-1.394 1.717-.539.596-1.131 1.228-1.777 1.896.295-.022.602-.045.918-.067.317-.022.617-.034.901-.034h3.146v1.207h-7.003zM792.481 655.23c-1.099 0-1.955-.487-2.567-1.462-.611-.975-.918-2.374-.918-4.199 0-1.824.307-3.213.918-4.165.612-.952 1.469-1.428 2.567-1.428 1.088 0 1.938.476 2.55 1.428.612.952.918 2.341.918 4.165 0 1.825-.306 3.225-.918 4.199-.611.975-1.462 1.462-2.55 1.462zm0-1.122c.317 0 .604-.088.858-.264.256-.176.477-.447.663-.815s.331-.839.434-1.411.153-1.256.153-2.049-.051-1.473-.153-2.04c-.103-.566-.247-1.028-.434-1.386-.187-.356-.407-.62-.663-.79-.255-.17-.541-.255-.858-.255s-.606.085-.866.255c-.262.17-.485.434-.672.79-.188.357-.332.819-.434 1.386-.102.567-.153 1.247-.153 2.04 0 1.587.196 2.74.587 3.46s.904 1.079 1.538 1.079z"/></g><g fill="#020203"><path d="M781.143 628.943v-1.156h2.482v-7.99h-1.973v-.9c.499-.091.933-.201 1.301-.332.368-.13.699-.286.994-.467h1.072v9.689h2.243v1.156h-6.119zM791.733 629.147c-.577 0-1.085-.108-1.521-.323s-.802-.487-1.097-.815l.782-.885c.227.261.495.471.808.629.312.159.638.238.978.238.386 0 .748-.079 1.088-.238.34-.158.64-.422.901-.79.26-.368.47-.847.629-1.437.158-.589.243-1.32.255-2.193-.341.432-.737.771-1.19 1.021s-.906.374-1.359.374c-.941 0-1.689-.277-2.244-.833-.556-.556-.833-1.395-.833-2.517 0-.521.085-.994.255-1.419s.399-.791.688-1.097.629-.544 1.021-.714c.391-.17.801-.255 1.232-.255.532 0 1.027.107 1.486.323.459.215.856.541 1.191.978.334.436.594.979.781 1.632.188.651.281 1.414.281 2.286 0 1.088-.114 2.015-.341 2.779-.227.766-.532 1.389-.918 1.87-.386.482-.824.833-1.317 1.054-.493.222-1.012.332-1.556.332zm.511-5.473c.361 0 .744-.113 1.146-.341.402-.227.779-.595 1.131-1.104-.091-1.065-.34-1.87-.748-2.414s-.957-.816-1.648-.816c-.262 0-.508.058-.74.17-.232.114-.434.275-.604.485-.17.209-.303.462-.399.756-.097.295-.145.618-.145.969 0 .715.165 1.275.493 1.684s.833.611 1.514.611z"/></g><g fill="#020203"><path d="M781.143 602.86v-1.156h2.482v-7.99h-1.973v-.9c.499-.091.933-.201 1.301-.332.368-.13.699-.286.994-.467h1.072v9.689h2.243v1.156h-6.119zM792.498 603.064c-.51 0-.982-.074-1.419-.221-.437-.147-.811-.354-1.122-.621-.312-.266-.559-.58-.739-.943-.182-.362-.272-.759-.272-1.19 0-.351.06-.677.179-.977.119-.301.272-.572.459-.816.187-.243.402-.459.646-.646s.496-.348.757-.484v-.067c-.396-.283-.748-.626-1.054-1.028-.307-.402-.459-.893-.459-1.471 0-.42.079-.799.238-1.14.158-.34.373-.631.646-.875s.595-.434.97-.569c.373-.137.781-.204 1.223-.204.477 0 .902.07 1.275.212.375.143.694.341.961.596.266.255.471.561.611.918.143.356.213.745.213 1.164 0 .283-.049.556-.145.816s-.215.504-.357.73c-.141.228-.3.431-.476.612s-.349.334-.519.459v.068c.238.136.471.292.697.467.227.176.428.374.604.596.176.221.316.473.425.756.108.284.161.606.161.97 0 .407-.084.787-.254 1.139s-.408.657-.715.918c-.306.261-.674.465-1.104.612-.432.145-.908.219-1.43.219zm.035-1.037c.634 0 1.146-.176 1.537-.527.392-.351.588-.81.588-1.377 0-.351-.08-.651-.238-.9-.159-.249-.375-.468-.646-.655s-.586-.356-.943-.51c-.357-.152-.729-.309-1.113-.467-.432.294-.791.637-1.08 1.028-.289.391-.434.836-.434 1.334 0 .307.061.584.179.833.119.25.283.468.493.654.209.188.456.332.74.434.281.103.587.153.917.153zm.731-5.083c.362-.328.643-.674.842-1.037.197-.362.297-.742.297-1.139 0-.544-.164-1-.492-1.369-.33-.368-.794-.552-1.395-.552-.51 0-.93.158-1.258.476-.329.317-.493.742-.493 1.275 0 .328.067.609.204.841.136.232.32.439.553.621s.498.343.799.484c.299.143.614.275.943.4z"/></g><g fill="#020203"><path d="M781.143 576.777v-1.156h2.482v-7.99h-1.973v-.9c.499-.091.933-.201 1.301-.332.368-.13.699-.286.994-.467h1.072v9.689h2.243v1.156h-6.119zM791.258 576.777c.045-1.02.136-1.955.271-2.805.137-.851.326-1.658.57-2.423.243-.765.555-1.505.935-2.219s.835-1.444 1.368-2.192h-5.406v-1.207h6.987v.867c-.646.815-1.171 1.598-1.572 2.346-.402.748-.723 1.51-.96 2.286-.238.776-.412 1.599-.52 2.465-.107.867-.184 1.828-.229 2.882h-1.444z"/></g><g fill="#020203"><path d="M781.143 550.694v-1.156h2.482v-7.99h-1.973v-.9c.499-.091.933-.201 1.301-.332.368-.13.699-.286.994-.467h1.072v9.689h2.243v1.156h-6.119zM792.805 550.898c-.533 0-1.025-.108-1.479-.323-.454-.215-.848-.541-1.182-.978-.335-.436-.599-.979-.791-1.632-.193-.651-.289-1.414-.289-2.286 0-1.088.113-2.015.34-2.78.227-.765.533-1.388.918-1.869.385-.482.824-.833 1.318-1.055.492-.221 1.011-.331 1.555-.331.59 0 1.097.11 1.521.331.426.222.791.496 1.097.825l-.782.866c-.227-.26-.496-.467-.807-.62-.312-.153-.639-.229-.979-.229-.373 0-.73.079-1.07.238-.34.158-.641.419-.901.781-.261.363-.47.836-.629 1.42s-.243 1.307-.255 2.168c.34-.42.736-.751 1.189-.995.453-.243.901-.365 1.344-.365.94 0 1.691.277 2.252.833s.842 1.394.842 2.516c0 .521-.085.995-.255 1.42s-.402.79-.697 1.097c-.295.306-.635.544-1.021.714-.384.169-.798.254-1.239.254zm0-1.105c.271 0 .521-.057.748-.17s.425-.274.595-.484c.17-.209.304-.459.399-.748s.145-.614.145-.978c0-.714-.164-1.274-.492-1.683-.33-.408-.834-.612-1.514-.612-.352 0-.73.11-1.139.332-.408.221-.782.586-1.123 1.096.092 1.065.338 1.873.74 2.423s.949.824 1.641.824z"/></g><g fill="#020203"><path d="M781.143 524.611v-1.156h2.482v-7.99h-1.973v-.9c.499-.09.933-.201 1.301-.332.368-.129.699-.285.994-.467h1.072v9.689h2.243v1.156h-6.119zM792.227 524.816c-.431 0-.824-.043-1.182-.129-.357-.084-.68-.195-.969-.33-.289-.137-.55-.293-.782-.469s-.439-.359-.62-.553l.68-.918c.317.33.694.619 1.131.867.436.25.971.375 1.605.375.329 0 .639-.061.928-.18.289-.117.541-.285.756-.5s.385-.477.51-.783c.125-.305.188-.645.188-1.02 0-.748-.21-1.332-.629-1.75-.42-.42-.98-.631-1.684-.631-.373 0-.693.059-.96.172s-.563.277-.893.492l-.748-.477.356-5.219h5.424v1.207h-4.199l-.289 3.213c.261-.135.521-.244.781-.322.262-.08.556-.119.885-.119.465 0 .9.068 1.309.203.408.137.766.344 1.071.621s.547.629.723 1.055c.175.424.263.932.263 1.521 0 .588-.102 1.109-.305 1.562-.205.455-.477.836-.816 1.148s-.729.549-1.164.713c-.439.169-.894.251-1.37.251z"/></g><g fill="#020203"><path d="M781.143 498.529v-1.156h2.482v-7.99h-1.973v-.9c.499-.091.933-.201 1.301-.332.368-.13.699-.286.994-.467h1.072v9.689h2.243v1.156h-6.119zM793.416 498.529v-2.992h-4.879v-.918l4.642-6.936h1.563v6.731h1.479v1.122h-1.479v2.992h-1.326zm-3.399-4.114h3.399v-3.145c0-.295.009-.644.025-1.046.018-.402.037-.75.061-1.045h-.068c-.137.261-.277.516-.426.765-.146.249-.3.504-.459.765l-2.532 3.706z"/></g><g fill="#020203"><path d="M781.143 472.446v-1.156h2.482v-7.99h-1.973v-.9c.499-.091.933-.201 1.301-.332.368-.13.699-.286.994-.467h1.072v9.689h2.243v1.156h-6.119zM792.261 472.65c-.431 0-.825-.043-1.182-.128s-.683-.198-.978-.34-.559-.303-.791-.484c-.232-.181-.439-.374-.62-.578l.714-.918c.328.34.711.641 1.148.901.436.261.977.391 1.623.391.656 0 1.195-.179 1.615-.535.418-.357.629-.842.629-1.454 0-.316-.061-.608-.179-.875-.119-.267-.314-.496-.587-.688-.271-.192-.629-.34-1.07-.442-.442-.102-.986-.152-1.633-.152v-1.071c.578 0 1.062-.051 1.454-.153.391-.102.708-.243.952-.425.243-.181.416-.396.518-.646.103-.25.153-.516.153-.8 0-.532-.167-.952-.501-1.258-.335-.306-.791-.459-1.369-.459-.453 0-.869.103-1.249.306-.38.204-.733.471-1.062.8l-.748-.885c.419-.396.881-.722 1.386-.978.504-.255 1.079-.382 1.725-.382.477 0 .912.062 1.31.187.396.125.739.304 1.028.536s.513.519.672.858c.158.34.238.73.238 1.173 0 .657-.182 1.195-.545 1.615-.362.419-.838.742-1.428.969v.068c.328.079.635.195.918.348.283.153.533.347.748.578.215.232.383.502.502.808.119.307.178.646.178 1.021 0 .476-.094.906-.28 1.292-.187.385-.442.711-.765.978-.323.266-.7.47-1.131.611s-.894.211-1.393.211z"/></g><g fill="#020203"><path d="M781.143 446.363v-1.156h2.482v-7.99h-1.973v-.9c.499-.091.933-.201 1.301-.332.368-.13.699-.286.994-.467h1.072v9.689h2.243v1.156h-6.119zM788.929 446.363v-.833c.815-.816 1.541-1.553 2.176-2.21s1.167-1.267 1.599-1.827c.43-.562.759-1.077.985-1.548.227-.47.34-.926.34-1.368 0-.623-.17-1.133-.51-1.53-.34-.396-.856-.595-1.547-.595-.454 0-.873.128-1.259.383-.385.255-.736.563-1.053.927l-.8-.8c.453-.498.935-.897 1.445-1.198.51-.3 1.122-.45 1.836-.45 1.009 0 1.802.292 2.38.875.578.584.867 1.357.867 2.321 0 .51-.111 1.022-.332 1.538s-.526 1.049-.918 1.598c-.391.55-.855 1.122-1.394 1.717-.538.596-1.13 1.228-1.776 1.896.295-.022.601-.045.918-.067.316-.022.617-.034.9-.034h3.146v1.207h-7.003z"/></g><g fill="#020203"><path d="M781.143 420.28v-1.156h2.482v-7.99h-1.973v-.9c.499-.091.933-.201 1.301-.332.368-.13.699-.286.994-.467h1.072v9.689h2.243v1.156h-6.119zM789.592 420.28v-1.156h2.482v-7.99h-1.973v-.9c.498-.091.932-.201 1.301-.332.367-.13.699-.286.994-.467h1.071v9.689h2.243v1.156h-6.118z"/></g><g fill="#020203"><path d="M781.143 394.198v-1.156h2.482v-7.99h-1.973v-.9c.499-.091.933-.201 1.301-.332.368-.13.699-.286.994-.467h1.072v9.689h2.243v1.156h-6.119zM792.481 394.402c-1.099 0-1.955-.487-2.567-1.462-.611-.975-.918-2.374-.918-4.199 0-1.824.307-3.213.918-4.165.612-.952 1.469-1.428 2.567-1.428 1.088 0 1.938.476 2.55 1.428.612.952.918 2.341.918 4.165 0 1.825-.306 3.225-.918 4.199-.611.975-1.462 1.462-2.55 1.462zm0-1.122c.317 0 .604-.088.858-.264.256-.176.477-.447.663-.815s.331-.839.434-1.411.153-1.256.153-2.049-.051-1.473-.153-2.04c-.103-.566-.247-1.028-.434-1.386-.187-.356-.407-.62-.663-.79-.255-.17-.541-.255-.858-.255s-.606.085-.866.255c-.262.17-.485.434-.672.79-.188.357-.332.819-.434 1.386-.102.567-.153 1.247-.153 2.04 0 1.587.196 2.74.587 3.46s.904 1.079 1.538 1.079z"/></g><path fill="#020203" d="M787.509 368.319c-.577 0-1.085-.108-1.521-.323s-.802-.487-1.097-.815l.782-.885c.227.261.495.471.808.629.312.159.638.238.978.238.386 0 .748-.079 1.088-.238.34-.158.64-.422.901-.79.26-.368.47-.847.629-1.437.158-.589.243-1.32.255-2.193-.341.432-.737.771-1.19 1.021s-.906.374-1.359.374c-.941 0-1.689-.277-2.244-.833-.556-.556-.833-1.395-.833-2.517 0-.521.085-.994.255-1.419s.399-.791.688-1.097.629-.544 1.021-.714c.391-.17.801-.255 1.232-.255.532 0 1.027.107 1.486.323.459.215.856.541 1.191.978.334.436.594.979.781 1.632.188.651.281 1.414.281 2.286 0 1.088-.114 2.015-.341 2.779-.227.766-.532 1.389-.918 1.87-.386.482-.824.833-1.317 1.054-.494.221-1.012.332-1.556.332zm.511-5.474c.361 0 .744-.113 1.146-.341.402-.227.779-.595 1.131-1.104-.091-1.065-.34-1.87-.748-2.414s-.957-.816-1.648-.816c-.262 0-.508.058-.74.17-.232.114-.434.275-.604.485-.17.209-.303.462-.399.756-.097.295-.145.618-.145.969 0 .715.165 1.275.493 1.684s.833.611 1.514.611zM788.273 342.236c-.51 0-.982-.074-1.419-.221-.437-.147-.811-.354-1.122-.621-.312-.266-.559-.58-.739-.943-.182-.362-.272-.759-.272-1.19 0-.351.06-.677.179-.977.119-.301.272-.572.459-.816.187-.243.402-.459.646-.646s.496-.348.757-.484v-.067c-.396-.283-.748-.626-1.054-1.028-.307-.402-.459-.893-.459-1.471 0-.42.079-.799.238-1.14.158-.34.373-.631.646-.875s.595-.434.97-.569c.373-.137.781-.204 1.223-.204.477 0 .902.07 1.275.212.375.143.694.341.961.596.266.255.471.561.611.918.143.356.213.745.213 1.164 0 .283-.049.556-.145.816s-.215.504-.357.73c-.141.228-.3.431-.476.612s-.349.334-.519.459v.068c.238.136.471.292.697.467.227.176.428.374.604.596.176.221.316.473.425.756.108.284.161.606.161.97 0 .407-.084.787-.254 1.139s-.408.657-.715.918c-.306.261-.674.465-1.104.612-.432.145-.908.219-1.43.219zm.036-1.037c.634 0 1.146-.176 1.537-.527.392-.351.588-.81.588-1.377 0-.351-.08-.651-.238-.9-.159-.249-.375-.468-.646-.655s-.586-.356-.943-.51c-.357-.152-.729-.309-1.113-.467-.432.294-.791.637-1.08 1.028-.289.391-.434.836-.434 1.334 0 .307.061.584.179.833.119.25.283.468.493.654.209.188.456.332.74.434.281.102.587.153.917.153zm.73-5.083c.362-.328.643-.674.842-1.037.197-.362.297-.742.297-1.139 0-.544-.164-1-.492-1.369-.33-.368-.794-.552-1.395-.552-.51 0-.93.158-1.258.476-.329.317-.493.742-.493 1.275 0 .328.067.609.204.841.136.232.32.439.553.621s.498.343.799.484c.3.142.614.275.943.4zM787.033 315.949c.045-1.02.136-1.955.271-2.805.137-.851.326-1.658.57-2.423.243-.765.555-1.505.935-2.219s.835-1.444 1.368-2.192h-5.406v-1.207h6.987v.867c-.646.815-1.171 1.598-1.572 2.346-.402.748-.723 1.51-.96 2.286-.238.776-.412 1.599-.52 2.465-.107.867-.184 1.828-.229 2.882h-1.444zM788.58 290.07c-.533 0-1.025-.108-1.479-.323-.454-.215-.848-.541-1.182-.978-.335-.436-.599-.979-.791-1.632-.193-.651-.289-1.414-.289-2.286 0-1.088.113-2.015.34-2.78.227-.765.533-1.388.918-1.869.385-.482.824-.833 1.318-1.055.492-.221 1.011-.331 1.555-.331.59 0 1.097.11 1.521.331.426.222.791.496 1.097.825l-.782.866c-.227-.26-.496-.467-.807-.62-.312-.153-.639-.229-.979-.229-.373 0-.73.079-1.07.238-.34.158-.641.419-.901.781-.261.363-.47.836-.629 1.42s-.243 1.307-.255 2.168c.34-.42.736-.751 1.189-.995.453-.243.901-.365 1.344-.365.94 0 1.691.277 2.252.833s.842 1.394.842 2.516c0 .521-.085.995-.255 1.42s-.402.79-.697 1.097c-.295.306-.635.544-1.021.714-.383.169-.798.254-1.239.254zm0-1.105c.271 0 .521-.057.748-.17s.425-.274.595-.484c.17-.209.304-.459.399-.748s.145-.614.145-.978c0-.714-.164-1.274-.492-1.683-.33-.408-.834-.612-1.514-.612-.352 0-.73.11-1.139.332-.408.221-.782.586-1.123 1.096.092 1.065.338 1.873.74 2.423s.95.824 1.641.824zM788.002 263.987c-.431 0-.824-.043-1.182-.128s-.68-.195-.969-.331-.55-.292-.782-.468-.439-.359-.62-.553l.68-.918c.317.329.694.618 1.131.867.436.25.971.374 1.605.374.329 0 .639-.06.928-.179.289-.118.541-.286.756-.501s.385-.477.51-.782.188-.646.188-1.02c0-.748-.21-1.332-.629-1.751-.42-.42-.98-.63-1.684-.63-.373 0-.693.058-.96.171s-.563.277-.893.492l-.748-.476.356-5.219h5.424v1.207h-4.199l-.289 3.213c.261-.136.521-.244.781-.323.262-.079.556-.119.885-.119.465 0 .9.068 1.309.204s.766.343 1.071.62c.306.278.547.63.723 1.055.175.425.263.932.263 1.521 0 .589-.102 1.11-.305 1.563-.205.454-.477.836-.816 1.147-.34.312-.729.55-1.164.714-.438.168-.893.25-1.37.25zM789.191 237.701v-2.992h-4.879v-.918l4.642-6.936h1.563v6.731h1.479v1.122h-1.479v2.992h-1.326zm-3.399-4.115h3.399v-3.145c0-.295.009-.644.025-1.046.018-.402.037-.75.061-1.045h-.068c-.137.261-.277.516-.426.765-.146.249-.3.504-.459.765l-2.532 3.706zM788.036 211.822c-.431 0-.825-.043-1.182-.128s-.683-.198-.978-.34-.559-.303-.791-.484c-.232-.181-.439-.374-.62-.578l.714-.918c.328.34.711.641 1.148.901.436.261.977.391 1.623.391.656 0 1.195-.179 1.615-.535.418-.357.629-.842.629-1.454 0-.316-.061-.608-.179-.875-.119-.267-.314-.496-.587-.688-.271-.192-.629-.34-1.07-.442-.442-.102-.986-.152-1.633-.152v-1.071c.578 0 1.062-.051 1.454-.153.391-.102.708-.243.952-.425.243-.181.416-.396.518-.646.103-.25.153-.516.153-.8 0-.532-.167-.952-.501-1.258-.335-.306-.791-.459-1.369-.459-.453 0-.869.103-1.249.306-.38.204-.733.471-1.062.8l-.748-.885c.419-.396.881-.722 1.386-.978.504-.255 1.079-.382 1.725-.382.477 0 .912.062 1.31.187.396.125.739.304 1.028.536s.513.519.672.858c.158.34.238.73.238 1.173 0 .657-.182 1.195-.545 1.615-.362.419-.838.742-1.428.969v.068c.328.079.635.195.918.348.283.153.533.347.748.578.215.232.383.502.502.808.119.307.178.646.178 1.021 0 .476-.094.906-.28 1.292-.187.385-.442.711-.765.978-.323.266-.7.47-1.131.611s-.894.211-1.393.211zM784.704 185.535v-.833c.815-.816 1.541-1.553 2.176-2.21s1.167-1.267 1.599-1.827c.43-.562.759-1.077.985-1.548.227-.47.34-.926.34-1.368 0-.623-.17-1.133-.51-1.53-.34-.396-.856-.595-1.547-.595-.454 0-.873.128-1.259.383-.385.255-.736.563-1.053.927l-.8-.8c.453-.498.935-.897 1.445-1.198.51-.3 1.122-.45 1.836-.45 1.009 0 1.802.292 2.38.875.578.584.867 1.357.867 2.321 0 .51-.111 1.022-.332 1.538s-.526 1.049-.918 1.598c-.391.55-.855 1.122-1.394 1.717-.538.596-1.13 1.228-1.776 1.896.295-.022.601-.045.918-.067.316-.022.617-.034.9-.034h3.146v1.207h-7.003zM785.367 159.452v-1.156h2.482v-7.99h-1.973v-.9c.498-.091.932-.201 1.301-.332.367-.13.699-.286.994-.467h1.071v9.689h2.243v1.156h-6.118z"/><g><path fill="#020203" d="M154.201 132.554v-11.152h3.179c.623 0 1.193.058 1.708.17.516.114.955.298 1.317.553s.646.593.85 1.012.306.935.306 1.547c0 .59-.1 1.1-.298 1.53s-.479.788-.841 1.071-.796.495-1.3.637c-.504.143-1.062.213-1.675.213h-1.836v4.42h-1.41zm1.411-5.576h1.666c.975 0 1.697-.184 2.167-.553.47-.368.706-.948.706-1.742 0-.805-.247-1.362-.739-1.675-.493-.312-1.227-.467-2.202-.467h-1.598v4.437z"/></g><g><path fill="#020203" d="M164.86 132.758c-.691 0-1.266-.204-1.726-.612-.459-.408-.688-.985-.688-1.733 0-.907.402-1.601 1.207-2.083.805-.481 2.091-.818 3.859-1.012 0-.26-.026-.516-.077-.765-.051-.249-.139-.47-.264-.663-.125-.192-.297-.349-.519-.468-.221-.119-.501-.178-.841-.178-.476 0-.924.091-1.343.271-.419.182-.793.386-1.122.612l-.544-.969c.385-.25.855-.49 1.411-.723s1.167-.349 1.836-.349c1.009 0 1.74.309 2.193.927.453.617.68 1.442.68 2.473v5.066h-1.156l-.119-.986h-.051c-.397.329-.822.609-1.275.842-.452.234-.939.35-1.461.35zm.409-1.122c.396 0 .771-.094 1.122-.28.351-.188.725-.462 1.122-.825v-2.295c-.691.091-1.272.199-1.743.323-.47.125-.85.272-1.139.442s-.499.365-.629.586c-.13.222-.195.462-.195.723 0 .477.142.816.425 1.021s.628.305 1.037.305z"/></g><g><path fill="#020203" d="M171.524 132.554v-8.262h1.156l.119 1.496h.051c.283-.521.626-.936 1.028-1.241.402-.307.842-.459 1.317-.459.329 0 .623.057.885.17l-.272 1.224c-.136-.045-.261-.079-.374-.102s-.255-.034-.425-.034c-.352 0-.717.142-1.097.425s-.711.776-.994 1.479v5.304h-1.394z"/></g><g><path fill="#020203" d="M177.423 132.554V120.45h1.377v8.193h.051l3.519-4.352h1.547l-2.771 3.314 3.145 4.947h-1.53l-2.414-3.978-1.547 1.802v2.176h-1.377z"/></g><g><path fill="#020203" d="M188.882 132.758c-.556 0-1.074-.1-1.556-.298s-.9-.481-1.258-.85-.638-.818-.842-1.352c-.204-.532-.306-1.139-.306-1.819 0-.68.104-1.289.314-1.827s.487-.994.833-1.368.739-.66 1.182-.859c.442-.197.901-.297 1.377-.297.521 0 .988.091 1.402.271.414.182.759.442 1.037.782.277.34.49.748.638 1.224.146.477.221 1.01.221 1.599 0 .147-.003.292-.009.434s-.02.264-.042.365h-5.576c.057.884.332 1.584.824 2.1.493.516 1.137.773 1.93.773.396 0 .763-.06 1.097-.179s.654-.274.961-.468l.492.918c-.362.228-.765.426-1.207.596-.441.17-.946.255-1.512.255zm-2.601-4.998h4.42c0-.839-.179-1.477-.536-1.912-.356-.437-.858-.655-1.504-.655-.295 0-.575.058-.842.17-.267.114-.507.281-.723.502-.215.221-.394.49-.535.808s-.235.679-.28 1.087z"/></g><g><path fill="#020203" d="M196.396 132.758c-.442 0-.813-.068-1.114-.204s-.544-.323-.731-.561c-.187-.238-.32-.527-.399-.867-.08-.34-.119-.714-.119-1.122v-4.573h-1.224v-1.054l1.292-.085.17-2.312h1.173v2.312h2.227v1.139h-2.227v4.59c0 .51.094.904.281 1.182.187.278.518.417.994.417.147 0 .306-.023.476-.068s.323-.097.459-.153l.272 1.055c-.227.079-.473.149-.739.212-.268.061-.531.092-.791.092z"/></g><g><path fill="#020203" d="M201.802 132.758c-.442 0-.813-.068-1.114-.204s-.544-.323-.731-.561c-.187-.238-.32-.527-.399-.867-.08-.34-.119-.714-.119-1.122v-4.573h-1.224v-1.054l1.292-.085.17-2.312h1.173v2.312h2.227v1.139h-2.227v4.59c0 .51.094.904.281 1.182.187.278.518.417.994.417.147 0 .306-.023.476-.068s.323-.097.459-.153l.272 1.055c-.227.079-.473.149-.739.212-.267.061-.531.092-.791.092z"/></g><g><path fill="#020203" d="M208.482 132.554v-11.152h1.411v9.945h4.879v1.207h-6.29z"/></g><g><path fill="#020203" d="M217.322 122.592c-.272 0-.501-.085-.688-.255s-.28-.386-.28-.646c0-.271.093-.49.28-.654s.417-.246.688-.246.501.082.688.246.281.383.281.654c0 .261-.094.477-.281.646s-.416.255-.688.255zm-.714 9.962v-8.262h1.394v8.262h-1.394z"/></g><g><path fill="#020203" d="M220.79 132.554v-8.262h1.156l.119 1.189h.051c.396-.396.813-.728 1.25-.994.436-.267.943-.399 1.521-.399.873 0 1.51.271 1.912.815s.604 1.35.604 2.414v5.236h-1.394v-5.049c0-.782-.125-1.346-.374-1.691-.249-.346-.646-.519-1.19-.519-.431 0-.81.107-1.139.323-.329.215-.703.532-1.122.951v5.984h-1.394z"/></g><g><path fill="#020203" d="M230.089 132.554V120.45h1.377v8.193h.051l3.519-4.352h1.547l-2.771 3.314 3.145 4.947h-1.53l-2.414-3.978-1.547 1.802v2.176h-1.377z"/></g><g><path fill="#020203" d="M240.663 132.758c-.59 0-1.151-.108-1.683-.323-.533-.215-.998-.487-1.394-.815l.697-.936c.363.295.734.533 1.114.714.379.182.818.272 1.317.272.544 0 .952-.125 1.224-.374s.408-.556.408-.918c0-.216-.057-.402-.17-.562-.113-.158-.258-.297-.434-.416s-.377-.224-.604-.314-.453-.182-.68-.272c-.295-.102-.589-.218-.884-.349-.295-.13-.558-.289-.791-.476-.232-.188-.422-.405-.569-.654-.147-.249-.221-.55-.221-.901 0-.328.065-.638.196-.927.13-.289.317-.538.561-.748.244-.209.541-.374.893-.492.351-.119.748-.179 1.19-.179.521 0 1 .091 1.437.271.436.182.813.402 1.13.663l-.663.884c-.283-.215-.578-.391-.884-.526-.306-.136-.641-.204-1.003-.204-.521 0-.904.119-1.148.356-.244.238-.365.517-.365.833 0 .193.051.36.153.502s.238.267.408.374.365.204.586.289.451.173.688.264c.294.113.592.232.893.356.3.125.569.281.808.468.238.188.433.417.586.688.153.272.229.601.229.986 0 .34-.065.657-.196.952s-.323.555-.578.781c-.255.228-.573.405-.952.536s-.812.197-1.299.197z"/></g><g><path fill="#020203" d="M625.965 132.554v-11.152h3.18c.623 0 1.192.058 1.708.17.516.114.955.298 1.317.553.363.255.646.593.851 1.012s.306.935.306 1.547c0 .59-.1 1.1-.298 1.53s-.479.788-.841 1.071c-.363.283-.797.495-1.301.637-.504.143-1.062.213-1.675.213h-1.836v4.42h-1.411zm1.411-5.576h1.666c.975 0 1.697-.184 2.168-.553.47-.368.705-.948.705-1.742 0-.805-.246-1.362-.739-1.675-.493-.312-1.227-.467-2.201-.467h-1.599v4.437z"/></g><g><path fill="#020203" d="M636.625 132.758c-.691 0-1.267-.204-1.726-.612s-.688-.985-.688-1.733c0-.907.402-1.601 1.207-2.083.805-.481 2.091-.818 3.859-1.012 0-.26-.026-.516-.077-.765s-.139-.47-.264-.663c-.124-.192-.297-.349-.519-.468-.221-.119-.501-.178-.841-.178-.477 0-.924.091-1.343.271-.42.182-.794.386-1.122.612l-.544-.969c.385-.25.855-.49 1.41-.723.556-.232 1.168-.349 1.836-.349 1.009 0 1.74.309 2.193.927.453.617.68 1.442.68 2.473v5.066h-1.155l-.119-.986h-.051c-.397.329-.822.609-1.275.842s-.94.35-1.461.35zm.408-1.122c.396 0 .771-.094 1.122-.28.351-.188.725-.462 1.122-.825v-2.295c-.691.091-1.272.199-1.743.323-.47.125-.85.272-1.139.442s-.499.365-.629.586c-.131.222-.195.462-.195.723 0 .477.142.816.425 1.021s.629.305 1.037.305z"/></g><g><path fill="#020203" d="M643.288 132.554v-8.262h1.156l.119 1.496h.051c.283-.521.626-.936 1.028-1.241.402-.307.842-.459 1.317-.459.329 0 .623.057.885.17l-.272 1.224c-.136-.045-.261-.079-.374-.102s-.255-.034-.425-.034c-.352 0-.717.142-1.097.425s-.711.776-.994 1.479v5.304h-1.394z"/></g><g><path fill="#020203" d="M649.188 132.554V120.45h1.377v8.193h.051l3.52-4.352h1.547l-2.771 3.314 3.145 4.947h-1.53l-2.414-3.978-1.547 1.802v2.176h-1.378z"/></g><g><path fill="#020203" d="M660.646 132.758c-.556 0-1.074-.1-1.556-.298s-.9-.481-1.258-.85-.638-.818-.842-1.352c-.204-.532-.306-1.139-.306-1.819 0-.68.104-1.289.314-1.827s.487-.994.833-1.368.739-.66 1.182-.859c.442-.197.901-.297 1.377-.297.521 0 .988.091 1.402.271.414.182.759.442 1.037.782.277.34.49.748.638 1.224.146.477.221 1.01.221 1.599 0 .147-.003.292-.009.434s-.02.264-.042.365h-5.576c.057.884.332 1.584.824 2.1.493.516 1.137.773 1.93.773.396 0 .763-.06 1.097-.179s.654-.274.961-.468l.492.918c-.362.228-.765.426-1.207.596-.441.17-.946.255-1.512.255zm-2.601-4.998h4.42c0-.839-.179-1.477-.536-1.912-.356-.437-.858-.655-1.504-.655-.295 0-.575.058-.842.17-.267.114-.507.281-.723.502-.215.221-.394.49-.535.808s-.235.679-.28 1.087z"/></g><g><path fill="#020203" d="M668.16 132.758c-.442 0-.813-.068-1.114-.204-.3-.136-.544-.323-.73-.561-.188-.238-.32-.527-.399-.867-.08-.34-.119-.714-.119-1.122v-4.573h-1.224v-1.054l1.292-.085.17-2.312h1.173v2.312h2.227v1.139h-2.227v4.59c0 .51.094.904.28 1.182.188.278.519.417.994.417.147 0 .307-.023.477-.068s.323-.097.459-.153l.271 1.055c-.227.079-.473.149-.739.212s-.531.092-.791.092z"/></g><g><path fill="#020203" d="M673.566 132.758c-.442 0-.814-.068-1.114-.204s-.544-.323-.731-.561c-.187-.238-.32-.527-.398-.867-.08-.34-.119-.714-.119-1.122v-4.573h-1.225v-1.054l1.293-.085.17-2.312h1.172v2.312h2.228v1.139h-2.228v4.59c0 .51.094.904.281 1.182.188.278.518.417.994.417.147 0 .307-.023.477-.068s.322-.097.459-.153l.271 1.055c-.227.079-.473.149-.739.212s-.531.092-.791.092z"/></g><g><path fill="#020203" d="M680.246 132.554v-11.152h3.486c.566 0 1.09.055 1.572.162.48.107.895.286 1.24.535s.615.572.809.969c.191.397.288.885.288 1.462 0 .873-.227 1.57-.68 2.092-.454.521-1.065.878-1.836 1.07l2.839 4.862h-1.598l-2.687-4.709h-2.022v4.709h-1.411zm1.412-5.866h1.869c.873 0 1.541-.179 2.006-.535.465-.357.697-.898.697-1.624 0-.736-.232-1.252-.697-1.547-.465-.294-1.133-.441-2.006-.441h-1.869v4.147z"/></g><g><path fill="#020203" d="M692.963 132.758c-.556 0-1.074-.1-1.556-.298s-.901-.481-1.258-.85c-.357-.368-.638-.818-.842-1.352-.204-.532-.306-1.139-.306-1.819 0-.68.104-1.289.314-1.827.209-.538.486-.994.833-1.368.345-.374.739-.66 1.181-.859.443-.197.902-.297 1.377-.297.521 0 .989.091 1.403.271.413.182.759.442 1.037.782.277.34.489.748.638 1.224.146.477.221 1.01.221 1.599 0 .147-.003.292-.009.434s-.02.264-.042.365h-5.576c.057.884.332 1.584.824 2.1.493.516 1.137.773 1.93.773.396 0 .762-.06 1.096-.179.335-.119.655-.274.961-.468l.493.918c-.362.228-.765.426-1.207.596s-.946.255-1.512.255zm-2.602-4.998h4.42c0-.839-.178-1.477-.535-1.912-.357-.437-.858-.655-1.504-.655-.295 0-.576.058-.842.17-.267.114-.508.281-.723.502s-.395.49-.535.808c-.142.316-.236.679-.281 1.087z"/></g><g><path fill="#020203" d="M701.31 132.758c-.544 0-1.054-.097-1.53-.289-.476-.192-.887-.473-1.232-.842-.346-.368-.617-.821-.815-1.359-.199-.538-.298-1.147-.298-1.828 0-.69.107-1.306.323-1.845.215-.538.504-.994.867-1.368.362-.374.784-.657 1.266-.85.482-.192.989-.289 1.521-.289.545 0 1.009.097 1.395.289.385.192.726.419 1.02.68l-.714.918c-.237-.215-.49-.391-.756-.527-.267-.136-.564-.203-.893-.203-.374 0-.72.076-1.037.229-.317.152-.59.371-.816.654s-.405.62-.535 1.012c-.131.391-.195.824-.195 1.3 0 .477.062.907.187 1.292.125.386.298.717.519.995.221.277.49.492.808.646s.663.229 1.037.229c.385 0 .739-.082 1.062-.246s.614-.36.875-.587l.612.936c-.374.328-.788.586-1.241.773-.456.186-.931.28-1.43.28z"/></g><g><path fill="#020203" d="M705.797 132.554V120.45h1.395v3.298l-.051 1.699c.396-.374.811-.693 1.24-.96.432-.267.936-.399 1.514-.399.873 0 1.51.271 1.912.815s.604 1.35.604 2.414v5.236h-1.395v-5.049c0-.782-.124-1.346-.373-1.691-.25-.346-.646-.519-1.19-.519-.431 0-.81.107-1.139.323-.329.215-.703.532-1.122.951v5.984h-1.395z"/></g><g><path fill="#020203" d="M717.646 132.758c-.441 0-.813-.068-1.113-.204-.301-.136-.544-.323-.731-.561-.187-.238-.32-.527-.399-.867s-.119-.714-.119-1.122v-4.573h-1.224v-1.054l1.292-.085.17-2.312h1.173v2.312h2.228v1.139h-2.228v4.59c0 .51.094.904.281 1.182.187.278.518.417.994.417.147 0 .306-.023.476-.068s.323-.097.459-.153l.272 1.055c-.227.079-.474.149-.739.212-.267.061-.531.092-.792.092z"/></g><g><path fill="#020203" d="M722.78 132.758c-.59 0-1.15-.108-1.683-.323-.533-.215-.998-.487-1.395-.815l.697-.936c.362.295.733.533 1.113.714.38.182.818.272 1.317.272.544 0 .952-.125 1.225-.374.271-.249.407-.556.407-.918 0-.216-.057-.402-.17-.562-.113-.158-.258-.297-.434-.416s-.377-.224-.604-.314-.453-.182-.68-.272c-.295-.102-.589-.218-.884-.349-.295-.13-.559-.289-.791-.476-.232-.188-.422-.405-.569-.654s-.221-.55-.221-.901c0-.328.065-.638.195-.927s.317-.538.562-.748c.243-.209.541-.374.893-.492.351-.119.747-.179 1.189-.179.521 0 1 .091 1.437.271.437.182.813.402 1.131.663l-.663.884c-.283-.215-.578-.391-.884-.526-.307-.136-.641-.204-1.003-.204-.521 0-.904.119-1.148.356-.243.238-.365.517-.365.833 0 .193.051.36.153.502.102.142.238.267.408.374s.365.204.586.289c.222.085.451.173.688.264.295.113.593.232.893.356.301.125.569.281.808.468.238.188.434.417.587.688.152.272.229.601.229.986 0 .34-.065.657-.196.952-.13.295-.322.555-.577.781-.256.228-.573.405-.952.536-.378.131-.811.197-1.299.197z"/></g><g fill="#020203"><path d="M350.321 56.833c-1.323 0-2.539-.245-3.648-.735-1.109-.491-2.075-1.2-2.896-2.129-.821-.928-1.461-2.068-1.92-3.424-.459-1.354-.688-2.885-.688-4.592 0-1.685.234-3.2.704-4.544.469-1.344 1.12-2.485 1.952-3.424s1.813-1.658 2.944-2.16c1.13-.501 2.368-.752 3.712-.752 1.28 0 2.405.262 3.376.784.97.522 1.765 1.125 2.384 1.808l-1.44 1.729c-.555-.598-1.184-1.077-1.888-1.44-.704-.362-1.504-.544-2.4-.544-1.003 0-1.909.197-2.72.592-.811.396-1.504.96-2.08 1.696s-1.019 1.627-1.328 2.672c-.31 1.046-.464 2.219-.464 3.521 0 1.322.154 2.512.464 3.567.309 1.057.741 1.958 1.296 2.704.555.747 1.232 1.323 2.032 1.729s1.701.607 2.704.607c1.024 0 1.92-.208 2.688-.624s1.493-.997 2.176-1.744l1.472 1.664c-.832.96-1.771 1.707-2.816 2.24-1.045.533-2.25.799-3.616.799zM360.401 56.45V40.898h2.624v13.408h6.976V40.898h2.624v13.408h2.272v1.663l-.256 5.984h-2.272V56.45h-11.968zM384.433 56.833c-1.046 0-2.021-.187-2.928-.56-.907-.373-1.696-.906-2.368-1.601-.672-.692-1.2-1.541-1.584-2.544-.384-1.002-.576-2.144-.576-3.424s.197-2.427.592-3.439c.395-1.014.917-1.872 1.568-2.576s1.392-1.243 2.224-1.616 1.696-.56 2.592-.56c.981 0 1.861.171 2.64.512.779.342 1.429.832 1.952 1.472.522.641.922 1.408 1.2 2.304.277.896.416 1.899.416 3.009 0 .277-.005.549-.016.815-.011.268-.038.496-.08.688h-10.496c.106 1.664.624 2.981 1.552 3.952.928.971 2.138 1.456 3.632 1.456.747 0 1.435-.112 2.064-.337.629-.224 1.232-.517 1.808-.88l.928 1.729c-.683.427-1.44.8-2.272 1.12-.832.32-1.781.48-2.848.48zm-4.896-9.408h8.32c0-1.578-.336-2.778-1.008-3.6-.672-.821-1.616-1.232-2.832-1.232-.555 0-1.083.107-1.584.32-.502.214-.955.528-1.36.944s-.741.923-1.008 1.52c-.267.598-.443 1.281-.528 2.048zM394 56.45V40.898h2.624v6.304h7.488v-6.304h2.624V56.45h-2.624v-6.912h-7.488v6.912H394zM415.568 56.833c-1.301 0-2.384-.384-3.248-1.151-.864-.769-1.296-1.856-1.296-3.265 0-1.706.757-3.013 2.272-3.92 1.515-.906 3.936-1.541 7.264-1.904 0-.49-.048-.97-.144-1.439-.096-.469-.262-.885-.496-1.248-.235-.362-.56-.656-.976-.88-.416-.225-.944-.336-1.584-.336-.896 0-1.739.171-2.528.512-.79.342-1.494.726-2.112 1.152l-1.024-1.824c.725-.469 1.61-.923 2.656-1.36 1.045-.437 2.197-.655 3.456-.655 1.898 0 3.274.581 4.128 1.743.853 1.163 1.28 2.716 1.28 4.656v9.536h-2.176l-.224-1.856h-.096c-.747.619-1.547 1.147-2.4 1.584-.853.437-1.771.655-2.752.655zm.768-2.111c.747 0 1.45-.177 2.112-.528.661-.353 1.365-.869 2.112-1.552v-4.32c-1.302.171-2.395.373-3.28.608-.885.234-1.6.512-2.144.831-.544.32-.939.688-1.184 1.104s-.368.869-.368 1.36c0 .896.267 1.535.8 1.92s1.184.577 1.952.577zM432.208 61.57l8.544-27.84h1.92l-8.543 27.84h-1.921zM452.367 56.45V35.458h6.24c1.066 0 2.043.096 2.928.288.886.192 1.643.491 2.272.896s1.12.934 1.472 1.584c.353.65.528 1.435.528 2.352 0 1.046-.261 1.989-.784 2.832-.522.843-1.285 1.424-2.287 1.744v.128c1.279.235 2.314.768 3.104 1.6s1.184 1.974 1.184 3.425c0 1.023-.191 1.92-.576 2.688-.383.768-.928 1.408-1.631 1.92-.705.512-1.548.896-2.529 1.152-.98.256-2.059.384-3.231.384h-6.69zm2.656-12.065h3.104c1.792 0 3.083-.309 3.872-.928.789-.618 1.184-1.461 1.184-2.527 0-1.217-.41-2.08-1.232-2.593-.82-.512-2.053-.768-3.695-.768h-3.232v6.816zm0 9.952h3.648c1.812 0 3.221-.336 4.225-1.008 1.002-.672 1.504-1.712 1.504-3.12 0-1.301-.492-2.256-1.473-2.863-.981-.608-2.4-.912-4.256-.912h-3.648v7.903zM475.472 56.833c-1.664 0-2.875-.512-3.632-1.536-.758-1.023-1.137-2.538-1.137-4.544v-9.855h2.656v9.504c0 1.472.229 2.533.688 3.184.458.651 1.2.977 2.224.977.811 0 1.525-.208 2.145-.624.618-.416 1.301-1.083 2.048-2v-11.04h2.624V56.45h-2.176l-.225-2.432h-.096c-.726.854-1.488 1.535-2.288 2.048-.799.512-1.743.767-2.831.767zm-1.536-19.167c-.469 0-.854-.154-1.152-.464-.299-.309-.447-.688-.447-1.136s.148-.827.447-1.136c.299-.31.684-.465 1.152-.465.448 0 .821.155 1.12.465.298.309.448.688.448 1.136s-.15.827-.448 1.136c-.299.309-.672.464-1.12.464zm6.144 0c-.448 0-.822-.154-1.121-.464-.299-.309-.447-.688-.447-1.136s.148-.827.447-1.136c.299-.31.673-.465 1.121-.465.469 0 .853.155 1.152.465.298.309.447.688.447 1.136s-.149.827-.447 1.136c-.299.309-.683.464-1.152.464zM488.336 56.45V33.666h2.623v6.208l-.096 3.2c.746-.704 1.525-1.307 2.336-1.808s1.76-.752 2.848-.752c1.643 0 2.844.512 3.601 1.535.757 1.024 1.136 2.539 1.136 4.544v9.856h-2.623v-9.504c0-1.472-.236-2.533-.705-3.185-.469-.65-1.216-.976-2.24-.976-.811 0-1.525.203-2.144.608s-1.323 1.003-2.112 1.792V56.45h-2.624zM505.743 56.45V40.898h2.176l.224 2.24h.097c.747-.747 1.53-1.371 2.353-1.872.82-.501 1.775-.752 2.863-.752 1.643 0 2.843.512 3.6 1.535.758 1.024 1.137 2.539 1.137 4.544v9.856h-2.624v-9.504c0-1.472-.235-2.533-.704-3.185-.47-.65-1.217-.976-2.24-.976-.811 0-1.525.203-2.145.608-.618.405-1.322 1.003-2.111 1.792V56.45h-2.626zM529.551 56.833c-1.045 0-2.021-.187-2.928-.56-.907-.373-1.695-.906-2.368-1.601-.672-.692-1.2-1.541-1.584-2.544-.384-1.002-.575-2.144-.575-3.424s.196-2.427.592-3.439c.395-1.014.916-1.872 1.567-2.576s1.392-1.243 2.224-1.616 1.696-.56 2.593-.56c.981 0 1.86.171 2.64.512.779.342 1.43.832 1.952 1.472.522.641.923 1.408 1.2 2.304.277.896.416 1.899.416 3.009 0 .277-.006.549-.016.815-.012.268-.038.496-.08.688h-10.496c.105 1.664.623 2.981 1.552 3.952.928.971 2.138 1.456 3.632 1.456.746 0 1.435-.112 2.064-.337.629-.224 1.231-.517 1.808-.88l.928 1.729c-.683.427-1.44.8-2.272 1.12-.834.32-1.783.48-2.849.48zm-4.896-9.408h8.319c0-1.578-.336-2.778-1.008-3.6s-1.615-1.232-2.832-1.232c-.555 0-1.082.107-1.584.32-.502.214-.955.528-1.359.944-.406.416-.742.923-1.008 1.52-.267.598-.443 1.281-.528 2.048z"/></g></g></svg>