<?xml version="1.0" encoding="utf-8"?>
<!-- Generator: Adobe Illustrator 22.0.1, SVG Export Plug-In . SVG Version: 6.00 Build 0)  -->
<svg version="1.1" id="Layer_1" xmlns="http://www.w3.org/2000/svg" xmlns:xlink="http://www.w3.org/1999/xlink" x="0px" y="0px"
	 width="28px" height="569px" viewBox="0 0 28 569" style="enable-background:new 0 0 28 569;" xml:space="preserve">
<style type="text/css">
	.st0{fill:#F7F7F7;}
	.st1{fill:#E9E9E9;}
	.st2{fill:#FFFFFF;}
	.st3{fill:#EF0000;}
	.st4{font-family:'SourceSansPro-Semibold';}
	.st5{font-size:12.1938px;}
	.st6{fill:#21AAD2;}
	.st7{fill:#652E0C;}
	.st8{fill:#8E1222;}
	.st9{fill:#12B6C5;}
	.st10{fill:#267AED;}
	.st11{fill:#46C512;}
	.st12{fill:#291065;}
	.st13{fill:#EA7208;}
	.st14{fill:#E815AF;}
	.st15{fill:#F2B603;}
	.st16{fill:#67E532;}
	.st17{fill:#A21447;}
	.st18{fill:#FA8072;}
	.st19{fill:#8B864E;}
</style>
<g id="Left">
	<g>
		<circle class="st0" cx="8" cy="8" r="7.4"/>
		<path class="st1" d="M8,1.2c3.7,0,6.8,3,6.8,6.8s-3,6.8-6.8,6.8s-6.8-3-6.8-6.8S4.3,1.2,8,1.2 M8,0C3.6,0,0,3.6,0,8s3.6,8,8,8
			s8-3.6,8-8S12.4,0,8,0L8,0z"/>
	</g>
	<path class="st2" d="M4.6,36.5l2.1,2.1l4.7-4.7l1.7,1.6l-4.7,4.7L6.8,42L3,38.2L4.6,36.5z"/>
	<g>
		<circle class="st2" cx="8" cy="68" r="7.4"/>
		<path class="st3" d="M8,61.2c3.7,0,6.8,3,6.8,6.8s-3,6.8-6.8,6.8s-6.8-3-6.8-6.8S4.3,61.2,8,61.2 M8,60c-4.4,0-8,3.6-8,8
			s3.6,8,8,8s8-3.6,8-8S12.4,60,8,60L8,60z"/>
	</g>
	<rect x="3" y="67" class="st3" width="10" height="2"/>
	<g>
		<path class="st3" d="M8,91.2c3.7,0,6.8,3,6.8,6.8s-3,6.8-6.8,6.8s-6.8-3-6.8-6.8S4.3,91.2,8,91.2 M8,90c-4.4,0-8,3.6-8,8
			s3.6,8,8,8s8-3.6,8-8S12.4,90,8,90L8,90z"/>
	</g>
	<text transform="matrix(1.0613 0 0 1 4.0005 102.1206)" class="st3 st4 st5">R</text>
	<g>
		<circle class="st6" cx="8" cy="128" r="8"/>
	</g>
	<g>
		<circle class="st7" cx="8" cy="158" r="8"/>
	</g>
	<g>
		<circle class="st8" cx="8" cy="188" r="8"/>
	</g>
	<g>
		<circle class="st9" cx="8" cy="218" r="8"/>
	</g>
	<g>
		<circle class="st10" cx="8" cy="248" r="8"/>
	</g>
	<g>
		<circle class="st11" cx="8" cy="278" r="8"/>
	</g>
	<g>
		<circle class="st12" cx="8" cy="308" r="8"/>
	</g>
	<g>
		<circle class="st13" cx="8" cy="338" r="8"/>
	</g>
	<g>
		<circle class="st14" cx="8" cy="368" r="8"/>
	</g>
	<g>
		<circle class="st15" cx="8" cy="398" r="8"/>
	</g>
	<g>
		<circle class="st16" cx="8" cy="428" r="8"/>
	</g>
	<g>
		<circle class="st17" cx="8" cy="458" r="8"/>
	</g>
	<g>
		<circle class="st3" cx="8" cy="488" r="7.4"/>
		<path class="st3" d="M8,481.2c3.7,0,6.8,3,6.8,6.8s-3,6.8-6.8,6.8s-6.8-3-6.8-6.8S4.3,481.2,8,481.2 M8,480c-4.4,0-8,3.6-8,8
			s3.6,8,8,8s8-3.6,8-8S12.4,480,8,480L8,480z"/>
	</g>
	<g>
		<circle class="st18" cx="8" cy="518" r="8"/>
	</g>
	<g>
		<circle class="st19" cx="8" cy="548" r="8"/>
	</g>
</g>
<g id="Right">
	<g>
		<circle class="st0" cx="20" cy="21" r="7.4"/>
		<path class="st1" d="M20,14.2c3.7,0,6.8,3,6.8,6.8s-3,6.8-6.8,6.8s-6.8-3-6.8-6.8S16.3,14.2,20,14.2 M20,13c-4.4,0-8,3.6-8,8
			s3.6,8,8,8s8-3.6,8-8S24.4,13,20,13L20,13z"/>
	</g>
	<path class="st2" d="M16.6,49.5l2.1,2.1l4.7-4.7l1.7,1.6l-4.7,4.7L18.8,55L15,51.2L16.6,49.5z"/>
	<g>
		<circle class="st2" cx="20" cy="81" r="7.4"/>
		<path class="st3" d="M20,74.2c3.7,0,6.8,3,6.8,6.8s-3,6.8-6.8,6.8s-6.8-3-6.8-6.8S16.3,74.2,20,74.2 M20,73c-4.4,0-8,3.6-8,8
			s3.6,8,8,8s8-3.6,8-8S24.4,73,20,73L20,73z"/>
	</g>
	<rect x="15" y="80" class="st3" width="10" height="2"/>
	<g>
		<path class="st3" d="M20,104.2c3.7,0,6.8,3,6.8,6.8s-3,6.8-6.8,6.8s-6.8-3-6.8-6.8S16.3,104.2,20,104.2 M20,103c-4.4,0-8,3.6-8,8
			s3.6,8,8,8s8-3.6,8-8S24.4,103,20,103L20,103z"/>
	</g>
	<text transform="matrix(1.0613 0 0 1 16 115.1206)" class="st3 st4 st5">R</text>
	<g>
		<circle class="st6" cx="20" cy="141" r="8"/>
	</g>
	<g>
		<circle class="st7" cx="20" cy="171" r="8"/>
	</g>
	<g>
		<circle class="st8" cx="20" cy="201" r="8"/>
	</g>
	<g>
		<circle class="st9" cx="20" cy="231" r="8"/>
	</g>
	<g>
		<circle class="st10" cx="20" cy="261" r="8"/>
	</g>
	<g>
		<circle class="st11" cx="20" cy="291" r="8"/>
	</g>
	<g>
		<circle class="st12" cx="20" cy="321" r="8"/>
	</g>
	<g>
		<circle class="st13" cx="20" cy="351" r="8"/>
	</g>
	<g>
		<circle class="st14" cx="20" cy="381" r="8"/>
	</g>
	<g>
		<circle class="st15" cx="20" cy="411" r="8"/>
	</g>
	<g>
		<circle class="st16" cx="20" cy="441" r="8"/>
	</g>
	<g>
		<circle class="st17" cx="20" cy="471" r="8"/>
	</g>
	<g>
		<circle class="st3" cx="20" cy="501" r="7.4"/>
		<path class="st3" d="M20,494.2c3.7,0,6.8,3,6.8,6.8s-3,6.8-6.8,6.8s-6.8-3-6.8-6.8S16.3,494.2,20,494.2 M20,493c-4.4,0-8,3.6-8,8
			s3.6,8,8,8s8-3.6,8-8S24.4,493,20,493L20,493z"/>
	</g>
	<g>
		<circle class="st18" cx="20" cy="531" r="8"/>
	</g>
	<g>
		<circle class="st19" cx="20" cy="561" r="8"/>
	</g>
</g>
</svg>
