<?xml version="1.0" encoding="utf-8"?>
<!-- Generator: Adobe Illustrator 22.0.1, SVG Export Plug-In . SVG Version: 6.00 Build 0)  -->
<svg version="1.1" id="Layer_1" xmlns="http://www.w3.org/2000/svg" xmlns:xlink="http://www.w3.org/1999/xlink" x="0px" y="0px"
	 width="16px" height="304px" viewBox="0 0 16 304" style="enable-background:new 0 0 16 304;" xml:space="preserve">
<style type="text/css">
	.st0{fill:#F7F7F7;}
	.st1{fill:#E9E9E9;}
	.st2{fill:#FFFFFF;}
	.st3{fill:#EF0000;}
	.st4{font-family:'SourceSansPro-Semibold';}
	.st5{font-size:12.1938px;}
	.st6{fill:#21AAD2;}
	.st7{fill:#652E0C;}
	.st8{fill:#8E1222;}
	.st9{fill:#12B6C5;}
	.st10{fill:#267AED;}
	.st11{fill:#46C512;}
	.st12{fill:#291065;}
	.st13{fill:#EA7208;}
	.st14{fill:#E815AF;}
	.st15{fill:#F2B603;}
	.st16{fill:#67E532;}
	.st17{fill:#A21447;}
	.st18{fill:#FA8072;}
	.st19{fill:#8B864E;}
	.st20{display:none;}
</style>
<g id="Layer_2_1_">
	<g>
		<circle class="st0" cx="8" cy="8" r="7.4"/>
		<path class="st1" d="M8,1.2c3.7,0,6.8,3,6.8,6.8s-3,6.8-6.8,6.8s-6.8-3-6.8-6.8S4.3,1.2,8,1.2 M8,0C3.6,0,0,3.6,0,8s3.6,8,8,8
			s8-3.6,8-8S12.4,0,8,0L8,0z"/>
	</g>
	<g>
		<circle class="st2" cx="8" cy="40" r="7.4"/>
		<path class="st3" d="M8,33.2c3.7,0,6.8,3,6.8,6.8s-3,6.8-6.8,6.8s-6.8-3-6.8-6.8S4.3,33.2,8,33.2 M8,32c-4.4,0-8,3.6-8,8
			s3.6,8,8,8s8-3.6,8-8S12.4,32,8,32L8,32z"/>
	</g>
	<rect x="3" y="39" class="st3" width="10" height="2"/>
	<g>
		<path class="st3" d="M8,49.2c3.7,0,6.8,3,6.8,6.8s-3,6.8-6.8,6.8s-6.8-3-6.8-6.8S4.3,49.2,8,49.2 M8,48c-4.4,0-8,3.6-8,8
			s3.6,8,8,8s8-3.6,8-8S12.4,48,8,48L8,48z"/>
	</g>
	<text transform="matrix(1.0613 0 0 1 4.0005 60.1206)" class="st3 st4 st5">R</text>
	<path class="st2" d="M4.6,22.5l2.1,2.1l4.7-4.7l1.7,1.6l-4.7,4.7L6.8,28L3,24.2L4.6,22.5z"/>
	<g>
		<circle class="st6" cx="8" cy="72" r="8"/>
	</g>
	<g>
		<circle class="st7" cx="8" cy="88" r="8"/>
	</g>
	<g>
		<circle class="st8" cx="8" cy="104" r="8"/>
	</g>
	<g>
		<circle class="st9" cx="8" cy="120" r="8"/>
	</g>
	<g>
		<circle class="st10" cx="8" cy="136" r="8"/>
	</g>
	<g>
		<circle class="st11" cx="8" cy="152" r="8"/>
	</g>
	<g>
		<circle class="st12" cx="8" cy="168" r="8"/>
	</g>
	<g>
		<circle class="st13" cx="8" cy="184" r="8"/>
	</g>
	<g>
		<circle class="st14" cx="8" cy="200" r="8"/>
	</g>
	<g>
		<circle class="st15" cx="8" cy="216" r="8"/>
	</g>
	<g>
		<circle class="st16" cx="8" cy="232" r="8"/>
	</g>
	<g>
		<circle class="st17" cx="8" cy="248" r="8"/>
	</g>
	<g>
		<circle class="st18" cx="8" cy="280" r="8"/>
	</g>
	<g>
		<circle class="st19" cx="8" cy="296" r="8"/>
	</g>
	<g>
		<circle class="st3" cx="8" cy="264" r="7.4"/>
		<path class="st3" d="M8,257.2c3.7,0,6.8,3,6.8,6.8s-3,6.8-6.8,6.8s-6.8-3-6.8-6.8S4.3,257.2,8,257.2 M8,256c-4.4,0-8,3.6-8,8
			s3.6,8,8,8s8-3.6,8-8S12.4,256,8,256L8,256z"/>
	</g>
</g>
<g id="Layer_1_1_" class="st20">
</g>
</svg>
