<?xml version="1.0" encoding="utf-8"?>
<!-- Generator: Adobe Illustrator 22.0.1, SVG Export Plug-In . SVG Version: 6.00 Build 0)  -->
<svg version="1.1" id="Capa_1" xmlns="http://www.w3.org/2000/svg" xmlns:xlink="http://www.w3.org/1999/xlink" x="0px" y="0px"
	 viewBox="0 0 180 180" style="enable-background:new 0 0 180 180;" xml:space="preserve">
<style type="text/css">
	.st0{fill:#00398C;}
</style>
<path class="st0" d="M90,0C40.3,0,0,40.3,0,90s40.3,90,90,90s90-40.3,90-90S139.7,0,90,0z M123.8,85.4l-11.3-11.3L96.7,90l15.8,15.8
	l11.3-11.3l0,29.3H94.6l11.3-11.3L90,96.7l-15.8,15.8l11.3,11.3H56.2l0-29.3l11.3,11.3L83.3,90L67.4,74.2L56.2,85.4V56.2l29.3,0
	L74.2,67.4L90,83.3l15.8-15.8L94.6,56.2h29.3L123.8,85.4z"/>
</svg>
