<?xml version="1.0" encoding="UTF-8"?>
<svg width="175px" height="43px" viewBox="0 0 175 43" version="1.1" xmlns="http://www.w3.org/2000/svg" xmlns:xlink="http://www.w3.org/1999/xlink">
    <!-- Generator: Sketch Beta 46.2 (44496) - http://www.bohemiancoding.com/sketch -->
    <title>Page 1</title>
    <desc>Created with Sketch Beta.</desc>
    <defs>
        <polygon id="path-1" points="2.71050543e-20 0.9124 2.71050543e-20 10.0994 14.8906 10.0994 14.8906 0.9124 0 0.9124"></polygon>
    </defs>
    <g id="Symbols" stroke="none" stroke-width="1" fill="none" fill-rule="evenodd">
        <g id="Logotype">
            <g id="Page-1">
                <path d="M166.7129,27.9039 L169.5519,27.9039 L168.1319,23.7209 L166.7129,27.9039 Z M173.9989,32.0869 C174.0939,32.3139 174.0939,32.6159 173.6779,32.6159 L171.6899,32.6159 C171.2739,32.6159 171.1229,32.5029 170.9709,32.0489 L170.4409,30.5539 L165.8049,30.5539 L165.2749,32.0489 C165.1229,32.5029 164.9719,32.6159 164.5549,32.6159 L162.5679,32.6159 C162.1519,32.6159 162.1519,32.3139 162.2459,32.0869 L166.4479,20.7499 C166.5989,20.3519 166.8069,20.1629 167.2239,20.1629 L169.0409,20.1629 C169.4569,20.1629 169.6469,20.3519 169.8169,20.7499 L173.9989,32.0869 Z M161.7939,20.1629 L159.2389,20.1629 C158.8039,20.1629 158.6709,20.2009 158.2929,20.6169 L154.3749,24.9329 L154.3749,20.7119 C154.3749,20.2769 154.1669,20.1629 153.8449,20.1629 L151.9709,20.1629 C151.6119,20.1629 151.4229,20.2769 151.4229,20.7119 L151.4229,32.0679 C151.4229,32.5029 151.6119,32.6159 151.9709,32.6159 L153.8449,32.6159 C154.1669,32.6159 154.3749,32.5029 154.3749,32.0679 L154.3749,28.6989 L155.5479,27.4689 C156.5709,29.1719 158.2549,32.0109 158.2549,32.0109 C158.5009,32.4079 158.7469,32.6159 159.2009,32.6159 L161.5099,32.6159 C161.8699,32.6159 161.9449,32.2569 161.7939,32.0109 L157.7249,25.3109 L161.9829,20.6929 C162.1539,20.5229 162.1539,20.1629 161.7939,20.1629 L161.7939,20.1629 Z M149.5319,32.0079 L146.8629,28.1209 C148.0369,27.7239 149.4939,26.3389 149.4939,24.3489 C149.4939,23.1339 149.0959,22.0559 148.3959,21.3739 C147.6019,20.5799 146.6929,20.1629 144.6299,20.1629 L139.8609,20.1629 C139.4259,20.1629 139.3309,20.3709 139.3309,20.7119 L139.3309,32.0639 C139.3309,32.5029 139.5199,32.6159 139.8609,32.6159 L141.7339,32.6159 C142.0749,32.6159 142.2829,32.5029 142.2829,32.0639 L142.2829,22.8129 L144.8009,22.8129 C145.7849,22.8129 146.5419,23.4379 146.5419,24.4249 C146.5419,25.3139 145.6709,25.9609 144.7439,25.9609 L144.3649,25.9609 C143.9299,25.9609 143.8159,26.1689 143.8159,26.5099 L143.8159,28.0269 C143.8159,28.5569 143.8539,28.7649 144.0249,28.9919 L146.0679,32.0449 C146.3329,32.4459 146.5609,32.6159 147.0149,32.6159 L149.2479,32.6159 C149.6079,32.6159 149.7019,32.2729 149.5319,32.0079 L149.5319,32.0079 Z M130.8729,27.9039 L132.2919,23.7209 L133.7119,27.9039 L130.8729,27.9039 Z M138.1589,32.0869 L133.9769,20.7499 C133.8059,20.3519 133.6169,20.1629 133.2009,20.1629 L131.3839,20.1629 C130.9679,20.1629 130.7589,20.3519 130.6079,20.7499 L126.4059,32.0869 C126.3119,32.3139 126.3119,32.6159 126.7279,32.6159 L128.7149,32.6159 C129.1319,32.6159 129.2829,32.5029 129.4349,32.0489 L129.9639,30.5539 L134.6009,30.5539 L135.1309,32.0489 C135.2829,32.5029 135.4339,32.6159 135.8509,32.6159 L137.8379,32.6159 C138.2539,32.6159 138.2539,32.3139 138.1589,32.0869 L138.1589,32.0869 Z M124.6099,20.1629 L122.7939,20.1629 C122.1689,20.1629 122.0739,20.5799 121.9419,20.8069 L119.3299,25.4559 L116.7369,20.8069 C116.5859,20.5799 116.5099,20.1629 115.8669,20.1629 L113.9929,20.1629 C113.5569,20.1629 113.4439,20.3709 113.4439,20.7119 L113.4439,32.0679 C113.4439,32.5029 113.6519,32.6159 113.9929,32.6159 L115.8669,32.6159 C116.2069,32.6159 116.4149,32.5029 116.4149,32.0679 L116.4149,25.6609 L118.3269,28.9699 C118.4209,29.1219 118.5729,29.3639 118.8569,29.3639 L119.8029,29.3639 C120.0869,29.3639 120.2569,29.1219 120.3519,28.9699 L122.2449,25.6609 L122.2449,32.0679 C122.2449,32.5029 122.4529,32.6159 122.7939,32.6159 L124.6099,32.6159 C124.9509,32.6159 125.1589,32.5029 125.1589,32.0679 L125.1589,20.7119 C125.1589,20.3709 125.0459,20.1629 124.6099,20.1629 L124.6099,20.1629 Z M104.9859,27.9039 L106.4059,23.7209 L107.8249,27.9039 L104.9859,27.9039 Z M112.2729,32.0869 L108.0899,20.7499 C107.9199,20.3519 107.7299,20.1629 107.3139,20.1629 L105.4969,20.1629 C105.0809,20.1629 104.8719,20.3519 104.7209,20.7499 L100.5199,32.0869 C100.4249,32.3139 100.4249,32.6159 100.8409,32.6159 L102.8289,32.6159 C103.2449,32.6159 103.3959,32.5029 103.5479,32.0489 L104.0779,30.5539 L108.7139,30.5539 L109.2449,32.0489 C109.3959,32.5029 109.5469,32.6159 109.9639,32.6159 L111.9509,32.6159 C112.3669,32.6159 112.3669,32.3139 112.2729,32.0869 L112.2729,32.0869 Z M99.6699,32.0079 L97.0009,28.1209 C98.1749,27.7239 99.6319,26.3389 99.6319,24.3489 C99.6319,23.1339 99.2349,22.0559 98.5339,21.3739 C97.7389,20.5799 96.8309,20.1629 94.7679,20.1629 L89.9979,20.1629 C89.5629,20.1629 89.4689,20.3709 89.4689,20.7119 L89.4689,32.0639 C89.4689,32.5029 89.6579,32.6159 89.9979,32.6159 L91.8719,32.6159 C92.2129,32.6159 92.4209,32.5029 92.4209,32.0639 L92.4209,22.8129 L94.9379,22.8129 C95.9219,22.8129 96.6789,23.4379 96.6789,24.4249 C96.6789,25.3139 95.8089,25.9609 94.8809,25.9609 L94.5029,25.9609 C94.0679,25.9609 93.9539,26.1689 93.9539,26.5099 L93.9539,28.0269 C93.9539,28.5569 93.9919,28.7649 94.1619,28.9919 L96.2059,32.0449 C96.4709,32.4459 96.6979,32.6159 97.1529,32.6159 L99.3859,32.6159 C99.7449,32.6159 99.8399,32.2729 99.6699,32.0079 L99.6699,32.0079 Z M87.5399,20.1629 L78.7579,20.1629 C78.3229,20.1629 78.2099,20.3709 78.2099,20.7119 L78.2099,22.2829 C78.2099,22.6229 78.3229,22.8319 78.7579,22.8319 L81.6729,22.8319 L81.6729,32.0679 C81.6729,32.5029 81.8809,32.6159 82.2219,32.6159 L84.0959,32.6159 C84.4359,32.6159 84.6439,32.5029 84.6439,32.0679 L84.6439,22.8319 L87.5399,22.8319 C87.9749,22.8319 88.0889,22.6229 88.0889,22.2829 L88.0889,20.7119 C88.0889,20.3709 87.9749,20.1629 87.5399,20.1629 L87.5399,20.1629 Z M76.2809,20.1629 L74.4639,20.1629 C74.1239,20.1629 73.9149,20.2769 73.9149,20.7119 L73.9149,27.2789 L69.9029,20.8069 C69.6569,20.4279 69.5239,20.1629 69.0509,20.1629 L67.2719,20.1629 C66.8369,20.1629 66.7229,20.3709 66.7229,20.7119 L66.7229,32.0679 C66.7229,32.5029 66.9319,32.6159 67.2719,32.6159 L69.1459,32.6159 C69.4869,32.6159 69.6949,32.5029 69.6949,32.0679 L69.6949,25.4809 L73.7069,31.9729 C73.9529,32.3519 74.0859,32.6159 74.5589,32.6159 L76.2809,32.6159 C76.7159,32.6159 76.8299,32.4079 76.8299,32.0679 L76.8299,20.7119 C76.8299,20.2769 76.6219,20.1629 76.2809,20.1629 L76.2809,20.1629 Z M61.8419,28.3579 C61.8419,29.5689 60.9719,30.2699 59.7229,30.2699 C58.4919,30.2699 57.6219,29.5689 57.6219,28.3579 L57.6219,24.4209 C57.6219,23.2099 58.4919,22.5099 59.7229,22.5099 C60.9719,22.5099 61.8419,23.2099 61.8419,24.4209 L61.8419,28.3579 Z M64.8139,24.1569 C64.8139,21.1659 61.9749,19.8789 59.7229,19.8789 C57.4709,19.8789 54.6689,21.1659 54.6689,24.1569 L54.6689,28.6229 C54.6689,31.6129 57.4709,32.8999 59.7229,32.8999 C61.9749,32.8999 64.8139,31.6129 64.8139,28.6229 L64.8139,24.1569 Z M53.5359,20.1629 L50.9809,20.1629 C50.5459,20.1629 50.4129,20.2009 50.0339,20.6169 L46.1169,24.9329 L46.1169,20.7119 C46.1169,20.2769 45.9089,20.1629 45.5869,20.1629 L43.7129,20.1629 C43.3539,20.1629 43.1639,20.2769 43.1639,20.7119 L43.1639,32.0679 C43.1639,32.5029 43.3539,32.6159 43.7129,32.6159 L45.5869,32.6159 C45.9089,32.6159 46.1169,32.5029 46.1169,32.0679 L46.1169,28.6989 L47.2899,27.4689 C48.3119,29.1719 49.9969,32.0109 49.9969,32.0109 C50.2429,32.4079 50.4889,32.6159 50.9429,32.6159 L53.2519,32.6159 C53.6119,32.6159 53.6869,32.2569 53.5359,32.0109 L49.4669,25.3109 L53.7249,20.6929 C53.8959,20.5229 53.8959,20.1629 53.5359,20.1629 L53.5359,20.1629 Z" id="Fill-1" fill="#FFC800"></path>
                <path d="M169.5098,16.1685 L165.6508,16.1685 L165.6508,14.5715 L168.8928,14.5715 C169.1708,14.5715 169.2438,14.4385 169.2438,14.2205 L169.2438,13.2775 C169.2438,13.0595 169.1708,12.9265 168.8928,12.9265 L165.6508,12.9265 L165.6508,11.6075 L169.3038,11.6075 C169.5828,11.6075 169.6548,11.4745 169.6548,11.2565 L169.6548,10.2525 C169.6548,10.0355 169.5828,9.9015 169.3038,9.9015 L164.0898,9.9015 C163.8118,9.9015 163.7388,10.0355 163.7388,10.2525 L163.7388,17.5115 C163.7388,17.7295 163.8118,17.8625 164.0898,17.8625 L169.5098,17.8625 C169.7878,17.8625 169.8608,17.7295 169.8608,17.5115 L169.8608,16.5195 C169.8608,16.3015 169.7878,16.1685 169.5098,16.1685 L169.5098,16.1685 Z M160.2908,14.9705 C160.2908,15.7455 159.7348,16.1805 158.9358,16.1805 L157.7748,16.1805 L157.7748,11.5835 L158.9358,11.5835 C159.7348,11.5835 160.2908,12.0315 160.2908,12.7935 L160.2908,14.9705 Z M158.9358,9.9015 L156.2268,9.9015 C155.9488,9.9015 155.8758,10.0355 155.8758,10.2525 L155.8758,17.5115 C155.8758,17.7295 155.9488,17.8625 156.2268,17.8625 L158.9358,17.8625 C160.3758,17.8625 162.1908,17.0395 162.1908,15.1405 L162.1908,12.6245 C162.1908,10.7365 160.3758,9.9015 158.9358,9.9015 L158.9358,9.9015 Z M153.9398,15.8175 L152.5968,15.8175 C152.3798,15.8175 152.2468,15.8905 152.2468,16.1685 L152.2468,17.5115 C152.2468,17.7895 152.3798,17.8625 152.5968,17.8625 L153.9398,17.8625 C154.1578,17.8625 154.2908,17.7895 154.2908,17.5115 L154.2908,16.1685 C154.2908,15.8905 154.1578,15.8175 153.9398,15.8175 L153.9398,15.8175 Z" id="Fill-3" fill="#BD22B3"></path>
                <path d="M4.0793,14.8867 L30.6973,15.1227 L35.1653,40.5297 L34.3053,41.8127 C34.0583,40.9277 33.3433,40.2777 32.2803,40.2777 C31.2173,40.2777 30.1773,41.2187 30.1773,42.3807 L27.5563,42.3807 C27.5563,41.2187 26.6153,40.2777 25.4533,40.2777 C24.2913,40.2777 23.3503,41.2187 23.3503,42.3807 L20.7293,42.3807 C20.7293,41.2187 19.7873,40.2777 18.6263,40.2777 C17.4643,40.2777 16.5233,41.2187 16.5233,42.3807 L13.9023,42.3807 C13.9023,41.2187 12.9603,40.2777 11.7993,40.2777 C10.6373,40.2777 9.6963,41.2187 9.6963,42.3807 L7.0753,42.3807 C7.0743,41.2197 6.1323,40.2797 4.9723,40.2797 C4.0273,40.2797 3.2283,40.9027 2.9623,41.7597 L1.2693,41.1107 L4.0793,14.8867 Z" id="Fill-5" fill="#006ADB"></path>
                <polygon id="Fill-7" fill="#800C72" points="6.2382 30.3465 11.8612 19.0405 6.5202 13.5245 0.0002 11.1405 0.0002 13.8955 0.7012 15.8465 4.0792 19.5075 5.9302 21.1275"></polygon>
                <path d="M9.5142,28.7246 L4.0792,33.7646 L4.0632,37.5786 C8.8582,34.8416 14.4082,31.3796 18.6262,28.5106 C23.2602,31.6626 28.3222,34.8006 33.1892,37.5786 L33.1722,33.7646 L27.7382,28.7246 L18.6262,25.1816 L9.5142,28.7246 Z" id="Fill-9" fill="#003A8C"></path>
                <path d="M6.2382,30.3465 L7.2212,20.4415 C4.3682,18.0165 2.3222,16.2205 0.0002,13.8955 L0.0002,42.3805 L2.8692,42.3805 C2.8692,42.1715 2.9002,41.9595 2.9632,41.7595 L4.2832,37.1125 L5.0972,34.2465 L6.7492,32.0815 L6.2382,30.3465 Z" id="Fill-11" fill="#BD22B3"></path>
                <g id="Group-15" transform="translate(0.000000, 9.380700)">
                    <mask id="mask-2" fill="white">
                        <use xlink:href="#path-1"></use>
                    </mask>
                    <g id="Clip-14"></g>
                    <path d="M13.5646,0.9124 C9.0636,1.0334 4.5466,1.3154 -0.0004,1.7594 C3.0346,4.5684 6.3226,7.3534 9.8646,10.0994 L14.8906,6.4604 L13.5646,0.9124 Z" id="Fill-13" fill="#FFC800" mask="url(#mask-2)"></path>
                </g>
                <polygon id="Fill-16" fill="#800C72" points="31.0138 30.3465 25.3908 19.0405 30.7318 13.5245 37.2518 11.1405 37.2518 13.8955 36.9058 15.0685 33.1728 19.5075 31.3218 21.1275"></polygon>
                <path d="M31.0138,30.3465 L30.0308,20.4415 C32.8838,18.0165 34.9298,16.2205 37.2518,13.8955 L37.2518,42.3805 L34.3838,42.3805 C34.3828,42.1715 34.3518,41.9595 34.2898,41.7595 L32.9688,37.1125 L32.1548,34.2465 L30.4628,31.9735 L31.0138,30.3465 Z" id="Fill-18" fill="#BD22B3"></path>
                <path d="M23.6741,10.2948 L23.6741,15.8408 L27.3691,19.4808 C30.9241,16.7288 34.2171,13.9448 37.2521,11.1468 C32.6861,10.6998 28.1661,10.4168 23.6741,10.2948" id="Fill-20" fill="#FFF200"></path>
                <path d="M18.6259,-7.10542736e-15 C20.3869,3.206 22.0739,6.63 23.6869,10.293 C24.3229,11.737 24.9469,13.217 25.5589,14.736 C26.1789,16.273 26.7879,17.853 27.3859,19.48 C29.0619,24.032 30.6539,28.943 32.1539,34.246 C27.3589,31.509 22.8439,28.69 18.6259,25.821 L16.3169,14.721 L18.6259,-7.10542736e-15 Z" id="Fill-22" fill="#FFC800"></path>
                <path d="M18.6259,-7.10542736e-15 C16.8649,3.206 15.1779,6.63 13.5649,10.293 C12.9289,11.737 12.3049,13.217 11.6929,14.736 C11.0729,16.273 10.4639,17.853 9.8649,19.48 C8.1899,24.032 6.5979,28.943 5.0969,34.246 C9.8919,31.509 14.4079,28.69 18.6259,25.821 L18.6259,-7.10542736e-15 Z" id="Fill-24" fill="#FFF200"></path>
            </g>
        </g>
    </g>
</svg>