<?xml version="1.0" encoding="utf-8"?>
<!-- Generator: Adobe Illustrator 18.0.0, SVG Export Plug-In . SVG Version: 6.00 Build 0)  -->
<!DOCTYPE svg PUBLIC "-//W3C//DTD SVG 1.1//EN" "http://www.w3.org/Graphics/SVG/1.1/DTD/svg11.dtd">
<svg version="1.1" id="Слой_1" xmlns="http://www.w3.org/2000/svg" xmlns:xlink="http://www.w3.org/1999/xlink" x="0px" y="0px"
	 viewBox="0 0 175 43" enable-background="new 0 0 175 43" xml:space="preserve">
<title>Page 1</title>
<desc>Created with Sketch Beta.</desc>
<g id="Symbols">
	<g id="Logotype">
		<g id="Page-1">
			<path id="Fill-1" fill="#FFFFFF" d="M166.7,27.9h2.8l-1.4-4.2L166.7,27.9z M174,32.1c0.1,0.2,0.1,0.5-0.3,0.5h-2
				c-0.4,0-0.6-0.1-0.7-0.6l-0.5-1.5h-4.6l-0.5,1.5c-0.2,0.5-0.3,0.6-0.7,0.6h-2c-0.4,0-0.4-0.3-0.3-0.5l4.2-11.3
				c0.2-0.4,0.4-0.6,0.8-0.6h1.8c0.4,0,0.6,0.2,0.8,0.6L174,32.1z M161.8,20.2h-2.6c-0.4,0-0.6,0-0.9,0.5l-3.9,4.3v-4.2
				c0-0.4-0.2-0.5-0.5-0.5H152c-0.4,0-0.5,0.1-0.5,0.5v11.4c0,0.4,0.2,0.5,0.5,0.5h1.9c0.3,0,0.5-0.1,0.5-0.5v-3.4l1.2-1.2
				c1,1.7,2.7,4.5,2.7,4.5c0.2,0.4,0.5,0.6,0.9,0.6h2.3c0.4,0,0.4-0.4,0.3-0.6l-4.1-6.7l4.3-4.6C162.2,20.5,162.2,20.2,161.8,20.2
				L161.8,20.2z M149.5,32l-2.7-3.9c1.2-0.4,2.6-1.8,2.6-3.8c0-1.2-0.4-2.3-1.1-3c-0.8-0.8-1.7-1.2-3.8-1.2h-4.8
				c-0.4,0-0.5,0.2-0.5,0.5v11.4c0,0.4,0.2,0.6,0.5,0.6h1.9c0.3,0,0.5-0.1,0.5-0.6v-9.3h2.5c1,0,1.7,0.6,1.7,1.6
				c0,0.9-0.9,1.5-1.8,1.5h-0.4c-0.4,0-0.5,0.2-0.5,0.5V28c0,0.5,0,0.7,0.2,1l2,3.1c0.3,0.4,0.5,0.6,0.9,0.6h2.2
				C149.6,32.6,149.7,32.3,149.5,32L149.5,32z M130.9,27.9l1.4-4.2l1.4,4.2H130.9z M138.2,32.1L134,20.7c-0.2-0.4-0.4-0.6-0.8-0.6
				h-1.8c-0.4,0-0.6,0.2-0.8,0.6l-4.2,11.3c-0.1,0.2-0.1,0.5,0.3,0.5h2c0.4,0,0.6-0.1,0.7-0.6l0.5-1.5h4.6l0.5,1.5
				c0.2,0.5,0.3,0.6,0.7,0.6h2C138.3,32.6,138.3,32.3,138.2,32.1L138.2,32.1z M124.6,20.2h-1.8c-0.6,0-0.7,0.4-0.9,0.6l-2.6,4.6
				l-2.6-4.6c-0.2-0.2-0.2-0.6-0.9-0.6H114c-0.4,0-0.5,0.2-0.5,0.5v11.4c0,0.4,0.2,0.5,0.5,0.5h1.9c0.3,0,0.5-0.1,0.5-0.5v-6.4
				l1.9,3.3c0.1,0.2,0.2,0.4,0.5,0.4h0.9c0.3,0,0.5-0.2,0.5-0.4l1.9-3.3v6.4c0,0.4,0.2,0.5,0.5,0.5h1.8c0.3,0,0.5-0.1,0.5-0.5V20.7
				C125.2,20.4,125,20.2,124.6,20.2L124.6,20.2z M105,27.9l1.4-4.2l1.4,4.2H105z M112.3,32.1l-4.2-11.3c-0.2-0.4-0.4-0.6-0.8-0.6
				h-1.8c-0.4,0-0.6,0.2-0.8,0.6l-4.2,11.3c-0.1,0.2-0.1,0.5,0.3,0.5h2c0.4,0,0.6-0.1,0.7-0.6l0.5-1.5h4.6l0.5,1.5
				c0.2,0.5,0.3,0.6,0.7,0.6h2C112.4,32.6,112.4,32.3,112.3,32.1L112.3,32.1z M99.7,32L97,28.1c1.2-0.4,2.6-1.8,2.6-3.8
				c0-1.2-0.4-2.3-1.1-3c-0.8-0.8-1.7-1.2-3.8-1.2H90c-0.4,0-0.5,0.2-0.5,0.5v11.4c0,0.4,0.2,0.6,0.5,0.6h1.9c0.3,0,0.5-0.1,0.5-0.6
				v-9.3h2.5c1,0,1.7,0.6,1.7,1.6c0,0.9-0.9,1.5-1.8,1.5h-0.4c-0.4,0-0.5,0.2-0.5,0.5V28c0,0.5,0,0.7,0.2,1l2,3.1
				c0.3,0.4,0.5,0.6,0.9,0.6h2.2C99.7,32.6,99.8,32.3,99.7,32L99.7,32z M87.5,20.2h-8.8c-0.4,0-0.5,0.2-0.5,0.5v1.6
				c0,0.3,0.1,0.5,0.5,0.5h2.9v9.2c0,0.4,0.2,0.5,0.5,0.5h1.9c0.3,0,0.5-0.1,0.5-0.5v-9.2h2.9c0.4,0,0.5-0.2,0.5-0.5v-1.6
				C88.1,20.4,88,20.2,87.5,20.2L87.5,20.2z M76.3,20.2h-1.8c-0.3,0-0.5,0.1-0.5,0.5v6.6l-4-6.5c-0.2-0.4-0.4-0.6-0.9-0.6h-1.8
				c-0.4,0-0.5,0.2-0.5,0.5v11.4c0,0.4,0.2,0.5,0.5,0.5h1.9c0.3,0,0.5-0.1,0.5-0.5v-6.6l4,6.5c0.2,0.4,0.4,0.6,0.9,0.6h1.7
				c0.4,0,0.5-0.2,0.5-0.5V20.7C76.8,20.3,76.6,20.2,76.3,20.2L76.3,20.2z M61.8,28.4c0,1.2-0.9,1.9-2.1,1.9c-1.2,0-2.1-0.7-2.1-1.9
				v-3.9c0-1.2,0.9-1.9,2.1-1.9c1.2,0,2.1,0.7,2.1,1.9V28.4z M64.8,24.2c0-3-2.8-4.3-5.1-4.3s-5.1,1.3-5.1,4.3v4.5
				c0,3,2.8,4.3,5.1,4.3s5.1-1.3,5.1-4.3V24.2z M53.5,20.2H51c-0.4,0-0.6,0-0.9,0.5l-3.9,4.3v-4.2c0-0.4-0.2-0.5-0.5-0.5h-1.9
				c-0.4,0-0.5,0.1-0.5,0.5v11.4c0,0.4,0.2,0.5,0.5,0.5h1.9c0.3,0,0.5-0.1,0.5-0.5v-3.4l1.2-1.2c1,1.7,2.7,4.5,2.7,4.5
				c0.2,0.4,0.5,0.6,0.9,0.6h2.3c0.4,0,0.4-0.4,0.3-0.6l-4.1-6.7l4.3-4.6C53.9,20.5,53.9,20.2,53.5,20.2L53.5,20.2z"/>
			<path id="Fill-3" fill="#FFFFFF" d="M169.5,16.2h-3.9v-1.6h3.2c0.3,0,0.4-0.1,0.4-0.4v-0.9c0-0.2-0.1-0.4-0.4-0.4h-3.2v-1.3h3.7
				c0.3,0,0.4-0.1,0.4-0.4v-1c0-0.2-0.1-0.4-0.4-0.4h-5.2c-0.3,0-0.4,0.1-0.4,0.4v7.3c0,0.2,0.1,0.4,0.4,0.4h5.4
				c0.3,0,0.4-0.1,0.4-0.4v-1C169.9,16.3,169.8,16.2,169.5,16.2L169.5,16.2z M160.3,15c0,0.8-0.6,1.2-1.4,1.2h-1.2v-4.6h1.2
				c0.8,0,1.4,0.4,1.4,1.2V15z M158.9,9.9h-2.7c-0.3,0-0.4,0.1-0.4,0.4v7.3c0,0.2,0.1,0.4,0.4,0.4h2.7c1.4,0,3.3-0.8,3.3-2.7v-2.5
				C162.2,10.7,160.4,9.9,158.9,9.9L158.9,9.9z M153.9,15.8h-1.3c-0.2,0-0.4,0.1-0.4,0.4v1.3c0,0.3,0.1,0.4,0.4,0.4h1.3
				c0.2,0,0.4-0.1,0.4-0.4v-1.3C154.3,15.9,154.2,15.8,153.9,15.8L153.9,15.8z"/>
			<path fill="#FFFFFF" d="M31.3,21.1L31,30.3L25.4,19l3.8-3.9L7.9,14.9l4,4.1L6.2,30.3l-0.3-9.2l-1.9-1.6L3.6,19L1.3,41.1L3,41.8
				c0.3-0.9,1.1-1.5,2-1.5c1.2,0,2.1,0.9,2.1,2.1h2.6c0-1.2,0.9-2.1,2.1-2.1c1.2,0,2.1,0.9,2.1,2.1h2.6c0-1.2,0.9-2.1,2.1-2.1
				c1.2,0,2.1,0.9,2.1,2.1h2.6c0-1.2,0.9-2.1,2.1-2.1s2.1,0.9,2.1,2.1h2.6c0-1.2,1-2.1,2.1-2.1c1.1,0,1.8,0.6,2,1.5l0.9-1.3
				l-3.5-19.7L31.3,21.1z M18.6,28.5c-4.2,2.9-9.8,6.3-14.6,9.1l0-3.8l5.4-5l9.1-3.5l9.1,3.5l5.4,5l0,3.8
				C28.3,34.8,23.3,31.7,18.6,28.5z"/>
			<path id="Fill-11" fill="#FFFFFF" d="M6.2,30.3l1-9.9C4.4,18,2.3,16.2,0,13.9v28.5h2.9c0-0.2,0-0.4,0.1-0.6l1.3-4.6l0.8-2.9
				l1.7-2.2L6.2,30.3z"/>
			<g id="Group-15" transform="translate(0.000000, 9.380700)">
				<g id="Clip-14">
				</g>
				<defs>
					<filter id="Adobe_OpacityMaskFilter" filterUnits="userSpaceOnUse" x="0" y="0.9" width="14.9" height="9.2">
						<feColorMatrix  type="matrix" values="1 0 0 0 0  0 1 0 0 0  0 0 1 0 0  0 0 0 1 0"/>
					</filter>
				</defs>
				<mask maskUnits="userSpaceOnUse" x="0" y="0.9" width="14.9" height="9.2" id="mask-2">
					<g filter="url(#Adobe_OpacityMaskFilter)">
						<polygon id="path-1" fill="#FFFFFF" points="0,0.9 0,10.1 14.9,10.1 14.9,0.9 						"/>
					</g>
				</mask>
				<path id="Fill-13" mask="url(#mask-2)" fill="#FFFFFF" d="M13.6,0.9C9.1,1,4.5,1.3,0,1.8c3,2.8,6.3,5.6,9.9,8.3l5-3.6L13.6,0.9z
					"/>
			</g>
			<path id="Fill-18" fill="#FFFFFF" d="M31,30.3l-1-9.9c2.9-2.4,4.9-4.2,7.2-6.5v28.5h-2.9c0-0.2,0-0.4-0.1-0.6L33,37.1l-0.8-2.9
				L30.5,32L31,30.3z"/>
			<path id="Fill-20" fill="#FFFFFF" d="M23.7,10.3v5.5l3.7,3.6c3.6-2.8,6.8-5.5,9.9-8.3C32.7,10.7,28.2,10.4,23.7,10.3"/>
			<path id="Fill-22" fill="#FFFFFF" d="M18.6,0c1.8,3.2,3.4,6.6,5.1,10.3c0.6,1.4,1.3,2.9,1.9,4.4c0.6,1.5,1.2,3.1,1.8,4.7
				c1.7,4.6,3.3,9.5,4.8,14.8c-4.8-2.7-9.3-5.6-13.5-8.4l-2.3-11.1L18.6,0z"/>
			<path id="Fill-24" fill="#FFFFFF" d="M18.6,0c-1.8,3.2-3.4,6.6-5.1,10.3c-0.6,1.4-1.3,2.9-1.9,4.4c-0.6,1.5-1.2,3.1-1.8,4.7
				C8.2,24,6.6,28.9,5.1,34.2c4.8-2.7,9.3-5.6,13.5-8.4V0z"/>
		</g>
	</g>
</g>
</svg>
